%TF.GenerationSoftware,KiCad,Pcbnew,(6.0.7)*%
%TF.CreationDate,2023-06-10T06:11:36-04:00*%
%TF.ProjectId,atmega328pb_breakout,61746d65-6761-4333-9238-70625f627265,rev?*%
%TF.SameCoordinates,Original*%
%TF.FileFunction,Copper,L2,Bot*%
%TF.FilePolarity,Positive*%
%FSLAX46Y46*%
G04 Gerber Fmt 4.6, Leading zero omitted, Abs format (unit mm)*
G04 Created by KiCad (PCBNEW (6.0.7)) date 2023-06-10 06:11:36*
%MOMM*%
%LPD*%
G01*
G04 APERTURE LIST*
%TA.AperFunction,ComponentPad*%
%ADD10C,2.000000*%
%TD*%
%TA.AperFunction,ComponentPad*%
%ADD11R,1.700000X1.700000*%
%TD*%
%TA.AperFunction,ComponentPad*%
%ADD12O,1.700000X1.700000*%
%TD*%
%TA.AperFunction,ViaPad*%
%ADD13C,0.800000*%
%TD*%
%TA.AperFunction,Conductor*%
%ADD14C,0.250000*%
%TD*%
%TA.AperFunction,Conductor*%
%ADD15C,0.400000*%
%TD*%
G04 APERTURE END LIST*
D10*
%TO.P,SW1,1,1*%
%TO.N,~{RST}*%
X111506000Y-45720000D03*
X111506000Y-52220000D03*
%TO.P,SW1,2,2*%
%TO.N,GND*%
X116006000Y-45720000D03*
X116006000Y-52220000D03*
%TD*%
D11*
%TO.P,J4,1,Pin_1*%
%TO.N,GND*%
X104140000Y-83820000D03*
D12*
%TO.P,J4,2,Pin_2*%
X106680000Y-83820000D03*
%TO.P,J4,3,Pin_3*%
%TO.N,VDD*%
X109220000Y-83820000D03*
%TO.P,J4,4,Pin_4*%
%TO.N,D00*%
X111760000Y-83820000D03*
%TO.P,J4,5,Pin_5*%
%TO.N,D01*%
X114300000Y-83820000D03*
%TO.P,J4,6,Pin_6*%
%TO.N,D{slash}R*%
X116840000Y-83820000D03*
%TD*%
D11*
%TO.P,J3,1,Pin_1*%
%TO.N,GND*%
X119380000Y-81280000D03*
D12*
%TO.P,J3,2,Pin_2*%
%TO.N,~{RST}*%
X119380000Y-78740000D03*
%TO.P,J3,3,Pin_3*%
%TO.N,D00*%
X119380000Y-76200000D03*
%TO.P,J3,4,Pin_4*%
%TO.N,D01*%
X119380000Y-73660000D03*
%TO.P,J3,5,Pin_5*%
%TO.N,D02*%
X119380000Y-71120000D03*
%TO.P,J3,6,Pin_6*%
%TO.N,D03*%
X119380000Y-68580000D03*
%TO.P,J3,7,Pin_7*%
%TO.N,D04*%
X119380000Y-66040000D03*
%TO.P,J3,8,Pin_8*%
%TO.N,D05*%
X119380000Y-63500000D03*
%TO.P,J3,9,Pin_9*%
%TO.N,D06*%
X119380000Y-60960000D03*
%TO.P,J3,10,Pin_10*%
%TO.N,D07*%
X119380000Y-58420000D03*
%TO.P,J3,11,Pin_11*%
%TO.N,D08*%
X119380000Y-55880000D03*
%TO.P,J3,12,Pin_12*%
%TO.N,D09*%
X119380000Y-53340000D03*
%TO.P,J3,13,Pin_13*%
%TO.N,D10*%
X119380000Y-50800000D03*
%TO.P,J3,14,Pin_14*%
%TO.N,D11*%
X119380000Y-48260000D03*
%TO.P,J3,15,Pin_15*%
%TO.N,D12*%
X119380000Y-45720000D03*
%TD*%
%TO.P,J2,15,Pin_15*%
%TO.N,D13*%
X101600000Y-45720000D03*
%TO.P,J2,14,Pin_14*%
%TO.N,SDA1*%
X101600000Y-48260000D03*
%TO.P,J2,13,Pin_13*%
%TO.N,SCL1*%
X101600000Y-50800000D03*
%TO.P,J2,12,Pin_12*%
%TO.N,A00*%
X101600000Y-53340000D03*
%TO.P,J2,11,Pin_11*%
%TO.N,A01*%
X101600000Y-55880000D03*
%TO.P,J2,10,Pin_10*%
%TO.N,A02*%
X101600000Y-58420000D03*
%TO.P,J2,9,Pin_9*%
%TO.N,A03*%
X101600000Y-60960000D03*
%TO.P,J2,8,Pin_8*%
%TO.N,A04*%
X101600000Y-63500000D03*
%TO.P,J2,7,Pin_7*%
%TO.N,A05*%
X101600000Y-66040000D03*
%TO.P,J2,6,Pin_6*%
%TO.N,A06*%
X101600000Y-68580000D03*
%TO.P,J2,5,Pin_5*%
%TO.N,A07*%
X101600000Y-71120000D03*
%TO.P,J2,4,Pin_4*%
%TO.N,AREF*%
X101600000Y-73660000D03*
%TO.P,J2,3,Pin_3*%
%TO.N,VDD*%
X101600000Y-76200000D03*
%TO.P,J2,2,Pin_2*%
%TO.N,GND*%
X101600000Y-78740000D03*
D11*
%TO.P,J2,1,Pin_1*%
%TO.N,VCC*%
X101600000Y-81280000D03*
%TD*%
%TO.P,ISP,1,MISO*%
%TO.N,D12*%
X107950000Y-50800000D03*
D12*
%TO.P,ISP,2,VCC*%
%TO.N,VDD*%
X105410000Y-50800000D03*
%TO.P,ISP,3,SCK*%
%TO.N,D13*%
X107950000Y-48260000D03*
%TO.P,ISP,4,MOSI*%
%TO.N,D11*%
X105410000Y-48260000D03*
%TO.P,ISP,5,~{RST}*%
%TO.N,~{RST}*%
X107950000Y-45720000D03*
%TO.P,ISP,6,GND*%
%TO.N,GND*%
X105410000Y-45720000D03*
%TD*%
D13*
%TO.N,~{RST}*%
X109605299Y-66425299D03*
%TO.N,GND*%
X111267853Y-65787343D03*
X107442000Y-73152000D03*
%TO.N,A07*%
X110236000Y-63704972D03*
%TO.N,GND*%
X113030000Y-62738000D03*
X112833332Y-65220668D03*
X109728000Y-51816000D03*
X110490000Y-47498000D03*
X108204000Y-53594000D03*
%TO.N,D03*%
X112776000Y-69850000D03*
%TO.N,D02*%
X111252000Y-70104000D03*
%TO.N,D01*%
X110077829Y-70122835D03*
%TO.N,D04*%
X114658723Y-69664679D03*
%TO.N,D00*%
X114083500Y-78232000D03*
%TO.N,D13*%
X106680000Y-52324000D03*
%TO.N,D09*%
X115570000Y-55880000D03*
%TO.N,D11*%
X113792000Y-51816000D03*
X113284000Y-55880000D03*
%TO.N,~{RST}*%
X110490000Y-57658000D03*
%TO.N,VDD*%
X111429513Y-56896000D03*
%TO.N,A02*%
X104394000Y-63246000D03*
%TO.N,SDA1*%
X107696000Y-64008000D03*
%TO.N,SCL1*%
X107258701Y-63088859D03*
%TO.N,D10*%
X114300000Y-55880000D03*
%TO.N,D11*%
X114549701Y-49525701D03*
%TO.N,D12*%
X112154013Y-55950006D03*
%TO.N,AREF*%
X108707701Y-61463701D03*
X103378000Y-67818000D03*
%TO.N,A06*%
X110236000Y-61468000D03*
%TO.N,VDD*%
X115229500Y-68834000D03*
%TO.N,GND*%
X107442000Y-77978000D03*
%TO.N,VDD*%
X111071000Y-77143000D03*
%TO.N,GND*%
X115570000Y-82042000D03*
%TO.N,D13*%
X110236000Y-60452000D03*
X103632000Y-77216000D03*
%TD*%
D14*
%TO.N,~{RST}*%
X111506000Y-64524598D02*
X109605299Y-66425299D01*
%TO.N,GND*%
X107442000Y-69613903D02*
X107442000Y-73152000D01*
X111267853Y-65787343D02*
X111267853Y-65788050D01*
X111267853Y-65788050D02*
X107442000Y-69613903D01*
X107442000Y-73152000D02*
X107442000Y-77978000D01*
%TO.N,A07*%
X103124000Y-71120000D02*
X101600000Y-71120000D01*
X110236000Y-64008000D02*
X103124000Y-71120000D01*
X110236000Y-63704972D02*
X110236000Y-64008000D01*
%TO.N,GND*%
X112833332Y-62934668D02*
X113030000Y-62738000D01*
X112833332Y-65220668D02*
X112833332Y-62934668D01*
X110490000Y-47498000D02*
X112776000Y-47498000D01*
X109982000Y-47498000D02*
X110490000Y-47498000D01*
X109728000Y-52832000D02*
X109728000Y-51816000D01*
X108966000Y-53594000D02*
X109728000Y-52832000D01*
X108204000Y-53594000D02*
X108966000Y-53594000D01*
%TO.N,D03*%
X113284000Y-70612000D02*
X112776000Y-70104000D01*
X117348000Y-70612000D02*
X113284000Y-70612000D01*
X117602000Y-70358000D02*
X117348000Y-70612000D01*
X119380000Y-68580000D02*
X117602000Y-70358000D01*
X112776000Y-70104000D02*
X112776000Y-69850000D01*
%TO.N,D02*%
X111252000Y-70104000D02*
X112268000Y-71120000D01*
X114300000Y-71120000D02*
X119380000Y-71120000D01*
X112268000Y-71120000D02*
X114300000Y-71120000D01*
%TO.N,D01*%
X110077829Y-72231829D02*
X110077829Y-70122835D01*
X111506000Y-73660000D02*
X110077829Y-72231829D01*
X115570000Y-73660000D02*
X111506000Y-73660000D01*
D15*
%TO.N,VDD*%
X109220000Y-69850000D02*
X109220000Y-78486000D01*
X110236000Y-68834000D02*
X109220000Y-69850000D01*
X115229500Y-68834000D02*
X110236000Y-68834000D01*
D14*
%TO.N,D04*%
X118110000Y-66040000D02*
X119380000Y-66040000D01*
X116840000Y-67310000D02*
X118110000Y-66040000D01*
X116840000Y-68580000D02*
X116840000Y-67310000D01*
X115755321Y-69664679D02*
X116840000Y-68580000D01*
X114658723Y-69664679D02*
X115755321Y-69664679D01*
%TO.N,D01*%
X119380000Y-73660000D02*
X115570000Y-73660000D01*
%TO.N,D00*%
X114083500Y-78269500D02*
X114083500Y-78232000D01*
X114362802Y-78548802D02*
X114083500Y-78269500D01*
X114362802Y-78548802D02*
X116711604Y-76200000D01*
X111760000Y-81151604D02*
X114362802Y-78548802D01*
%TO.N,D13*%
X106680000Y-55626000D02*
X106680000Y-52324000D01*
X108966000Y-57912000D02*
X106680000Y-55626000D01*
X110236000Y-59182000D02*
X108966000Y-57912000D01*
X110236000Y-60452000D02*
X110236000Y-59182000D01*
%TO.N,D09*%
X115570000Y-55626000D02*
X115570000Y-55880000D01*
X117856000Y-53340000D02*
X115570000Y-55626000D01*
%TO.N,D10*%
X114554000Y-55626000D02*
X114300000Y-55880000D01*
X114554000Y-51308000D02*
X114554000Y-55626000D01*
X115062000Y-50800000D02*
X114554000Y-51308000D01*
X119380000Y-50800000D02*
X115062000Y-50800000D01*
%TO.N,D11*%
X113792000Y-53340000D02*
X113792000Y-51816000D01*
X113284000Y-53848000D02*
X113792000Y-53340000D01*
X113284000Y-55880000D02*
X113284000Y-53848000D01*
%TO.N,D12*%
X113030000Y-52832000D02*
X113030000Y-50800000D01*
X112154013Y-53707987D02*
X113030000Y-52832000D01*
X112154013Y-55950006D02*
X112154013Y-53707987D01*
X113030000Y-50800000D02*
X114300000Y-50800000D01*
X107950000Y-50800000D02*
X113030000Y-50800000D01*
%TO.N,~{RST}*%
X111506000Y-54610000D02*
X111506000Y-52220000D01*
X110490000Y-55626000D02*
X111506000Y-54610000D01*
X110490000Y-57658000D02*
X110490000Y-55626000D01*
X110867743Y-58035743D02*
X110490000Y-57658000D01*
X110867743Y-58543743D02*
X110867743Y-58035743D01*
X110867743Y-58797743D02*
X110867743Y-58543743D01*
X110867743Y-59939347D02*
X110867743Y-58797743D01*
D15*
%TO.N,VDD*%
X115229500Y-68747500D02*
X115229500Y-68834000D01*
X112031000Y-65549000D02*
X115229500Y-68747500D01*
X112031000Y-57421000D02*
X112031000Y-65549000D01*
X111506000Y-56896000D02*
X112031000Y-57421000D01*
X111429513Y-56896000D02*
X111506000Y-56896000D01*
D14*
%TO.N,A02*%
X104394000Y-59944000D02*
X104394000Y-63246000D01*
X102870000Y-58420000D02*
X104394000Y-59944000D01*
X102362000Y-58420000D02*
X102870000Y-58420000D01*
X101600000Y-58420000D02*
X102362000Y-58420000D01*
%TO.N,SDA1*%
X107983201Y-63720799D02*
X107696000Y-64008000D01*
X107983201Y-63208500D02*
X107983201Y-63720799D01*
%TO.N,SCL1*%
X107442000Y-59818396D02*
X107442000Y-62905560D01*
X106234802Y-58611198D02*
X107442000Y-59818396D01*
X107442000Y-62905560D02*
X107258701Y-63088859D01*
X104456802Y-56833198D02*
X106234802Y-58611198D01*
X103690000Y-56066396D02*
X104456802Y-56833198D01*
X103690000Y-52890000D02*
X103690000Y-56066396D01*
X101600000Y-50800000D02*
X103690000Y-52890000D01*
%TO.N,SDA1*%
X107983201Y-59723201D02*
X107983201Y-63208500D01*
X104140000Y-55880000D02*
X106934000Y-58674000D01*
X104140000Y-49530000D02*
X104140000Y-55372000D01*
X102870000Y-48260000D02*
X104140000Y-49530000D01*
X104140000Y-55372000D02*
X104140000Y-55880000D01*
X101600000Y-48260000D02*
X102870000Y-48260000D01*
X106934000Y-58674000D02*
X107983201Y-59723201D01*
%TO.N,~{RST}*%
X111506000Y-60577604D02*
X111506000Y-64524598D01*
X110867743Y-59939347D02*
X111506000Y-60577604D01*
%TO.N,D09*%
X117856000Y-53340000D02*
X119380000Y-53340000D01*
%TO.N,GND*%
X114554000Y-45720000D02*
X116006000Y-45720000D01*
X112776000Y-47498000D02*
X114554000Y-45720000D01*
X106684278Y-46994278D02*
X109478278Y-46994278D01*
X109478278Y-46994278D02*
X109982000Y-47498000D01*
X105410000Y-45720000D02*
X106684278Y-46994278D01*
%TO.N,D11*%
X112268000Y-49530000D02*
X113538000Y-49530000D01*
X106680000Y-49530000D02*
X112268000Y-49530000D01*
X114545402Y-49530000D02*
X114549701Y-49525701D01*
X113538000Y-49530000D02*
X114545402Y-49530000D01*
X105410000Y-48260000D02*
X106680000Y-49530000D01*
%TO.N,D12*%
X114300000Y-50800000D02*
X119380000Y-45720000D01*
%TO.N,AREF*%
X108707701Y-64263507D02*
X108707701Y-61463701D01*
X107696000Y-65275208D02*
X108707701Y-64263507D01*
X103632000Y-68072000D02*
X104394000Y-68072000D01*
X104899208Y-68072000D02*
X107696000Y-65275208D01*
X103378000Y-67818000D02*
X103632000Y-68072000D01*
X104394000Y-68072000D02*
X104899208Y-68072000D01*
%TO.N,D13*%
X105664000Y-69342000D02*
X105664000Y-76708000D01*
X105156000Y-77216000D02*
X103632000Y-77216000D01*
X110998000Y-64008000D02*
X105664000Y-69342000D01*
X105664000Y-76708000D02*
X105156000Y-77216000D01*
X110998000Y-60706000D02*
X110998000Y-64008000D01*
X110744000Y-60452000D02*
X110998000Y-60706000D01*
X110236000Y-60452000D02*
X110744000Y-60452000D01*
%TO.N,A06*%
X109220000Y-61976000D02*
X109220000Y-64387604D01*
X109728000Y-61468000D02*
X109220000Y-61976000D01*
X105027604Y-68580000D02*
X101600000Y-68580000D01*
X110236000Y-61468000D02*
X109728000Y-61468000D01*
X109220000Y-64387604D02*
X105027604Y-68580000D01*
%TO.N,GND*%
X106680000Y-78740000D02*
X107442000Y-77978000D01*
X106680000Y-83820000D02*
X106680000Y-78740000D01*
X104140000Y-83820000D02*
X106680000Y-83820000D01*
D15*
%TO.N,VDD*%
X110563000Y-77143000D02*
X111071000Y-77143000D01*
X109220000Y-78486000D02*
X110563000Y-77143000D01*
X109220000Y-83820000D02*
X109220000Y-78486000D01*
D14*
%TO.N,GND*%
X116332000Y-81280000D02*
X115570000Y-82042000D01*
X119380000Y-81280000D02*
X116332000Y-81280000D01*
%TO.N,D00*%
X116711604Y-76200000D02*
X119380000Y-76200000D01*
X111760000Y-83820000D02*
X111760000Y-81151604D01*
%TO.N,D01*%
X114300000Y-79248000D02*
X114300000Y-83820000D01*
X116078000Y-77470000D02*
X114300000Y-79248000D01*
X120142000Y-77470000D02*
X116078000Y-77470000D01*
X120904000Y-76708000D02*
X120142000Y-77470000D01*
X120142000Y-73660000D02*
X120904000Y-74422000D01*
X119380000Y-73660000D02*
X120142000Y-73660000D01*
X120904000Y-74422000D02*
X120904000Y-76708000D01*
%TD*%
%TA.AperFunction,Conductor*%
%TO.N,GND*%
G36*
X120122971Y-43943701D02*
G01*
X120142000Y-43947486D01*
X120148038Y-43946285D01*
X120148040Y-43946285D01*
X120150660Y-43945764D01*
X120168299Y-43944801D01*
X120312894Y-43957452D01*
X120323623Y-43959344D01*
X120439978Y-43990521D01*
X120484039Y-44002327D01*
X120494274Y-44006052D01*
X120644792Y-44076239D01*
X120654224Y-44081683D01*
X120762840Y-44157738D01*
X120790275Y-44176948D01*
X120798620Y-44183951D01*
X120916049Y-44301380D01*
X120923052Y-44309725D01*
X121018317Y-44445776D01*
X121023761Y-44455208D01*
X121093948Y-44605726D01*
X121097673Y-44615961D01*
X121102505Y-44633994D01*
X121140656Y-44776377D01*
X121142548Y-44787106D01*
X121155199Y-44931701D01*
X121154236Y-44949340D01*
X121154219Y-44949428D01*
X121152514Y-44958000D01*
X121153715Y-44964038D01*
X121156299Y-44977029D01*
X121157500Y-44989222D01*
X121157500Y-73987918D01*
X121139194Y-74032112D01*
X121095000Y-74050418D01*
X121050806Y-74032112D01*
X120479874Y-73461180D01*
X120463915Y-73433951D01*
X120416335Y-73265244D01*
X120416333Y-73265240D01*
X120415557Y-73262487D01*
X120325776Y-73080428D01*
X120307437Y-73055869D01*
X120206037Y-72920078D01*
X120206036Y-72920076D01*
X120204320Y-72917779D01*
X120055258Y-72779987D01*
X119883581Y-72671667D01*
X119695039Y-72596446D01*
X119692233Y-72595888D01*
X119692230Y-72595887D01*
X119498752Y-72557402D01*
X119498750Y-72557402D01*
X119495946Y-72556844D01*
X119400353Y-72555593D01*
X119295833Y-72554224D01*
X119295828Y-72554224D01*
X119292971Y-72554187D01*
X119290151Y-72554672D01*
X119290146Y-72554672D01*
X119173751Y-72574673D01*
X119092910Y-72588564D01*
X119090222Y-72589556D01*
X119090217Y-72589557D01*
X118905151Y-72657832D01*
X118905148Y-72657833D01*
X118902463Y-72658824D01*
X118728010Y-72762612D01*
X118575392Y-72896455D01*
X118449720Y-73055869D01*
X118355203Y-73235515D01*
X118354355Y-73238245D01*
X118353256Y-73240899D01*
X118351762Y-73240280D01*
X118324319Y-73273301D01*
X118295198Y-73280500D01*
X111689083Y-73280500D01*
X111644889Y-73262194D01*
X110475635Y-72092941D01*
X110457329Y-72048747D01*
X110457329Y-70688291D01*
X110479238Y-70640766D01*
X110560281Y-70571548D01*
X110563143Y-70569104D01*
X110565338Y-70566049D01*
X110565341Y-70566046D01*
X110620640Y-70489089D01*
X110661295Y-70463881D01*
X110707866Y-70474805D01*
X110723271Y-70490701D01*
X110741888Y-70518405D01*
X110752908Y-70534805D01*
X110870076Y-70641419D01*
X110873385Y-70643216D01*
X110873387Y-70643217D01*
X110956403Y-70688291D01*
X111009293Y-70717008D01*
X111012940Y-70717965D01*
X111012943Y-70717966D01*
X111136430Y-70750362D01*
X111162522Y-70757207D01*
X111247157Y-70758536D01*
X111317147Y-70759636D01*
X111317149Y-70759636D01*
X111320916Y-70759695D01*
X111324593Y-70758853D01*
X111327971Y-70758080D01*
X111375136Y-70766059D01*
X111386115Y-70774809D01*
X111966302Y-71354996D01*
X111974611Y-71365284D01*
X111983429Y-71378940D01*
X112010333Y-71400149D01*
X112012743Y-71402049D01*
X112018244Y-71406938D01*
X112021944Y-71410638D01*
X112024038Y-71412134D01*
X112024041Y-71412137D01*
X112038863Y-71422729D01*
X112041217Y-71424496D01*
X112054264Y-71434781D01*
X112082647Y-71457156D01*
X112087523Y-71458868D01*
X112091024Y-71460793D01*
X112094535Y-71462513D01*
X112098734Y-71465514D01*
X112103676Y-71466992D01*
X112103680Y-71466994D01*
X112139846Y-71477809D01*
X112149300Y-71480637D01*
X112152094Y-71481545D01*
X112198139Y-71497715D01*
X112198143Y-71497716D01*
X112201851Y-71499018D01*
X112205851Y-71499364D01*
X112206074Y-71499384D01*
X112206079Y-71499384D01*
X112207416Y-71499500D01*
X112207693Y-71499500D01*
X112211719Y-71499840D01*
X112214828Y-71500233D01*
X112219778Y-71501713D01*
X112274883Y-71499548D01*
X112277336Y-71499500D01*
X118298639Y-71499500D01*
X118342833Y-71517806D01*
X118355398Y-71535834D01*
X118419377Y-71674616D01*
X118536533Y-71840389D01*
X118681938Y-71982035D01*
X118850720Y-72094812D01*
X118937124Y-72131934D01*
X119034588Y-72173808D01*
X119034590Y-72173809D01*
X119037228Y-72174942D01*
X119109600Y-72191318D01*
X119232426Y-72219111D01*
X119232429Y-72219111D01*
X119235216Y-72219742D01*
X119325164Y-72223276D01*
X119435193Y-72227600D01*
X119435197Y-72227600D01*
X119438053Y-72227712D01*
X119638945Y-72198584D01*
X119831165Y-72133334D01*
X120008276Y-72034147D01*
X120164345Y-71904345D01*
X120294147Y-71748276D01*
X120393334Y-71571165D01*
X120458584Y-71378945D01*
X120487712Y-71178053D01*
X120489232Y-71120000D01*
X120486303Y-71088116D01*
X120470920Y-70920714D01*
X120470658Y-70917859D01*
X120469879Y-70915096D01*
X120416335Y-70725244D01*
X120416333Y-70725240D01*
X120415557Y-70722487D01*
X120325776Y-70540428D01*
X120307437Y-70515869D01*
X120206037Y-70380078D01*
X120206036Y-70380076D01*
X120204320Y-70377779D01*
X120055258Y-70239987D01*
X119883581Y-70131667D01*
X119695039Y-70056446D01*
X119692233Y-70055888D01*
X119692230Y-70055887D01*
X119498752Y-70017402D01*
X119498750Y-70017402D01*
X119495946Y-70016844D01*
X119400353Y-70015593D01*
X119295833Y-70014224D01*
X119295828Y-70014224D01*
X119292971Y-70014187D01*
X119290151Y-70014672D01*
X119290146Y-70014672D01*
X119196208Y-70030814D01*
X119092910Y-70048564D01*
X119090222Y-70049556D01*
X119090217Y-70049557D01*
X118905151Y-70117832D01*
X118905148Y-70117833D01*
X118902463Y-70118824D01*
X118728010Y-70222612D01*
X118575392Y-70356455D01*
X118573616Y-70358708D01*
X118573615Y-70358709D01*
X118509169Y-70440459D01*
X118449720Y-70515869D01*
X118355203Y-70695515D01*
X118354355Y-70698245D01*
X118353256Y-70700899D01*
X118351762Y-70700280D01*
X118324319Y-70733301D01*
X118295198Y-70740500D01*
X117907082Y-70740500D01*
X117862888Y-70722194D01*
X117844582Y-70678000D01*
X117862888Y-70633806D01*
X118884537Y-69612157D01*
X118928731Y-69593851D01*
X118953398Y-69598926D01*
X119037228Y-69634942D01*
X119121603Y-69654034D01*
X119232426Y-69679111D01*
X119232429Y-69679111D01*
X119235216Y-69679742D01*
X119325164Y-69683276D01*
X119435193Y-69687600D01*
X119435197Y-69687600D01*
X119438053Y-69687712D01*
X119449606Y-69686037D01*
X119497373Y-69679111D01*
X119638945Y-69658584D01*
X119831165Y-69593334D01*
X120008276Y-69494147D01*
X120164345Y-69364345D01*
X120294147Y-69208276D01*
X120393334Y-69031165D01*
X120458584Y-68838945D01*
X120472304Y-68744320D01*
X120487449Y-68639869D01*
X120487449Y-68639864D01*
X120487712Y-68638053D01*
X120489232Y-68580000D01*
X120488488Y-68571896D01*
X120476470Y-68441112D01*
X120470658Y-68377859D01*
X120465958Y-68361194D01*
X120416335Y-68185244D01*
X120416333Y-68185240D01*
X120415557Y-68182487D01*
X120325776Y-68000428D01*
X120307437Y-67975869D01*
X120206037Y-67840078D01*
X120206036Y-67840076D01*
X120204320Y-67837779D01*
X120055258Y-67699987D01*
X119883581Y-67591667D01*
X119695039Y-67516446D01*
X119692233Y-67515888D01*
X119692230Y-67515887D01*
X119498752Y-67477402D01*
X119498750Y-67477402D01*
X119495946Y-67476844D01*
X119400353Y-67475593D01*
X119295833Y-67474224D01*
X119295828Y-67474224D01*
X119292971Y-67474187D01*
X119290151Y-67474672D01*
X119290146Y-67474672D01*
X119183009Y-67493082D01*
X119092910Y-67508564D01*
X119090222Y-67509556D01*
X119090217Y-67509557D01*
X118905151Y-67577832D01*
X118905148Y-67577833D01*
X118902463Y-67578824D01*
X118728010Y-67682612D01*
X118636064Y-67763247D01*
X118581503Y-67811096D01*
X118575392Y-67816455D01*
X118449720Y-67975869D01*
X118355203Y-68155515D01*
X118354356Y-68158242D01*
X118354355Y-68158245D01*
X118318783Y-68272806D01*
X118295007Y-68349378D01*
X118271148Y-68550964D01*
X118271367Y-68554303D01*
X118279637Y-68680477D01*
X118284424Y-68753522D01*
X118285130Y-68756302D01*
X118304348Y-68831970D01*
X118334392Y-68950269D01*
X118335593Y-68952874D01*
X118359903Y-69005608D01*
X118361781Y-69053407D01*
X118347338Y-69075968D01*
X117209112Y-70214194D01*
X117164918Y-70232500D01*
X115171132Y-70232500D01*
X115126938Y-70214194D01*
X115108632Y-70170000D01*
X115130541Y-70122475D01*
X115141175Y-70113393D01*
X115141178Y-70113390D01*
X115144037Y-70110948D01*
X115173313Y-70070206D01*
X115213965Y-70045001D01*
X115224066Y-70044179D01*
X115708157Y-70044179D01*
X115721313Y-70045579D01*
X115737197Y-70048999D01*
X115742326Y-70048392D01*
X115742329Y-70048392D01*
X115774262Y-70044612D01*
X115781608Y-70044179D01*
X115786845Y-70044179D01*
X115789386Y-70043756D01*
X115789398Y-70043755D01*
X115807363Y-70040764D01*
X115810271Y-70040350D01*
X115862662Y-70034149D01*
X115867319Y-70031913D01*
X115871100Y-70030814D01*
X115874847Y-70029532D01*
X115879947Y-70028683D01*
X115884493Y-70026230D01*
X115884496Y-70026229D01*
X115926382Y-70003628D01*
X115929007Y-70002291D01*
X115973007Y-69981163D01*
X115973009Y-69981162D01*
X115976553Y-69979460D01*
X115979562Y-69976931D01*
X115979564Y-69976929D01*
X115979794Y-69976735D01*
X115980829Y-69975865D01*
X115981027Y-69975667D01*
X115984107Y-69973067D01*
X115986588Y-69971142D01*
X115991135Y-69968689D01*
X116028569Y-69928193D01*
X116030270Y-69926424D01*
X117074996Y-68881698D01*
X117085284Y-68873389D01*
X117098940Y-68864571D01*
X117121377Y-68836109D01*
X117122049Y-68835257D01*
X117126938Y-68829756D01*
X117130638Y-68826056D01*
X117142729Y-68809137D01*
X117144496Y-68806783D01*
X117173957Y-68769411D01*
X117177156Y-68765353D01*
X117178868Y-68760477D01*
X117180793Y-68756976D01*
X117182513Y-68753465D01*
X117185514Y-68749266D01*
X117186992Y-68744324D01*
X117186994Y-68744320D01*
X117200634Y-68698708D01*
X117201545Y-68695906D01*
X117217715Y-68649861D01*
X117217716Y-68649857D01*
X117219018Y-68646149D01*
X117219500Y-68640584D01*
X117219500Y-68640307D01*
X117219840Y-68636281D01*
X117220233Y-68633172D01*
X117221713Y-68628222D01*
X117219548Y-68573117D01*
X117219500Y-68570664D01*
X117219500Y-67493082D01*
X117237806Y-67448888D01*
X118248888Y-66437806D01*
X118293082Y-66419500D01*
X118298639Y-66419500D01*
X118342833Y-66437806D01*
X118355398Y-66455834D01*
X118419377Y-66594616D01*
X118536533Y-66760389D01*
X118681938Y-66902035D01*
X118850720Y-67014812D01*
X118924404Y-67046469D01*
X119034588Y-67093808D01*
X119034590Y-67093809D01*
X119037228Y-67094942D01*
X119137641Y-67117663D01*
X119232426Y-67139111D01*
X119232429Y-67139111D01*
X119235216Y-67139742D01*
X119325164Y-67143276D01*
X119435193Y-67147600D01*
X119435197Y-67147600D01*
X119438053Y-67147712D01*
X119452068Y-67145680D01*
X119497373Y-67139111D01*
X119638945Y-67118584D01*
X119831165Y-67053334D01*
X120008276Y-66954147D01*
X120164345Y-66824345D01*
X120294147Y-66668276D01*
X120393334Y-66491165D01*
X120458584Y-66298945D01*
X120487712Y-66098053D01*
X120489232Y-66040000D01*
X120486303Y-66008116D01*
X120480137Y-65941015D01*
X120470658Y-65837859D01*
X120469879Y-65835096D01*
X120416335Y-65645244D01*
X120416333Y-65645240D01*
X120415557Y-65642487D01*
X120325776Y-65460428D01*
X120307437Y-65435869D01*
X120206037Y-65300078D01*
X120206036Y-65300076D01*
X120204320Y-65297779D01*
X120055258Y-65159987D01*
X119883581Y-65051667D01*
X119695039Y-64976446D01*
X119692233Y-64975888D01*
X119692230Y-64975887D01*
X119498752Y-64937402D01*
X119498750Y-64937402D01*
X119495946Y-64936844D01*
X119400353Y-64935593D01*
X119295833Y-64934224D01*
X119295828Y-64934224D01*
X119292971Y-64934187D01*
X119290151Y-64934672D01*
X119290146Y-64934672D01*
X119173751Y-64954673D01*
X119092910Y-64968564D01*
X119090222Y-64969556D01*
X119090217Y-64969557D01*
X118905151Y-65037832D01*
X118905148Y-65037833D01*
X118902463Y-65038824D01*
X118728010Y-65142612D01*
X118575392Y-65276455D01*
X118449720Y-65435869D01*
X118355203Y-65615515D01*
X118354355Y-65618245D01*
X118353256Y-65620899D01*
X118351762Y-65620280D01*
X118324319Y-65653301D01*
X118295198Y-65660500D01*
X118157164Y-65660500D01*
X118144009Y-65659100D01*
X118141281Y-65658513D01*
X118128124Y-65655680D01*
X118122995Y-65656287D01*
X118122992Y-65656287D01*
X118091061Y-65660067D01*
X118083714Y-65660500D01*
X118078476Y-65660500D01*
X118075935Y-65660923D01*
X118075923Y-65660924D01*
X118057946Y-65663917D01*
X118055043Y-65664331D01*
X118002659Y-65670531D01*
X117998003Y-65672767D01*
X117994174Y-65673879D01*
X117990467Y-65675148D01*
X117985374Y-65675996D01*
X117980829Y-65678448D01*
X117980827Y-65678449D01*
X117938930Y-65701055D01*
X117936307Y-65702392D01*
X117888768Y-65725220D01*
X117884492Y-65728814D01*
X117884296Y-65729010D01*
X117881211Y-65731615D01*
X117878735Y-65733535D01*
X117874186Y-65735990D01*
X117870677Y-65739786D01*
X117836752Y-65776486D01*
X117835051Y-65778255D01*
X116605004Y-67008302D01*
X116594716Y-67016611D01*
X116581060Y-67025429D01*
X116577863Y-67029485D01*
X116557951Y-67054743D01*
X116553062Y-67060244D01*
X116549362Y-67063944D01*
X116547866Y-67066038D01*
X116547863Y-67066041D01*
X116537271Y-67080863D01*
X116535504Y-67083217D01*
X116502844Y-67124647D01*
X116501132Y-67129523D01*
X116499207Y-67133024D01*
X116497487Y-67136535D01*
X116494486Y-67140734D01*
X116493008Y-67145676D01*
X116493006Y-67145680D01*
X116479366Y-67191292D01*
X116478455Y-67194094D01*
X116462285Y-67240139D01*
X116462284Y-67240143D01*
X116460982Y-67243851D01*
X116460500Y-67249416D01*
X116460500Y-67249693D01*
X116460160Y-67253719D01*
X116459767Y-67256828D01*
X116458287Y-67261778D01*
X116458870Y-67276611D01*
X116460452Y-67316882D01*
X116460500Y-67319336D01*
X116460500Y-68396918D01*
X116442194Y-68441112D01*
X115995403Y-68887903D01*
X115951209Y-68906209D01*
X115907015Y-68887903D01*
X115888712Y-68843053D01*
X115888786Y-68836039D01*
X115888786Y-68836033D01*
X115888807Y-68834000D01*
X115869776Y-68676733D01*
X115813780Y-68528546D01*
X115724053Y-68397992D01*
X115687554Y-68365473D01*
X115608587Y-68295116D01*
X115608585Y-68295115D01*
X115605775Y-68292611D01*
X115465774Y-68218484D01*
X115318895Y-68181591D01*
X115289928Y-68165168D01*
X112503806Y-65379046D01*
X112485500Y-65334852D01*
X112485500Y-63470964D01*
X118271148Y-63470964D01*
X118271336Y-63473828D01*
X118281328Y-63626278D01*
X118284424Y-63673522D01*
X118285130Y-63676302D01*
X118312335Y-63783419D01*
X118334392Y-63870269D01*
X118419377Y-64054616D01*
X118536533Y-64220389D01*
X118681938Y-64362035D01*
X118850720Y-64474812D01*
X118937124Y-64511934D01*
X119034588Y-64553808D01*
X119034590Y-64553809D01*
X119037228Y-64554942D01*
X119137641Y-64577663D01*
X119232426Y-64599111D01*
X119232429Y-64599111D01*
X119235216Y-64599742D01*
X119325164Y-64603276D01*
X119435193Y-64607600D01*
X119435197Y-64607600D01*
X119438053Y-64607712D01*
X119638945Y-64578584D01*
X119831165Y-64513334D01*
X120008276Y-64414147D01*
X120164345Y-64284345D01*
X120294147Y-64128276D01*
X120393334Y-63951165D01*
X120458584Y-63758945D01*
X120478188Y-63623741D01*
X120487449Y-63559869D01*
X120487449Y-63559864D01*
X120487712Y-63558053D01*
X120487964Y-63548448D01*
X120489184Y-63501827D01*
X120489232Y-63500000D01*
X120486303Y-63468116D01*
X120479438Y-63393416D01*
X120470658Y-63297859D01*
X120464124Y-63274691D01*
X120416335Y-63105244D01*
X120416333Y-63105240D01*
X120415557Y-63102487D01*
X120325776Y-62920428D01*
X120307437Y-62895869D01*
X120206037Y-62760078D01*
X120206036Y-62760076D01*
X120204320Y-62757779D01*
X120055258Y-62619987D01*
X119883581Y-62511667D01*
X119695039Y-62436446D01*
X119692233Y-62435888D01*
X119692230Y-62435887D01*
X119498752Y-62397402D01*
X119498750Y-62397402D01*
X119495946Y-62396844D01*
X119400353Y-62395593D01*
X119295833Y-62394224D01*
X119295828Y-62394224D01*
X119292971Y-62394187D01*
X119290151Y-62394672D01*
X119290146Y-62394672D01*
X119173751Y-62414673D01*
X119092910Y-62428564D01*
X119090222Y-62429556D01*
X119090217Y-62429557D01*
X118905151Y-62497832D01*
X118905148Y-62497833D01*
X118902463Y-62498824D01*
X118728010Y-62602612D01*
X118575392Y-62736455D01*
X118573616Y-62738708D01*
X118573615Y-62738709D01*
X118540421Y-62780816D01*
X118449720Y-62895869D01*
X118355203Y-63075515D01*
X118354356Y-63078242D01*
X118354355Y-63078245D01*
X118304410Y-63239096D01*
X118295007Y-63269378D01*
X118271148Y-63470964D01*
X112485500Y-63470964D01*
X112485500Y-60930964D01*
X118271148Y-60930964D01*
X118271336Y-60933828D01*
X118282650Y-61106449D01*
X118284424Y-61133522D01*
X118285130Y-61136302D01*
X118329448Y-61310801D01*
X118334392Y-61330269D01*
X118419377Y-61514616D01*
X118536533Y-61680389D01*
X118681938Y-61822035D01*
X118850720Y-61934812D01*
X118929974Y-61968862D01*
X119034588Y-62013808D01*
X119034590Y-62013809D01*
X119037228Y-62014942D01*
X119137641Y-62037663D01*
X119232426Y-62059111D01*
X119232429Y-62059111D01*
X119235216Y-62059742D01*
X119325164Y-62063276D01*
X119435193Y-62067600D01*
X119435197Y-62067600D01*
X119438053Y-62067712D01*
X119638945Y-62038584D01*
X119831165Y-61973334D01*
X120008276Y-61874147D01*
X120164345Y-61744345D01*
X120294147Y-61588276D01*
X120393334Y-61411165D01*
X120458584Y-61218945D01*
X120485864Y-61030800D01*
X120487449Y-61019869D01*
X120487449Y-61019864D01*
X120487712Y-61018053D01*
X120489232Y-60960000D01*
X120488909Y-60956477D01*
X120475416Y-60809643D01*
X120470658Y-60757859D01*
X120467815Y-60747777D01*
X120416335Y-60565244D01*
X120416333Y-60565240D01*
X120415557Y-60562487D01*
X120325776Y-60380428D01*
X120307437Y-60355869D01*
X120206037Y-60220078D01*
X120206036Y-60220076D01*
X120204320Y-60217779D01*
X120055258Y-60079987D01*
X119883581Y-59971667D01*
X119695039Y-59896446D01*
X119692233Y-59895888D01*
X119692230Y-59895887D01*
X119498752Y-59857402D01*
X119498750Y-59857402D01*
X119495946Y-59856844D01*
X119400353Y-59855593D01*
X119295833Y-59854224D01*
X119295828Y-59854224D01*
X119292971Y-59854187D01*
X119290151Y-59854672D01*
X119290146Y-59854672D01*
X119173751Y-59874673D01*
X119092910Y-59888564D01*
X119090222Y-59889556D01*
X119090217Y-59889557D01*
X118905151Y-59957832D01*
X118905148Y-59957833D01*
X118902463Y-59958824D01*
X118728010Y-60062612D01*
X118575392Y-60196455D01*
X118573616Y-60198708D01*
X118573615Y-60198709D01*
X118505962Y-60284527D01*
X118449720Y-60355869D01*
X118355203Y-60535515D01*
X118354356Y-60538242D01*
X118354355Y-60538245D01*
X118296378Y-60724963D01*
X118295007Y-60729378D01*
X118285611Y-60808763D01*
X118271876Y-60924817D01*
X118271148Y-60930964D01*
X112485500Y-60930964D01*
X112485500Y-58390964D01*
X118271148Y-58390964D01*
X118284424Y-58593522D01*
X118334392Y-58790269D01*
X118419377Y-58974616D01*
X118536533Y-59140389D01*
X118681938Y-59282035D01*
X118850720Y-59394812D01*
X118937124Y-59431934D01*
X119034588Y-59473808D01*
X119034590Y-59473809D01*
X119037228Y-59474942D01*
X119137641Y-59497663D01*
X119232426Y-59519111D01*
X119232429Y-59519111D01*
X119235216Y-59519742D01*
X119325164Y-59523276D01*
X119435193Y-59527600D01*
X119435197Y-59527600D01*
X119438053Y-59527712D01*
X119638945Y-59498584D01*
X119831165Y-59433334D01*
X120008276Y-59334147D01*
X120164345Y-59204345D01*
X120294147Y-59048276D01*
X120393334Y-58871165D01*
X120458584Y-58678945D01*
X120487712Y-58478053D01*
X120489232Y-58420000D01*
X120486303Y-58388116D01*
X120470920Y-58220714D01*
X120470658Y-58217859D01*
X120469879Y-58215096D01*
X120416335Y-58025244D01*
X120416333Y-58025240D01*
X120415557Y-58022487D01*
X120325776Y-57840428D01*
X120306423Y-57814511D01*
X120206037Y-57680078D01*
X120206036Y-57680076D01*
X120204320Y-57677779D01*
X120055258Y-57539987D01*
X119883581Y-57431667D01*
X119695039Y-57356446D01*
X119692233Y-57355888D01*
X119692230Y-57355887D01*
X119498752Y-57317402D01*
X119498750Y-57317402D01*
X119495946Y-57316844D01*
X119400353Y-57315593D01*
X119295833Y-57314224D01*
X119295828Y-57314224D01*
X119292971Y-57314187D01*
X119290151Y-57314672D01*
X119290146Y-57314672D01*
X119173751Y-57334673D01*
X119092910Y-57348564D01*
X119090222Y-57349556D01*
X119090217Y-57349557D01*
X118905151Y-57417832D01*
X118905148Y-57417833D01*
X118902463Y-57418824D01*
X118728010Y-57522612D01*
X118656572Y-57585262D01*
X118581503Y-57651096D01*
X118575392Y-57656455D01*
X118573616Y-57658708D01*
X118573615Y-57658709D01*
X118505284Y-57745387D01*
X118449720Y-57815869D01*
X118355203Y-57995515D01*
X118354356Y-57998242D01*
X118354355Y-57998245D01*
X118311683Y-58135672D01*
X118295007Y-58189378D01*
X118271148Y-58390964D01*
X112485500Y-58390964D01*
X112485500Y-57451710D01*
X112485933Y-57444364D01*
X112489858Y-57411200D01*
X112490407Y-57406562D01*
X112479586Y-57347316D01*
X112479265Y-57345382D01*
X112478961Y-57343358D01*
X112470315Y-57285849D01*
X112468291Y-57281635D01*
X112467651Y-57279553D01*
X112467580Y-57279262D01*
X112467509Y-57279045D01*
X112467398Y-57278773D01*
X112466693Y-57276713D01*
X112465853Y-57272116D01*
X112438094Y-57218677D01*
X112437222Y-57216933D01*
X112437177Y-57216838D01*
X112411154Y-57162647D01*
X112407984Y-57159218D01*
X112406758Y-57157414D01*
X112406454Y-57156905D01*
X112404497Y-57154000D01*
X112402852Y-57150834D01*
X112398506Y-57145746D01*
X112360027Y-57107267D01*
X112358326Y-57105498D01*
X112321555Y-57065719D01*
X112321553Y-57065718D01*
X112318383Y-57062288D01*
X112314344Y-57059942D01*
X112310697Y-57057020D01*
X112310932Y-57056727D01*
X112304666Y-57051906D01*
X112095828Y-56843068D01*
X112077975Y-56806382D01*
X112076495Y-56794147D01*
X112069789Y-56738733D01*
X112050813Y-56688515D01*
X112052315Y-56640704D01*
X112087186Y-56607958D01*
X112110259Y-56603931D01*
X112168566Y-56604847D01*
X112219160Y-56605642D01*
X112219162Y-56605642D01*
X112222929Y-56605701D01*
X112377345Y-56570335D01*
X112380709Y-56568643D01*
X112380712Y-56568642D01*
X112453069Y-56532250D01*
X112518868Y-56499157D01*
X112521733Y-56496710D01*
X112521736Y-56496708D01*
X112612465Y-56419217D01*
X112639327Y-56396275D01*
X112693084Y-56321464D01*
X112733739Y-56296257D01*
X112780311Y-56307181D01*
X112785897Y-56311705D01*
X112902076Y-56417419D01*
X112905385Y-56419216D01*
X112905387Y-56419217D01*
X112970993Y-56454838D01*
X113041293Y-56493008D01*
X113044940Y-56493965D01*
X113044943Y-56493966D01*
X113190874Y-56532250D01*
X113194522Y-56533207D01*
X113279157Y-56534536D01*
X113349147Y-56535636D01*
X113349149Y-56535636D01*
X113352916Y-56535695D01*
X113507332Y-56500329D01*
X113510696Y-56498637D01*
X113510699Y-56498636D01*
X113577611Y-56464983D01*
X113648855Y-56429151D01*
X113651720Y-56426704D01*
X113651723Y-56426702D01*
X113742730Y-56348974D01*
X113752479Y-56340648D01*
X113797972Y-56325866D01*
X113835131Y-56341946D01*
X113918076Y-56417419D01*
X113921385Y-56419216D01*
X113921387Y-56419217D01*
X113986993Y-56454838D01*
X114057293Y-56493008D01*
X114060940Y-56493965D01*
X114060943Y-56493966D01*
X114206874Y-56532250D01*
X114210522Y-56533207D01*
X114295157Y-56534536D01*
X114365147Y-56535636D01*
X114365149Y-56535636D01*
X114368916Y-56535695D01*
X114523332Y-56500329D01*
X114526696Y-56498637D01*
X114526699Y-56498636D01*
X114593611Y-56464983D01*
X114664855Y-56429151D01*
X114667720Y-56426704D01*
X114667723Y-56426702D01*
X114758730Y-56348974D01*
X114785314Y-56326269D01*
X114787509Y-56323214D01*
X114787512Y-56323211D01*
X114875555Y-56200686D01*
X114875556Y-56200684D01*
X114877755Y-56197624D01*
X114879160Y-56194128D01*
X114880740Y-56191255D01*
X114918074Y-56161348D01*
X114965620Y-56166599D01*
X114987384Y-56186508D01*
X114996911Y-56200686D01*
X115068473Y-56307181D01*
X115070908Y-56310805D01*
X115188076Y-56417419D01*
X115191385Y-56419216D01*
X115191387Y-56419217D01*
X115256993Y-56454838D01*
X115327293Y-56493008D01*
X115330940Y-56493965D01*
X115330943Y-56493966D01*
X115476874Y-56532250D01*
X115480522Y-56533207D01*
X115565157Y-56534536D01*
X115635147Y-56535636D01*
X115635149Y-56535636D01*
X115638916Y-56535695D01*
X115793332Y-56500329D01*
X115796696Y-56498637D01*
X115796699Y-56498636D01*
X115863611Y-56464983D01*
X115934855Y-56429151D01*
X115937720Y-56426704D01*
X115937723Y-56426702D01*
X116028730Y-56348974D01*
X116055314Y-56326269D01*
X116057509Y-56323214D01*
X116057512Y-56323211D01*
X116145555Y-56200686D01*
X116145556Y-56200684D01*
X116147755Y-56197624D01*
X116206842Y-56050641D01*
X116222865Y-55938053D01*
X116228875Y-55895826D01*
X116228875Y-55895821D01*
X116229162Y-55893807D01*
X116229307Y-55880000D01*
X116225793Y-55850964D01*
X118271148Y-55850964D01*
X118271336Y-55853828D01*
X118283749Y-56043220D01*
X118284424Y-56053522D01*
X118285130Y-56056302D01*
X118332214Y-56241692D01*
X118334392Y-56250269D01*
X118419377Y-56434616D01*
X118490218Y-56534854D01*
X118529021Y-56589759D01*
X118536533Y-56600389D01*
X118681938Y-56742035D01*
X118850720Y-56854812D01*
X118937124Y-56891934D01*
X119034588Y-56933808D01*
X119034590Y-56933809D01*
X119037228Y-56934942D01*
X119137641Y-56957663D01*
X119232426Y-56979111D01*
X119232429Y-56979111D01*
X119235216Y-56979742D01*
X119325164Y-56983276D01*
X119435193Y-56987600D01*
X119435197Y-56987600D01*
X119438053Y-56987712D01*
X119638945Y-56958584D01*
X119831165Y-56893334D01*
X120008276Y-56794147D01*
X120164345Y-56664345D01*
X120294147Y-56508276D01*
X120393334Y-56331165D01*
X120458584Y-56138945D01*
X120471385Y-56050659D01*
X120487449Y-55939869D01*
X120487449Y-55939864D01*
X120487712Y-55938053D01*
X120489232Y-55880000D01*
X120489046Y-55877970D01*
X120475756Y-55733341D01*
X120470658Y-55677859D01*
X120469879Y-55675096D01*
X120416335Y-55485244D01*
X120416333Y-55485240D01*
X120415557Y-55482487D01*
X120346512Y-55342476D01*
X120327044Y-55302999D01*
X120327043Y-55302998D01*
X120325776Y-55300428D01*
X120307437Y-55275869D01*
X120206037Y-55140078D01*
X120206036Y-55140076D01*
X120204320Y-55137779D01*
X120055258Y-54999987D01*
X119883581Y-54891667D01*
X119695039Y-54816446D01*
X119692233Y-54815888D01*
X119692230Y-54815887D01*
X119498752Y-54777402D01*
X119498750Y-54777402D01*
X119495946Y-54776844D01*
X119400353Y-54775593D01*
X119295833Y-54774224D01*
X119295828Y-54774224D01*
X119292971Y-54774187D01*
X119290151Y-54774672D01*
X119290146Y-54774672D01*
X119173751Y-54794673D01*
X119092910Y-54808564D01*
X119090222Y-54809556D01*
X119090217Y-54809557D01*
X118905151Y-54877832D01*
X118905148Y-54877833D01*
X118902463Y-54878824D01*
X118900003Y-54880287D01*
X118900002Y-54880288D01*
X118865197Y-54900995D01*
X118728010Y-54982612D01*
X118575392Y-55116455D01*
X118573616Y-55118708D01*
X118573615Y-55118709D01*
X118460620Y-55262043D01*
X118449720Y-55275869D01*
X118399804Y-55370743D01*
X118361266Y-55443992D01*
X118355203Y-55455515D01*
X118354356Y-55458242D01*
X118354355Y-55458245D01*
X118321341Y-55564568D01*
X118295007Y-55649378D01*
X118271148Y-55850964D01*
X116225793Y-55850964D01*
X116210276Y-55722733D01*
X116184660Y-55654943D01*
X116169606Y-55615103D01*
X116171108Y-55567291D01*
X116183877Y-55548817D01*
X117994888Y-53737806D01*
X118039082Y-53719500D01*
X118298639Y-53719500D01*
X118342833Y-53737806D01*
X118355398Y-53755834D01*
X118419377Y-53894616D01*
X118536533Y-54060389D01*
X118681938Y-54202035D01*
X118850720Y-54314812D01*
X118937124Y-54351934D01*
X119034588Y-54393808D01*
X119034590Y-54393809D01*
X119037228Y-54394942D01*
X119137641Y-54417663D01*
X119232426Y-54439111D01*
X119232429Y-54439111D01*
X119235216Y-54439742D01*
X119325164Y-54443276D01*
X119435193Y-54447600D01*
X119435197Y-54447600D01*
X119438053Y-54447712D01*
X119638945Y-54418584D01*
X119831165Y-54353334D01*
X120008276Y-54254147D01*
X120164345Y-54124345D01*
X120294147Y-53968276D01*
X120393334Y-53791165D01*
X120458584Y-53598945D01*
X120486910Y-53403583D01*
X120487449Y-53399869D01*
X120487449Y-53399864D01*
X120487712Y-53398053D01*
X120489232Y-53340000D01*
X120488488Y-53331896D01*
X120476316Y-53199438D01*
X120470658Y-53137859D01*
X120469879Y-53135096D01*
X120416335Y-52945244D01*
X120416333Y-52945240D01*
X120415557Y-52942487D01*
X120325776Y-52760428D01*
X120307437Y-52735869D01*
X120206037Y-52600078D01*
X120206036Y-52600076D01*
X120204320Y-52597779D01*
X120055258Y-52459987D01*
X119883581Y-52351667D01*
X119695039Y-52276446D01*
X119692233Y-52275888D01*
X119692230Y-52275887D01*
X119498752Y-52237402D01*
X119498750Y-52237402D01*
X119495946Y-52236844D01*
X119400353Y-52235593D01*
X119295833Y-52234224D01*
X119295828Y-52234224D01*
X119292971Y-52234187D01*
X119290151Y-52234672D01*
X119290146Y-52234672D01*
X119173751Y-52254673D01*
X119092910Y-52268564D01*
X119090222Y-52269556D01*
X119090217Y-52269557D01*
X118905151Y-52337832D01*
X118905148Y-52337833D01*
X118902463Y-52338824D01*
X118900003Y-52340287D01*
X118900002Y-52340288D01*
X118882657Y-52350607D01*
X118728010Y-52442612D01*
X118575392Y-52576455D01*
X118573616Y-52578708D01*
X118573615Y-52578709D01*
X118515046Y-52653004D01*
X118449720Y-52735869D01*
X118355203Y-52915515D01*
X118354355Y-52918245D01*
X118353256Y-52920899D01*
X118351762Y-52920280D01*
X118324319Y-52953301D01*
X118295198Y-52960500D01*
X117903164Y-52960500D01*
X117890009Y-52959100D01*
X117887281Y-52958513D01*
X117874124Y-52955680D01*
X117868995Y-52956287D01*
X117868992Y-52956287D01*
X117837059Y-52960067D01*
X117829713Y-52960500D01*
X117824476Y-52960500D01*
X117821935Y-52960923D01*
X117821923Y-52960924D01*
X117803958Y-52963915D01*
X117801050Y-52964329D01*
X117748659Y-52970530D01*
X117744002Y-52972766D01*
X117740221Y-52973865D01*
X117736475Y-52975147D01*
X117731374Y-52975996D01*
X117684928Y-53001057D01*
X117682313Y-53002389D01*
X117638313Y-53023517D01*
X117638309Y-53023520D01*
X117634768Y-53025220D01*
X117630492Y-53028814D01*
X117630296Y-53029010D01*
X117627211Y-53031615D01*
X117624735Y-53033535D01*
X117620186Y-53035990D01*
X117616677Y-53039786D01*
X117582752Y-53076486D01*
X117581051Y-53078255D01*
X115427760Y-55231546D01*
X115398156Y-55248125D01*
X115340184Y-55262043D01*
X115336842Y-55263768D01*
X115336839Y-55263769D01*
X115308483Y-55278405D01*
X115199414Y-55334700D01*
X115190500Y-55342476D01*
X115103226Y-55418611D01*
X115080039Y-55438838D01*
X115077873Y-55441920D01*
X115077872Y-55441921D01*
X115047134Y-55485657D01*
X115006746Y-55511288D01*
X114960062Y-55500853D01*
X114934431Y-55460465D01*
X114933500Y-55449719D01*
X114933500Y-53194359D01*
X115216395Y-53194359D01*
X115218499Y-53199438D01*
X115374368Y-53308577D01*
X115379079Y-53311298D01*
X115572996Y-53401723D01*
X115578105Y-53403583D01*
X115784777Y-53458960D01*
X115790131Y-53459904D01*
X116003280Y-53478552D01*
X116008720Y-53478552D01*
X116221869Y-53459904D01*
X116227223Y-53458960D01*
X116433895Y-53403583D01*
X116439004Y-53401723D01*
X116632921Y-53311298D01*
X116637632Y-53308577D01*
X116790570Y-53201490D01*
X116795682Y-53193465D01*
X116794492Y-53188097D01*
X116014790Y-52408395D01*
X116006000Y-52404754D01*
X115997210Y-52408395D01*
X115220036Y-53185569D01*
X115216395Y-53194359D01*
X114933500Y-53194359D01*
X114933500Y-53060512D01*
X114951806Y-53016318D01*
X114996000Y-52998012D01*
X115029582Y-53007800D01*
X115032536Y-53009682D01*
X115037903Y-53008492D01*
X115826395Y-52220000D01*
X116190754Y-52220000D01*
X116194395Y-52228790D01*
X116971569Y-53005964D01*
X116980359Y-53009605D01*
X116985438Y-53007501D01*
X117094577Y-52851632D01*
X117097298Y-52846921D01*
X117187723Y-52653004D01*
X117189583Y-52647895D01*
X117244960Y-52441223D01*
X117245904Y-52435869D01*
X117264552Y-52222720D01*
X117264552Y-52217280D01*
X117245904Y-52004131D01*
X117244960Y-51998777D01*
X117189583Y-51792105D01*
X117187723Y-51786996D01*
X117097298Y-51593079D01*
X117094577Y-51588368D01*
X116987490Y-51435430D01*
X116979465Y-51430318D01*
X116974097Y-51431508D01*
X116194395Y-52211210D01*
X116190754Y-52220000D01*
X115826395Y-52220000D01*
X116791964Y-51254431D01*
X116804004Y-51225364D01*
X116804004Y-51218080D01*
X116837830Y-51184257D01*
X116861746Y-51179500D01*
X118298639Y-51179500D01*
X118342833Y-51197806D01*
X118355398Y-51215834D01*
X118419377Y-51354616D01*
X118536533Y-51520389D01*
X118681938Y-51662035D01*
X118850720Y-51774812D01*
X118890971Y-51792105D01*
X119034588Y-51853808D01*
X119034590Y-51853809D01*
X119037228Y-51854942D01*
X119137641Y-51877663D01*
X119232426Y-51899111D01*
X119232429Y-51899111D01*
X119235216Y-51899742D01*
X119325164Y-51903276D01*
X119435193Y-51907600D01*
X119435197Y-51907600D01*
X119438053Y-51907712D01*
X119638945Y-51878584D01*
X119831165Y-51813334D01*
X120008276Y-51714147D01*
X120164345Y-51584345D01*
X120294147Y-51428276D01*
X120393334Y-51251165D01*
X120458584Y-51058945D01*
X120487712Y-50858053D01*
X120489232Y-50800000D01*
X120486303Y-50768116D01*
X120470920Y-50600714D01*
X120470658Y-50597859D01*
X120469879Y-50595096D01*
X120416335Y-50405244D01*
X120416333Y-50405240D01*
X120415557Y-50402487D01*
X120325776Y-50220428D01*
X120307437Y-50195869D01*
X120206037Y-50060078D01*
X120206036Y-50060076D01*
X120204320Y-50057779D01*
X120055258Y-49919987D01*
X119883581Y-49811667D01*
X119695039Y-49736446D01*
X119692233Y-49735888D01*
X119692230Y-49735887D01*
X119498752Y-49697402D01*
X119498750Y-49697402D01*
X119495946Y-49696844D01*
X119400353Y-49695593D01*
X119295833Y-49694224D01*
X119295828Y-49694224D01*
X119292971Y-49694187D01*
X119290151Y-49694672D01*
X119290146Y-49694672D01*
X119183009Y-49713082D01*
X119092910Y-49728564D01*
X119090222Y-49729556D01*
X119090217Y-49729557D01*
X118905151Y-49797832D01*
X118905148Y-49797833D01*
X118902463Y-49798824D01*
X118728010Y-49902612D01*
X118575392Y-50036455D01*
X118573616Y-50038708D01*
X118573615Y-50038709D01*
X118470136Y-50169972D01*
X118449720Y-50195869D01*
X118355203Y-50375515D01*
X118354355Y-50378245D01*
X118353256Y-50380899D01*
X118351762Y-50380280D01*
X118324319Y-50413301D01*
X118295198Y-50420500D01*
X115367082Y-50420500D01*
X115322888Y-50402194D01*
X115304582Y-50358000D01*
X115322888Y-50313806D01*
X117405730Y-48230964D01*
X118271148Y-48230964D01*
X118284424Y-48433522D01*
X118334392Y-48630269D01*
X118419377Y-48814616D01*
X118536533Y-48980389D01*
X118538587Y-48982390D01*
X118538588Y-48982391D01*
X118599924Y-49042141D01*
X118681938Y-49122035D01*
X118850720Y-49234812D01*
X118897828Y-49255051D01*
X119034588Y-49313808D01*
X119034590Y-49313809D01*
X119037228Y-49314942D01*
X119137641Y-49337663D01*
X119232426Y-49359111D01*
X119232429Y-49359111D01*
X119235216Y-49359742D01*
X119325164Y-49363276D01*
X119435193Y-49367600D01*
X119435197Y-49367600D01*
X119438053Y-49367712D01*
X119638945Y-49338584D01*
X119831165Y-49273334D01*
X120008276Y-49174147D01*
X120164345Y-49044345D01*
X120294147Y-48888276D01*
X120393334Y-48711165D01*
X120458584Y-48518945D01*
X120487712Y-48318053D01*
X120489232Y-48260000D01*
X120486303Y-48228116D01*
X120470920Y-48060714D01*
X120470658Y-48057859D01*
X120469879Y-48055096D01*
X120416335Y-47865244D01*
X120416333Y-47865240D01*
X120415557Y-47862487D01*
X120325776Y-47680428D01*
X120307437Y-47655869D01*
X120206037Y-47520078D01*
X120206036Y-47520076D01*
X120204320Y-47517779D01*
X120055258Y-47379987D01*
X119883581Y-47271667D01*
X119695039Y-47196446D01*
X119692233Y-47195888D01*
X119692230Y-47195887D01*
X119498752Y-47157402D01*
X119498750Y-47157402D01*
X119495946Y-47156844D01*
X119400353Y-47155593D01*
X119295833Y-47154224D01*
X119295828Y-47154224D01*
X119292971Y-47154187D01*
X119290151Y-47154672D01*
X119290146Y-47154672D01*
X119173751Y-47174673D01*
X119092910Y-47188564D01*
X119090222Y-47189556D01*
X119090217Y-47189557D01*
X118905151Y-47257832D01*
X118905148Y-47257833D01*
X118902463Y-47258824D01*
X118728010Y-47362612D01*
X118575392Y-47496455D01*
X118449720Y-47655869D01*
X118355203Y-47835515D01*
X118354356Y-47838242D01*
X118354355Y-47838245D01*
X118311683Y-47975672D01*
X118295007Y-48029378D01*
X118271148Y-48230964D01*
X117405730Y-48230964D01*
X118884537Y-46752157D01*
X118928731Y-46733851D01*
X118953398Y-46738926D01*
X119037228Y-46774942D01*
X119135484Y-46797175D01*
X119232426Y-46819111D01*
X119232429Y-46819111D01*
X119235216Y-46819742D01*
X119325164Y-46823276D01*
X119435193Y-46827600D01*
X119435197Y-46827600D01*
X119438053Y-46827712D01*
X119638945Y-46798584D01*
X119831165Y-46733334D01*
X120008276Y-46634147D01*
X120164345Y-46504345D01*
X120294147Y-46348276D01*
X120393334Y-46171165D01*
X120458584Y-45978945D01*
X120487712Y-45778053D01*
X120489232Y-45720000D01*
X120488425Y-45711210D01*
X120477228Y-45589359D01*
X120470658Y-45517859D01*
X120469879Y-45515096D01*
X120416335Y-45325244D01*
X120416333Y-45325240D01*
X120415557Y-45322487D01*
X120352214Y-45194040D01*
X120327044Y-45142999D01*
X120327043Y-45142998D01*
X120325776Y-45140428D01*
X120324058Y-45138127D01*
X120206037Y-44980078D01*
X120206036Y-44980076D01*
X120204320Y-44977779D01*
X120055258Y-44839987D01*
X119883581Y-44731667D01*
X119695039Y-44656446D01*
X119692233Y-44655888D01*
X119692230Y-44655887D01*
X119498752Y-44617402D01*
X119498750Y-44617402D01*
X119495946Y-44616844D01*
X119400353Y-44615593D01*
X119295833Y-44614224D01*
X119295828Y-44614224D01*
X119292971Y-44614187D01*
X119290151Y-44614672D01*
X119290146Y-44614672D01*
X119195207Y-44630986D01*
X119092910Y-44648564D01*
X119090222Y-44649556D01*
X119090217Y-44649557D01*
X118905151Y-44717832D01*
X118905148Y-44717833D01*
X118902463Y-44718824D01*
X118728010Y-44822612D01*
X118636064Y-44903247D01*
X118580518Y-44951960D01*
X118575392Y-44956455D01*
X118573616Y-44958708D01*
X118573615Y-44958709D01*
X118549561Y-44989222D01*
X118449720Y-45115869D01*
X118355203Y-45295515D01*
X118354356Y-45298242D01*
X118354355Y-45298245D01*
X118346828Y-45322487D01*
X118295007Y-45489378D01*
X118271148Y-45690964D01*
X118273627Y-45728790D01*
X118282190Y-45859431D01*
X118284424Y-45893522D01*
X118334392Y-46090269D01*
X118335593Y-46092874D01*
X118359903Y-46145608D01*
X118361781Y-46193407D01*
X118347338Y-46215968D01*
X115259763Y-49303543D01*
X115215569Y-49321849D01*
X115171375Y-49303543D01*
X115157105Y-49281443D01*
X115133981Y-49220247D01*
X115044254Y-49089693D01*
X115007755Y-49057174D01*
X114928788Y-48986817D01*
X114928786Y-48986816D01*
X114925976Y-48984312D01*
X114785975Y-48910185D01*
X114632334Y-48871593D01*
X114628569Y-48871573D01*
X114628567Y-48871573D01*
X114549997Y-48871162D01*
X114473922Y-48870763D01*
X114470258Y-48871643D01*
X114470255Y-48871643D01*
X114411388Y-48885776D01*
X114319885Y-48907744D01*
X114316543Y-48909469D01*
X114316540Y-48909470D01*
X114249500Y-48944073D01*
X114179115Y-48980401D01*
X114059740Y-49084539D01*
X114057574Y-49087621D01*
X114057573Y-49087622D01*
X114032050Y-49123938D01*
X113991662Y-49149569D01*
X113980916Y-49150500D01*
X108778707Y-49150500D01*
X108734513Y-49132194D01*
X108716207Y-49088000D01*
X108734261Y-49044415D01*
X108734345Y-49044345D01*
X108864147Y-48888276D01*
X108963334Y-48711165D01*
X109028584Y-48518945D01*
X109057712Y-48318053D01*
X109059232Y-48260000D01*
X109056303Y-48228116D01*
X109040920Y-48060714D01*
X109040658Y-48057859D01*
X109039879Y-48055096D01*
X108986335Y-47865244D01*
X108986333Y-47865240D01*
X108985557Y-47862487D01*
X108895776Y-47680428D01*
X108877437Y-47655869D01*
X108776037Y-47520078D01*
X108776036Y-47520076D01*
X108774320Y-47517779D01*
X108625258Y-47379987D01*
X108453581Y-47271667D01*
X108265039Y-47196446D01*
X108262233Y-47195888D01*
X108262230Y-47195887D01*
X108068752Y-47157402D01*
X108068750Y-47157402D01*
X108065946Y-47156844D01*
X107970353Y-47155593D01*
X107865833Y-47154224D01*
X107865828Y-47154224D01*
X107862971Y-47154187D01*
X107860151Y-47154672D01*
X107860146Y-47154672D01*
X107743751Y-47174673D01*
X107662910Y-47188564D01*
X107660222Y-47189556D01*
X107660217Y-47189557D01*
X107475151Y-47257832D01*
X107475148Y-47257833D01*
X107472463Y-47258824D01*
X107298010Y-47362612D01*
X107145392Y-47496455D01*
X107019720Y-47655869D01*
X106925203Y-47835515D01*
X106924356Y-47838242D01*
X106924355Y-47838245D01*
X106881683Y-47975672D01*
X106865007Y-48029378D01*
X106841148Y-48230964D01*
X106854424Y-48433522D01*
X106904392Y-48630269D01*
X106989377Y-48814616D01*
X107106533Y-48980389D01*
X107108587Y-48982390D01*
X107108588Y-48982391D01*
X107171043Y-49043231D01*
X107189926Y-49087181D01*
X107172200Y-49131612D01*
X107127431Y-49150500D01*
X106863082Y-49150500D01*
X106818888Y-49132194D01*
X106444360Y-48757666D01*
X106426054Y-48713472D01*
X106429371Y-48693382D01*
X106487663Y-48521658D01*
X106488584Y-48518945D01*
X106517712Y-48318053D01*
X106519232Y-48260000D01*
X106516303Y-48228116D01*
X106500920Y-48060714D01*
X106500658Y-48057859D01*
X106499879Y-48055096D01*
X106446335Y-47865244D01*
X106446333Y-47865240D01*
X106445557Y-47862487D01*
X106355776Y-47680428D01*
X106337437Y-47655869D01*
X106236037Y-47520078D01*
X106236036Y-47520076D01*
X106234320Y-47517779D01*
X106085258Y-47379987D01*
X105913581Y-47271667D01*
X105725039Y-47196446D01*
X105722233Y-47195888D01*
X105722230Y-47195887D01*
X105528752Y-47157402D01*
X105528750Y-47157402D01*
X105525946Y-47156844D01*
X105430353Y-47155593D01*
X105325833Y-47154224D01*
X105325828Y-47154224D01*
X105322971Y-47154187D01*
X105320151Y-47154672D01*
X105320146Y-47154672D01*
X105203751Y-47174673D01*
X105122910Y-47188564D01*
X105120222Y-47189556D01*
X105120217Y-47189557D01*
X104935151Y-47257832D01*
X104935148Y-47257833D01*
X104932463Y-47258824D01*
X104758010Y-47362612D01*
X104605392Y-47496455D01*
X104479720Y-47655869D01*
X104385203Y-47835515D01*
X104384356Y-47838242D01*
X104384355Y-47838245D01*
X104341683Y-47975672D01*
X104325007Y-48029378D01*
X104301148Y-48230964D01*
X104314424Y-48433522D01*
X104364392Y-48630269D01*
X104449377Y-48814616D01*
X104566533Y-48980389D01*
X104568587Y-48982390D01*
X104568588Y-48982391D01*
X104629924Y-49042141D01*
X104711938Y-49122035D01*
X104880720Y-49234812D01*
X104927828Y-49255051D01*
X105064588Y-49313808D01*
X105064590Y-49313809D01*
X105067228Y-49314942D01*
X105167641Y-49337663D01*
X105262426Y-49359111D01*
X105262429Y-49359111D01*
X105265216Y-49359742D01*
X105355164Y-49363276D01*
X105465193Y-49367600D01*
X105465197Y-49367600D01*
X105468053Y-49367712D01*
X105668945Y-49338584D01*
X105718245Y-49321849D01*
X105843382Y-49279371D01*
X105891115Y-49282500D01*
X105907666Y-49294360D01*
X106378302Y-49764996D01*
X106386611Y-49775284D01*
X106395429Y-49788940D01*
X106406709Y-49797832D01*
X106424743Y-49812049D01*
X106430244Y-49816938D01*
X106433944Y-49820638D01*
X106450861Y-49832727D01*
X106453214Y-49834494D01*
X106490559Y-49863933D01*
X106494647Y-49867156D01*
X106499524Y-49868869D01*
X106502990Y-49870774D01*
X106506529Y-49872508D01*
X106510734Y-49875513D01*
X106515683Y-49876993D01*
X106515685Y-49876994D01*
X106561263Y-49890625D01*
X106564062Y-49891534D01*
X106595609Y-49902612D01*
X106613851Y-49909018D01*
X106617851Y-49909364D01*
X106618074Y-49909384D01*
X106618079Y-49909384D01*
X106619416Y-49909500D01*
X106619693Y-49909500D01*
X106623719Y-49909840D01*
X106626828Y-49910233D01*
X106631778Y-49911713D01*
X106686883Y-49909548D01*
X106689336Y-49909500D01*
X106783000Y-49909500D01*
X106827194Y-49927806D01*
X106845500Y-49972000D01*
X106845501Y-50798179D01*
X106845501Y-51610567D01*
X106827195Y-51654761D01*
X106783001Y-51673067D01*
X106767775Y-51671184D01*
X106762633Y-51669892D01*
X106758868Y-51669872D01*
X106758866Y-51669872D01*
X106680296Y-51669461D01*
X106604221Y-51669062D01*
X106600557Y-51669942D01*
X106600554Y-51669942D01*
X106566658Y-51678080D01*
X106450184Y-51706043D01*
X106446842Y-51707768D01*
X106446839Y-51707769D01*
X106431770Y-51715547D01*
X106309414Y-51778700D01*
X106294238Y-51791939D01*
X106222017Y-51854942D01*
X106190039Y-51882838D01*
X106187873Y-51885920D01*
X106187872Y-51885921D01*
X106172846Y-51907301D01*
X106098950Y-52012444D01*
X106097581Y-52015955D01*
X106097580Y-52015957D01*
X106095197Y-52022071D01*
X106041406Y-52160037D01*
X106040914Y-52163774D01*
X106021221Y-52313355D01*
X106021221Y-52313359D01*
X106020729Y-52317096D01*
X106038113Y-52474553D01*
X106092553Y-52623319D01*
X106112501Y-52653004D01*
X106169888Y-52738405D01*
X106180908Y-52754805D01*
X106183695Y-52757341D01*
X106280063Y-52845029D01*
X106300500Y-52891256D01*
X106300500Y-55578836D01*
X106299100Y-55591991D01*
X106295680Y-55607876D01*
X106296287Y-55613005D01*
X106296287Y-55613008D01*
X106300067Y-55644941D01*
X106300500Y-55652287D01*
X106300500Y-55657524D01*
X106300923Y-55660065D01*
X106300924Y-55660077D01*
X106303915Y-55678042D01*
X106304329Y-55680950D01*
X106310530Y-55733341D01*
X106312766Y-55737998D01*
X106313865Y-55741779D01*
X106315147Y-55745526D01*
X106315996Y-55750626D01*
X106318449Y-55755172D01*
X106318450Y-55755175D01*
X106341051Y-55797061D01*
X106342388Y-55799686D01*
X106365219Y-55847232D01*
X106368814Y-55851508D01*
X106369012Y-55851706D01*
X106371612Y-55854786D01*
X106373537Y-55857267D01*
X106375990Y-55861814D01*
X106379785Y-55865322D01*
X106416486Y-55899248D01*
X106418255Y-55900949D01*
X109838194Y-59320888D01*
X109856500Y-59365082D01*
X109856500Y-59886059D01*
X109835086Y-59933157D01*
X109796089Y-59967176D01*
X109753057Y-60004716D01*
X109746039Y-60010838D01*
X109654950Y-60140444D01*
X109653581Y-60143955D01*
X109653580Y-60143957D01*
X109633850Y-60194564D01*
X109597406Y-60288037D01*
X109596914Y-60291774D01*
X109577221Y-60441355D01*
X109577221Y-60441359D01*
X109576729Y-60445096D01*
X109594113Y-60602553D01*
X109648553Y-60751319D01*
X109683014Y-60802602D01*
X109702277Y-60831268D01*
X109736908Y-60882805D01*
X109770307Y-60913196D01*
X109790675Y-60956477D01*
X109774471Y-61001485D01*
X109769331Y-61006519D01*
X109746039Y-61026838D01*
X109743873Y-61029920D01*
X109743872Y-61029921D01*
X109718578Y-61065910D01*
X109677730Y-61091620D01*
X109676472Y-61091830D01*
X109675960Y-61091915D01*
X109673043Y-61092331D01*
X109620659Y-61098531D01*
X109616003Y-61100767D01*
X109612174Y-61101879D01*
X109608467Y-61103148D01*
X109603374Y-61103996D01*
X109598829Y-61106448D01*
X109598827Y-61106449D01*
X109556930Y-61129055D01*
X109554307Y-61130392D01*
X109506768Y-61153220D01*
X109502492Y-61156814D01*
X109502296Y-61157010D01*
X109499211Y-61159615D01*
X109496735Y-61161535D01*
X109492186Y-61163990D01*
X109488677Y-61167786D01*
X109454752Y-61204486D01*
X109453051Y-61206255D01*
X109417763Y-61241543D01*
X109373569Y-61259849D01*
X109329375Y-61241543D01*
X109315105Y-61219443D01*
X109291981Y-61158247D01*
X109202254Y-61027693D01*
X109126732Y-60960406D01*
X109086788Y-60924817D01*
X109086786Y-60924816D01*
X109083976Y-60922312D01*
X108943975Y-60848185D01*
X108790334Y-60809593D01*
X108786569Y-60809573D01*
X108786567Y-60809573D01*
X108707997Y-60809162D01*
X108631922Y-60808763D01*
X108628258Y-60809643D01*
X108628255Y-60809643D01*
X108558649Y-60826354D01*
X108477885Y-60845744D01*
X108474538Y-60847471D01*
X108474534Y-60847473D01*
X108453867Y-60858140D01*
X108406200Y-60862144D01*
X108369663Y-60831268D01*
X108362701Y-60802602D01*
X108362701Y-59770365D01*
X108364101Y-59757210D01*
X108366433Y-59746377D01*
X108367521Y-59741325D01*
X108365325Y-59722768D01*
X108363134Y-59704262D01*
X108362701Y-59696915D01*
X108362701Y-59691677D01*
X108362278Y-59689136D01*
X108362277Y-59689124D01*
X108359284Y-59671147D01*
X108358868Y-59668229D01*
X108353277Y-59620989D01*
X108352670Y-59615860D01*
X108350434Y-59611204D01*
X108349322Y-59607375D01*
X108348053Y-59603668D01*
X108347205Y-59598575D01*
X108344752Y-59594028D01*
X108322146Y-59552131D01*
X108320809Y-59549508D01*
X108312889Y-59533015D01*
X108297981Y-59501969D01*
X108294387Y-59497693D01*
X108294191Y-59497497D01*
X108291586Y-59494412D01*
X108289666Y-59491936D01*
X108287211Y-59487387D01*
X108246715Y-59449953D01*
X108244946Y-59448252D01*
X104537806Y-55741112D01*
X104519500Y-55696918D01*
X104519500Y-51622710D01*
X104537806Y-51578516D01*
X104582000Y-51560210D01*
X104625612Y-51577941D01*
X104640897Y-51592831D01*
X104711938Y-51662035D01*
X104880720Y-51774812D01*
X104920971Y-51792105D01*
X105064588Y-51853808D01*
X105064590Y-51853809D01*
X105067228Y-51854942D01*
X105167641Y-51877663D01*
X105262426Y-51899111D01*
X105262429Y-51899111D01*
X105265216Y-51899742D01*
X105355164Y-51903276D01*
X105465193Y-51907600D01*
X105465197Y-51907600D01*
X105468053Y-51907712D01*
X105668945Y-51878584D01*
X105861165Y-51813334D01*
X106038276Y-51714147D01*
X106194345Y-51584345D01*
X106324147Y-51428276D01*
X106423334Y-51251165D01*
X106488584Y-51058945D01*
X106517712Y-50858053D01*
X106519232Y-50800000D01*
X106516303Y-50768116D01*
X106500920Y-50600714D01*
X106500658Y-50597859D01*
X106499879Y-50595096D01*
X106446335Y-50405244D01*
X106446333Y-50405240D01*
X106445557Y-50402487D01*
X106355776Y-50220428D01*
X106337437Y-50195869D01*
X106236037Y-50060078D01*
X106236036Y-50060076D01*
X106234320Y-50057779D01*
X106085258Y-49919987D01*
X105913581Y-49811667D01*
X105725039Y-49736446D01*
X105722233Y-49735888D01*
X105722230Y-49735887D01*
X105528752Y-49697402D01*
X105528750Y-49697402D01*
X105525946Y-49696844D01*
X105430353Y-49695593D01*
X105325833Y-49694224D01*
X105325828Y-49694224D01*
X105322971Y-49694187D01*
X105320151Y-49694672D01*
X105320146Y-49694672D01*
X105213009Y-49713082D01*
X105122910Y-49728564D01*
X105120222Y-49729556D01*
X105120217Y-49729557D01*
X104935151Y-49797832D01*
X104935148Y-49797833D01*
X104932463Y-49798824D01*
X104758010Y-49902612D01*
X104629801Y-50015049D01*
X104623209Y-50020830D01*
X104577912Y-50036206D01*
X104535010Y-50015049D01*
X104519500Y-49973840D01*
X104519500Y-49577164D01*
X104520900Y-49564009D01*
X104523232Y-49553176D01*
X104524320Y-49548124D01*
X104519933Y-49511061D01*
X104519500Y-49503714D01*
X104519500Y-49498476D01*
X104519077Y-49495935D01*
X104519076Y-49495923D01*
X104516083Y-49477946D01*
X104515667Y-49475028D01*
X104510076Y-49427788D01*
X104509469Y-49422659D01*
X104507233Y-49418003D01*
X104506121Y-49414174D01*
X104504852Y-49410467D01*
X104504004Y-49405374D01*
X104486429Y-49372801D01*
X104478945Y-49358930D01*
X104477608Y-49356307D01*
X104461061Y-49321849D01*
X104454780Y-49308768D01*
X104451186Y-49304492D01*
X104450990Y-49304296D01*
X104448385Y-49301211D01*
X104446465Y-49298735D01*
X104444010Y-49294186D01*
X104430223Y-49281441D01*
X104403514Y-49256752D01*
X104401745Y-49255051D01*
X103171698Y-48025004D01*
X103163389Y-48014716D01*
X103154571Y-48001060D01*
X103125257Y-47977951D01*
X103119756Y-47973062D01*
X103116056Y-47969362D01*
X103113962Y-47967866D01*
X103113959Y-47967863D01*
X103099137Y-47957271D01*
X103096783Y-47955504D01*
X103059411Y-47926043D01*
X103055353Y-47922844D01*
X103050477Y-47921132D01*
X103046976Y-47919207D01*
X103043465Y-47917487D01*
X103039266Y-47914486D01*
X103034324Y-47913008D01*
X103034320Y-47913006D01*
X102998154Y-47902191D01*
X102988700Y-47899363D01*
X102985906Y-47898455D01*
X102939861Y-47882285D01*
X102939857Y-47882284D01*
X102936149Y-47880982D01*
X102932149Y-47880636D01*
X102931926Y-47880616D01*
X102931921Y-47880616D01*
X102930584Y-47880500D01*
X102930307Y-47880500D01*
X102926281Y-47880160D01*
X102923172Y-47879767D01*
X102918222Y-47878287D01*
X102863118Y-47880452D01*
X102860664Y-47880500D01*
X102683306Y-47880500D01*
X102639112Y-47862194D01*
X102627251Y-47845643D01*
X102547044Y-47682999D01*
X102547043Y-47682998D01*
X102545776Y-47680428D01*
X102527437Y-47655869D01*
X102426037Y-47520078D01*
X102426036Y-47520076D01*
X102424320Y-47517779D01*
X102275258Y-47379987D01*
X102103581Y-47271667D01*
X101915039Y-47196446D01*
X101912233Y-47195888D01*
X101912230Y-47195887D01*
X101718752Y-47157402D01*
X101718750Y-47157402D01*
X101715946Y-47156844D01*
X101620353Y-47155593D01*
X101515833Y-47154224D01*
X101515828Y-47154224D01*
X101512971Y-47154187D01*
X101510151Y-47154672D01*
X101510146Y-47154672D01*
X101393751Y-47174673D01*
X101312910Y-47188564D01*
X101310222Y-47189556D01*
X101310217Y-47189557D01*
X101125151Y-47257832D01*
X101125148Y-47257833D01*
X101122463Y-47258824D01*
X100948010Y-47362612D01*
X100795392Y-47496455D01*
X100669720Y-47655869D01*
X100575203Y-47835515D01*
X100574356Y-47838242D01*
X100574355Y-47838245D01*
X100531683Y-47975672D01*
X100515007Y-48029378D01*
X100491148Y-48230964D01*
X100504424Y-48433522D01*
X100554392Y-48630269D01*
X100639377Y-48814616D01*
X100756533Y-48980389D01*
X100758587Y-48982390D01*
X100758588Y-48982391D01*
X100819924Y-49042141D01*
X100901938Y-49122035D01*
X101070720Y-49234812D01*
X101117828Y-49255051D01*
X101254588Y-49313808D01*
X101254590Y-49313809D01*
X101257228Y-49314942D01*
X101357641Y-49337663D01*
X101452426Y-49359111D01*
X101452429Y-49359111D01*
X101455216Y-49359742D01*
X101545164Y-49363276D01*
X101655193Y-49367600D01*
X101655197Y-49367600D01*
X101658053Y-49367712D01*
X101858945Y-49338584D01*
X102051165Y-49273334D01*
X102228276Y-49174147D01*
X102384345Y-49044345D01*
X102514147Y-48888276D01*
X102613334Y-48711165D01*
X102623265Y-48681910D01*
X102654805Y-48645945D01*
X102682448Y-48639500D01*
X102686918Y-48639500D01*
X102731112Y-48657806D01*
X103742194Y-49668888D01*
X103760500Y-49713082D01*
X103760500Y-52272918D01*
X103742194Y-52317112D01*
X103698000Y-52335418D01*
X103653806Y-52317112D01*
X102634360Y-51297666D01*
X102616054Y-51253472D01*
X102619371Y-51233382D01*
X102677663Y-51061658D01*
X102678584Y-51058945D01*
X102707712Y-50858053D01*
X102709232Y-50800000D01*
X102706303Y-50768116D01*
X102690920Y-50600714D01*
X102690658Y-50597859D01*
X102689879Y-50595096D01*
X102636335Y-50405244D01*
X102636333Y-50405240D01*
X102635557Y-50402487D01*
X102545776Y-50220428D01*
X102527437Y-50195869D01*
X102426037Y-50060078D01*
X102426036Y-50060076D01*
X102424320Y-50057779D01*
X102275258Y-49919987D01*
X102103581Y-49811667D01*
X101915039Y-49736446D01*
X101912233Y-49735888D01*
X101912230Y-49735887D01*
X101718752Y-49697402D01*
X101718750Y-49697402D01*
X101715946Y-49696844D01*
X101620353Y-49695593D01*
X101515833Y-49694224D01*
X101515828Y-49694224D01*
X101512971Y-49694187D01*
X101510151Y-49694672D01*
X101510146Y-49694672D01*
X101403009Y-49713082D01*
X101312910Y-49728564D01*
X101310222Y-49729556D01*
X101310217Y-49729557D01*
X101125151Y-49797832D01*
X101125148Y-49797833D01*
X101122463Y-49798824D01*
X100948010Y-49902612D01*
X100795392Y-50036455D01*
X100793616Y-50038708D01*
X100793615Y-50038709D01*
X100690136Y-50169972D01*
X100669720Y-50195869D01*
X100575203Y-50375515D01*
X100574356Y-50378242D01*
X100574355Y-50378245D01*
X100561807Y-50418657D01*
X100515007Y-50569378D01*
X100491148Y-50770964D01*
X100504424Y-50973522D01*
X100554392Y-51170269D01*
X100639377Y-51354616D01*
X100756533Y-51520389D01*
X100901938Y-51662035D01*
X101070720Y-51774812D01*
X101110971Y-51792105D01*
X101254588Y-51853808D01*
X101254590Y-51853809D01*
X101257228Y-51854942D01*
X101357641Y-51877663D01*
X101452426Y-51899111D01*
X101452429Y-51899111D01*
X101455216Y-51899742D01*
X101545164Y-51903276D01*
X101655193Y-51907600D01*
X101655197Y-51907600D01*
X101658053Y-51907712D01*
X101858945Y-51878584D01*
X101880659Y-51871213D01*
X102033382Y-51819371D01*
X102081115Y-51822500D01*
X102097666Y-51834360D01*
X103292194Y-53028888D01*
X103310500Y-53073082D01*
X103310500Y-56019232D01*
X103309100Y-56032387D01*
X103305680Y-56048272D01*
X103306287Y-56053401D01*
X103306287Y-56053404D01*
X103310067Y-56085337D01*
X103310500Y-56092683D01*
X103310500Y-56097920D01*
X103310923Y-56100461D01*
X103310924Y-56100473D01*
X103313915Y-56118438D01*
X103314329Y-56121346D01*
X103320530Y-56173737D01*
X103322766Y-56178394D01*
X103323865Y-56182175D01*
X103325147Y-56185922D01*
X103325996Y-56191022D01*
X103328449Y-56195568D01*
X103328450Y-56195571D01*
X103351051Y-56237457D01*
X103352388Y-56240082D01*
X103358531Y-56252874D01*
X103375219Y-56287628D01*
X103378814Y-56291904D01*
X103379012Y-56292102D01*
X103381612Y-56295182D01*
X103383537Y-56297663D01*
X103385990Y-56302210D01*
X103406819Y-56321464D01*
X103426486Y-56339644D01*
X103428255Y-56341345D01*
X107044194Y-59957284D01*
X107062500Y-60001478D01*
X107062500Y-62415476D01*
X107044194Y-62459670D01*
X107028666Y-62471015D01*
X106888115Y-62543559D01*
X106768740Y-62647697D01*
X106766574Y-62650779D01*
X106766573Y-62650780D01*
X106726721Y-62707484D01*
X106677651Y-62777303D01*
X106676282Y-62780814D01*
X106676281Y-62780816D01*
X106632303Y-62893616D01*
X106620107Y-62924896D01*
X106619615Y-62928633D01*
X106599922Y-63078214D01*
X106599922Y-63078218D01*
X106599430Y-63081955D01*
X106616814Y-63239412D01*
X106671254Y-63388178D01*
X106692727Y-63420133D01*
X106745172Y-63498179D01*
X106759609Y-63519664D01*
X106876777Y-63626278D01*
X107015994Y-63701867D01*
X107035998Y-63707115D01*
X107074100Y-63736037D01*
X107080591Y-63783430D01*
X107078368Y-63790271D01*
X107057406Y-63844037D01*
X107056914Y-63847774D01*
X107037221Y-63997355D01*
X107037221Y-63997359D01*
X107036729Y-64001096D01*
X107054113Y-64158553D01*
X107108553Y-64307319D01*
X107196908Y-64438805D01*
X107314076Y-64545419D01*
X107317385Y-64547216D01*
X107317387Y-64547217D01*
X107331615Y-64554942D01*
X107453293Y-64621008D01*
X107456940Y-64621965D01*
X107456943Y-64621966D01*
X107602874Y-64660250D01*
X107606522Y-64661207D01*
X107623147Y-64661468D01*
X107667048Y-64680465D01*
X107684658Y-64724941D01*
X107666360Y-64768154D01*
X104760320Y-67674194D01*
X104716126Y-67692500D01*
X104073476Y-67692500D01*
X104029282Y-67674194D01*
X104015011Y-67652093D01*
X103963611Y-67516068D01*
X103963611Y-67516067D01*
X103962280Y-67512546D01*
X103872553Y-67381992D01*
X103754275Y-67276611D01*
X103614274Y-67202484D01*
X103460633Y-67163892D01*
X103456868Y-67163872D01*
X103456866Y-67163872D01*
X103378296Y-67163461D01*
X103302221Y-67163062D01*
X103298557Y-67163942D01*
X103298554Y-67163942D01*
X103228948Y-67180653D01*
X103148184Y-67200043D01*
X103144842Y-67201768D01*
X103144839Y-67201769D01*
X103077799Y-67236371D01*
X103007414Y-67272700D01*
X102888039Y-67376838D01*
X102885873Y-67379920D01*
X102885872Y-67379921D01*
X102882233Y-67385099D01*
X102796950Y-67506444D01*
X102795581Y-67509955D01*
X102795580Y-67509957D01*
X102793198Y-67516068D01*
X102739406Y-67654037D01*
X102738914Y-67657774D01*
X102719221Y-67807355D01*
X102719221Y-67807359D01*
X102718729Y-67811096D01*
X102736113Y-67968553D01*
X102748718Y-68002999D01*
X102790261Y-68116521D01*
X102788258Y-68164315D01*
X102753047Y-68196693D01*
X102731568Y-68200500D01*
X102683306Y-68200500D01*
X102639112Y-68182194D01*
X102627251Y-68165643D01*
X102547044Y-68002999D01*
X102547043Y-68002998D01*
X102545776Y-68000428D01*
X102527437Y-67975869D01*
X102426037Y-67840078D01*
X102426036Y-67840076D01*
X102424320Y-67837779D01*
X102275258Y-67699987D01*
X102103581Y-67591667D01*
X101915039Y-67516446D01*
X101912233Y-67515888D01*
X101912230Y-67515887D01*
X101718752Y-67477402D01*
X101718750Y-67477402D01*
X101715946Y-67476844D01*
X101620353Y-67475593D01*
X101515833Y-67474224D01*
X101515828Y-67474224D01*
X101512971Y-67474187D01*
X101510151Y-67474672D01*
X101510146Y-67474672D01*
X101403009Y-67493082D01*
X101312910Y-67508564D01*
X101310222Y-67509556D01*
X101310217Y-67509557D01*
X101125151Y-67577832D01*
X101125148Y-67577833D01*
X101122463Y-67578824D01*
X100948010Y-67682612D01*
X100856064Y-67763247D01*
X100801503Y-67811096D01*
X100795392Y-67816455D01*
X100669720Y-67975869D01*
X100575203Y-68155515D01*
X100574356Y-68158242D01*
X100574355Y-68158245D01*
X100538783Y-68272806D01*
X100515007Y-68349378D01*
X100491148Y-68550964D01*
X100491367Y-68554303D01*
X100499637Y-68680477D01*
X100504424Y-68753522D01*
X100505130Y-68756302D01*
X100524348Y-68831970D01*
X100554392Y-68950269D01*
X100639377Y-69134616D01*
X100756533Y-69300389D01*
X100758587Y-69302390D01*
X100758588Y-69302391D01*
X100856834Y-69398097D01*
X100901938Y-69442035D01*
X101070720Y-69554812D01*
X101142619Y-69585702D01*
X101254588Y-69633808D01*
X101254590Y-69633809D01*
X101257228Y-69634942D01*
X101341603Y-69654034D01*
X101452426Y-69679111D01*
X101452429Y-69679111D01*
X101455216Y-69679742D01*
X101545164Y-69683276D01*
X101655193Y-69687600D01*
X101655197Y-69687600D01*
X101658053Y-69687712D01*
X101669606Y-69686037D01*
X101717373Y-69679111D01*
X101858945Y-69658584D01*
X102051165Y-69593334D01*
X102228276Y-69494147D01*
X102384345Y-69364345D01*
X102514147Y-69208276D01*
X102613334Y-69031165D01*
X102618909Y-69014741D01*
X102623265Y-69001910D01*
X102654805Y-68965945D01*
X102682448Y-68959500D01*
X104596918Y-68959500D01*
X104641112Y-68977806D01*
X104659418Y-69022000D01*
X104641112Y-69066194D01*
X102985112Y-70722194D01*
X102940918Y-70740500D01*
X102683306Y-70740500D01*
X102639112Y-70722194D01*
X102627251Y-70705643D01*
X102547044Y-70542999D01*
X102547043Y-70542998D01*
X102545776Y-70540428D01*
X102527437Y-70515869D01*
X102426037Y-70380078D01*
X102426036Y-70380076D01*
X102424320Y-70377779D01*
X102275258Y-70239987D01*
X102103581Y-70131667D01*
X101915039Y-70056446D01*
X101912233Y-70055888D01*
X101912230Y-70055887D01*
X101718752Y-70017402D01*
X101718750Y-70017402D01*
X101715946Y-70016844D01*
X101620353Y-70015593D01*
X101515833Y-70014224D01*
X101515828Y-70014224D01*
X101512971Y-70014187D01*
X101510151Y-70014672D01*
X101510146Y-70014672D01*
X101416208Y-70030814D01*
X101312910Y-70048564D01*
X101310222Y-70049556D01*
X101310217Y-70049557D01*
X101125151Y-70117832D01*
X101125148Y-70117833D01*
X101122463Y-70118824D01*
X100948010Y-70222612D01*
X100795392Y-70356455D01*
X100793616Y-70358708D01*
X100793615Y-70358709D01*
X100729169Y-70440459D01*
X100669720Y-70515869D01*
X100575203Y-70695515D01*
X100574356Y-70698242D01*
X100574355Y-70698245D01*
X100516378Y-70884963D01*
X100515007Y-70889378D01*
X100491148Y-71090964D01*
X100504424Y-71293522D01*
X100505130Y-71296302D01*
X100553183Y-71485507D01*
X100554392Y-71490269D01*
X100639377Y-71674616D01*
X100756533Y-71840389D01*
X100901938Y-71982035D01*
X101070720Y-72094812D01*
X101157124Y-72131934D01*
X101254588Y-72173808D01*
X101254590Y-72173809D01*
X101257228Y-72174942D01*
X101329600Y-72191318D01*
X101452426Y-72219111D01*
X101452429Y-72219111D01*
X101455216Y-72219742D01*
X101545164Y-72223276D01*
X101655193Y-72227600D01*
X101655197Y-72227600D01*
X101658053Y-72227712D01*
X101858945Y-72198584D01*
X102051165Y-72133334D01*
X102228276Y-72034147D01*
X102384345Y-71904345D01*
X102514147Y-71748276D01*
X102613334Y-71571165D01*
X102623265Y-71541910D01*
X102654805Y-71505945D01*
X102682448Y-71499500D01*
X103076836Y-71499500D01*
X103089992Y-71500900D01*
X103105876Y-71504320D01*
X103111005Y-71503713D01*
X103111008Y-71503713D01*
X103142941Y-71499933D01*
X103150287Y-71499500D01*
X103155524Y-71499500D01*
X103158065Y-71499077D01*
X103158077Y-71499076D01*
X103176042Y-71496085D01*
X103178950Y-71495671D01*
X103231341Y-71489470D01*
X103235998Y-71487234D01*
X103239779Y-71486135D01*
X103243526Y-71484853D01*
X103248626Y-71484004D01*
X103253172Y-71481551D01*
X103253175Y-71481550D01*
X103295061Y-71458949D01*
X103297686Y-71457612D01*
X103341686Y-71436484D01*
X103341688Y-71436483D01*
X103345232Y-71434781D01*
X103348241Y-71432252D01*
X103348243Y-71432250D01*
X103348473Y-71432056D01*
X103349508Y-71431186D01*
X103349706Y-71430988D01*
X103352786Y-71428388D01*
X103355267Y-71426463D01*
X103359814Y-71424010D01*
X103397248Y-71383514D01*
X103398949Y-71381745D01*
X105177806Y-69602888D01*
X105222000Y-69584582D01*
X105266194Y-69602888D01*
X105284500Y-69647082D01*
X105284500Y-76524918D01*
X105266194Y-76569112D01*
X105017112Y-76818194D01*
X104972918Y-76836500D01*
X104198273Y-76836500D01*
X104154079Y-76818194D01*
X104146765Y-76809401D01*
X104126553Y-76779992D01*
X104077578Y-76736357D01*
X104011087Y-76677116D01*
X104011085Y-76677115D01*
X104008275Y-76674611D01*
X103868274Y-76600484D01*
X103714633Y-76561892D01*
X103710868Y-76561872D01*
X103710866Y-76561872D01*
X103632296Y-76561461D01*
X103556221Y-76561062D01*
X103552557Y-76561942D01*
X103552554Y-76561942D01*
X103507020Y-76572874D01*
X103402184Y-76598043D01*
X103398842Y-76599768D01*
X103398839Y-76599769D01*
X103331799Y-76634371D01*
X103261414Y-76670700D01*
X103258576Y-76673175D01*
X103258577Y-76673175D01*
X103147317Y-76770234D01*
X103142039Y-76774838D01*
X103139873Y-76777920D01*
X103139872Y-76777921D01*
X103114534Y-76813973D01*
X103050950Y-76904444D01*
X103049581Y-76907955D01*
X103049580Y-76907957D01*
X103002778Y-77028000D01*
X102993406Y-77052037D01*
X102992914Y-77055774D01*
X102973221Y-77205355D01*
X102973221Y-77205359D01*
X102972729Y-77209096D01*
X102990113Y-77366553D01*
X103044553Y-77515319D01*
X103070285Y-77553612D01*
X103112053Y-77615769D01*
X103132908Y-77646805D01*
X103250076Y-77753419D01*
X103253385Y-77755216D01*
X103253387Y-77755217D01*
X103303176Y-77782250D01*
X103389293Y-77829008D01*
X103392940Y-77829965D01*
X103392943Y-77829966D01*
X103530534Y-77866062D01*
X103542522Y-77869207D01*
X103627157Y-77870536D01*
X103697147Y-77871636D01*
X103697149Y-77871636D01*
X103700916Y-77871695D01*
X103855332Y-77836329D01*
X103858696Y-77834637D01*
X103858699Y-77834636D01*
X103939652Y-77793921D01*
X103996855Y-77765151D01*
X103999720Y-77762704D01*
X103999723Y-77762702D01*
X104108213Y-77670042D01*
X104117314Y-77662269D01*
X104146590Y-77621527D01*
X104187242Y-77596322D01*
X104197343Y-77595500D01*
X105108836Y-77595500D01*
X105121992Y-77596900D01*
X105137876Y-77600320D01*
X105143005Y-77599713D01*
X105143008Y-77599713D01*
X105174941Y-77595933D01*
X105182287Y-77595500D01*
X105187524Y-77595500D01*
X105190065Y-77595077D01*
X105190077Y-77595076D01*
X105208042Y-77592085D01*
X105210950Y-77591671D01*
X105263341Y-77585470D01*
X105267998Y-77583234D01*
X105271779Y-77582135D01*
X105275526Y-77580853D01*
X105280626Y-77580004D01*
X105285172Y-77577551D01*
X105285175Y-77577550D01*
X105327061Y-77554949D01*
X105329686Y-77553612D01*
X105373686Y-77532484D01*
X105373688Y-77532483D01*
X105377232Y-77530781D01*
X105380241Y-77528252D01*
X105380243Y-77528250D01*
X105380473Y-77528056D01*
X105381508Y-77527186D01*
X105381706Y-77526988D01*
X105384786Y-77524388D01*
X105387267Y-77522463D01*
X105391814Y-77520010D01*
X105429247Y-77479515D01*
X105430948Y-77477746D01*
X105898999Y-77009696D01*
X105909291Y-77001384D01*
X105918600Y-76995373D01*
X105922940Y-76992571D01*
X105946045Y-76963262D01*
X105950934Y-76957761D01*
X105954638Y-76954057D01*
X105966754Y-76937101D01*
X105968476Y-76934808D01*
X106001156Y-76893353D01*
X106002867Y-76888479D01*
X106004767Y-76885024D01*
X106006508Y-76881472D01*
X106009513Y-76877266D01*
X106011886Y-76869334D01*
X106024625Y-76826737D01*
X106025534Y-76823938D01*
X106041716Y-76777856D01*
X106043018Y-76774149D01*
X106043500Y-76768584D01*
X106043500Y-76768307D01*
X106043840Y-76764281D01*
X106044233Y-76761172D01*
X106045713Y-76756222D01*
X106043548Y-76701117D01*
X106043500Y-76698664D01*
X106043500Y-69525082D01*
X106061806Y-69480888D01*
X108895094Y-66647600D01*
X108939288Y-66629294D01*
X108983482Y-66647600D01*
X108997979Y-66670311D01*
X109017852Y-66724618D01*
X109019954Y-66727746D01*
X109019955Y-66727748D01*
X109086098Y-66826178D01*
X109106207Y-66856104D01*
X109223375Y-66962718D01*
X109226684Y-66964515D01*
X109226686Y-66964516D01*
X109322639Y-67016614D01*
X109362592Y-67038307D01*
X109366239Y-67039264D01*
X109366242Y-67039265D01*
X109468307Y-67066041D01*
X109515821Y-67078506D01*
X109600456Y-67079835D01*
X109670446Y-67080935D01*
X109670448Y-67080935D01*
X109674215Y-67080994D01*
X109828631Y-67045628D01*
X109831995Y-67043936D01*
X109831998Y-67043935D01*
X109902846Y-67008302D01*
X109970154Y-66974450D01*
X109973019Y-66972003D01*
X109973022Y-66972001D01*
X110087751Y-66874012D01*
X110090613Y-66871568D01*
X110092808Y-66868513D01*
X110092811Y-66868510D01*
X110180854Y-66745985D01*
X110180855Y-66745983D01*
X110183054Y-66742923D01*
X110242141Y-66595940D01*
X110257052Y-66491165D01*
X110264174Y-66441125D01*
X110264174Y-66441120D01*
X110264461Y-66439106D01*
X110264606Y-66425299D01*
X110264361Y-66423278D01*
X110264361Y-66423270D01*
X110255024Y-66346118D01*
X110267888Y-66300044D01*
X110272877Y-66294415D01*
X111469806Y-65097486D01*
X111514000Y-65079180D01*
X111558194Y-65097486D01*
X111576500Y-65141680D01*
X111576500Y-65518290D01*
X111576067Y-65525635D01*
X111571593Y-65563438D01*
X111572432Y-65568032D01*
X111572432Y-65568033D01*
X111582411Y-65622674D01*
X111582733Y-65624610D01*
X111591685Y-65684151D01*
X111593707Y-65688362D01*
X111594350Y-65690453D01*
X111594418Y-65690730D01*
X111594490Y-65690952D01*
X111594602Y-65691226D01*
X111595307Y-65693285D01*
X111596147Y-65697883D01*
X111615942Y-65735990D01*
X111623897Y-65751304D01*
X111624775Y-65753061D01*
X111636456Y-65777385D01*
X111650846Y-65807353D01*
X111654016Y-65810782D01*
X111655242Y-65812586D01*
X111655546Y-65813095D01*
X111657503Y-65816000D01*
X111659148Y-65819166D01*
X111663494Y-65824254D01*
X111701973Y-65862733D01*
X111703674Y-65864502D01*
X111743617Y-65907712D01*
X111747656Y-65910058D01*
X111751303Y-65912980D01*
X111751068Y-65913273D01*
X111757334Y-65918094D01*
X114112046Y-68272806D01*
X114130352Y-68317000D01*
X114112046Y-68361194D01*
X114067852Y-68379500D01*
X110266710Y-68379500D01*
X110259364Y-68379067D01*
X110221562Y-68374593D01*
X110216968Y-68375432D01*
X110216967Y-68375432D01*
X110162326Y-68385411D01*
X110160387Y-68385733D01*
X110100849Y-68394685D01*
X110096638Y-68396707D01*
X110094547Y-68397350D01*
X110094270Y-68397418D01*
X110094048Y-68397490D01*
X110093774Y-68397602D01*
X110091715Y-68398307D01*
X110087117Y-68399147D01*
X110033696Y-68426897D01*
X110031939Y-68427775D01*
X109981859Y-68451823D01*
X109981857Y-68451824D01*
X109977647Y-68453846D01*
X109974218Y-68457016D01*
X109972414Y-68458242D01*
X109971905Y-68458546D01*
X109969000Y-68460503D01*
X109965834Y-68462148D01*
X109960746Y-68466494D01*
X109922267Y-68504973D01*
X109920498Y-68506674D01*
X109893024Y-68532071D01*
X109877288Y-68546617D01*
X109874942Y-68550656D01*
X109872020Y-68554303D01*
X109871727Y-68554068D01*
X109866906Y-68560334D01*
X108920339Y-69506901D01*
X108914839Y-69511789D01*
X108884941Y-69535359D01*
X108852562Y-69582208D01*
X108850705Y-69584895D01*
X108849570Y-69586483D01*
X108813791Y-69634924D01*
X108812243Y-69639331D01*
X108811218Y-69641267D01*
X108811069Y-69641513D01*
X108810966Y-69641715D01*
X108810849Y-69641994D01*
X108809895Y-69643942D01*
X108807236Y-69647789D01*
X108789077Y-69705209D01*
X108788457Y-69707066D01*
X108768507Y-69763874D01*
X108768324Y-69768539D01*
X108767913Y-69770691D01*
X108767772Y-69771252D01*
X108767101Y-69774693D01*
X108766025Y-69778097D01*
X108765745Y-69781653D01*
X108765745Y-69781654D01*
X108765597Y-69783529D01*
X108765596Y-69783542D01*
X108765500Y-69784768D01*
X108765500Y-69839184D01*
X108765452Y-69841637D01*
X108763142Y-69900437D01*
X108764339Y-69904952D01*
X108764852Y-69909594D01*
X108764478Y-69909635D01*
X108765500Y-69917473D01*
X108765500Y-78475184D01*
X108765452Y-78477637D01*
X108763142Y-78536437D01*
X108764339Y-78540952D01*
X108764852Y-78545594D01*
X108764478Y-78545635D01*
X108765500Y-78553473D01*
X108765500Y-82769577D01*
X108747194Y-82813771D01*
X108734956Y-82823290D01*
X108568010Y-82922612D01*
X108415392Y-83056455D01*
X108289720Y-83215869D01*
X108195203Y-83395515D01*
X108194356Y-83398242D01*
X108194355Y-83398245D01*
X108186828Y-83422487D01*
X108135007Y-83589378D01*
X108111148Y-83790964D01*
X108111336Y-83793828D01*
X108122190Y-83959431D01*
X108124424Y-83993522D01*
X108174392Y-84190269D01*
X108259377Y-84374616D01*
X108376533Y-84540389D01*
X108378587Y-84542390D01*
X108378588Y-84542391D01*
X108439924Y-84602141D01*
X108521938Y-84682035D01*
X108690720Y-84794812D01*
X108776056Y-84831475D01*
X108874588Y-84873808D01*
X108874590Y-84873809D01*
X108877228Y-84874942D01*
X108975484Y-84897175D01*
X109072426Y-84919111D01*
X109072429Y-84919111D01*
X109075216Y-84919742D01*
X109165164Y-84923276D01*
X109275193Y-84927600D01*
X109275197Y-84927600D01*
X109278053Y-84927712D01*
X109307786Y-84923401D01*
X109389389Y-84911569D01*
X109478945Y-84898584D01*
X109671165Y-84833334D01*
X109848276Y-84734147D01*
X110004345Y-84604345D01*
X110134147Y-84448276D01*
X110233334Y-84271165D01*
X110298584Y-84078945D01*
X110327712Y-83878053D01*
X110329232Y-83820000D01*
X110326303Y-83788116D01*
X110317228Y-83689359D01*
X110310658Y-83617859D01*
X110303456Y-83592322D01*
X110256335Y-83425244D01*
X110256333Y-83425240D01*
X110255557Y-83422487D01*
X110165776Y-83240428D01*
X110164058Y-83238127D01*
X110046037Y-83080078D01*
X110046036Y-83080076D01*
X110044320Y-83077779D01*
X109895258Y-82939987D01*
X109726711Y-82833642D01*
X109726003Y-82833195D01*
X109726002Y-82833194D01*
X109723581Y-82831667D01*
X109720923Y-82830607D01*
X109720918Y-82830604D01*
X109713839Y-82827780D01*
X109679575Y-82794401D01*
X109674500Y-82769730D01*
X109674500Y-78700148D01*
X109692806Y-78655954D01*
X110642636Y-77706124D01*
X110686830Y-77687818D01*
X110716652Y-77695392D01*
X110828293Y-77756008D01*
X110831940Y-77756965D01*
X110831943Y-77756966D01*
X110972808Y-77793921D01*
X110981522Y-77796207D01*
X111066157Y-77797536D01*
X111136147Y-77798636D01*
X111136149Y-77798636D01*
X111139916Y-77798695D01*
X111294332Y-77763329D01*
X111297696Y-77761637D01*
X111297699Y-77761636D01*
X111364611Y-77727983D01*
X111435855Y-77692151D01*
X111438720Y-77689704D01*
X111438723Y-77689702D01*
X111504055Y-77633902D01*
X111556314Y-77589269D01*
X111558509Y-77586214D01*
X111558512Y-77586211D01*
X111646555Y-77463686D01*
X111646556Y-77463684D01*
X111648755Y-77460624D01*
X111707842Y-77313641D01*
X111722317Y-77211934D01*
X111729875Y-77158826D01*
X111729875Y-77158821D01*
X111730162Y-77156807D01*
X111730307Y-77143000D01*
X111711276Y-76985733D01*
X111655280Y-76837546D01*
X111565553Y-76706992D01*
X111522882Y-76668974D01*
X111450087Y-76604116D01*
X111450085Y-76604115D01*
X111447275Y-76601611D01*
X111307274Y-76527484D01*
X111153633Y-76488892D01*
X111149868Y-76488872D01*
X111149866Y-76488872D01*
X111071296Y-76488461D01*
X110995221Y-76488062D01*
X110991557Y-76488942D01*
X110991554Y-76488942D01*
X110921948Y-76505653D01*
X110841184Y-76525043D01*
X110837842Y-76526768D01*
X110837839Y-76526769D01*
X110791269Y-76550806D01*
X110700414Y-76597700D01*
X110697579Y-76600174D01*
X110697572Y-76600178D01*
X110616471Y-76670928D01*
X110568040Y-76685898D01*
X110553201Y-76684142D01*
X110548562Y-76683593D01*
X110543968Y-76684432D01*
X110543967Y-76684432D01*
X110489326Y-76694411D01*
X110487387Y-76694733D01*
X110427849Y-76703685D01*
X110423638Y-76705707D01*
X110421547Y-76706350D01*
X110421270Y-76706418D01*
X110421048Y-76706490D01*
X110420774Y-76706602D01*
X110418715Y-76707307D01*
X110414117Y-76708147D01*
X110389018Y-76721185D01*
X110360696Y-76735897D01*
X110358939Y-76736775D01*
X110308859Y-76760823D01*
X110308857Y-76760824D01*
X110304647Y-76762846D01*
X110301218Y-76766016D01*
X110299414Y-76767242D01*
X110298905Y-76767546D01*
X110296000Y-76769503D01*
X110292834Y-76771148D01*
X110287746Y-76775494D01*
X110249267Y-76813973D01*
X110247498Y-76815674D01*
X110220024Y-76841071D01*
X110204288Y-76855617D01*
X110201942Y-76859656D01*
X110199020Y-76863303D01*
X110198727Y-76863068D01*
X110193906Y-76869334D01*
X109781194Y-77282046D01*
X109737000Y-77300352D01*
X109692806Y-77282046D01*
X109674500Y-77237852D01*
X109674500Y-72518720D01*
X109692806Y-72474526D01*
X109737000Y-72456220D01*
X109779425Y-72472825D01*
X109814315Y-72505077D01*
X109816084Y-72506778D01*
X111204302Y-73894996D01*
X111212611Y-73905284D01*
X111221429Y-73918940D01*
X111248333Y-73940149D01*
X111250743Y-73942049D01*
X111256244Y-73946938D01*
X111259944Y-73950638D01*
X111262038Y-73952134D01*
X111262041Y-73952137D01*
X111276863Y-73962729D01*
X111279217Y-73964496D01*
X111316589Y-73993957D01*
X111320647Y-73997156D01*
X111325523Y-73998868D01*
X111329024Y-74000793D01*
X111332535Y-74002513D01*
X111336734Y-74005514D01*
X111341676Y-74006992D01*
X111341680Y-74006994D01*
X111377846Y-74017809D01*
X111387300Y-74020637D01*
X111390094Y-74021545D01*
X111436139Y-74037715D01*
X111436143Y-74037716D01*
X111439851Y-74039018D01*
X111443851Y-74039364D01*
X111444074Y-74039384D01*
X111444079Y-74039384D01*
X111445416Y-74039500D01*
X111445693Y-74039500D01*
X111449719Y-74039840D01*
X111452828Y-74040233D01*
X111457778Y-74041713D01*
X111512883Y-74039548D01*
X111515336Y-74039500D01*
X118298639Y-74039500D01*
X118342833Y-74057806D01*
X118355398Y-74075834D01*
X118419377Y-74214616D01*
X118421033Y-74216959D01*
X118532026Y-74374011D01*
X118536533Y-74380389D01*
X118681938Y-74522035D01*
X118850720Y-74634812D01*
X118937124Y-74671934D01*
X119034588Y-74713808D01*
X119034590Y-74713809D01*
X119037228Y-74714942D01*
X119137641Y-74737663D01*
X119232426Y-74759111D01*
X119232429Y-74759111D01*
X119235216Y-74759742D01*
X119325164Y-74763276D01*
X119435193Y-74767600D01*
X119435197Y-74767600D01*
X119438053Y-74767712D01*
X119638945Y-74738584D01*
X119831165Y-74673334D01*
X120008276Y-74574147D01*
X120164345Y-74444345D01*
X120217537Y-74380389D01*
X120222842Y-74374011D01*
X120265176Y-74351738D01*
X120310859Y-74365924D01*
X120315088Y-74369782D01*
X120506194Y-74560888D01*
X120524500Y-74605082D01*
X120524500Y-75755353D01*
X120506194Y-75799547D01*
X120462000Y-75817853D01*
X120417806Y-75799547D01*
X120405945Y-75782996D01*
X120327044Y-75622999D01*
X120327043Y-75622998D01*
X120325776Y-75620428D01*
X120307437Y-75595869D01*
X120206037Y-75460078D01*
X120206036Y-75460076D01*
X120204320Y-75457779D01*
X120055258Y-75319987D01*
X119883581Y-75211667D01*
X119695039Y-75136446D01*
X119692233Y-75135888D01*
X119692230Y-75135887D01*
X119498752Y-75097402D01*
X119498750Y-75097402D01*
X119495946Y-75096844D01*
X119400353Y-75095593D01*
X119295833Y-75094224D01*
X119295828Y-75094224D01*
X119292971Y-75094187D01*
X119290151Y-75094672D01*
X119290146Y-75094672D01*
X119173751Y-75114673D01*
X119092910Y-75128564D01*
X119090222Y-75129556D01*
X119090217Y-75129557D01*
X118905151Y-75197832D01*
X118905148Y-75197833D01*
X118902463Y-75198824D01*
X118728010Y-75302612D01*
X118575392Y-75436455D01*
X118449720Y-75595869D01*
X118355203Y-75775515D01*
X118354355Y-75778245D01*
X118353256Y-75780899D01*
X118351762Y-75780280D01*
X118324319Y-75813301D01*
X118295198Y-75820500D01*
X116758772Y-75820500D01*
X116745617Y-75819100D01*
X116739825Y-75817853D01*
X116729728Y-75815679D01*
X116724599Y-75816286D01*
X116724597Y-75816286D01*
X116692657Y-75820067D01*
X116685310Y-75820500D01*
X116680080Y-75820500D01*
X116677535Y-75820924D01*
X116677530Y-75820924D01*
X116659576Y-75823912D01*
X116656663Y-75824327D01*
X116628875Y-75827617D01*
X116604263Y-75830530D01*
X116599604Y-75832767D01*
X116595820Y-75833867D01*
X116592080Y-75835147D01*
X116586978Y-75835996D01*
X116582432Y-75838449D01*
X116582429Y-75838450D01*
X116540543Y-75861051D01*
X116537918Y-75862388D01*
X116490372Y-75885219D01*
X116486097Y-75888813D01*
X116485897Y-75889013D01*
X116482816Y-75891613D01*
X116480335Y-75893538D01*
X116475790Y-75895990D01*
X116472285Y-75899782D01*
X116438356Y-75936486D01*
X116436655Y-75938255D01*
X114620230Y-77754680D01*
X114576036Y-77772986D01*
X114534459Y-77757151D01*
X114462587Y-77693116D01*
X114462585Y-77693115D01*
X114459775Y-77690611D01*
X114319774Y-77616484D01*
X114166133Y-77577892D01*
X114162368Y-77577872D01*
X114162366Y-77577872D01*
X114083796Y-77577461D01*
X114007721Y-77577062D01*
X114004057Y-77577942D01*
X114004054Y-77577942D01*
X113934448Y-77594653D01*
X113853684Y-77614043D01*
X113850342Y-77615768D01*
X113850339Y-77615769D01*
X113796265Y-77643679D01*
X113712914Y-77686700D01*
X113705559Y-77693116D01*
X113603384Y-77782250D01*
X113593539Y-77790838D01*
X113591373Y-77793920D01*
X113591372Y-77793921D01*
X113561567Y-77836329D01*
X113502450Y-77920444D01*
X113501081Y-77923955D01*
X113501080Y-77923957D01*
X113479601Y-77979050D01*
X113444906Y-78068037D01*
X113444414Y-78071774D01*
X113424721Y-78221355D01*
X113424721Y-78221359D01*
X113424229Y-78225096D01*
X113441613Y-78382553D01*
X113496053Y-78531319D01*
X113584408Y-78662805D01*
X113587195Y-78665341D01*
X113602810Y-78679550D01*
X113623177Y-78722833D01*
X113604940Y-78769970D01*
X111525004Y-80849906D01*
X111514716Y-80858215D01*
X111501060Y-80867033D01*
X111497863Y-80871089D01*
X111477951Y-80896347D01*
X111473062Y-80901848D01*
X111469362Y-80905548D01*
X111467866Y-80907642D01*
X111467863Y-80907645D01*
X111457271Y-80922467D01*
X111455504Y-80924821D01*
X111422844Y-80966251D01*
X111421132Y-80971127D01*
X111419207Y-80974628D01*
X111417487Y-80978139D01*
X111414486Y-80982338D01*
X111413008Y-80987280D01*
X111413006Y-80987284D01*
X111399366Y-81032896D01*
X111398455Y-81035698D01*
X111382285Y-81081743D01*
X111382284Y-81081747D01*
X111380982Y-81085455D01*
X111380500Y-81091020D01*
X111380500Y-81091297D01*
X111380160Y-81095323D01*
X111379767Y-81098432D01*
X111378287Y-81103382D01*
X111378490Y-81108543D01*
X111380452Y-81158486D01*
X111380500Y-81160940D01*
X111380500Y-82739096D01*
X111362194Y-82783290D01*
X111339634Y-82797732D01*
X111282463Y-82818824D01*
X111108010Y-82922612D01*
X110955392Y-83056455D01*
X110829720Y-83215869D01*
X110735203Y-83395515D01*
X110734356Y-83398242D01*
X110734355Y-83398245D01*
X110726828Y-83422487D01*
X110675007Y-83589378D01*
X110651148Y-83790964D01*
X110651336Y-83793828D01*
X110662190Y-83959431D01*
X110664424Y-83993522D01*
X110714392Y-84190269D01*
X110799377Y-84374616D01*
X110916533Y-84540389D01*
X110918587Y-84542390D01*
X110918588Y-84542391D01*
X110979924Y-84602141D01*
X111061938Y-84682035D01*
X111230720Y-84794812D01*
X111316056Y-84831475D01*
X111414588Y-84873808D01*
X111414590Y-84873809D01*
X111417228Y-84874942D01*
X111515484Y-84897175D01*
X111612426Y-84919111D01*
X111612429Y-84919111D01*
X111615216Y-84919742D01*
X111705164Y-84923276D01*
X111815193Y-84927600D01*
X111815197Y-84927600D01*
X111818053Y-84927712D01*
X111847786Y-84923401D01*
X111929389Y-84911569D01*
X112018945Y-84898584D01*
X112211165Y-84833334D01*
X112388276Y-84734147D01*
X112544345Y-84604345D01*
X112674147Y-84448276D01*
X112773334Y-84271165D01*
X112838584Y-84078945D01*
X112867712Y-83878053D01*
X112869232Y-83820000D01*
X112866303Y-83788116D01*
X112857228Y-83689359D01*
X112850658Y-83617859D01*
X112843456Y-83592322D01*
X112796335Y-83425244D01*
X112796333Y-83425240D01*
X112795557Y-83422487D01*
X112705776Y-83240428D01*
X112704058Y-83238127D01*
X112586037Y-83080078D01*
X112586036Y-83080076D01*
X112584320Y-83077779D01*
X112435258Y-82939987D01*
X112263581Y-82831667D01*
X112260917Y-82830604D01*
X112178840Y-82797858D01*
X112144575Y-82764479D01*
X112139500Y-82739808D01*
X112139500Y-81334686D01*
X112157806Y-81290492D01*
X113813806Y-79634492D01*
X113858000Y-79616186D01*
X113902194Y-79634492D01*
X113920500Y-79678686D01*
X113920500Y-82739096D01*
X113902194Y-82783290D01*
X113879634Y-82797732D01*
X113822463Y-82818824D01*
X113648010Y-82922612D01*
X113495392Y-83056455D01*
X113369720Y-83215869D01*
X113275203Y-83395515D01*
X113274356Y-83398242D01*
X113274355Y-83398245D01*
X113266828Y-83422487D01*
X113215007Y-83589378D01*
X113191148Y-83790964D01*
X113191336Y-83793828D01*
X113202190Y-83959431D01*
X113204424Y-83993522D01*
X113254392Y-84190269D01*
X113339377Y-84374616D01*
X113456533Y-84540389D01*
X113458587Y-84542390D01*
X113458588Y-84542391D01*
X113519924Y-84602141D01*
X113601938Y-84682035D01*
X113770720Y-84794812D01*
X113856056Y-84831475D01*
X113954588Y-84873808D01*
X113954590Y-84873809D01*
X113957228Y-84874942D01*
X114055484Y-84897175D01*
X114152426Y-84919111D01*
X114152429Y-84919111D01*
X114155216Y-84919742D01*
X114245164Y-84923276D01*
X114355193Y-84927600D01*
X114355197Y-84927600D01*
X114358053Y-84927712D01*
X114387786Y-84923401D01*
X114469389Y-84911569D01*
X114558945Y-84898584D01*
X114751165Y-84833334D01*
X114928276Y-84734147D01*
X115084345Y-84604345D01*
X115214147Y-84448276D01*
X115313334Y-84271165D01*
X115378584Y-84078945D01*
X115407712Y-83878053D01*
X115409232Y-83820000D01*
X115406565Y-83790964D01*
X115731148Y-83790964D01*
X115731336Y-83793828D01*
X115742190Y-83959431D01*
X115744424Y-83993522D01*
X115794392Y-84190269D01*
X115879377Y-84374616D01*
X115996533Y-84540389D01*
X115998587Y-84542390D01*
X115998588Y-84542391D01*
X116059924Y-84602141D01*
X116141938Y-84682035D01*
X116310720Y-84794812D01*
X116396056Y-84831475D01*
X116494588Y-84873808D01*
X116494590Y-84873809D01*
X116497228Y-84874942D01*
X116595484Y-84897175D01*
X116692426Y-84919111D01*
X116692429Y-84919111D01*
X116695216Y-84919742D01*
X116785164Y-84923276D01*
X116895193Y-84927600D01*
X116895197Y-84927600D01*
X116898053Y-84927712D01*
X116927786Y-84923401D01*
X117009389Y-84911569D01*
X117098945Y-84898584D01*
X117291165Y-84833334D01*
X117468276Y-84734147D01*
X117624345Y-84604345D01*
X117754147Y-84448276D01*
X117853334Y-84271165D01*
X117918584Y-84078945D01*
X117947712Y-83878053D01*
X117949232Y-83820000D01*
X117946303Y-83788116D01*
X117937228Y-83689359D01*
X117930658Y-83617859D01*
X117923456Y-83592322D01*
X117876335Y-83425244D01*
X117876333Y-83425240D01*
X117875557Y-83422487D01*
X117785776Y-83240428D01*
X117784058Y-83238127D01*
X117666037Y-83080078D01*
X117666036Y-83080076D01*
X117664320Y-83077779D01*
X117515258Y-82939987D01*
X117343581Y-82831667D01*
X117219499Y-82782163D01*
X117157696Y-82757506D01*
X117155039Y-82756446D01*
X117152233Y-82755888D01*
X117152230Y-82755887D01*
X116958752Y-82717402D01*
X116958750Y-82717402D01*
X116955946Y-82716844D01*
X116860353Y-82715593D01*
X116755833Y-82714224D01*
X116755828Y-82714224D01*
X116752971Y-82714187D01*
X116750151Y-82714672D01*
X116750146Y-82714672D01*
X116637702Y-82733994D01*
X116552910Y-82748564D01*
X116550222Y-82749556D01*
X116550217Y-82749557D01*
X116365151Y-82817832D01*
X116365148Y-82817833D01*
X116362463Y-82818824D01*
X116188010Y-82922612D01*
X116035392Y-83056455D01*
X115909720Y-83215869D01*
X115815203Y-83395515D01*
X115814356Y-83398242D01*
X115814355Y-83398245D01*
X115806828Y-83422487D01*
X115755007Y-83589378D01*
X115731148Y-83790964D01*
X115406565Y-83790964D01*
X115406303Y-83788116D01*
X115397228Y-83689359D01*
X115390658Y-83617859D01*
X115383456Y-83592322D01*
X115336335Y-83425244D01*
X115336333Y-83425240D01*
X115335557Y-83422487D01*
X115245776Y-83240428D01*
X115244058Y-83238127D01*
X115126037Y-83080078D01*
X115126036Y-83080076D01*
X115124320Y-83077779D01*
X114975258Y-82939987D01*
X114803581Y-82831667D01*
X114800917Y-82830604D01*
X114718840Y-82797858D01*
X114684575Y-82764479D01*
X114679500Y-82739808D01*
X114679500Y-82151945D01*
X118276001Y-82151945D01*
X118276600Y-82158030D01*
X118289536Y-82223068D01*
X118294157Y-82234224D01*
X118343457Y-82308007D01*
X118351993Y-82316543D01*
X118425775Y-82365843D01*
X118436933Y-82370464D01*
X118501970Y-82383401D01*
X118508054Y-82384000D01*
X119240569Y-82384000D01*
X119249359Y-82380359D01*
X119253000Y-82371569D01*
X119253000Y-82371568D01*
X119507000Y-82371568D01*
X119510641Y-82380358D01*
X119519431Y-82383999D01*
X120251945Y-82383999D01*
X120258030Y-82383400D01*
X120323068Y-82370464D01*
X120334224Y-82365843D01*
X120408007Y-82316543D01*
X120416543Y-82308007D01*
X120465843Y-82234225D01*
X120470464Y-82223067D01*
X120483401Y-82158030D01*
X120484000Y-82151946D01*
X120484000Y-81419431D01*
X120480359Y-81410641D01*
X120471569Y-81407000D01*
X119519431Y-81407000D01*
X119510641Y-81410641D01*
X119507000Y-81419431D01*
X119507000Y-82371568D01*
X119253000Y-82371568D01*
X119253000Y-81419431D01*
X119249359Y-81410641D01*
X119240569Y-81407000D01*
X118288432Y-81407000D01*
X118279642Y-81410641D01*
X118276001Y-81419431D01*
X118276001Y-82151945D01*
X114679500Y-82151945D01*
X114679500Y-81140569D01*
X118276000Y-81140569D01*
X118279641Y-81149359D01*
X118288431Y-81153000D01*
X119240569Y-81153000D01*
X119249359Y-81149359D01*
X119253000Y-81140569D01*
X119507000Y-81140569D01*
X119510641Y-81149359D01*
X119519431Y-81153000D01*
X120471568Y-81153000D01*
X120480358Y-81149359D01*
X120483999Y-81140569D01*
X120483999Y-80408055D01*
X120483400Y-80401970D01*
X120470464Y-80336932D01*
X120465843Y-80325776D01*
X120416543Y-80251993D01*
X120408007Y-80243457D01*
X120334225Y-80194157D01*
X120323067Y-80189536D01*
X120258030Y-80176599D01*
X120251946Y-80176000D01*
X119519431Y-80176000D01*
X119510641Y-80179641D01*
X119507000Y-80188431D01*
X119507000Y-81140569D01*
X119253000Y-81140569D01*
X119253000Y-80188432D01*
X119249359Y-80179642D01*
X119240569Y-80176001D01*
X118508055Y-80176001D01*
X118501970Y-80176600D01*
X118436932Y-80189536D01*
X118425776Y-80194157D01*
X118351993Y-80243457D01*
X118343457Y-80251993D01*
X118294157Y-80325775D01*
X118289536Y-80336933D01*
X118276599Y-80401970D01*
X118276000Y-80408054D01*
X118276000Y-81140569D01*
X114679500Y-81140569D01*
X114679500Y-79431082D01*
X114697806Y-79386888D01*
X116216888Y-77867806D01*
X116261082Y-77849500D01*
X118554098Y-77849500D01*
X118598292Y-77867806D01*
X118616598Y-77912000D01*
X118595307Y-77958990D01*
X118575392Y-77976455D01*
X118573616Y-77978708D01*
X118573615Y-77978709D01*
X118505962Y-78064527D01*
X118449720Y-78135869D01*
X118355203Y-78315515D01*
X118354356Y-78318242D01*
X118354355Y-78318245D01*
X118305242Y-78476415D01*
X118295007Y-78509378D01*
X118271148Y-78710964D01*
X118271336Y-78713828D01*
X118282190Y-78879431D01*
X118284424Y-78913522D01*
X118334392Y-79110269D01*
X118419377Y-79294616D01*
X118536533Y-79460389D01*
X118538587Y-79462390D01*
X118538588Y-79462391D01*
X118599924Y-79522141D01*
X118681938Y-79602035D01*
X118850720Y-79714812D01*
X118936056Y-79751475D01*
X119034588Y-79793808D01*
X119034590Y-79793809D01*
X119037228Y-79794942D01*
X119135484Y-79817175D01*
X119232426Y-79839111D01*
X119232429Y-79839111D01*
X119235216Y-79839742D01*
X119325164Y-79843276D01*
X119435193Y-79847600D01*
X119435197Y-79847600D01*
X119438053Y-79847712D01*
X119638945Y-79818584D01*
X119831165Y-79753334D01*
X120008276Y-79654147D01*
X120164345Y-79524345D01*
X120294147Y-79368276D01*
X120393334Y-79191165D01*
X120458584Y-78998945D01*
X120487712Y-78798053D01*
X120489232Y-78740000D01*
X120486303Y-78708116D01*
X120477228Y-78609359D01*
X120470658Y-78537859D01*
X120463456Y-78512322D01*
X120416335Y-78345244D01*
X120416333Y-78345240D01*
X120415557Y-78342487D01*
X120325776Y-78160428D01*
X120324058Y-78158127D01*
X120206037Y-78000078D01*
X120206036Y-78000076D01*
X120204320Y-77997779D01*
X120157373Y-77954381D01*
X120137346Y-77910941D01*
X120153903Y-77866062D01*
X120189527Y-77846837D01*
X120194035Y-77846086D01*
X120196950Y-77845671D01*
X120249341Y-77839470D01*
X120253998Y-77837234D01*
X120257779Y-77836135D01*
X120261526Y-77834853D01*
X120266626Y-77834004D01*
X120271172Y-77831551D01*
X120271175Y-77831550D01*
X120313061Y-77808949D01*
X120315686Y-77807612D01*
X120359686Y-77786484D01*
X120359688Y-77786483D01*
X120363232Y-77784781D01*
X120366241Y-77782252D01*
X120366243Y-77782250D01*
X120366473Y-77782056D01*
X120367508Y-77781186D01*
X120367706Y-77780988D01*
X120370786Y-77778388D01*
X120373267Y-77776463D01*
X120377814Y-77774010D01*
X120415248Y-77733514D01*
X120416949Y-77731745D01*
X121050806Y-77097888D01*
X121095000Y-77079582D01*
X121139194Y-77097888D01*
X121157500Y-77142082D01*
X121157500Y-84550778D01*
X121156299Y-84562971D01*
X121152514Y-84582000D01*
X121153715Y-84588038D01*
X121153715Y-84588040D01*
X121154236Y-84590660D01*
X121155199Y-84608299D01*
X121142548Y-84752894D01*
X121140656Y-84763623D01*
X121121854Y-84833796D01*
X121104872Y-84897175D01*
X121097674Y-84924037D01*
X121093948Y-84934274D01*
X121023761Y-85084792D01*
X121018317Y-85094224D01*
X120942262Y-85202841D01*
X120923052Y-85230275D01*
X120916049Y-85238620D01*
X120798620Y-85356049D01*
X120790275Y-85363052D01*
X120654224Y-85458317D01*
X120644792Y-85463761D01*
X120494274Y-85533948D01*
X120484039Y-85537673D01*
X120439978Y-85549479D01*
X120323623Y-85580656D01*
X120312894Y-85582548D01*
X120168299Y-85595199D01*
X120150660Y-85594236D01*
X120148040Y-85593715D01*
X120148038Y-85593715D01*
X120142000Y-85592514D01*
X120135962Y-85593715D01*
X120122971Y-85596299D01*
X120110778Y-85597500D01*
X100869222Y-85597500D01*
X100857029Y-85596299D01*
X100844038Y-85593715D01*
X100838000Y-85592514D01*
X100831962Y-85593715D01*
X100831960Y-85593715D01*
X100829340Y-85594236D01*
X100811701Y-85595199D01*
X100667106Y-85582548D01*
X100656377Y-85580656D01*
X100540022Y-85549479D01*
X100495961Y-85537673D01*
X100485726Y-85533948D01*
X100335208Y-85463761D01*
X100325776Y-85458317D01*
X100189725Y-85363052D01*
X100181380Y-85356049D01*
X100063951Y-85238620D01*
X100056948Y-85230275D01*
X100037738Y-85202840D01*
X99961683Y-85094224D01*
X99956239Y-85084792D01*
X99886052Y-84934274D01*
X99882326Y-84924037D01*
X99875129Y-84897175D01*
X99858146Y-84833796D01*
X99839344Y-84763623D01*
X99837452Y-84752894D01*
X99832119Y-84691945D01*
X103036001Y-84691945D01*
X103036600Y-84698030D01*
X103049536Y-84763068D01*
X103054157Y-84774224D01*
X103103457Y-84848007D01*
X103111993Y-84856543D01*
X103185775Y-84905843D01*
X103196933Y-84910464D01*
X103261970Y-84923401D01*
X103268054Y-84924000D01*
X104000569Y-84924000D01*
X104009359Y-84920359D01*
X104013000Y-84911569D01*
X104013000Y-84911568D01*
X104267000Y-84911568D01*
X104270641Y-84920358D01*
X104279431Y-84923999D01*
X105011945Y-84923999D01*
X105018030Y-84923400D01*
X105083068Y-84910464D01*
X105094224Y-84905843D01*
X105168007Y-84856543D01*
X105176543Y-84848007D01*
X105225843Y-84774225D01*
X105230464Y-84763067D01*
X105243401Y-84698030D01*
X105244000Y-84691946D01*
X105244000Y-83960471D01*
X105582759Y-83960471D01*
X105584732Y-83990581D01*
X105585626Y-83996224D01*
X105634159Y-84187323D01*
X105636066Y-84192707D01*
X105718612Y-84371761D01*
X105721468Y-84376708D01*
X105835257Y-84537717D01*
X105838970Y-84542065D01*
X105980203Y-84679647D01*
X105984636Y-84683236D01*
X106148576Y-84792778D01*
X106153598Y-84795504D01*
X106334744Y-84873331D01*
X106340183Y-84875098D01*
X106532492Y-84918614D01*
X106538141Y-84919357D01*
X106540577Y-84919453D01*
X106548827Y-84916409D01*
X106553000Y-84906869D01*
X106553000Y-84904779D01*
X106807000Y-84904779D01*
X106810641Y-84913569D01*
X106816208Y-84915875D01*
X106935992Y-84898507D01*
X106941541Y-84897175D01*
X107128247Y-84833796D01*
X107133460Y-84831475D01*
X107305492Y-84735133D01*
X107310194Y-84731902D01*
X107461793Y-84605819D01*
X107465819Y-84601793D01*
X107591902Y-84450194D01*
X107595133Y-84445492D01*
X107691475Y-84273460D01*
X107693796Y-84268247D01*
X107757175Y-84081541D01*
X107758507Y-84075992D01*
X107775426Y-83959304D01*
X107773084Y-83950082D01*
X107767904Y-83947000D01*
X106819431Y-83947000D01*
X106810641Y-83950641D01*
X106807000Y-83959431D01*
X106807000Y-84904779D01*
X106553000Y-84904779D01*
X106553000Y-83959431D01*
X106549359Y-83950641D01*
X106540569Y-83947000D01*
X105594307Y-83947000D01*
X105586632Y-83950179D01*
X105582759Y-83960471D01*
X105244000Y-83960471D01*
X105244000Y-83959431D01*
X105240359Y-83950641D01*
X105231569Y-83947000D01*
X104279431Y-83947000D01*
X104270641Y-83950641D01*
X104267000Y-83959431D01*
X104267000Y-84911568D01*
X104013000Y-84911568D01*
X104013000Y-83959431D01*
X104009359Y-83950641D01*
X104000569Y-83947000D01*
X103048432Y-83947000D01*
X103039642Y-83950641D01*
X103036001Y-83959431D01*
X103036001Y-84691945D01*
X99832119Y-84691945D01*
X99824801Y-84608299D01*
X99825764Y-84590660D01*
X99826285Y-84588040D01*
X99826285Y-84588038D01*
X99827486Y-84582000D01*
X99823701Y-84562971D01*
X99822500Y-84550778D01*
X99822500Y-83680569D01*
X103036000Y-83680569D01*
X103039641Y-83689359D01*
X103048431Y-83693000D01*
X104000569Y-83693000D01*
X104009359Y-83689359D01*
X104013000Y-83680569D01*
X104267000Y-83680569D01*
X104270641Y-83689359D01*
X104279431Y-83693000D01*
X105231568Y-83693000D01*
X105240358Y-83689359D01*
X105243963Y-83680655D01*
X105584707Y-83680655D01*
X105587290Y-83689811D01*
X105592984Y-83693000D01*
X106540569Y-83693000D01*
X106549359Y-83689359D01*
X106553000Y-83680569D01*
X106807000Y-83680569D01*
X106810641Y-83689359D01*
X106819431Y-83693000D01*
X107764629Y-83693000D01*
X107773419Y-83689359D01*
X107776125Y-83682826D01*
X107770426Y-83620805D01*
X107769385Y-83615187D01*
X107715867Y-83425424D01*
X107713824Y-83420102D01*
X107626616Y-83243261D01*
X107623630Y-83238389D01*
X107505664Y-83080414D01*
X107501841Y-83076169D01*
X107357060Y-82942334D01*
X107352525Y-82938854D01*
X107185774Y-82833642D01*
X107180696Y-82831054D01*
X106997553Y-82757988D01*
X106992087Y-82756369D01*
X106819193Y-82721978D01*
X106809861Y-82723834D01*
X106807000Y-82728117D01*
X106807000Y-83680569D01*
X106553000Y-83680569D01*
X106553000Y-82733994D01*
X106549359Y-82725204D01*
X106544214Y-82723073D01*
X106395870Y-82748563D01*
X106390347Y-82750042D01*
X106205367Y-82818285D01*
X106200218Y-82820741D01*
X106030770Y-82921552D01*
X106026148Y-82924911D01*
X105877910Y-83054912D01*
X105873983Y-83059050D01*
X105751913Y-83213895D01*
X105748809Y-83218674D01*
X105656998Y-83393177D01*
X105654819Y-83398437D01*
X105596346Y-83586752D01*
X105595162Y-83592322D01*
X105584707Y-83680655D01*
X105243963Y-83680655D01*
X105243999Y-83680569D01*
X105243999Y-82948055D01*
X105243400Y-82941970D01*
X105230464Y-82876932D01*
X105225843Y-82865776D01*
X105176543Y-82791993D01*
X105168007Y-82783457D01*
X105094225Y-82734157D01*
X105083067Y-82729536D01*
X105018030Y-82716599D01*
X105011946Y-82716000D01*
X104279431Y-82716000D01*
X104270641Y-82719641D01*
X104267000Y-82728431D01*
X104267000Y-83680569D01*
X104013000Y-83680569D01*
X104013000Y-82728432D01*
X104009359Y-82719642D01*
X104000569Y-82716001D01*
X103268055Y-82716001D01*
X103261970Y-82716600D01*
X103196932Y-82729536D01*
X103185776Y-82734157D01*
X103111993Y-82783457D01*
X103103457Y-82791993D01*
X103054157Y-82865775D01*
X103049536Y-82876933D01*
X103036599Y-82941970D01*
X103036000Y-82948054D01*
X103036000Y-83680569D01*
X99822500Y-83680569D01*
X99822500Y-80404933D01*
X100495500Y-80404933D01*
X100495501Y-82155066D01*
X100510266Y-82229301D01*
X100566516Y-82313484D01*
X100571633Y-82316903D01*
X100645580Y-82366314D01*
X100645582Y-82366315D01*
X100650699Y-82369734D01*
X100683753Y-82376309D01*
X100721920Y-82383901D01*
X100721923Y-82383901D01*
X100724933Y-82384500D01*
X101600000Y-82384500D01*
X102475066Y-82384499D01*
X102478075Y-82383900D01*
X102478080Y-82383900D01*
X102543263Y-82370935D01*
X102549301Y-82369734D01*
X102633484Y-82313484D01*
X102689734Y-82229301D01*
X102704500Y-82155067D01*
X102704499Y-80404934D01*
X102689734Y-80330699D01*
X102633484Y-80246516D01*
X102613452Y-80233131D01*
X102554420Y-80193686D01*
X102554418Y-80193685D01*
X102549301Y-80190266D01*
X102516247Y-80183691D01*
X102478080Y-80176099D01*
X102478077Y-80176099D01*
X102475067Y-80175500D01*
X102471996Y-80175500D01*
X101600001Y-80175501D01*
X100724934Y-80175501D01*
X100721925Y-80176100D01*
X100721920Y-80176100D01*
X100656737Y-80189065D01*
X100650699Y-80190266D01*
X100566516Y-80246516D01*
X100510266Y-80330699D01*
X100495500Y-80404933D01*
X99822500Y-80404933D01*
X99822500Y-78880471D01*
X100502759Y-78880471D01*
X100504732Y-78910581D01*
X100505626Y-78916224D01*
X100554159Y-79107323D01*
X100556066Y-79112707D01*
X100638612Y-79291761D01*
X100641468Y-79296708D01*
X100755257Y-79457717D01*
X100758970Y-79462065D01*
X100900203Y-79599647D01*
X100904636Y-79603236D01*
X101068576Y-79712778D01*
X101073598Y-79715504D01*
X101254744Y-79793331D01*
X101260183Y-79795098D01*
X101452492Y-79838614D01*
X101458141Y-79839357D01*
X101460577Y-79839453D01*
X101468827Y-79836409D01*
X101473000Y-79826869D01*
X101473000Y-79824779D01*
X101727000Y-79824779D01*
X101730641Y-79833569D01*
X101736208Y-79835875D01*
X101855992Y-79818507D01*
X101861541Y-79817175D01*
X102048247Y-79753796D01*
X102053460Y-79751475D01*
X102225492Y-79655133D01*
X102230194Y-79651902D01*
X102381793Y-79525819D01*
X102385819Y-79521793D01*
X102511902Y-79370194D01*
X102515133Y-79365492D01*
X102611475Y-79193460D01*
X102613796Y-79188247D01*
X102677175Y-79001541D01*
X102678507Y-78995992D01*
X102695426Y-78879304D01*
X102693084Y-78870082D01*
X102687904Y-78867000D01*
X101739431Y-78867000D01*
X101730641Y-78870641D01*
X101727000Y-78879431D01*
X101727000Y-79824779D01*
X101473000Y-79824779D01*
X101473000Y-78879431D01*
X101469359Y-78870641D01*
X101460569Y-78867000D01*
X100514307Y-78867000D01*
X100506632Y-78870179D01*
X100502759Y-78880471D01*
X99822500Y-78880471D01*
X99822500Y-78600655D01*
X100504707Y-78600655D01*
X100507290Y-78609811D01*
X100512984Y-78613000D01*
X101460569Y-78613000D01*
X101469359Y-78609359D01*
X101473000Y-78600569D01*
X101727000Y-78600569D01*
X101730641Y-78609359D01*
X101739431Y-78613000D01*
X102684629Y-78613000D01*
X102693419Y-78609359D01*
X102696125Y-78602826D01*
X102690426Y-78540805D01*
X102689385Y-78535187D01*
X102635867Y-78345424D01*
X102633824Y-78340102D01*
X102546616Y-78163261D01*
X102543630Y-78158389D01*
X102425664Y-78000414D01*
X102421841Y-77996169D01*
X102277060Y-77862334D01*
X102272525Y-77858854D01*
X102105774Y-77753642D01*
X102100696Y-77751054D01*
X101917553Y-77677988D01*
X101912087Y-77676369D01*
X101739193Y-77641978D01*
X101729861Y-77643834D01*
X101727000Y-77648117D01*
X101727000Y-78600569D01*
X101473000Y-78600569D01*
X101473000Y-77653994D01*
X101469359Y-77645204D01*
X101464214Y-77643073D01*
X101315870Y-77668563D01*
X101310347Y-77670042D01*
X101125367Y-77738285D01*
X101120218Y-77740741D01*
X100950770Y-77841552D01*
X100946148Y-77844911D01*
X100797910Y-77974912D01*
X100793983Y-77979050D01*
X100671913Y-78133895D01*
X100668809Y-78138674D01*
X100576998Y-78313177D01*
X100574819Y-78318437D01*
X100516346Y-78506752D01*
X100515162Y-78512322D01*
X100504707Y-78600655D01*
X99822500Y-78600655D01*
X99822500Y-76170964D01*
X100491148Y-76170964D01*
X100504424Y-76373522D01*
X100505130Y-76376302D01*
X100552498Y-76562810D01*
X100554392Y-76570269D01*
X100639377Y-76754616D01*
X100756533Y-76920389D01*
X100901938Y-77062035D01*
X101070720Y-77174812D01*
X101157124Y-77211934D01*
X101254588Y-77253808D01*
X101254590Y-77253809D01*
X101257228Y-77254942D01*
X101357641Y-77277663D01*
X101452426Y-77299111D01*
X101452429Y-77299111D01*
X101455216Y-77299742D01*
X101545164Y-77303276D01*
X101655193Y-77307600D01*
X101655197Y-77307600D01*
X101658053Y-77307712D01*
X101858945Y-77278584D01*
X102051165Y-77213334D01*
X102228276Y-77114147D01*
X102384345Y-76984345D01*
X102514147Y-76828276D01*
X102613334Y-76651165D01*
X102678584Y-76458945D01*
X102707712Y-76258053D01*
X102709232Y-76200000D01*
X102706303Y-76168116D01*
X102690920Y-76000714D01*
X102690658Y-75997859D01*
X102689879Y-75995096D01*
X102636335Y-75805244D01*
X102636333Y-75805240D01*
X102635557Y-75802487D01*
X102545776Y-75620428D01*
X102527437Y-75595869D01*
X102426037Y-75460078D01*
X102426036Y-75460076D01*
X102424320Y-75457779D01*
X102275258Y-75319987D01*
X102103581Y-75211667D01*
X101915039Y-75136446D01*
X101912233Y-75135888D01*
X101912230Y-75135887D01*
X101718752Y-75097402D01*
X101718750Y-75097402D01*
X101715946Y-75096844D01*
X101620353Y-75095593D01*
X101515833Y-75094224D01*
X101515828Y-75094224D01*
X101512971Y-75094187D01*
X101510151Y-75094672D01*
X101510146Y-75094672D01*
X101393751Y-75114673D01*
X101312910Y-75128564D01*
X101310222Y-75129556D01*
X101310217Y-75129557D01*
X101125151Y-75197832D01*
X101125148Y-75197833D01*
X101122463Y-75198824D01*
X100948010Y-75302612D01*
X100795392Y-75436455D01*
X100669720Y-75595869D01*
X100575203Y-75775515D01*
X100574356Y-75778242D01*
X100574355Y-75778245D01*
X100536617Y-75899782D01*
X100515007Y-75969378D01*
X100491148Y-76170964D01*
X99822500Y-76170964D01*
X99822500Y-73630964D01*
X100491148Y-73630964D01*
X100504424Y-73833522D01*
X100505130Y-73836302D01*
X100537688Y-73964496D01*
X100554392Y-74030269D01*
X100639377Y-74214616D01*
X100641033Y-74216959D01*
X100752026Y-74374011D01*
X100756533Y-74380389D01*
X100901938Y-74522035D01*
X101070720Y-74634812D01*
X101157124Y-74671934D01*
X101254588Y-74713808D01*
X101254590Y-74713809D01*
X101257228Y-74714942D01*
X101357641Y-74737663D01*
X101452426Y-74759111D01*
X101452429Y-74759111D01*
X101455216Y-74759742D01*
X101545164Y-74763276D01*
X101655193Y-74767600D01*
X101655197Y-74767600D01*
X101658053Y-74767712D01*
X101858945Y-74738584D01*
X102051165Y-74673334D01*
X102228276Y-74574147D01*
X102384345Y-74444345D01*
X102514147Y-74288276D01*
X102613334Y-74111165D01*
X102678584Y-73918945D01*
X102707712Y-73718053D01*
X102709232Y-73660000D01*
X102706303Y-73628116D01*
X102690920Y-73460714D01*
X102690658Y-73457859D01*
X102683915Y-73433951D01*
X102636335Y-73265244D01*
X102636333Y-73265240D01*
X102635557Y-73262487D01*
X102545776Y-73080428D01*
X102527437Y-73055869D01*
X102426037Y-72920078D01*
X102426036Y-72920076D01*
X102424320Y-72917779D01*
X102275258Y-72779987D01*
X102103581Y-72671667D01*
X101915039Y-72596446D01*
X101912233Y-72595888D01*
X101912230Y-72595887D01*
X101718752Y-72557402D01*
X101718750Y-72557402D01*
X101715946Y-72556844D01*
X101620353Y-72555593D01*
X101515833Y-72554224D01*
X101515828Y-72554224D01*
X101512971Y-72554187D01*
X101510151Y-72554672D01*
X101510146Y-72554672D01*
X101393751Y-72574673D01*
X101312910Y-72588564D01*
X101310222Y-72589556D01*
X101310217Y-72589557D01*
X101125151Y-72657832D01*
X101125148Y-72657833D01*
X101122463Y-72658824D01*
X100948010Y-72762612D01*
X100795392Y-72896455D01*
X100669720Y-73055869D01*
X100575203Y-73235515D01*
X100515007Y-73429378D01*
X100491148Y-73630964D01*
X99822500Y-73630964D01*
X99822500Y-66010964D01*
X100491148Y-66010964D01*
X100504424Y-66213522D01*
X100505130Y-66216302D01*
X100538100Y-66346118D01*
X100554392Y-66410269D01*
X100639377Y-66594616D01*
X100756533Y-66760389D01*
X100901938Y-66902035D01*
X101070720Y-67014812D01*
X101144404Y-67046469D01*
X101254588Y-67093808D01*
X101254590Y-67093809D01*
X101257228Y-67094942D01*
X101357641Y-67117663D01*
X101452426Y-67139111D01*
X101452429Y-67139111D01*
X101455216Y-67139742D01*
X101545164Y-67143276D01*
X101655193Y-67147600D01*
X101655197Y-67147600D01*
X101658053Y-67147712D01*
X101672068Y-67145680D01*
X101717373Y-67139111D01*
X101858945Y-67118584D01*
X102051165Y-67053334D01*
X102228276Y-66954147D01*
X102384345Y-66824345D01*
X102514147Y-66668276D01*
X102613334Y-66491165D01*
X102678584Y-66298945D01*
X102707712Y-66098053D01*
X102709232Y-66040000D01*
X102706303Y-66008116D01*
X102700137Y-65941015D01*
X102690658Y-65837859D01*
X102689879Y-65835096D01*
X102636335Y-65645244D01*
X102636333Y-65645240D01*
X102635557Y-65642487D01*
X102545776Y-65460428D01*
X102527437Y-65435869D01*
X102426037Y-65300078D01*
X102426036Y-65300076D01*
X102424320Y-65297779D01*
X102275258Y-65159987D01*
X102103581Y-65051667D01*
X101915039Y-64976446D01*
X101912233Y-64975888D01*
X101912230Y-64975887D01*
X101718752Y-64937402D01*
X101718750Y-64937402D01*
X101715946Y-64936844D01*
X101620353Y-64935593D01*
X101515833Y-64934224D01*
X101515828Y-64934224D01*
X101512971Y-64934187D01*
X101510151Y-64934672D01*
X101510146Y-64934672D01*
X101393751Y-64954673D01*
X101312910Y-64968564D01*
X101310222Y-64969556D01*
X101310217Y-64969557D01*
X101125151Y-65037832D01*
X101125148Y-65037833D01*
X101122463Y-65038824D01*
X100948010Y-65142612D01*
X100795392Y-65276455D01*
X100669720Y-65435869D01*
X100575203Y-65615515D01*
X100574356Y-65618242D01*
X100574355Y-65618245D01*
X100536616Y-65739786D01*
X100515007Y-65809378D01*
X100491148Y-66010964D01*
X99822500Y-66010964D01*
X99822500Y-63470964D01*
X100491148Y-63470964D01*
X100491336Y-63473828D01*
X100501328Y-63626278D01*
X100504424Y-63673522D01*
X100505130Y-63676302D01*
X100532335Y-63783419D01*
X100554392Y-63870269D01*
X100639377Y-64054616D01*
X100756533Y-64220389D01*
X100901938Y-64362035D01*
X101070720Y-64474812D01*
X101157124Y-64511934D01*
X101254588Y-64553808D01*
X101254590Y-64553809D01*
X101257228Y-64554942D01*
X101357641Y-64577663D01*
X101452426Y-64599111D01*
X101452429Y-64599111D01*
X101455216Y-64599742D01*
X101545164Y-64603276D01*
X101655193Y-64607600D01*
X101655197Y-64607600D01*
X101658053Y-64607712D01*
X101858945Y-64578584D01*
X102051165Y-64513334D01*
X102228276Y-64414147D01*
X102384345Y-64284345D01*
X102514147Y-64128276D01*
X102613334Y-63951165D01*
X102678584Y-63758945D01*
X102698188Y-63623741D01*
X102707449Y-63559869D01*
X102707449Y-63559864D01*
X102707712Y-63558053D01*
X102707964Y-63548448D01*
X102709184Y-63501827D01*
X102709232Y-63500000D01*
X102706303Y-63468116D01*
X102699438Y-63393416D01*
X102690658Y-63297859D01*
X102684124Y-63274691D01*
X102636335Y-63105244D01*
X102636333Y-63105240D01*
X102635557Y-63102487D01*
X102545776Y-62920428D01*
X102527437Y-62895869D01*
X102426037Y-62760078D01*
X102426036Y-62760076D01*
X102424320Y-62757779D01*
X102275258Y-62619987D01*
X102103581Y-62511667D01*
X101915039Y-62436446D01*
X101912233Y-62435888D01*
X101912230Y-62435887D01*
X101718752Y-62397402D01*
X101718750Y-62397402D01*
X101715946Y-62396844D01*
X101620353Y-62395593D01*
X101515833Y-62394224D01*
X101515828Y-62394224D01*
X101512971Y-62394187D01*
X101510151Y-62394672D01*
X101510146Y-62394672D01*
X101393751Y-62414673D01*
X101312910Y-62428564D01*
X101310222Y-62429556D01*
X101310217Y-62429557D01*
X101125151Y-62497832D01*
X101125148Y-62497833D01*
X101122463Y-62498824D01*
X100948010Y-62602612D01*
X100795392Y-62736455D01*
X100793616Y-62738708D01*
X100793615Y-62738709D01*
X100760421Y-62780816D01*
X100669720Y-62895869D01*
X100575203Y-63075515D01*
X100574356Y-63078242D01*
X100574355Y-63078245D01*
X100524410Y-63239096D01*
X100515007Y-63269378D01*
X100491148Y-63470964D01*
X99822500Y-63470964D01*
X99822500Y-60930964D01*
X100491148Y-60930964D01*
X100491336Y-60933828D01*
X100502650Y-61106449D01*
X100504424Y-61133522D01*
X100505130Y-61136302D01*
X100549448Y-61310801D01*
X100554392Y-61330269D01*
X100639377Y-61514616D01*
X100756533Y-61680389D01*
X100901938Y-61822035D01*
X101070720Y-61934812D01*
X101149974Y-61968862D01*
X101254588Y-62013808D01*
X101254590Y-62013809D01*
X101257228Y-62014942D01*
X101357641Y-62037663D01*
X101452426Y-62059111D01*
X101452429Y-62059111D01*
X101455216Y-62059742D01*
X101545164Y-62063276D01*
X101655193Y-62067600D01*
X101655197Y-62067600D01*
X101658053Y-62067712D01*
X101858945Y-62038584D01*
X102051165Y-61973334D01*
X102228276Y-61874147D01*
X102384345Y-61744345D01*
X102514147Y-61588276D01*
X102613334Y-61411165D01*
X102678584Y-61218945D01*
X102705864Y-61030800D01*
X102707449Y-61019869D01*
X102707449Y-61019864D01*
X102707712Y-61018053D01*
X102709232Y-60960000D01*
X102708909Y-60956477D01*
X102695416Y-60809643D01*
X102690658Y-60757859D01*
X102687815Y-60747777D01*
X102636335Y-60565244D01*
X102636333Y-60565240D01*
X102635557Y-60562487D01*
X102545776Y-60380428D01*
X102527437Y-60355869D01*
X102426037Y-60220078D01*
X102426036Y-60220076D01*
X102424320Y-60217779D01*
X102275258Y-60079987D01*
X102103581Y-59971667D01*
X101915039Y-59896446D01*
X101912233Y-59895888D01*
X101912230Y-59895887D01*
X101718752Y-59857402D01*
X101718750Y-59857402D01*
X101715946Y-59856844D01*
X101620353Y-59855593D01*
X101515833Y-59854224D01*
X101515828Y-59854224D01*
X101512971Y-59854187D01*
X101510151Y-59854672D01*
X101510146Y-59854672D01*
X101393751Y-59874673D01*
X101312910Y-59888564D01*
X101310222Y-59889556D01*
X101310217Y-59889557D01*
X101125151Y-59957832D01*
X101125148Y-59957833D01*
X101122463Y-59958824D01*
X100948010Y-60062612D01*
X100795392Y-60196455D01*
X100793616Y-60198708D01*
X100793615Y-60198709D01*
X100725962Y-60284527D01*
X100669720Y-60355869D01*
X100575203Y-60535515D01*
X100574356Y-60538242D01*
X100574355Y-60538245D01*
X100516378Y-60724963D01*
X100515007Y-60729378D01*
X100505611Y-60808763D01*
X100491876Y-60924817D01*
X100491148Y-60930964D01*
X99822500Y-60930964D01*
X99822500Y-58390964D01*
X100491148Y-58390964D01*
X100504424Y-58593522D01*
X100554392Y-58790269D01*
X100639377Y-58974616D01*
X100756533Y-59140389D01*
X100901938Y-59282035D01*
X101070720Y-59394812D01*
X101157124Y-59431934D01*
X101254588Y-59473808D01*
X101254590Y-59473809D01*
X101257228Y-59474942D01*
X101357641Y-59497663D01*
X101452426Y-59519111D01*
X101452429Y-59519111D01*
X101455216Y-59519742D01*
X101545164Y-59523276D01*
X101655193Y-59527600D01*
X101655197Y-59527600D01*
X101658053Y-59527712D01*
X101858945Y-59498584D01*
X102051165Y-59433334D01*
X102228276Y-59334147D01*
X102384345Y-59204345D01*
X102514147Y-59048276D01*
X102613334Y-58871165D01*
X102623265Y-58841910D01*
X102654805Y-58805945D01*
X102682448Y-58799500D01*
X102686918Y-58799500D01*
X102731112Y-58817806D01*
X103996194Y-60082889D01*
X104014500Y-60127083D01*
X104014500Y-62680059D01*
X103993086Y-62727157D01*
X103904039Y-62804838D01*
X103901873Y-62807920D01*
X103901872Y-62807921D01*
X103898233Y-62813099D01*
X103812950Y-62934444D01*
X103811581Y-62937955D01*
X103811580Y-62937957D01*
X103756897Y-63078214D01*
X103755406Y-63082037D01*
X103754914Y-63085774D01*
X103735221Y-63235355D01*
X103735221Y-63235359D01*
X103734729Y-63239096D01*
X103752113Y-63396553D01*
X103806553Y-63545319D01*
X103894908Y-63676805D01*
X104012076Y-63783419D01*
X104015385Y-63785216D01*
X104015387Y-63785217D01*
X104113368Y-63838416D01*
X104151293Y-63859008D01*
X104154940Y-63859965D01*
X104154943Y-63859966D01*
X104300874Y-63898250D01*
X104304522Y-63899207D01*
X104389157Y-63900536D01*
X104459147Y-63901636D01*
X104459149Y-63901636D01*
X104462916Y-63901695D01*
X104617332Y-63866329D01*
X104620696Y-63864637D01*
X104620699Y-63864636D01*
X104687611Y-63830983D01*
X104758855Y-63795151D01*
X104761720Y-63792704D01*
X104761723Y-63792702D01*
X104841089Y-63724916D01*
X104879314Y-63692269D01*
X104881509Y-63689214D01*
X104881512Y-63689211D01*
X104969555Y-63566686D01*
X104969556Y-63566684D01*
X104971755Y-63563624D01*
X105030842Y-63416641D01*
X105048140Y-63295096D01*
X105052875Y-63261826D01*
X105052875Y-63261821D01*
X105053162Y-63259807D01*
X105053307Y-63246000D01*
X105034276Y-63088733D01*
X104978280Y-62940546D01*
X104888553Y-62809992D01*
X104794423Y-62726125D01*
X104773500Y-62679461D01*
X104773500Y-59991164D01*
X104774900Y-59978009D01*
X104776265Y-59971667D01*
X104778320Y-59962124D01*
X104773933Y-59925061D01*
X104773500Y-59917714D01*
X104773500Y-59912476D01*
X104773077Y-59909935D01*
X104773076Y-59909923D01*
X104770083Y-59891946D01*
X104769667Y-59889028D01*
X104765544Y-59854187D01*
X104763469Y-59836659D01*
X104761233Y-59832003D01*
X104760121Y-59828174D01*
X104758852Y-59824467D01*
X104758004Y-59819374D01*
X104755551Y-59814827D01*
X104732945Y-59772930D01*
X104731608Y-59770307D01*
X104717691Y-59741325D01*
X104708780Y-59722768D01*
X104705186Y-59718492D01*
X104704990Y-59718296D01*
X104702385Y-59715211D01*
X104700465Y-59712735D01*
X104698010Y-59708186D01*
X104657514Y-59670752D01*
X104655745Y-59669051D01*
X103171698Y-58185004D01*
X103163389Y-58174716D01*
X103154571Y-58161060D01*
X103125257Y-58137951D01*
X103119756Y-58133062D01*
X103116056Y-58129362D01*
X103113962Y-58127866D01*
X103113959Y-58127863D01*
X103099137Y-58117271D01*
X103096783Y-58115504D01*
X103059411Y-58086043D01*
X103055353Y-58082844D01*
X103050477Y-58081132D01*
X103046976Y-58079207D01*
X103043465Y-58077487D01*
X103039266Y-58074486D01*
X103034324Y-58073008D01*
X103034320Y-58073006D01*
X102998154Y-58062191D01*
X102988700Y-58059363D01*
X102985906Y-58058455D01*
X102939861Y-58042285D01*
X102939857Y-58042284D01*
X102936149Y-58040982D01*
X102932149Y-58040636D01*
X102931926Y-58040616D01*
X102931921Y-58040616D01*
X102930584Y-58040500D01*
X102930307Y-58040500D01*
X102926281Y-58040160D01*
X102923172Y-58039767D01*
X102918222Y-58038287D01*
X102863118Y-58040452D01*
X102860664Y-58040500D01*
X102683306Y-58040500D01*
X102639112Y-58022194D01*
X102627251Y-58005643D01*
X102547044Y-57842999D01*
X102547043Y-57842998D01*
X102545776Y-57840428D01*
X102526423Y-57814511D01*
X102426037Y-57680078D01*
X102426036Y-57680076D01*
X102424320Y-57677779D01*
X102275258Y-57539987D01*
X102103581Y-57431667D01*
X101915039Y-57356446D01*
X101912233Y-57355888D01*
X101912230Y-57355887D01*
X101718752Y-57317402D01*
X101718750Y-57317402D01*
X101715946Y-57316844D01*
X101620353Y-57315593D01*
X101515833Y-57314224D01*
X101515828Y-57314224D01*
X101512971Y-57314187D01*
X101510151Y-57314672D01*
X101510146Y-57314672D01*
X101393751Y-57334673D01*
X101312910Y-57348564D01*
X101310222Y-57349556D01*
X101310217Y-57349557D01*
X101125151Y-57417832D01*
X101125148Y-57417833D01*
X101122463Y-57418824D01*
X100948010Y-57522612D01*
X100876572Y-57585262D01*
X100801503Y-57651096D01*
X100795392Y-57656455D01*
X100793616Y-57658708D01*
X100793615Y-57658709D01*
X100725284Y-57745387D01*
X100669720Y-57815869D01*
X100575203Y-57995515D01*
X100574356Y-57998242D01*
X100574355Y-57998245D01*
X100531683Y-58135672D01*
X100515007Y-58189378D01*
X100491148Y-58390964D01*
X99822500Y-58390964D01*
X99822500Y-55850964D01*
X100491148Y-55850964D01*
X100491336Y-55853828D01*
X100503749Y-56043220D01*
X100504424Y-56053522D01*
X100505130Y-56056302D01*
X100552214Y-56241692D01*
X100554392Y-56250269D01*
X100639377Y-56434616D01*
X100710218Y-56534854D01*
X100749021Y-56589759D01*
X100756533Y-56600389D01*
X100901938Y-56742035D01*
X101070720Y-56854812D01*
X101157124Y-56891934D01*
X101254588Y-56933808D01*
X101254590Y-56933809D01*
X101257228Y-56934942D01*
X101357641Y-56957663D01*
X101452426Y-56979111D01*
X101452429Y-56979111D01*
X101455216Y-56979742D01*
X101545164Y-56983276D01*
X101655193Y-56987600D01*
X101655197Y-56987600D01*
X101658053Y-56987712D01*
X101858945Y-56958584D01*
X102051165Y-56893334D01*
X102228276Y-56794147D01*
X102384345Y-56664345D01*
X102514147Y-56508276D01*
X102613334Y-56331165D01*
X102678584Y-56138945D01*
X102691385Y-56050659D01*
X102707449Y-55939869D01*
X102707449Y-55939864D01*
X102707712Y-55938053D01*
X102709232Y-55880000D01*
X102709046Y-55877970D01*
X102695756Y-55733341D01*
X102690658Y-55677859D01*
X102689879Y-55675096D01*
X102636335Y-55485244D01*
X102636333Y-55485240D01*
X102635557Y-55482487D01*
X102566512Y-55342476D01*
X102547044Y-55302999D01*
X102547043Y-55302998D01*
X102545776Y-55300428D01*
X102527437Y-55275869D01*
X102426037Y-55140078D01*
X102426036Y-55140076D01*
X102424320Y-55137779D01*
X102275258Y-54999987D01*
X102103581Y-54891667D01*
X101915039Y-54816446D01*
X101912233Y-54815888D01*
X101912230Y-54815887D01*
X101718752Y-54777402D01*
X101718750Y-54777402D01*
X101715946Y-54776844D01*
X101620353Y-54775593D01*
X101515833Y-54774224D01*
X101515828Y-54774224D01*
X101512971Y-54774187D01*
X101510151Y-54774672D01*
X101510146Y-54774672D01*
X101393751Y-54794673D01*
X101312910Y-54808564D01*
X101310222Y-54809556D01*
X101310217Y-54809557D01*
X101125151Y-54877832D01*
X101125148Y-54877833D01*
X101122463Y-54878824D01*
X101120003Y-54880287D01*
X101120002Y-54880288D01*
X101085197Y-54900995D01*
X100948010Y-54982612D01*
X100795392Y-55116455D01*
X100793616Y-55118708D01*
X100793615Y-55118709D01*
X100680620Y-55262043D01*
X100669720Y-55275869D01*
X100619804Y-55370743D01*
X100581266Y-55443992D01*
X100575203Y-55455515D01*
X100574356Y-55458242D01*
X100574355Y-55458245D01*
X100541341Y-55564568D01*
X100515007Y-55649378D01*
X100491148Y-55850964D01*
X99822500Y-55850964D01*
X99822500Y-53310964D01*
X100491148Y-53310964D01*
X100504424Y-53513522D01*
X100505130Y-53516302D01*
X100538596Y-53648071D01*
X100554392Y-53710269D01*
X100639377Y-53894616D01*
X100756533Y-54060389D01*
X100901938Y-54202035D01*
X101070720Y-54314812D01*
X101157124Y-54351934D01*
X101254588Y-54393808D01*
X101254590Y-54393809D01*
X101257228Y-54394942D01*
X101357641Y-54417663D01*
X101452426Y-54439111D01*
X101452429Y-54439111D01*
X101455216Y-54439742D01*
X101545164Y-54443276D01*
X101655193Y-54447600D01*
X101655197Y-54447600D01*
X101658053Y-54447712D01*
X101858945Y-54418584D01*
X102051165Y-54353334D01*
X102228276Y-54254147D01*
X102384345Y-54124345D01*
X102514147Y-53968276D01*
X102613334Y-53791165D01*
X102678584Y-53598945D01*
X102706910Y-53403583D01*
X102707449Y-53399869D01*
X102707449Y-53399864D01*
X102707712Y-53398053D01*
X102709232Y-53340000D01*
X102708488Y-53331896D01*
X102696316Y-53199438D01*
X102690658Y-53137859D01*
X102689879Y-53135096D01*
X102636335Y-52945244D01*
X102636333Y-52945240D01*
X102635557Y-52942487D01*
X102545776Y-52760428D01*
X102527437Y-52735869D01*
X102426037Y-52600078D01*
X102426036Y-52600076D01*
X102424320Y-52597779D01*
X102275258Y-52459987D01*
X102103581Y-52351667D01*
X101915039Y-52276446D01*
X101912233Y-52275888D01*
X101912230Y-52275887D01*
X101718752Y-52237402D01*
X101718750Y-52237402D01*
X101715946Y-52236844D01*
X101620353Y-52235593D01*
X101515833Y-52234224D01*
X101515828Y-52234224D01*
X101512971Y-52234187D01*
X101510151Y-52234672D01*
X101510146Y-52234672D01*
X101393751Y-52254673D01*
X101312910Y-52268564D01*
X101310222Y-52269556D01*
X101310217Y-52269557D01*
X101125151Y-52337832D01*
X101125148Y-52337833D01*
X101122463Y-52338824D01*
X101120003Y-52340287D01*
X101120002Y-52340288D01*
X101102657Y-52350607D01*
X100948010Y-52442612D01*
X100795392Y-52576455D01*
X100793616Y-52578708D01*
X100793615Y-52578709D01*
X100735046Y-52653004D01*
X100669720Y-52735869D01*
X100575203Y-52915515D01*
X100574356Y-52918242D01*
X100574355Y-52918245D01*
X100536616Y-53039786D01*
X100515007Y-53109378D01*
X100491148Y-53310964D01*
X99822500Y-53310964D01*
X99822500Y-45690964D01*
X100491148Y-45690964D01*
X100493627Y-45728790D01*
X100502190Y-45859431D01*
X100504424Y-45893522D01*
X100554392Y-46090269D01*
X100639377Y-46274616D01*
X100756533Y-46440389D01*
X100758587Y-46442390D01*
X100758588Y-46442391D01*
X100819924Y-46502141D01*
X100901938Y-46582035D01*
X101070720Y-46694812D01*
X101134486Y-46722208D01*
X101254588Y-46773808D01*
X101254590Y-46773809D01*
X101257228Y-46774942D01*
X101355484Y-46797175D01*
X101452426Y-46819111D01*
X101452429Y-46819111D01*
X101455216Y-46819742D01*
X101545164Y-46823276D01*
X101655193Y-46827600D01*
X101655197Y-46827600D01*
X101658053Y-46827712D01*
X101858945Y-46798584D01*
X102051165Y-46733334D01*
X102228276Y-46634147D01*
X102384345Y-46504345D01*
X102514147Y-46348276D01*
X102613334Y-46171165D01*
X102678584Y-45978945D01*
X102695762Y-45860471D01*
X104312759Y-45860471D01*
X104314732Y-45890581D01*
X104315626Y-45896224D01*
X104364159Y-46087323D01*
X104366066Y-46092707D01*
X104448612Y-46271761D01*
X104451468Y-46276708D01*
X104565257Y-46437717D01*
X104568970Y-46442065D01*
X104710203Y-46579647D01*
X104714636Y-46583236D01*
X104878576Y-46692778D01*
X104883598Y-46695504D01*
X105064744Y-46773331D01*
X105070183Y-46775098D01*
X105262492Y-46818614D01*
X105268141Y-46819357D01*
X105270577Y-46819453D01*
X105278827Y-46816409D01*
X105283000Y-46806869D01*
X105283000Y-46804779D01*
X105537000Y-46804779D01*
X105540641Y-46813569D01*
X105546208Y-46815875D01*
X105665992Y-46798507D01*
X105671541Y-46797175D01*
X105858247Y-46733796D01*
X105863460Y-46731475D01*
X106035492Y-46635133D01*
X106040194Y-46631902D01*
X106191793Y-46505819D01*
X106195819Y-46501793D01*
X106321902Y-46350194D01*
X106325133Y-46345492D01*
X106421475Y-46173460D01*
X106423796Y-46168247D01*
X106487175Y-45981541D01*
X106488507Y-45975992D01*
X106505426Y-45859304D01*
X106503084Y-45850082D01*
X106497904Y-45847000D01*
X105549431Y-45847000D01*
X105540641Y-45850641D01*
X105537000Y-45859431D01*
X105537000Y-46804779D01*
X105283000Y-46804779D01*
X105283000Y-45859431D01*
X105279359Y-45850641D01*
X105270569Y-45847000D01*
X104324307Y-45847000D01*
X104316632Y-45850179D01*
X104312759Y-45860471D01*
X102695762Y-45860471D01*
X102707712Y-45778053D01*
X102709232Y-45720000D01*
X102708425Y-45711210D01*
X102706565Y-45690964D01*
X106841148Y-45690964D01*
X106843627Y-45728790D01*
X106852190Y-45859431D01*
X106854424Y-45893522D01*
X106904392Y-46090269D01*
X106989377Y-46274616D01*
X107106533Y-46440389D01*
X107108587Y-46442390D01*
X107108588Y-46442391D01*
X107169924Y-46502141D01*
X107251938Y-46582035D01*
X107420720Y-46694812D01*
X107484486Y-46722208D01*
X107604588Y-46773808D01*
X107604590Y-46773809D01*
X107607228Y-46774942D01*
X107705484Y-46797175D01*
X107802426Y-46819111D01*
X107802429Y-46819111D01*
X107805216Y-46819742D01*
X107895164Y-46823276D01*
X108005193Y-46827600D01*
X108005197Y-46827600D01*
X108008053Y-46827712D01*
X108208945Y-46798584D01*
X108401165Y-46733334D01*
X108578276Y-46634147D01*
X108734345Y-46504345D01*
X108864147Y-46348276D01*
X108963334Y-46171165D01*
X109028584Y-45978945D01*
X109057712Y-45778053D01*
X109059232Y-45720000D01*
X110246708Y-45720000D01*
X110246946Y-45722720D01*
X110265594Y-45935869D01*
X110265839Y-45938674D01*
X110266544Y-45941306D01*
X110266545Y-45941310D01*
X110305670Y-46087323D01*
X110322653Y-46150703D01*
X110415421Y-46349646D01*
X110416983Y-46351877D01*
X110416986Y-46351882D01*
X110521955Y-46501793D01*
X110541326Y-46529457D01*
X110696543Y-46684674D01*
X110698781Y-46686241D01*
X110874118Y-46809014D01*
X110874123Y-46809017D01*
X110876354Y-46810579D01*
X111075297Y-46903347D01*
X111077938Y-46904055D01*
X111077939Y-46904055D01*
X111284690Y-46959455D01*
X111284694Y-46959456D01*
X111287326Y-46960161D01*
X111290042Y-46960399D01*
X111290044Y-46960399D01*
X111503280Y-46979054D01*
X111506000Y-46979292D01*
X111508720Y-46979054D01*
X111721956Y-46960399D01*
X111721958Y-46960399D01*
X111724674Y-46960161D01*
X111727306Y-46959456D01*
X111727310Y-46959455D01*
X111934061Y-46904055D01*
X111934062Y-46904055D01*
X111936703Y-46903347D01*
X112135646Y-46810579D01*
X112137877Y-46809017D01*
X112137882Y-46809014D01*
X112301625Y-46694359D01*
X115216395Y-46694359D01*
X115218499Y-46699438D01*
X115374368Y-46808577D01*
X115379079Y-46811298D01*
X115572996Y-46901723D01*
X115578105Y-46903583D01*
X115784777Y-46958960D01*
X115790131Y-46959904D01*
X116003280Y-46978552D01*
X116008720Y-46978552D01*
X116221869Y-46959904D01*
X116227223Y-46958960D01*
X116433895Y-46903583D01*
X116439004Y-46901723D01*
X116632921Y-46811298D01*
X116637632Y-46808577D01*
X116790570Y-46701490D01*
X116795682Y-46693465D01*
X116794492Y-46688097D01*
X116014790Y-45908395D01*
X116006000Y-45904754D01*
X115997210Y-45908395D01*
X115220036Y-46685569D01*
X115216395Y-46694359D01*
X112301625Y-46694359D01*
X112313219Y-46686241D01*
X112315457Y-46684674D01*
X112470674Y-46529457D01*
X112490045Y-46501793D01*
X112595014Y-46351882D01*
X112595017Y-46351877D01*
X112596579Y-46349646D01*
X112689347Y-46150703D01*
X112706330Y-46087323D01*
X112745455Y-45941310D01*
X112745456Y-45941306D01*
X112746161Y-45938674D01*
X112746407Y-45935869D01*
X112765054Y-45722720D01*
X114747448Y-45722720D01*
X114766096Y-45935869D01*
X114767040Y-45941223D01*
X114822417Y-46147895D01*
X114824277Y-46153004D01*
X114914702Y-46346921D01*
X114917423Y-46351632D01*
X115024510Y-46504570D01*
X115032535Y-46509682D01*
X115037903Y-46508492D01*
X115817605Y-45728790D01*
X115821246Y-45720000D01*
X116190754Y-45720000D01*
X116194395Y-45728790D01*
X116971569Y-46505964D01*
X116980359Y-46509605D01*
X116985438Y-46507501D01*
X117094577Y-46351632D01*
X117097298Y-46346921D01*
X117187723Y-46153004D01*
X117189583Y-46147895D01*
X117244960Y-45941223D01*
X117245904Y-45935869D01*
X117264552Y-45722720D01*
X117264552Y-45717280D01*
X117245904Y-45504131D01*
X117244960Y-45498777D01*
X117189583Y-45292105D01*
X117187723Y-45286996D01*
X117097298Y-45093079D01*
X117094577Y-45088368D01*
X116987490Y-44935430D01*
X116979465Y-44930318D01*
X116974097Y-44931508D01*
X116194395Y-45711210D01*
X116190754Y-45720000D01*
X115821246Y-45720000D01*
X115817605Y-45711210D01*
X115040431Y-44934036D01*
X115031641Y-44930395D01*
X115026562Y-44932499D01*
X114917423Y-45088368D01*
X114914702Y-45093079D01*
X114824277Y-45286996D01*
X114822417Y-45292105D01*
X114767040Y-45498777D01*
X114766096Y-45504131D01*
X114747448Y-45717280D01*
X114747448Y-45722720D01*
X112765054Y-45722720D01*
X112765292Y-45720000D01*
X112747857Y-45520714D01*
X112746399Y-45504044D01*
X112746399Y-45504042D01*
X112746161Y-45501326D01*
X112743749Y-45492322D01*
X112690055Y-45291939D01*
X112690055Y-45291938D01*
X112689347Y-45289297D01*
X112596579Y-45090354D01*
X112595017Y-45088123D01*
X112595014Y-45088118D01*
X112472241Y-44912781D01*
X112470674Y-44910543D01*
X112315457Y-44755326D01*
X112302902Y-44746535D01*
X115216318Y-44746535D01*
X115217508Y-44751903D01*
X115997210Y-45531605D01*
X116006000Y-45535246D01*
X116014790Y-45531605D01*
X116791964Y-44754431D01*
X116795605Y-44745641D01*
X116793501Y-44740562D01*
X116637632Y-44631423D01*
X116632921Y-44628702D01*
X116439004Y-44538277D01*
X116433895Y-44536417D01*
X116227223Y-44481040D01*
X116221869Y-44480096D01*
X116008720Y-44461448D01*
X116003280Y-44461448D01*
X115790131Y-44480096D01*
X115784777Y-44481040D01*
X115578105Y-44536417D01*
X115572996Y-44538277D01*
X115379079Y-44628702D01*
X115374368Y-44631423D01*
X115221430Y-44738510D01*
X115216318Y-44746535D01*
X112302902Y-44746535D01*
X112283851Y-44733195D01*
X112137882Y-44630986D01*
X112137877Y-44630983D01*
X112135646Y-44629421D01*
X111936703Y-44536653D01*
X111934061Y-44535945D01*
X111727310Y-44480545D01*
X111727306Y-44480544D01*
X111724674Y-44479839D01*
X111721958Y-44479601D01*
X111721956Y-44479601D01*
X111540412Y-44463719D01*
X111506000Y-44460708D01*
X111471588Y-44463719D01*
X111290044Y-44479601D01*
X111290042Y-44479601D01*
X111287326Y-44479839D01*
X111284694Y-44480544D01*
X111284690Y-44480545D01*
X111077939Y-44535945D01*
X111075297Y-44536653D01*
X110876354Y-44629421D01*
X110874123Y-44630983D01*
X110874118Y-44630986D01*
X110728149Y-44733195D01*
X110696543Y-44755326D01*
X110541326Y-44910543D01*
X110539759Y-44912781D01*
X110416986Y-45088118D01*
X110416983Y-45088123D01*
X110415421Y-45090354D01*
X110322653Y-45289297D01*
X110321945Y-45291938D01*
X110321945Y-45291939D01*
X110268252Y-45492322D01*
X110265839Y-45501326D01*
X110265601Y-45504042D01*
X110265601Y-45504044D01*
X110264143Y-45520714D01*
X110246708Y-45720000D01*
X109059232Y-45720000D01*
X109058425Y-45711210D01*
X109047228Y-45589359D01*
X109040658Y-45517859D01*
X109039879Y-45515096D01*
X108986335Y-45325244D01*
X108986333Y-45325240D01*
X108985557Y-45322487D01*
X108922214Y-45194040D01*
X108897044Y-45142999D01*
X108897043Y-45142998D01*
X108895776Y-45140428D01*
X108894058Y-45138127D01*
X108776037Y-44980078D01*
X108776036Y-44980076D01*
X108774320Y-44977779D01*
X108625258Y-44839987D01*
X108453581Y-44731667D01*
X108265039Y-44656446D01*
X108262233Y-44655888D01*
X108262230Y-44655887D01*
X108068752Y-44617402D01*
X108068750Y-44617402D01*
X108065946Y-44616844D01*
X107970353Y-44615593D01*
X107865833Y-44614224D01*
X107865828Y-44614224D01*
X107862971Y-44614187D01*
X107860151Y-44614672D01*
X107860146Y-44614672D01*
X107765207Y-44630986D01*
X107662910Y-44648564D01*
X107660222Y-44649556D01*
X107660217Y-44649557D01*
X107475151Y-44717832D01*
X107475148Y-44717833D01*
X107472463Y-44718824D01*
X107298010Y-44822612D01*
X107206064Y-44903247D01*
X107150518Y-44951960D01*
X107145392Y-44956455D01*
X107143616Y-44958708D01*
X107143615Y-44958709D01*
X107119561Y-44989222D01*
X107019720Y-45115869D01*
X106925203Y-45295515D01*
X106924356Y-45298242D01*
X106924355Y-45298245D01*
X106916828Y-45322487D01*
X106865007Y-45489378D01*
X106841148Y-45690964D01*
X102706565Y-45690964D01*
X102697228Y-45589359D01*
X102696428Y-45580655D01*
X104314707Y-45580655D01*
X104317290Y-45589811D01*
X104322984Y-45593000D01*
X105270569Y-45593000D01*
X105279359Y-45589359D01*
X105283000Y-45580569D01*
X105537000Y-45580569D01*
X105540641Y-45589359D01*
X105549431Y-45593000D01*
X106494629Y-45593000D01*
X106503419Y-45589359D01*
X106506125Y-45582826D01*
X106500426Y-45520805D01*
X106499385Y-45515187D01*
X106445867Y-45325424D01*
X106443824Y-45320102D01*
X106356616Y-45143261D01*
X106353630Y-45138389D01*
X106235664Y-44980414D01*
X106231841Y-44976169D01*
X106087060Y-44842334D01*
X106082525Y-44838854D01*
X105915774Y-44733642D01*
X105910696Y-44731054D01*
X105727553Y-44657988D01*
X105722087Y-44656369D01*
X105549193Y-44621978D01*
X105539861Y-44623834D01*
X105537000Y-44628117D01*
X105537000Y-45580569D01*
X105283000Y-45580569D01*
X105283000Y-44633994D01*
X105279359Y-44625204D01*
X105274214Y-44623073D01*
X105125870Y-44648563D01*
X105120347Y-44650042D01*
X104935367Y-44718285D01*
X104930218Y-44720741D01*
X104760770Y-44821552D01*
X104756148Y-44824911D01*
X104607910Y-44954912D01*
X104603983Y-44959050D01*
X104481913Y-45113895D01*
X104478809Y-45118674D01*
X104386998Y-45293177D01*
X104384819Y-45298437D01*
X104326346Y-45486752D01*
X104325162Y-45492322D01*
X104314707Y-45580655D01*
X102696428Y-45580655D01*
X102690658Y-45517859D01*
X102689879Y-45515096D01*
X102636335Y-45325244D01*
X102636333Y-45325240D01*
X102635557Y-45322487D01*
X102572214Y-45194040D01*
X102547044Y-45142999D01*
X102547043Y-45142998D01*
X102545776Y-45140428D01*
X102544058Y-45138127D01*
X102426037Y-44980078D01*
X102426036Y-44980076D01*
X102424320Y-44977779D01*
X102275258Y-44839987D01*
X102103581Y-44731667D01*
X101915039Y-44656446D01*
X101912233Y-44655888D01*
X101912230Y-44655887D01*
X101718752Y-44617402D01*
X101718750Y-44617402D01*
X101715946Y-44616844D01*
X101620353Y-44615593D01*
X101515833Y-44614224D01*
X101515828Y-44614224D01*
X101512971Y-44614187D01*
X101510151Y-44614672D01*
X101510146Y-44614672D01*
X101415207Y-44630986D01*
X101312910Y-44648564D01*
X101310222Y-44649556D01*
X101310217Y-44649557D01*
X101125151Y-44717832D01*
X101125148Y-44717833D01*
X101122463Y-44718824D01*
X100948010Y-44822612D01*
X100856064Y-44903247D01*
X100800518Y-44951960D01*
X100795392Y-44956455D01*
X100793616Y-44958708D01*
X100793615Y-44958709D01*
X100769561Y-44989222D01*
X100669720Y-45115869D01*
X100575203Y-45295515D01*
X100574356Y-45298242D01*
X100574355Y-45298245D01*
X100566828Y-45322487D01*
X100515007Y-45489378D01*
X100491148Y-45690964D01*
X99822500Y-45690964D01*
X99822500Y-45243222D01*
X99823701Y-45231029D01*
X99826285Y-45218038D01*
X99827486Y-45212000D01*
X99825600Y-45202516D01*
X99824592Y-45185422D01*
X99829867Y-45118405D01*
X99837744Y-45018309D01*
X99839278Y-45008624D01*
X99851180Y-44959050D01*
X99883486Y-44824485D01*
X99886512Y-44815169D01*
X99958989Y-44640194D01*
X99963436Y-44631466D01*
X100055618Y-44481040D01*
X100062385Y-44469998D01*
X100068144Y-44462070D01*
X100191144Y-44318056D01*
X100198056Y-44311144D01*
X100342070Y-44188144D01*
X100349998Y-44182385D01*
X100432727Y-44131688D01*
X100511466Y-44083436D01*
X100520194Y-44078989D01*
X100695169Y-44006512D01*
X100704485Y-44003486D01*
X100888625Y-43959278D01*
X100898309Y-43957744D01*
X101065424Y-43944592D01*
X101082516Y-43945600D01*
X101092000Y-43947486D01*
X101111029Y-43943701D01*
X101123222Y-43942500D01*
X120110778Y-43942500D01*
X120122971Y-43943701D01*
G37*
%TD.AperFunction*%
%TA.AperFunction,Conductor*%
G36*
X110665675Y-51197806D02*
G01*
X110683981Y-51242000D01*
X110665675Y-51286194D01*
X110541326Y-51410543D01*
X110539759Y-51412781D01*
X110416986Y-51588118D01*
X110416983Y-51588123D01*
X110415421Y-51590354D01*
X110322653Y-51789297D01*
X110321945Y-51791938D01*
X110321945Y-51791939D01*
X110278089Y-51955611D01*
X110265839Y-52001326D01*
X110265601Y-52004042D01*
X110265601Y-52004044D01*
X110264559Y-52015957D01*
X110246708Y-52220000D01*
X110246946Y-52222720D01*
X110265594Y-52435869D01*
X110265839Y-52438674D01*
X110266544Y-52441306D01*
X110266545Y-52441310D01*
X110281771Y-52498133D01*
X110322653Y-52650703D01*
X110415421Y-52849646D01*
X110416983Y-52851877D01*
X110416986Y-52851882D01*
X110519308Y-52998012D01*
X110541326Y-53029457D01*
X110696543Y-53184674D01*
X110698781Y-53186241D01*
X110874118Y-53309014D01*
X110874123Y-53309017D01*
X110876354Y-53310579D01*
X111075297Y-53403347D01*
X111080173Y-53404653D01*
X111118125Y-53433771D01*
X111126500Y-53465024D01*
X111126500Y-54426918D01*
X111108194Y-54471112D01*
X110255004Y-55324302D01*
X110244716Y-55332611D01*
X110231060Y-55341429D01*
X110227863Y-55345485D01*
X110207951Y-55370743D01*
X110203062Y-55376244D01*
X110199362Y-55379944D01*
X110197866Y-55382038D01*
X110197863Y-55382041D01*
X110187271Y-55396863D01*
X110185504Y-55399217D01*
X110157847Y-55434301D01*
X110152844Y-55440647D01*
X110151132Y-55445523D01*
X110149207Y-55449024D01*
X110147487Y-55452535D01*
X110144486Y-55456734D01*
X110143008Y-55461676D01*
X110143006Y-55461680D01*
X110135836Y-55485657D01*
X110131292Y-55500853D01*
X110129366Y-55507292D01*
X110128455Y-55510094D01*
X110112285Y-55556139D01*
X110112284Y-55556143D01*
X110110982Y-55559851D01*
X110110500Y-55565416D01*
X110110500Y-55565693D01*
X110110160Y-55569719D01*
X110109767Y-55572828D01*
X110108287Y-55577778D01*
X110109863Y-55617896D01*
X110110452Y-55632882D01*
X110110500Y-55635336D01*
X110110500Y-57092059D01*
X110089086Y-57139157D01*
X110000039Y-57216838D01*
X109908950Y-57346444D01*
X109907581Y-57349955D01*
X109907580Y-57349957D01*
X109867909Y-57451710D01*
X109851406Y-57494037D01*
X109850914Y-57497774D01*
X109831221Y-57647355D01*
X109831221Y-57647359D01*
X109830729Y-57651096D01*
X109848113Y-57808553D01*
X109902553Y-57957319D01*
X109935803Y-58006800D01*
X109986945Y-58082907D01*
X109990908Y-58088805D01*
X110108076Y-58195419D01*
X110247293Y-58271008D01*
X110250940Y-58271965D01*
X110250943Y-58271966D01*
X110396874Y-58310250D01*
X110400522Y-58311207D01*
X110413511Y-58311411D01*
X110426726Y-58311619D01*
X110470627Y-58330617D01*
X110488243Y-58374111D01*
X110488243Y-58746661D01*
X110469937Y-58790855D01*
X110425743Y-58809161D01*
X110381549Y-58790855D01*
X107077806Y-55487112D01*
X107059500Y-55442918D01*
X107059500Y-52889456D01*
X107081409Y-52841931D01*
X107162452Y-52772713D01*
X107165314Y-52770269D01*
X107167509Y-52767214D01*
X107167512Y-52767211D01*
X107255555Y-52644686D01*
X107255556Y-52644684D01*
X107257755Y-52641624D01*
X107316842Y-52494641D01*
X107337051Y-52352643D01*
X107338875Y-52339826D01*
X107338875Y-52339821D01*
X107339162Y-52337807D01*
X107339307Y-52324000D01*
X107320276Y-52166733D01*
X107264280Y-52018546D01*
X107253183Y-52002399D01*
X107243237Y-51955611D01*
X107269290Y-51915492D01*
X107304691Y-51904500D01*
X108783758Y-51904499D01*
X108825066Y-51904499D01*
X108828075Y-51903900D01*
X108828080Y-51903900D01*
X108893263Y-51890935D01*
X108899301Y-51889734D01*
X108983484Y-51833484D01*
X109020090Y-51778700D01*
X109036314Y-51754420D01*
X109036315Y-51754418D01*
X109039734Y-51749301D01*
X109048513Y-51705164D01*
X109053901Y-51678080D01*
X109053901Y-51678077D01*
X109054500Y-51675067D01*
X109054500Y-51242000D01*
X109072806Y-51197806D01*
X109117000Y-51179500D01*
X110621481Y-51179500D01*
X110665675Y-51197806D01*
G37*
%TD.AperFunction*%
%TD*%
M02*
