%TF.GenerationSoftware,KiCad,Pcbnew,(6.0.7)*%
%TF.CreationDate,2023-06-10T06:11:36-04:00*%
%TF.ProjectId,atmega328pb_breakout,61746d65-6761-4333-9238-70625f627265,rev?*%
%TF.SameCoordinates,Original*%
%TF.FileFunction,Soldermask,Top*%
%TF.FilePolarity,Negative*%
%FSLAX46Y46*%
G04 Gerber Fmt 4.6, Leading zero omitted, Abs format (unit mm)*
G04 Created by KiCad (PCBNEW (6.0.7)) date 2023-06-10 06:11:36*
%MOMM*%
%LPD*%
G01*
G04 APERTURE LIST*
G04 Aperture macros list*
%AMRoundRect*
0 Rectangle with rounded corners*
0 $1 Rounding radius*
0 $2 $3 $4 $5 $6 $7 $8 $9 X,Y pos of 4 corners*
0 Add a 4 corners polygon primitive as box body*
4,1,4,$2,$3,$4,$5,$6,$7,$8,$9,$2,$3,0*
0 Add four circle primitives for the rounded corners*
1,1,$1+$1,$2,$3*
1,1,$1+$1,$4,$5*
1,1,$1+$1,$6,$7*
1,1,$1+$1,$8,$9*
0 Add four rect primitives between the rounded corners*
20,1,$1+$1,$2,$3,$4,$5,0*
20,1,$1+$1,$4,$5,$6,$7,0*
20,1,$1+$1,$6,$7,$8,$9,0*
20,1,$1+$1,$8,$9,$2,$3,0*%
%AMRotRect*
0 Rectangle, with rotation*
0 The origin of the aperture is its center*
0 $1 length*
0 $2 width*
0 $3 Rotation angle, in degrees counterclockwise*
0 Add horizontal line*
21,1,$1,$2,0,0,$3*%
G04 Aperture macros list end*
%ADD10RotRect,1.600000X0.550000X135.000000*%
%ADD11RotRect,1.600000X0.550000X225.000000*%
%ADD12R,1.700000X2.400000*%
%ADD13RoundRect,0.150000X-0.512500X-0.150000X0.512500X-0.150000X0.512500X0.150000X-0.512500X0.150000X0*%
%ADD14C,2.000000*%
%ADD15RoundRect,0.237500X-0.250000X-0.237500X0.250000X-0.237500X0.250000X0.237500X-0.250000X0.237500X0*%
%ADD16RoundRect,0.237500X0.250000X0.237500X-0.250000X0.237500X-0.250000X-0.237500X0.250000X-0.237500X0*%
%ADD17RoundRect,0.237500X-0.237500X0.250000X-0.237500X-0.250000X0.237500X-0.250000X0.237500X0.250000X0*%
%ADD18RoundRect,0.250000X-0.350000X0.275000X-0.350000X-0.275000X0.350000X-0.275000X0.350000X0.275000X0*%
%ADD19R,1.700000X1.700000*%
%ADD20O,1.700000X1.700000*%
%ADD21RoundRect,0.250001X-0.624999X0.462499X-0.624999X-0.462499X0.624999X-0.462499X0.624999X0.462499X0*%
%ADD22RoundRect,0.237500X0.237500X-0.300000X0.237500X0.300000X-0.237500X0.300000X-0.237500X-0.300000X0*%
%ADD23RoundRect,0.237500X-0.237500X0.300000X-0.237500X-0.300000X0.237500X-0.300000X0.237500X0.300000X0*%
G04 APERTURE END LIST*
D10*
%TO.C,U1*%
X111515305Y-68485103D03*
X112080990Y-67919417D03*
X112646676Y-67353732D03*
X113212361Y-66788047D03*
X113778047Y-66222361D03*
X114343732Y-65656676D03*
X114909417Y-65090990D03*
X115475103Y-64525305D03*
D11*
X115475103Y-62474695D03*
X114909417Y-61909010D03*
X114343732Y-61343324D03*
X113778047Y-60777639D03*
X113212361Y-60211953D03*
X112646676Y-59646268D03*
X112080990Y-59080583D03*
X111515305Y-58514897D03*
D10*
X109464695Y-58514897D03*
X108899010Y-59080583D03*
X108333324Y-59646268D03*
X107767639Y-60211953D03*
X107201953Y-60777639D03*
X106636268Y-61343324D03*
X106070583Y-61909010D03*
X105504897Y-62474695D03*
D11*
X105504897Y-64525305D03*
X106070583Y-65090990D03*
X106636268Y-65656676D03*
X107201953Y-66222361D03*
X107767639Y-66788047D03*
X108333324Y-67353732D03*
X108899010Y-67919417D03*
X109464695Y-68485103D03*
%TD*%
D12*
%TO.C,Y1*%
X112704000Y-72644000D03*
X116404000Y-72644000D03*
%TD*%
D13*
%TO.C,U2*%
X107066500Y-79248000D03*
X107066500Y-80198000D03*
X107066500Y-81148000D03*
X109341500Y-81148000D03*
X109341500Y-79248000D03*
%TD*%
D14*
%TO.C,SW1*%
X111506000Y-45720000D03*
X111506000Y-52220000D03*
X116006000Y-45720000D03*
X116006000Y-52220000D03*
%TD*%
D15*
%TO.C,R3*%
X104394000Y-72136000D03*
X106219000Y-72136000D03*
%TD*%
D16*
%TO.C,R2*%
X110283000Y-72136000D03*
X108458000Y-72136000D03*
%TD*%
D17*
%TO.C,R1*%
X109982000Y-54610000D03*
X109982000Y-56435000D03*
%TD*%
D18*
%TO.C,L1*%
X106172000Y-54356000D03*
X106172000Y-56656000D03*
%TD*%
D19*
%TO.C,J4*%
X104140000Y-83820000D03*
D20*
X106680000Y-83820000D03*
X109220000Y-83820000D03*
X111760000Y-83820000D03*
X114300000Y-83820000D03*
X116840000Y-83820000D03*
%TD*%
D19*
%TO.C,J3*%
X119380000Y-81280000D03*
D20*
X119380000Y-78740000D03*
X119380000Y-76200000D03*
X119380000Y-73660000D03*
X119380000Y-71120000D03*
X119380000Y-68580000D03*
X119380000Y-66040000D03*
X119380000Y-63500000D03*
X119380000Y-60960000D03*
X119380000Y-58420000D03*
X119380000Y-55880000D03*
X119380000Y-53340000D03*
X119380000Y-50800000D03*
X119380000Y-48260000D03*
X119380000Y-45720000D03*
%TD*%
%TO.C,J2*%
X101600000Y-45720000D03*
X101600000Y-48260000D03*
X101600000Y-50800000D03*
X101600000Y-53340000D03*
X101600000Y-55880000D03*
X101600000Y-58420000D03*
X101600000Y-60960000D03*
X101600000Y-63500000D03*
X101600000Y-66040000D03*
X101600000Y-68580000D03*
X101600000Y-71120000D03*
X101600000Y-73660000D03*
X101600000Y-76200000D03*
X101600000Y-78740000D03*
D19*
X101600000Y-81280000D03*
%TD*%
%TO.C,ISP*%
X107950000Y-50800000D03*
D20*
X105410000Y-50800000D03*
X107950000Y-48260000D03*
X105410000Y-48260000D03*
X107950000Y-45720000D03*
X105410000Y-45720000D03*
%TD*%
D21*
%TO.C,D13*%
X105410000Y-74168000D03*
X105410000Y-77143000D03*
%TD*%
%TO.C,POWER*%
X109474000Y-74168000D03*
X109474000Y-77143000D03*
%TD*%
D22*
%TO.C,C9*%
X104394000Y-56335000D03*
X104394000Y-54610000D03*
%TD*%
%TO.C,C8*%
X113284000Y-80973000D03*
X113284000Y-79248000D03*
%TD*%
%TO.C,C7*%
X115062000Y-80973000D03*
X115062000Y-79248000D03*
%TD*%
D23*
%TO.C,C6*%
X111252000Y-79248000D03*
X111252000Y-80973000D03*
%TD*%
%TO.C,C5*%
X104902000Y-79301000D03*
X104902000Y-81026000D03*
%TD*%
D22*
%TO.C,C4*%
X116840000Y-80872500D03*
X116840000Y-79147500D03*
%TD*%
%TO.C,C3*%
X115062000Y-77216000D03*
X115062000Y-75491000D03*
%TD*%
%TO.C,C2*%
X116840000Y-77216000D03*
X116840000Y-75491000D03*
%TD*%
D23*
%TO.C,C1*%
X108204000Y-54610000D03*
X108204000Y-56335000D03*
%TD*%
M02*
