M48
; DRILL file {KiCad (6.0.7)} date Sat Jun 10 06:11:30 2023
; FORMAT={-:-/ absolute / metric / decimal}
; #@! TF.CreationDate,2023-06-10T06:11:30-04:00
; #@! TF.GenerationSoftware,Kicad,Pcbnew,(6.0.7)
; #@! TF.FileFunction,Plated,1,2,PTH
FMAT,2
METRIC
; #@! TA.AperFunction,Plated,PTH,ViaDrill
T1C0.400
; #@! TA.AperFunction,Plated,PTH,ComponentDrill
T2C1.000
; #@! TA.AperFunction,Plated,PTH,ComponentDrill
T3C1.100
%
G90
G05
T1
X103.378Y-67.818
X103.632Y-77.216
X104.394Y-63.246
X106.68Y-52.324
X107.259Y-63.089
X107.442Y-73.152
X107.442Y-77.978
X107.696Y-64.008
X108.204Y-53.594
X108.708Y-61.464
X109.605Y-66.425
X109.728Y-51.816
X110.078Y-70.123
X110.236Y-60.452
X110.236Y-61.468
X110.236Y-63.705
X110.49Y-47.498
X110.49Y-57.658
X111.071Y-77.143
X111.252Y-70.104
X111.268Y-65.787
X111.43Y-56.896
X112.154Y-55.95
X112.776Y-69.85
X112.833Y-65.221
X113.03Y-62.738
X113.284Y-55.88
X113.792Y-51.816
X114.084Y-78.232
X114.3Y-55.88
X114.55Y-49.526
X114.659Y-69.665
X115.23Y-68.834
X115.57Y-55.88
X115.57Y-82.042
T2
X101.6Y-45.72
X101.6Y-48.26
X101.6Y-50.8
X101.6Y-53.34
X101.6Y-55.88
X101.6Y-58.42
X101.6Y-60.96
X101.6Y-63.5
X101.6Y-66.04
X101.6Y-68.58
X101.6Y-71.12
X101.6Y-73.66
X101.6Y-76.2
X101.6Y-78.74
X101.6Y-81.28
X104.14Y-83.82
X105.41Y-45.72
X105.41Y-48.26
X105.41Y-50.8
X106.68Y-83.82
X107.95Y-45.72
X107.95Y-48.26
X107.95Y-50.8
X109.22Y-83.82
X111.76Y-83.82
X114.3Y-83.82
X116.84Y-83.82
X119.38Y-45.72
X119.38Y-48.26
X119.38Y-50.8
X119.38Y-53.34
X119.38Y-55.88
X119.38Y-58.42
X119.38Y-60.96
X119.38Y-63.5
X119.38Y-66.04
X119.38Y-68.58
X119.38Y-71.12
X119.38Y-73.66
X119.38Y-76.2
X119.38Y-78.74
X119.38Y-81.28
T3
X111.506Y-45.72
X111.506Y-52.22
X116.006Y-45.72
X116.006Y-52.22
T0
M30
