%TF.GenerationSoftware,KiCad,Pcbnew,(6.0.7)*%
%TF.CreationDate,2023-06-10T06:11:36-04:00*%
%TF.ProjectId,atmega328pb_breakout,61746d65-6761-4333-9238-70625f627265,rev?*%
%TF.SameCoordinates,Original*%
%TF.FileFunction,Legend,Top*%
%TF.FilePolarity,Positive*%
%FSLAX46Y46*%
G04 Gerber Fmt 4.6, Leading zero omitted, Abs format (unit mm)*
G04 Created by KiCad (PCBNEW (6.0.7)) date 2023-06-10 06:11:36*
%MOMM*%
%LPD*%
G01*
G04 APERTURE LIST*
%ADD10C,0.075000*%
%ADD11C,0.150000*%
%ADD12C,0.100000*%
%ADD13C,0.120000*%
G04 APERTURE END LIST*
D10*
X104743333Y-52304190D02*
X104910000Y-52804190D01*
X105076666Y-52304190D01*
X105529047Y-52756571D02*
X105505238Y-52780380D01*
X105433809Y-52804190D01*
X105386190Y-52804190D01*
X105314761Y-52780380D01*
X105267142Y-52732761D01*
X105243333Y-52685142D01*
X105219523Y-52589904D01*
X105219523Y-52518476D01*
X105243333Y-52423238D01*
X105267142Y-52375619D01*
X105314761Y-52328000D01*
X105386190Y-52304190D01*
X105433809Y-52304190D01*
X105505238Y-52328000D01*
X105529047Y-52351809D01*
X106029047Y-52756571D02*
X106005238Y-52780380D01*
X105933809Y-52804190D01*
X105886190Y-52804190D01*
X105814761Y-52780380D01*
X105767142Y-52732761D01*
X105743333Y-52685142D01*
X105719523Y-52589904D01*
X105719523Y-52518476D01*
X105743333Y-52423238D01*
X105767142Y-52375619D01*
X105814761Y-52328000D01*
X105886190Y-52304190D01*
X105933809Y-52304190D01*
X106005238Y-52328000D01*
X106029047Y-52351809D01*
D11*
%TO.C,U1*%
X109728095Y-60666380D02*
X109728095Y-61475904D01*
X109775714Y-61571142D01*
X109823333Y-61618761D01*
X109918571Y-61666380D01*
X110109047Y-61666380D01*
X110204285Y-61618761D01*
X110251904Y-61571142D01*
X110299523Y-61475904D01*
X110299523Y-60666380D01*
X111299523Y-61666380D02*
X110728095Y-61666380D01*
X111013809Y-61666380D02*
X111013809Y-60666380D01*
X110918571Y-60809238D01*
X110823333Y-60904476D01*
X110728095Y-60952095D01*
D10*
X108470190Y-63583333D02*
X108708285Y-63583333D01*
X108422571Y-63726190D02*
X108589238Y-63226190D01*
X108755904Y-63726190D01*
X108851142Y-63226190D02*
X109136857Y-63226190D01*
X108994000Y-63726190D02*
X108994000Y-63226190D01*
X109303523Y-63726190D02*
X109303523Y-63392857D01*
X109303523Y-63440476D02*
X109327333Y-63416666D01*
X109374952Y-63392857D01*
X109446380Y-63392857D01*
X109494000Y-63416666D01*
X109517809Y-63464285D01*
X109517809Y-63726190D01*
X109517809Y-63464285D02*
X109541619Y-63416666D01*
X109589238Y-63392857D01*
X109660666Y-63392857D01*
X109708285Y-63416666D01*
X109732095Y-63464285D01*
X109732095Y-63726190D01*
X110160666Y-63702380D02*
X110113047Y-63726190D01*
X110017809Y-63726190D01*
X109970190Y-63702380D01*
X109946380Y-63654761D01*
X109946380Y-63464285D01*
X109970190Y-63416666D01*
X110017809Y-63392857D01*
X110113047Y-63392857D01*
X110160666Y-63416666D01*
X110184476Y-63464285D01*
X110184476Y-63511904D01*
X109946380Y-63559523D01*
X110613047Y-63392857D02*
X110613047Y-63797619D01*
X110589238Y-63845238D01*
X110565428Y-63869047D01*
X110517809Y-63892857D01*
X110446380Y-63892857D01*
X110398761Y-63869047D01*
X110613047Y-63702380D02*
X110565428Y-63726190D01*
X110470190Y-63726190D01*
X110422571Y-63702380D01*
X110398761Y-63678571D01*
X110374952Y-63630952D01*
X110374952Y-63488095D01*
X110398761Y-63440476D01*
X110422571Y-63416666D01*
X110470190Y-63392857D01*
X110565428Y-63392857D01*
X110613047Y-63416666D01*
X111065428Y-63726190D02*
X111065428Y-63464285D01*
X111041619Y-63416666D01*
X110994000Y-63392857D01*
X110898761Y-63392857D01*
X110851142Y-63416666D01*
X111065428Y-63702380D02*
X111017809Y-63726190D01*
X110898761Y-63726190D01*
X110851142Y-63702380D01*
X110827333Y-63654761D01*
X110827333Y-63607142D01*
X110851142Y-63559523D01*
X110898761Y-63535714D01*
X111017809Y-63535714D01*
X111065428Y-63511904D01*
X111255904Y-63226190D02*
X111565428Y-63226190D01*
X111398761Y-63416666D01*
X111470190Y-63416666D01*
X111517809Y-63440476D01*
X111541619Y-63464285D01*
X111565428Y-63511904D01*
X111565428Y-63630952D01*
X111541619Y-63678571D01*
X111517809Y-63702380D01*
X111470190Y-63726190D01*
X111327333Y-63726190D01*
X111279714Y-63702380D01*
X111255904Y-63678571D01*
X111755904Y-63273809D02*
X111779714Y-63250000D01*
X111827333Y-63226190D01*
X111946380Y-63226190D01*
X111994000Y-63250000D01*
X112017809Y-63273809D01*
X112041619Y-63321428D01*
X112041619Y-63369047D01*
X112017809Y-63440476D01*
X111732095Y-63726190D01*
X112041619Y-63726190D01*
X112327333Y-63440476D02*
X112279714Y-63416666D01*
X112255904Y-63392857D01*
X112232095Y-63345238D01*
X112232095Y-63321428D01*
X112255904Y-63273809D01*
X112279714Y-63250000D01*
X112327333Y-63226190D01*
X112422571Y-63226190D01*
X112470190Y-63250000D01*
X112494000Y-63273809D01*
X112517809Y-63321428D01*
X112517809Y-63345238D01*
X112494000Y-63392857D01*
X112470190Y-63416666D01*
X112422571Y-63440476D01*
X112327333Y-63440476D01*
X112279714Y-63464285D01*
X112255904Y-63488095D01*
X112232095Y-63535714D01*
X112232095Y-63630952D01*
X112255904Y-63678571D01*
X112279714Y-63702380D01*
X112327333Y-63726190D01*
X112422571Y-63726190D01*
X112470190Y-63702380D01*
X112494000Y-63678571D01*
X112517809Y-63630952D01*
X112517809Y-63535714D01*
X112494000Y-63488095D01*
X112470190Y-63464285D01*
X112422571Y-63440476D01*
X112732095Y-63726190D02*
X112732095Y-63226190D01*
X112922571Y-63226190D01*
X112970190Y-63250000D01*
X112994000Y-63273809D01*
X113017809Y-63321428D01*
X113017809Y-63392857D01*
X112994000Y-63440476D01*
X112970190Y-63464285D01*
X112922571Y-63488095D01*
X112732095Y-63488095D01*
%TO.C,Y1*%
X112283904Y-70346095D02*
X112283904Y-70584190D01*
X112117238Y-70084190D02*
X112283904Y-70346095D01*
X112450571Y-70084190D01*
X112879142Y-70584190D02*
X112593428Y-70584190D01*
X112736285Y-70584190D02*
X112736285Y-70084190D01*
X112688666Y-70155619D01*
X112641047Y-70203238D01*
X112593428Y-70227047D01*
X114978761Y-70584190D02*
X114693047Y-70584190D01*
X114835904Y-70584190D02*
X114835904Y-70084190D01*
X114788285Y-70155619D01*
X114740666Y-70203238D01*
X114693047Y-70227047D01*
X115407333Y-70084190D02*
X115312095Y-70084190D01*
X115264476Y-70108000D01*
X115240666Y-70131809D01*
X115193047Y-70203238D01*
X115169238Y-70298476D01*
X115169238Y-70488952D01*
X115193047Y-70536571D01*
X115216857Y-70560380D01*
X115264476Y-70584190D01*
X115359714Y-70584190D01*
X115407333Y-70560380D01*
X115431142Y-70536571D01*
X115454952Y-70488952D01*
X115454952Y-70369904D01*
X115431142Y-70322285D01*
X115407333Y-70298476D01*
X115359714Y-70274666D01*
X115264476Y-70274666D01*
X115216857Y-70298476D01*
X115193047Y-70322285D01*
X115169238Y-70369904D01*
X115669238Y-70584190D02*
X115669238Y-70084190D01*
X115835904Y-70441333D01*
X116002571Y-70084190D01*
X116002571Y-70584190D01*
X116240666Y-70584190D02*
X116240666Y-70084190D01*
X116240666Y-70322285D02*
X116526380Y-70322285D01*
X116526380Y-70584190D02*
X116526380Y-70084190D01*
X116716857Y-70250857D02*
X116978761Y-70250857D01*
X116716857Y-70584190D01*
X116978761Y-70584190D01*
%TO.C,U2*%
X107315047Y-77958190D02*
X107315047Y-78362952D01*
X107338857Y-78410571D01*
X107362666Y-78434380D01*
X107410285Y-78458190D01*
X107505523Y-78458190D01*
X107553142Y-78434380D01*
X107576952Y-78410571D01*
X107600761Y-78362952D01*
X107600761Y-77958190D01*
X107815047Y-78005809D02*
X107838857Y-77982000D01*
X107886476Y-77958190D01*
X108005523Y-77958190D01*
X108053142Y-77982000D01*
X108076952Y-78005809D01*
X108100761Y-78053428D01*
X108100761Y-78101047D01*
X108076952Y-78172476D01*
X107791238Y-78458190D01*
X108100761Y-78458190D01*
X108430190Y-81311619D02*
X108430190Y-81549714D01*
X107930190Y-81549714D01*
X108430190Y-81144952D02*
X107930190Y-81144952D01*
X107930190Y-80954476D01*
X107954000Y-80906857D01*
X107977809Y-80883047D01*
X108025428Y-80859238D01*
X108096857Y-80859238D01*
X108144476Y-80883047D01*
X108168285Y-80906857D01*
X108192095Y-80954476D01*
X108192095Y-81144952D01*
X107977809Y-80668761D02*
X107954000Y-80644952D01*
X107930190Y-80597333D01*
X107930190Y-80478285D01*
X107954000Y-80430666D01*
X107977809Y-80406857D01*
X108025428Y-80383047D01*
X108073047Y-80383047D01*
X108144476Y-80406857D01*
X108430190Y-80692571D01*
X108430190Y-80383047D01*
X108430190Y-80144952D02*
X108430190Y-80049714D01*
X108406380Y-80002095D01*
X108382571Y-79978285D01*
X108311142Y-79930666D01*
X108215904Y-79906857D01*
X108025428Y-79906857D01*
X107977809Y-79930666D01*
X107954000Y-79954476D01*
X107930190Y-80002095D01*
X107930190Y-80097333D01*
X107954000Y-80144952D01*
X107977809Y-80168761D01*
X108025428Y-80192571D01*
X108144476Y-80192571D01*
X108192095Y-80168761D01*
X108215904Y-80144952D01*
X108239714Y-80097333D01*
X108239714Y-80002095D01*
X108215904Y-79954476D01*
X108192095Y-79930666D01*
X108144476Y-79906857D01*
X108144476Y-79621142D02*
X108120666Y-79668761D01*
X108096857Y-79692571D01*
X108049238Y-79716380D01*
X108025428Y-79716380D01*
X107977809Y-79692571D01*
X107954000Y-79668761D01*
X107930190Y-79621142D01*
X107930190Y-79525904D01*
X107954000Y-79478285D01*
X107977809Y-79454476D01*
X108025428Y-79430666D01*
X108049238Y-79430666D01*
X108096857Y-79454476D01*
X108120666Y-79478285D01*
X108144476Y-79525904D01*
X108144476Y-79621142D01*
X108168285Y-79668761D01*
X108192095Y-79692571D01*
X108239714Y-79716380D01*
X108334952Y-79716380D01*
X108382571Y-79692571D01*
X108406380Y-79668761D01*
X108430190Y-79621142D01*
X108430190Y-79525904D01*
X108406380Y-79478285D01*
X108382571Y-79454476D01*
X108334952Y-79430666D01*
X108239714Y-79430666D01*
X108192095Y-79454476D01*
X108168285Y-79478285D01*
X108144476Y-79525904D01*
X107930190Y-78978285D02*
X107930190Y-79216380D01*
X108168285Y-79240190D01*
X108144476Y-79216380D01*
X108120666Y-79168761D01*
X108120666Y-79049714D01*
X108144476Y-79002095D01*
X108168285Y-78978285D01*
X108215904Y-78954476D01*
X108334952Y-78954476D01*
X108382571Y-78978285D01*
X108406380Y-79002095D01*
X108430190Y-79049714D01*
X108430190Y-79168761D01*
X108406380Y-79216380D01*
X108382571Y-79240190D01*
D11*
%TO.C,SW1*%
X114196761Y-50303333D02*
X114244380Y-50160476D01*
X114244380Y-49922380D01*
X114196761Y-49827142D01*
X114149142Y-49779523D01*
X114053904Y-49731904D01*
X113958666Y-49731904D01*
X113863428Y-49779523D01*
X113815809Y-49827142D01*
X113768190Y-49922380D01*
X113720571Y-50112857D01*
X113672952Y-50208095D01*
X113625333Y-50255714D01*
X113530095Y-50303333D01*
X113434857Y-50303333D01*
X113339619Y-50255714D01*
X113292000Y-50208095D01*
X113244380Y-50112857D01*
X113244380Y-49874761D01*
X113292000Y-49731904D01*
X113244380Y-49398571D02*
X114244380Y-49160476D01*
X113530095Y-48970000D01*
X114244380Y-48779523D01*
X113244380Y-48541428D01*
X114244380Y-47636666D02*
X114244380Y-48208095D01*
X114244380Y-47922380D02*
X113244380Y-47922380D01*
X113387238Y-48017619D01*
X113482476Y-48112857D01*
X113530095Y-48208095D01*
D10*
%TO.C,R3*%
X104056666Y-71092190D02*
X103890000Y-70854095D01*
X103770952Y-71092190D02*
X103770952Y-70592190D01*
X103961428Y-70592190D01*
X104009047Y-70616000D01*
X104032857Y-70639809D01*
X104056666Y-70687428D01*
X104056666Y-70758857D01*
X104032857Y-70806476D01*
X104009047Y-70830285D01*
X103961428Y-70854095D01*
X103770952Y-70854095D01*
X104223333Y-70592190D02*
X104532857Y-70592190D01*
X104366190Y-70782666D01*
X104437619Y-70782666D01*
X104485238Y-70806476D01*
X104509047Y-70830285D01*
X104532857Y-70877904D01*
X104532857Y-70996952D01*
X104509047Y-71044571D01*
X104485238Y-71068380D01*
X104437619Y-71092190D01*
X104294761Y-71092190D01*
X104247142Y-71068380D01*
X104223333Y-71044571D01*
X105842666Y-70639809D02*
X105866476Y-70616000D01*
X105914095Y-70592190D01*
X106033142Y-70592190D01*
X106080761Y-70616000D01*
X106104571Y-70639809D01*
X106128380Y-70687428D01*
X106128380Y-70735047D01*
X106104571Y-70806476D01*
X105818857Y-71092190D01*
X106128380Y-71092190D01*
X106342666Y-71092190D02*
X106342666Y-70592190D01*
X106390285Y-70901714D02*
X106533142Y-71092190D01*
X106533142Y-70758857D02*
X106342666Y-70949333D01*
X106723619Y-70639809D02*
X106747428Y-70616000D01*
X106795047Y-70592190D01*
X106914095Y-70592190D01*
X106961714Y-70616000D01*
X106985523Y-70639809D01*
X107009333Y-70687428D01*
X107009333Y-70735047D01*
X106985523Y-70806476D01*
X106699809Y-71092190D01*
X107009333Y-71092190D01*
%TO.C,R2*%
X108120666Y-71092190D02*
X107954000Y-70854095D01*
X107834952Y-71092190D02*
X107834952Y-70592190D01*
X108025428Y-70592190D01*
X108073047Y-70616000D01*
X108096857Y-70639809D01*
X108120666Y-70687428D01*
X108120666Y-70758857D01*
X108096857Y-70806476D01*
X108073047Y-70830285D01*
X108025428Y-70854095D01*
X107834952Y-70854095D01*
X108311142Y-70639809D02*
X108334952Y-70616000D01*
X108382571Y-70592190D01*
X108501619Y-70592190D01*
X108549238Y-70616000D01*
X108573047Y-70639809D01*
X108596857Y-70687428D01*
X108596857Y-70735047D01*
X108573047Y-70806476D01*
X108287333Y-71092190D01*
X108596857Y-71092190D01*
X109906666Y-70639809D02*
X109930476Y-70616000D01*
X109978095Y-70592190D01*
X110097142Y-70592190D01*
X110144761Y-70616000D01*
X110168571Y-70639809D01*
X110192380Y-70687428D01*
X110192380Y-70735047D01*
X110168571Y-70806476D01*
X109882857Y-71092190D01*
X110192380Y-71092190D01*
X110406666Y-71092190D02*
X110406666Y-70592190D01*
X110454285Y-70901714D02*
X110597142Y-71092190D01*
X110597142Y-70758857D02*
X110406666Y-70949333D01*
X110787619Y-70639809D02*
X110811428Y-70616000D01*
X110859047Y-70592190D01*
X110978095Y-70592190D01*
X111025714Y-70616000D01*
X111049523Y-70639809D01*
X111073333Y-70687428D01*
X111073333Y-70735047D01*
X111049523Y-70806476D01*
X110763809Y-71092190D01*
X111073333Y-71092190D01*
%TO.C,R1*%
X111328666Y-54582190D02*
X111162000Y-54344095D01*
X111042952Y-54582190D02*
X111042952Y-54082190D01*
X111233428Y-54082190D01*
X111281047Y-54106000D01*
X111304857Y-54129809D01*
X111328666Y-54177428D01*
X111328666Y-54248857D01*
X111304857Y-54296476D01*
X111281047Y-54320285D01*
X111233428Y-54344095D01*
X111042952Y-54344095D01*
X111804857Y-54582190D02*
X111519142Y-54582190D01*
X111662000Y-54582190D02*
X111662000Y-54082190D01*
X111614380Y-54153619D01*
X111566761Y-54201238D01*
X111519142Y-54225047D01*
X111208380Y-56106190D02*
X110922666Y-56106190D01*
X111065523Y-56106190D02*
X111065523Y-55606190D01*
X111017904Y-55677619D01*
X110970285Y-55725238D01*
X110922666Y-55749047D01*
X111517904Y-55606190D02*
X111565523Y-55606190D01*
X111613142Y-55630000D01*
X111636952Y-55653809D01*
X111660761Y-55701428D01*
X111684571Y-55796666D01*
X111684571Y-55915714D01*
X111660761Y-56010952D01*
X111636952Y-56058571D01*
X111613142Y-56082380D01*
X111565523Y-56106190D01*
X111517904Y-56106190D01*
X111470285Y-56082380D01*
X111446476Y-56058571D01*
X111422666Y-56010952D01*
X111398857Y-55915714D01*
X111398857Y-55796666D01*
X111422666Y-55701428D01*
X111446476Y-55653809D01*
X111470285Y-55630000D01*
X111517904Y-55606190D01*
X111898857Y-56106190D02*
X111898857Y-55606190D01*
X111946476Y-55915714D02*
X112089333Y-56106190D01*
X112089333Y-55772857D02*
X111898857Y-55963333D01*
%TO.C,L1*%
X105890190Y-58249333D02*
X105890190Y-58487428D01*
X105390190Y-58487428D01*
X105890190Y-57820761D02*
X105890190Y-58106476D01*
X105890190Y-57963619D02*
X105390190Y-57963619D01*
X105461619Y-58011238D01*
X105509238Y-58058857D01*
X105533047Y-58106476D01*
X106906190Y-59257333D02*
X106906190Y-59543047D01*
X106906190Y-59400190D02*
X106406190Y-59400190D01*
X106477619Y-59447809D01*
X106525238Y-59495428D01*
X106549047Y-59543047D01*
X106406190Y-58947809D02*
X106406190Y-58900190D01*
X106430000Y-58852571D01*
X106453809Y-58828761D01*
X106501428Y-58804952D01*
X106596666Y-58781142D01*
X106715714Y-58781142D01*
X106810952Y-58804952D01*
X106858571Y-58828761D01*
X106882380Y-58852571D01*
X106906190Y-58900190D01*
X106906190Y-58947809D01*
X106882380Y-58995428D01*
X106858571Y-59019238D01*
X106810952Y-59043047D01*
X106715714Y-59066857D01*
X106596666Y-59066857D01*
X106501428Y-59043047D01*
X106453809Y-59019238D01*
X106430000Y-58995428D01*
X106406190Y-58947809D01*
X106572857Y-58352571D02*
X106906190Y-58352571D01*
X106572857Y-58566857D02*
X106834761Y-58566857D01*
X106882380Y-58543047D01*
X106906190Y-58495428D01*
X106906190Y-58424000D01*
X106882380Y-58376380D01*
X106858571Y-58352571D01*
X106906190Y-58114476D02*
X106406190Y-58114476D01*
X106644285Y-58114476D02*
X106644285Y-57828761D01*
X106906190Y-57828761D02*
X106406190Y-57828761D01*
D11*
%TO.C,ISP*%
X106973809Y-53284380D02*
X106973809Y-52284380D01*
X107402380Y-53236761D02*
X107545238Y-53284380D01*
X107783333Y-53284380D01*
X107878571Y-53236761D01*
X107926190Y-53189142D01*
X107973809Y-53093904D01*
X107973809Y-52998666D01*
X107926190Y-52903428D01*
X107878571Y-52855809D01*
X107783333Y-52808190D01*
X107592857Y-52760571D01*
X107497619Y-52712952D01*
X107450000Y-52665333D01*
X107402380Y-52570095D01*
X107402380Y-52474857D01*
X107450000Y-52379619D01*
X107497619Y-52332000D01*
X107592857Y-52284380D01*
X107830952Y-52284380D01*
X107973809Y-52332000D01*
X108402380Y-53284380D02*
X108402380Y-52284380D01*
X108783333Y-52284380D01*
X108878571Y-52332000D01*
X108926190Y-52379619D01*
X108973809Y-52474857D01*
X108973809Y-52617714D01*
X108926190Y-52712952D01*
X108878571Y-52760571D01*
X108783333Y-52808190D01*
X108402380Y-52808190D01*
D12*
%TO.C,D13*%
X103971285Y-76348714D02*
X103221285Y-76348714D01*
X103221285Y-76170142D01*
X103257000Y-76063000D01*
X103328428Y-75991571D01*
X103399857Y-75955857D01*
X103542714Y-75920142D01*
X103649857Y-75920142D01*
X103792714Y-75955857D01*
X103864142Y-75991571D01*
X103935571Y-76063000D01*
X103971285Y-76170142D01*
X103971285Y-76348714D01*
X103971285Y-75205857D02*
X103971285Y-75634428D01*
X103971285Y-75420142D02*
X103221285Y-75420142D01*
X103328428Y-75491571D01*
X103399857Y-75563000D01*
X103435571Y-75634428D01*
X103221285Y-74955857D02*
X103221285Y-74491571D01*
X103507000Y-74741571D01*
X103507000Y-74634428D01*
X103542714Y-74563000D01*
X103578428Y-74527285D01*
X103649857Y-74491571D01*
X103828428Y-74491571D01*
X103899857Y-74527285D01*
X103935571Y-74563000D01*
X103971285Y-74634428D01*
X103971285Y-74848714D01*
X103935571Y-74920142D01*
X103899857Y-74955857D01*
%TO.C,POWER*%
X108035285Y-77387642D02*
X107285285Y-77387642D01*
X107285285Y-77101928D01*
X107321000Y-77030500D01*
X107356714Y-76994785D01*
X107428142Y-76959071D01*
X107535285Y-76959071D01*
X107606714Y-76994785D01*
X107642428Y-77030500D01*
X107678142Y-77101928D01*
X107678142Y-77387642D01*
X107285285Y-76494785D02*
X107285285Y-76351928D01*
X107321000Y-76280500D01*
X107392428Y-76209071D01*
X107535285Y-76173357D01*
X107785285Y-76173357D01*
X107928142Y-76209071D01*
X107999571Y-76280500D01*
X108035285Y-76351928D01*
X108035285Y-76494785D01*
X107999571Y-76566214D01*
X107928142Y-76637642D01*
X107785285Y-76673357D01*
X107535285Y-76673357D01*
X107392428Y-76637642D01*
X107321000Y-76566214D01*
X107285285Y-76494785D01*
X107285285Y-75923357D02*
X108035285Y-75744785D01*
X107499571Y-75601928D01*
X108035285Y-75459071D01*
X107285285Y-75280500D01*
X107642428Y-74994785D02*
X107642428Y-74744785D01*
X108035285Y-74637642D02*
X108035285Y-74994785D01*
X107285285Y-74994785D01*
X107285285Y-74637642D01*
X108035285Y-73887642D02*
X107678142Y-74137642D01*
X108035285Y-74316214D02*
X107285285Y-74316214D01*
X107285285Y-74030500D01*
X107321000Y-73959071D01*
X107356714Y-73923357D01*
X107428142Y-73887642D01*
X107535285Y-73887642D01*
X107606714Y-73923357D01*
X107642428Y-73959071D01*
X107678142Y-74030500D01*
X107678142Y-74316214D01*
D10*
%TO.C,C9*%
X104064571Y-57995333D02*
X104088380Y-58019142D01*
X104112190Y-58090571D01*
X104112190Y-58138190D01*
X104088380Y-58209619D01*
X104040761Y-58257238D01*
X103993142Y-58281047D01*
X103897904Y-58304857D01*
X103826476Y-58304857D01*
X103731238Y-58281047D01*
X103683619Y-58257238D01*
X103636000Y-58209619D01*
X103612190Y-58138190D01*
X103612190Y-58090571D01*
X103636000Y-58019142D01*
X103659809Y-57995333D01*
X104112190Y-57757238D02*
X104112190Y-57662000D01*
X104088380Y-57614380D01*
X104064571Y-57590571D01*
X103993142Y-57542952D01*
X103897904Y-57519142D01*
X103707428Y-57519142D01*
X103659809Y-57542952D01*
X103636000Y-57566761D01*
X103612190Y-57614380D01*
X103612190Y-57709619D01*
X103636000Y-57757238D01*
X103659809Y-57781047D01*
X103707428Y-57804857D01*
X103826476Y-57804857D01*
X103874095Y-57781047D01*
X103897904Y-57757238D01*
X103921714Y-57709619D01*
X103921714Y-57614380D01*
X103897904Y-57566761D01*
X103874095Y-57542952D01*
X103826476Y-57519142D01*
X104874190Y-59447809D02*
X104874190Y-59733523D01*
X104874190Y-59590666D02*
X104374190Y-59590666D01*
X104445619Y-59638285D01*
X104493238Y-59685904D01*
X104517047Y-59733523D01*
X104374190Y-59138285D02*
X104374190Y-59090666D01*
X104398000Y-59043047D01*
X104421809Y-59019238D01*
X104469428Y-58995428D01*
X104564666Y-58971619D01*
X104683714Y-58971619D01*
X104778952Y-58995428D01*
X104826571Y-59019238D01*
X104850380Y-59043047D01*
X104874190Y-59090666D01*
X104874190Y-59138285D01*
X104850380Y-59185904D01*
X104826571Y-59209714D01*
X104778952Y-59233523D01*
X104683714Y-59257333D01*
X104564666Y-59257333D01*
X104469428Y-59233523D01*
X104421809Y-59209714D01*
X104398000Y-59185904D01*
X104374190Y-59138285D01*
X104374190Y-58662095D02*
X104374190Y-58614476D01*
X104398000Y-58566857D01*
X104421809Y-58543047D01*
X104469428Y-58519238D01*
X104564666Y-58495428D01*
X104683714Y-58495428D01*
X104778952Y-58519238D01*
X104826571Y-58543047D01*
X104850380Y-58566857D01*
X104874190Y-58614476D01*
X104874190Y-58662095D01*
X104850380Y-58709714D01*
X104826571Y-58733523D01*
X104778952Y-58757333D01*
X104683714Y-58781142D01*
X104564666Y-58781142D01*
X104469428Y-58757333D01*
X104421809Y-58733523D01*
X104398000Y-58709714D01*
X104374190Y-58662095D01*
X104540857Y-58281142D02*
X104874190Y-58281142D01*
X104588476Y-58281142D02*
X104564666Y-58257333D01*
X104540857Y-58209714D01*
X104540857Y-58138285D01*
X104564666Y-58090666D01*
X104612285Y-58066857D01*
X104874190Y-58066857D01*
X104612285Y-57662095D02*
X104612285Y-57828761D01*
X104874190Y-57828761D02*
X104374190Y-57828761D01*
X104374190Y-57590666D01*
%TO.C,C8*%
X111430571Y-77807333D02*
X111454380Y-77831142D01*
X111478190Y-77902571D01*
X111478190Y-77950190D01*
X111454380Y-78021619D01*
X111406761Y-78069238D01*
X111359142Y-78093047D01*
X111263904Y-78116857D01*
X111192476Y-78116857D01*
X111097238Y-78093047D01*
X111049619Y-78069238D01*
X111002000Y-78021619D01*
X110978190Y-77950190D01*
X110978190Y-77902571D01*
X111002000Y-77831142D01*
X111025809Y-77807333D01*
X111192476Y-77521619D02*
X111168666Y-77569238D01*
X111144857Y-77593047D01*
X111097238Y-77616857D01*
X111073428Y-77616857D01*
X111025809Y-77593047D01*
X111002000Y-77569238D01*
X110978190Y-77521619D01*
X110978190Y-77426380D01*
X111002000Y-77378761D01*
X111025809Y-77354952D01*
X111073428Y-77331142D01*
X111097238Y-77331142D01*
X111144857Y-77354952D01*
X111168666Y-77378761D01*
X111192476Y-77426380D01*
X111192476Y-77521619D01*
X111216285Y-77569238D01*
X111240095Y-77593047D01*
X111287714Y-77616857D01*
X111382952Y-77616857D01*
X111430571Y-77593047D01*
X111454380Y-77569238D01*
X111478190Y-77521619D01*
X111478190Y-77426380D01*
X111454380Y-77378761D01*
X111430571Y-77354952D01*
X111382952Y-77331142D01*
X111287714Y-77331142D01*
X111240095Y-77354952D01*
X111216285Y-77378761D01*
X111192476Y-77426380D01*
X112494190Y-76719809D02*
X112494190Y-77005523D01*
X112494190Y-76862666D02*
X111994190Y-76862666D01*
X112065619Y-76910285D01*
X112113238Y-76957904D01*
X112137047Y-77005523D01*
X111994190Y-76410285D02*
X111994190Y-76362666D01*
X112018000Y-76315047D01*
X112041809Y-76291238D01*
X112089428Y-76267428D01*
X112184666Y-76243619D01*
X112303714Y-76243619D01*
X112398952Y-76267428D01*
X112446571Y-76291238D01*
X112470380Y-76315047D01*
X112494190Y-76362666D01*
X112494190Y-76410285D01*
X112470380Y-76457904D01*
X112446571Y-76481714D01*
X112398952Y-76505523D01*
X112303714Y-76529333D01*
X112184666Y-76529333D01*
X112089428Y-76505523D01*
X112041809Y-76481714D01*
X112018000Y-76457904D01*
X111994190Y-76410285D01*
X111994190Y-75934095D02*
X111994190Y-75886476D01*
X112018000Y-75838857D01*
X112041809Y-75815047D01*
X112089428Y-75791238D01*
X112184666Y-75767428D01*
X112303714Y-75767428D01*
X112398952Y-75791238D01*
X112446571Y-75815047D01*
X112470380Y-75838857D01*
X112494190Y-75886476D01*
X112494190Y-75934095D01*
X112470380Y-75981714D01*
X112446571Y-76005523D01*
X112398952Y-76029333D01*
X112303714Y-76053142D01*
X112184666Y-76053142D01*
X112089428Y-76029333D01*
X112041809Y-76005523D01*
X112018000Y-75981714D01*
X111994190Y-75934095D01*
X112160857Y-75553142D02*
X112494190Y-75553142D01*
X112208476Y-75553142D02*
X112184666Y-75529333D01*
X112160857Y-75481714D01*
X112160857Y-75410285D01*
X112184666Y-75362666D01*
X112232285Y-75338857D01*
X112494190Y-75338857D01*
X112232285Y-74934095D02*
X112232285Y-75100761D01*
X112494190Y-75100761D02*
X111994190Y-75100761D01*
X111994190Y-74862666D01*
%TO.C,C7*%
X113208571Y-77807333D02*
X113232380Y-77831142D01*
X113256190Y-77902571D01*
X113256190Y-77950190D01*
X113232380Y-78021619D01*
X113184761Y-78069238D01*
X113137142Y-78093047D01*
X113041904Y-78116857D01*
X112970476Y-78116857D01*
X112875238Y-78093047D01*
X112827619Y-78069238D01*
X112780000Y-78021619D01*
X112756190Y-77950190D01*
X112756190Y-77902571D01*
X112780000Y-77831142D01*
X112803809Y-77807333D01*
X112756190Y-77640666D02*
X112756190Y-77307333D01*
X113256190Y-77521619D01*
X112922857Y-76648380D02*
X113256190Y-76648380D01*
X112732380Y-76767428D02*
X113089523Y-76886476D01*
X113089523Y-76576952D01*
X113208571Y-76386476D02*
X113232380Y-76362666D01*
X113256190Y-76386476D01*
X113232380Y-76410285D01*
X113208571Y-76386476D01*
X113256190Y-76386476D01*
X112756190Y-76196000D02*
X112756190Y-75862666D01*
X113256190Y-76076952D01*
X112922857Y-75457904D02*
X113256190Y-75457904D01*
X112922857Y-75672190D02*
X113184761Y-75672190D01*
X113232380Y-75648380D01*
X113256190Y-75600761D01*
X113256190Y-75529333D01*
X113232380Y-75481714D01*
X113208571Y-75457904D01*
X112994285Y-75053142D02*
X112994285Y-75219809D01*
X113256190Y-75219809D02*
X112756190Y-75219809D01*
X112756190Y-74981714D01*
%TO.C,C6*%
X112446571Y-77807333D02*
X112470380Y-77831142D01*
X112494190Y-77902571D01*
X112494190Y-77950190D01*
X112470380Y-78021619D01*
X112422761Y-78069238D01*
X112375142Y-78093047D01*
X112279904Y-78116857D01*
X112208476Y-78116857D01*
X112113238Y-78093047D01*
X112065619Y-78069238D01*
X112018000Y-78021619D01*
X111994190Y-77950190D01*
X111994190Y-77902571D01*
X112018000Y-77831142D01*
X112041809Y-77807333D01*
X111994190Y-77378761D02*
X111994190Y-77474000D01*
X112018000Y-77521619D01*
X112041809Y-77545428D01*
X112113238Y-77593047D01*
X112208476Y-77616857D01*
X112398952Y-77616857D01*
X112446571Y-77593047D01*
X112470380Y-77569238D01*
X112494190Y-77521619D01*
X112494190Y-77426380D01*
X112470380Y-77378761D01*
X112446571Y-77354952D01*
X112398952Y-77331142D01*
X112279904Y-77331142D01*
X112232285Y-77354952D01*
X112208476Y-77378761D01*
X112184666Y-77426380D01*
X112184666Y-77521619D01*
X112208476Y-77569238D01*
X112232285Y-77593047D01*
X112279904Y-77616857D01*
X111478190Y-76719809D02*
X111478190Y-77005523D01*
X111478190Y-76862666D02*
X110978190Y-76862666D01*
X111049619Y-76910285D01*
X111097238Y-76957904D01*
X111121047Y-77005523D01*
X110978190Y-76410285D02*
X110978190Y-76362666D01*
X111002000Y-76315047D01*
X111025809Y-76291238D01*
X111073428Y-76267428D01*
X111168666Y-76243619D01*
X111287714Y-76243619D01*
X111382952Y-76267428D01*
X111430571Y-76291238D01*
X111454380Y-76315047D01*
X111478190Y-76362666D01*
X111478190Y-76410285D01*
X111454380Y-76457904D01*
X111430571Y-76481714D01*
X111382952Y-76505523D01*
X111287714Y-76529333D01*
X111168666Y-76529333D01*
X111073428Y-76505523D01*
X111025809Y-76481714D01*
X111002000Y-76457904D01*
X110978190Y-76410285D01*
X110978190Y-75934095D02*
X110978190Y-75886476D01*
X111002000Y-75838857D01*
X111025809Y-75815047D01*
X111073428Y-75791238D01*
X111168666Y-75767428D01*
X111287714Y-75767428D01*
X111382952Y-75791238D01*
X111430571Y-75815047D01*
X111454380Y-75838857D01*
X111478190Y-75886476D01*
X111478190Y-75934095D01*
X111454380Y-75981714D01*
X111430571Y-76005523D01*
X111382952Y-76029333D01*
X111287714Y-76053142D01*
X111168666Y-76053142D01*
X111073428Y-76029333D01*
X111025809Y-76005523D01*
X111002000Y-75981714D01*
X110978190Y-75934095D01*
X111144857Y-75553142D02*
X111478190Y-75553142D01*
X111192476Y-75553142D02*
X111168666Y-75529333D01*
X111144857Y-75481714D01*
X111144857Y-75410285D01*
X111168666Y-75362666D01*
X111216285Y-75338857D01*
X111478190Y-75338857D01*
X111216285Y-74934095D02*
X111216285Y-75100761D01*
X111478190Y-75100761D02*
X110978190Y-75100761D01*
X110978190Y-74862666D01*
%TO.C,C5*%
X103810571Y-81363333D02*
X103834380Y-81387142D01*
X103858190Y-81458571D01*
X103858190Y-81506190D01*
X103834380Y-81577619D01*
X103786761Y-81625238D01*
X103739142Y-81649047D01*
X103643904Y-81672857D01*
X103572476Y-81672857D01*
X103477238Y-81649047D01*
X103429619Y-81625238D01*
X103382000Y-81577619D01*
X103358190Y-81506190D01*
X103358190Y-81458571D01*
X103382000Y-81387142D01*
X103405809Y-81363333D01*
X103358190Y-80910952D02*
X103358190Y-81149047D01*
X103596285Y-81172857D01*
X103572476Y-81149047D01*
X103548666Y-81101428D01*
X103548666Y-80982380D01*
X103572476Y-80934761D01*
X103596285Y-80910952D01*
X103643904Y-80887142D01*
X103762952Y-80887142D01*
X103810571Y-80910952D01*
X103834380Y-80934761D01*
X103858190Y-80982380D01*
X103858190Y-81101428D01*
X103834380Y-81149047D01*
X103810571Y-81172857D01*
X103698190Y-79291619D02*
X103698190Y-79577333D01*
X103698190Y-79434476D02*
X103198190Y-79434476D01*
X103269619Y-79482095D01*
X103317238Y-79529714D01*
X103341047Y-79577333D01*
X103364857Y-78863047D02*
X103698190Y-78863047D01*
X103364857Y-79077333D02*
X103626761Y-79077333D01*
X103674380Y-79053523D01*
X103698190Y-79005904D01*
X103698190Y-78934476D01*
X103674380Y-78886857D01*
X103650571Y-78863047D01*
X103436285Y-78458285D02*
X103436285Y-78624952D01*
X103698190Y-78624952D02*
X103198190Y-78624952D01*
X103198190Y-78386857D01*
%TO.C,C4*%
X113970571Y-77807333D02*
X113994380Y-77831142D01*
X114018190Y-77902571D01*
X114018190Y-77950190D01*
X113994380Y-78021619D01*
X113946761Y-78069238D01*
X113899142Y-78093047D01*
X113803904Y-78116857D01*
X113732476Y-78116857D01*
X113637238Y-78093047D01*
X113589619Y-78069238D01*
X113542000Y-78021619D01*
X113518190Y-77950190D01*
X113518190Y-77902571D01*
X113542000Y-77831142D01*
X113565809Y-77807333D01*
X113684857Y-77378761D02*
X114018190Y-77378761D01*
X113494380Y-77497809D02*
X113851523Y-77616857D01*
X113851523Y-77307333D01*
X114018190Y-76719809D02*
X114018190Y-77005523D01*
X114018190Y-76862666D02*
X113518190Y-76862666D01*
X113589619Y-76910285D01*
X113637238Y-76957904D01*
X113661047Y-77005523D01*
X113518190Y-76410285D02*
X113518190Y-76362666D01*
X113542000Y-76315047D01*
X113565809Y-76291238D01*
X113613428Y-76267428D01*
X113708666Y-76243619D01*
X113827714Y-76243619D01*
X113922952Y-76267428D01*
X113970571Y-76291238D01*
X113994380Y-76315047D01*
X114018190Y-76362666D01*
X114018190Y-76410285D01*
X113994380Y-76457904D01*
X113970571Y-76481714D01*
X113922952Y-76505523D01*
X113827714Y-76529333D01*
X113708666Y-76529333D01*
X113613428Y-76505523D01*
X113565809Y-76481714D01*
X113542000Y-76457904D01*
X113518190Y-76410285D01*
X113518190Y-75934095D02*
X113518190Y-75886476D01*
X113542000Y-75838857D01*
X113565809Y-75815047D01*
X113613428Y-75791238D01*
X113708666Y-75767428D01*
X113827714Y-75767428D01*
X113922952Y-75791238D01*
X113970571Y-75815047D01*
X113994380Y-75838857D01*
X114018190Y-75886476D01*
X114018190Y-75934095D01*
X113994380Y-75981714D01*
X113970571Y-76005523D01*
X113922952Y-76029333D01*
X113827714Y-76053142D01*
X113708666Y-76053142D01*
X113613428Y-76029333D01*
X113565809Y-76005523D01*
X113542000Y-75981714D01*
X113518190Y-75934095D01*
X113684857Y-75553142D02*
X114018190Y-75553142D01*
X113732476Y-75553142D02*
X113708666Y-75529333D01*
X113684857Y-75481714D01*
X113684857Y-75410285D01*
X113708666Y-75362666D01*
X113756285Y-75338857D01*
X114018190Y-75338857D01*
X113756285Y-74934095D02*
X113756285Y-75100761D01*
X114018190Y-75100761D02*
X113518190Y-75100761D01*
X113518190Y-74862666D01*
%TO.C,C1*%
X107874571Y-57741333D02*
X107898380Y-57765142D01*
X107922190Y-57836571D01*
X107922190Y-57884190D01*
X107898380Y-57955619D01*
X107850761Y-58003238D01*
X107803142Y-58027047D01*
X107707904Y-58050857D01*
X107636476Y-58050857D01*
X107541238Y-58027047D01*
X107493619Y-58003238D01*
X107446000Y-57955619D01*
X107422190Y-57884190D01*
X107422190Y-57836571D01*
X107446000Y-57765142D01*
X107469809Y-57741333D01*
X107922190Y-57265142D02*
X107922190Y-57550857D01*
X107922190Y-57408000D02*
X107422190Y-57408000D01*
X107493619Y-57455619D01*
X107541238Y-57503238D01*
X107565047Y-57550857D01*
D11*
%TO.C,U1*%
X115616524Y-63500000D02*
X115386714Y-63270190D01*
X110490000Y-68626524D02*
X110649099Y-68467425D01*
X110490000Y-68626524D02*
X110260190Y-68396714D01*
X105363476Y-63500000D02*
X105593286Y-63729810D01*
X105363476Y-63500000D02*
X105593286Y-63270190D01*
X110490000Y-58373476D02*
X110260190Y-58603286D01*
X110490000Y-58373476D02*
X110719810Y-58603286D01*
X115616524Y-63500000D02*
X115386714Y-63729810D01*
X110649099Y-68467425D02*
X111656726Y-69475052D01*
D13*
%TO.C,Y1*%
X112054000Y-74354000D02*
X117054000Y-74354000D01*
X112054000Y-70934000D02*
X117054000Y-70934000D01*
%TO.C,U2*%
X108204000Y-81758000D02*
X107404000Y-81758000D01*
X108204000Y-78638000D02*
X106404000Y-78638000D01*
X108204000Y-78638000D02*
X109004000Y-78638000D01*
X108204000Y-81758000D02*
X109004000Y-81758000D01*
%TO.C,SW1*%
X114506000Y-45470000D02*
X113006000Y-45470000D01*
X110506000Y-46720000D02*
X110506000Y-51220000D01*
X113006000Y-52470000D02*
X114506000Y-52470000D01*
X117006000Y-51220000D02*
X117006000Y-46720000D01*
%TO.C,R3*%
X105051776Y-71613500D02*
X105561224Y-71613500D01*
X105051776Y-72658500D02*
X105561224Y-72658500D01*
%TO.C,R2*%
X109625224Y-72658500D02*
X109115776Y-72658500D01*
X109625224Y-71613500D02*
X109115776Y-71613500D01*
%TO.C,R1*%
X110504500Y-55267776D02*
X110504500Y-55777224D01*
X109459500Y-55267776D02*
X109459500Y-55777224D01*
%TO.C,L1*%
X106732000Y-55095758D02*
X106732000Y-55916242D01*
X105612000Y-55095758D02*
X105612000Y-55916242D01*
%TO.C,J4*%
X105410000Y-85150000D02*
X118170000Y-85150000D01*
X104140000Y-85150000D02*
X102810000Y-85150000D01*
X102810000Y-85150000D02*
X102810000Y-83820000D01*
X105410000Y-85150000D02*
X105410000Y-82490000D01*
X118170000Y-85150000D02*
X118170000Y-82490000D01*
X105410000Y-82490000D02*
X118170000Y-82490000D01*
%TO.C,J3*%
X120710000Y-44390000D02*
X118050000Y-44390000D01*
X120710000Y-81280000D02*
X120710000Y-82610000D01*
X120710000Y-80010000D02*
X120710000Y-44390000D01*
X120710000Y-82610000D02*
X119380000Y-82610000D01*
X118050000Y-80010000D02*
X118050000Y-44390000D01*
X120710000Y-80010000D02*
X118050000Y-80010000D01*
%TO.C,J2*%
X102930000Y-80010000D02*
X100270000Y-80010000D01*
X100270000Y-80010000D02*
X100270000Y-44390000D01*
X102930000Y-82610000D02*
X101600000Y-82610000D01*
X102930000Y-80010000D02*
X102930000Y-44390000D01*
X102930000Y-81280000D02*
X102930000Y-82610000D01*
X102930000Y-44390000D02*
X100270000Y-44390000D01*
%TO.C,ISP*%
X106680000Y-49530000D02*
X106680000Y-52130000D01*
X109280000Y-44390000D02*
X104080000Y-44390000D01*
X104080000Y-52130000D02*
X104080000Y-44390000D01*
X109280000Y-52130000D02*
X107950000Y-52130000D01*
X109280000Y-49530000D02*
X109280000Y-44390000D01*
X109280000Y-49530000D02*
X106680000Y-49530000D01*
X109280000Y-50800000D02*
X109280000Y-52130000D01*
X106680000Y-52130000D02*
X104080000Y-52130000D01*
%TO.C,D13*%
X104275000Y-73195500D02*
X104275000Y-77255500D01*
X106545000Y-73195500D02*
X104275000Y-73195500D01*
X106545000Y-77255500D02*
X106545000Y-73195500D01*
%TO.C,POWER*%
X108339000Y-73195500D02*
X108339000Y-77255500D01*
X110609000Y-73195500D02*
X108339000Y-73195500D01*
X110609000Y-77255500D02*
X110609000Y-73195500D01*
%TO.C,C9*%
X103884000Y-55618767D02*
X103884000Y-55326233D01*
X104904000Y-55618767D02*
X104904000Y-55326233D01*
%TO.C,C8*%
X112774000Y-80256767D02*
X112774000Y-79964233D01*
X113794000Y-80256767D02*
X113794000Y-79964233D01*
%TO.C,C7*%
X114552000Y-80256767D02*
X114552000Y-79964233D01*
X115572000Y-80256767D02*
X115572000Y-79964233D01*
%TO.C,C6*%
X111762000Y-79964233D02*
X111762000Y-80256767D01*
X110742000Y-79964233D02*
X110742000Y-80256767D01*
%TO.C,C5*%
X105412000Y-80017233D02*
X105412000Y-80309767D01*
X104392000Y-80017233D02*
X104392000Y-80309767D01*
%TO.C,C4*%
X116330000Y-80156267D02*
X116330000Y-79863733D01*
X117350000Y-80156267D02*
X117350000Y-79863733D01*
%TO.C,C3*%
X114552000Y-76499767D02*
X114552000Y-76207233D01*
X115572000Y-76499767D02*
X115572000Y-76207233D01*
%TO.C,C2*%
X116330000Y-76499767D02*
X116330000Y-76207233D01*
X117350000Y-76499767D02*
X117350000Y-76207233D01*
%TO.C,C1*%
X108714000Y-55326233D02*
X108714000Y-55618767D01*
X107694000Y-55326233D02*
X107694000Y-55618767D01*
%TD*%
M02*
