%TF.GenerationSoftware,KiCad,Pcbnew,(6.0.7)*%
%TF.CreationDate,2023-06-10T06:11:36-04:00*%
%TF.ProjectId,atmega328pb_breakout,61746d65-6761-4333-9238-70625f627265,rev?*%
%TF.SameCoordinates,Original*%
%TF.FileFunction,Legend,Bot*%
%TF.FilePolarity,Positive*%
%FSLAX46Y46*%
G04 Gerber Fmt 4.6, Leading zero omitted, Abs format (unit mm)*
G04 Created by KiCad (PCBNEW (6.0.7)) date 2023-06-10 06:11:36*
%MOMM*%
%LPD*%
G01*
G04 APERTURE LIST*
%ADD10C,0.150000*%
%ADD11C,0.100000*%
G04 APERTURE END LIST*
D10*
X109300666Y-57945976D02*
X109300666Y-58422166D01*
X109586380Y-57850738D02*
X108586380Y-58184071D01*
X109586380Y-58517404D01*
X108586380Y-58707880D02*
X108586380Y-59279309D01*
X109586380Y-58993595D02*
X108586380Y-58993595D01*
X109586380Y-59612642D02*
X108586380Y-59612642D01*
X109300666Y-59945976D01*
X108586380Y-60279309D01*
X109586380Y-60279309D01*
X109062571Y-60755500D02*
X109062571Y-61088833D01*
X109586380Y-61231690D02*
X109586380Y-60755500D01*
X108586380Y-60755500D01*
X108586380Y-61231690D01*
X108634000Y-62184071D02*
X108586380Y-62088833D01*
X108586380Y-61945976D01*
X108634000Y-61803119D01*
X108729238Y-61707880D01*
X108824476Y-61660261D01*
X109014952Y-61612642D01*
X109157809Y-61612642D01*
X109348285Y-61660261D01*
X109443523Y-61707880D01*
X109538761Y-61803119D01*
X109586380Y-61945976D01*
X109586380Y-62041214D01*
X109538761Y-62184071D01*
X109491142Y-62231690D01*
X109157809Y-62231690D01*
X109157809Y-62041214D01*
X109300666Y-62612642D02*
X109300666Y-63088833D01*
X109586380Y-62517404D02*
X108586380Y-62850738D01*
X109586380Y-63184071D01*
X108586380Y-63422166D02*
X108586380Y-64041214D01*
X108967333Y-63707880D01*
X108967333Y-63850738D01*
X109014952Y-63945976D01*
X109062571Y-63993595D01*
X109157809Y-64041214D01*
X109395904Y-64041214D01*
X109491142Y-63993595D01*
X109538761Y-63945976D01*
X109586380Y-63850738D01*
X109586380Y-63565023D01*
X109538761Y-63469785D01*
X109491142Y-63422166D01*
X108681619Y-64422166D02*
X108634000Y-64469785D01*
X108586380Y-64565023D01*
X108586380Y-64803119D01*
X108634000Y-64898357D01*
X108681619Y-64945976D01*
X108776857Y-64993595D01*
X108872095Y-64993595D01*
X109014952Y-64945976D01*
X109586380Y-64374547D01*
X109586380Y-64993595D01*
X109014952Y-65565023D02*
X108967333Y-65469785D01*
X108919714Y-65422166D01*
X108824476Y-65374547D01*
X108776857Y-65374547D01*
X108681619Y-65422166D01*
X108634000Y-65469785D01*
X108586380Y-65565023D01*
X108586380Y-65755500D01*
X108634000Y-65850738D01*
X108681619Y-65898357D01*
X108776857Y-65945976D01*
X108824476Y-65945976D01*
X108919714Y-65898357D01*
X108967333Y-65850738D01*
X109014952Y-65755500D01*
X109014952Y-65565023D01*
X109062571Y-65469785D01*
X109110190Y-65422166D01*
X109205428Y-65374547D01*
X109395904Y-65374547D01*
X109491142Y-65422166D01*
X109538761Y-65469785D01*
X109586380Y-65565023D01*
X109586380Y-65755500D01*
X109538761Y-65850738D01*
X109491142Y-65898357D01*
X109395904Y-65945976D01*
X109205428Y-65945976D01*
X109110190Y-65898357D01*
X109062571Y-65850738D01*
X109014952Y-65755500D01*
X109586380Y-66374547D02*
X108586380Y-66374547D01*
X108586380Y-66755500D01*
X108634000Y-66850738D01*
X108681619Y-66898357D01*
X108776857Y-66945976D01*
X108919714Y-66945976D01*
X109014952Y-66898357D01*
X109062571Y-66850738D01*
X109110190Y-66755500D01*
X109110190Y-66374547D01*
X109062571Y-67707880D02*
X109110190Y-67850738D01*
X109157809Y-67898357D01*
X109253047Y-67945976D01*
X109395904Y-67945976D01*
X109491142Y-67898357D01*
X109538761Y-67850738D01*
X109586380Y-67755500D01*
X109586380Y-67374547D01*
X108586380Y-67374547D01*
X108586380Y-67707880D01*
X108634000Y-67803119D01*
X108681619Y-67850738D01*
X108776857Y-67898357D01*
X108872095Y-67898357D01*
X108967333Y-67850738D01*
X109014952Y-67803119D01*
X109062571Y-67707880D01*
X109062571Y-67374547D01*
X108586380Y-68993595D02*
X109586380Y-69326928D01*
X108586380Y-69660261D01*
X109586380Y-70517404D02*
X109586380Y-69945976D01*
X109586380Y-70231690D02*
X108586380Y-70231690D01*
X108729238Y-70136452D01*
X108824476Y-70041214D01*
X108872095Y-69945976D01*
X110672571Y-57993595D02*
X110672571Y-58326928D01*
X111196380Y-58469785D02*
X111196380Y-57993595D01*
X110196380Y-57993595D01*
X110196380Y-58469785D01*
X110529714Y-58803119D02*
X110529714Y-59326928D01*
X111196380Y-58803119D01*
X111196380Y-59326928D01*
X111148761Y-60088833D02*
X111196380Y-59993595D01*
X111196380Y-59803119D01*
X111148761Y-59707880D01*
X111053523Y-59660261D01*
X110672571Y-59660261D01*
X110577333Y-59707880D01*
X110529714Y-59803119D01*
X110529714Y-59993595D01*
X110577333Y-60088833D01*
X110672571Y-60136452D01*
X110767809Y-60136452D01*
X110863047Y-59660261D01*
X111196380Y-60565023D02*
X110529714Y-60565023D01*
X110720190Y-60565023D02*
X110624952Y-60612642D01*
X110577333Y-60660261D01*
X110529714Y-60755500D01*
X110529714Y-60850738D01*
X111196380Y-62422166D02*
X111196380Y-61945976D01*
X110196380Y-61945976D01*
X111196380Y-62898357D02*
X111148761Y-62803119D01*
X111101142Y-62755500D01*
X111005904Y-62707880D01*
X110720190Y-62707880D01*
X110624952Y-62755500D01*
X110577333Y-62803119D01*
X110529714Y-62898357D01*
X110529714Y-63041214D01*
X110577333Y-63136452D01*
X110624952Y-63184071D01*
X110720190Y-63231690D01*
X111005904Y-63231690D01*
X111101142Y-63184071D01*
X111148761Y-63136452D01*
X111196380Y-63041214D01*
X111196380Y-62898357D01*
X110529714Y-63660261D02*
X111196380Y-63660261D01*
X110624952Y-63660261D02*
X110577333Y-63707880D01*
X110529714Y-63803119D01*
X110529714Y-63945976D01*
X110577333Y-64041214D01*
X110672571Y-64088833D01*
X111196380Y-64088833D01*
X110529714Y-64993595D02*
X111339238Y-64993595D01*
X111434476Y-64945976D01*
X111482095Y-64898357D01*
X111529714Y-64803119D01*
X111529714Y-64660261D01*
X111482095Y-64565023D01*
X111148761Y-64993595D02*
X111196380Y-64898357D01*
X111196380Y-64707880D01*
X111148761Y-64612642D01*
X111101142Y-64565023D01*
X111005904Y-64517404D01*
X110720190Y-64517404D01*
X110624952Y-64565023D01*
X110577333Y-64612642D01*
X110529714Y-64707880D01*
X110529714Y-64898357D01*
X110577333Y-64993595D01*
X111196380Y-65469785D02*
X110529714Y-65469785D01*
X110196380Y-65469785D02*
X110244000Y-65422166D01*
X110291619Y-65469785D01*
X110244000Y-65517404D01*
X110196380Y-65469785D01*
X110291619Y-65469785D01*
X110529714Y-65945976D02*
X111196380Y-65945976D01*
X110624952Y-65945976D02*
X110577333Y-65993595D01*
X110529714Y-66088833D01*
X110529714Y-66231690D01*
X110577333Y-66326928D01*
X110672571Y-66374547D01*
X111196380Y-66374547D01*
X110529714Y-67279309D02*
X111196380Y-67279309D01*
X110529714Y-66850738D02*
X111053523Y-66850738D01*
X111148761Y-66898357D01*
X111196380Y-66993595D01*
X111196380Y-67136452D01*
X111148761Y-67231690D01*
X111101142Y-67279309D01*
X111148761Y-67707880D02*
X111196380Y-67803119D01*
X111196380Y-67993595D01*
X111148761Y-68088833D01*
X111053523Y-68136452D01*
X111005904Y-68136452D01*
X110910666Y-68088833D01*
X110863047Y-67993595D01*
X110863047Y-67850738D01*
X110815428Y-67755500D01*
X110720190Y-67707880D01*
X110672571Y-67707880D01*
X110577333Y-67755500D01*
X110529714Y-67850738D01*
X110529714Y-67993595D01*
X110577333Y-68088833D01*
X111806380Y-58279309D02*
X112520666Y-58279309D01*
X112663523Y-58231690D01*
X112758761Y-58136452D01*
X112806380Y-57993595D01*
X112806380Y-57898357D01*
X112139714Y-59184071D02*
X112806380Y-59184071D01*
X112139714Y-58755500D02*
X112663523Y-58755500D01*
X112758761Y-58803119D01*
X112806380Y-58898357D01*
X112806380Y-59041214D01*
X112758761Y-59136452D01*
X112711142Y-59184071D01*
X112806380Y-59803119D02*
X112758761Y-59707880D01*
X112663523Y-59660261D01*
X111806380Y-59660261D01*
X112139714Y-60088833D02*
X112806380Y-60326928D01*
X112139714Y-60565023D02*
X112806380Y-60326928D01*
X113044476Y-60231690D01*
X113092095Y-60184071D01*
X113139714Y-60088833D01*
X111901619Y-61660261D02*
X111854000Y-61707880D01*
X111806380Y-61803119D01*
X111806380Y-62041214D01*
X111854000Y-62136452D01*
X111901619Y-62184071D01*
X111996857Y-62231690D01*
X112092095Y-62231690D01*
X112234952Y-62184071D01*
X112806380Y-61612642D01*
X112806380Y-62231690D01*
X111806380Y-62850738D02*
X111806380Y-62945976D01*
X111854000Y-63041214D01*
X111901619Y-63088833D01*
X111996857Y-63136452D01*
X112187333Y-63184071D01*
X112425428Y-63184071D01*
X112615904Y-63136452D01*
X112711142Y-63088833D01*
X112758761Y-63041214D01*
X112806380Y-62945976D01*
X112806380Y-62850738D01*
X112758761Y-62755500D01*
X112711142Y-62707880D01*
X112615904Y-62660261D01*
X112425428Y-62612642D01*
X112187333Y-62612642D01*
X111996857Y-62660261D01*
X111901619Y-62707880D01*
X111854000Y-62755500D01*
X111806380Y-62850738D01*
X111901619Y-63565023D02*
X111854000Y-63612642D01*
X111806380Y-63707880D01*
X111806380Y-63945976D01*
X111854000Y-64041214D01*
X111901619Y-64088833D01*
X111996857Y-64136452D01*
X112092095Y-64136452D01*
X112234952Y-64088833D01*
X112806380Y-63517404D01*
X112806380Y-64136452D01*
X111806380Y-64469785D02*
X111806380Y-65088833D01*
X112187333Y-64755500D01*
X112187333Y-64898357D01*
X112234952Y-64993595D01*
X112282571Y-65041214D01*
X112377809Y-65088833D01*
X112615904Y-65088833D01*
X112711142Y-65041214D01*
X112758761Y-64993595D01*
X112806380Y-64898357D01*
X112806380Y-64612642D01*
X112758761Y-64517404D01*
X112711142Y-64469785D01*
D11*
X104544666Y-49813333D02*
X104444666Y-49846666D01*
X104278000Y-49846666D01*
X104211333Y-49813333D01*
X104178000Y-49780000D01*
X104144666Y-49713333D01*
X104144666Y-49646666D01*
X104178000Y-49580000D01*
X104211333Y-49546666D01*
X104278000Y-49513333D01*
X104411333Y-49480000D01*
X104478000Y-49446666D01*
X104511333Y-49413333D01*
X104544666Y-49346666D01*
X104544666Y-49280000D01*
X104511333Y-49213333D01*
X104478000Y-49180000D01*
X104411333Y-49146666D01*
X104244666Y-49146666D01*
X104144666Y-49180000D01*
X103444666Y-49780000D02*
X103478000Y-49813333D01*
X103578000Y-49846666D01*
X103644666Y-49846666D01*
X103744666Y-49813333D01*
X103811333Y-49746666D01*
X103844666Y-49680000D01*
X103878000Y-49546666D01*
X103878000Y-49446666D01*
X103844666Y-49313333D01*
X103811333Y-49246666D01*
X103744666Y-49180000D01*
X103644666Y-49146666D01*
X103578000Y-49146666D01*
X103478000Y-49180000D01*
X103444666Y-49213333D01*
X102811333Y-49846666D02*
X103144666Y-49846666D01*
X103144666Y-49146666D01*
X102211333Y-49846666D02*
X102611333Y-49846666D01*
X102411333Y-49846666D02*
X102411333Y-49146666D01*
X102478000Y-49246666D01*
X102544666Y-49313333D01*
X102611333Y-49346666D01*
X104561333Y-47273333D02*
X104461333Y-47306666D01*
X104294666Y-47306666D01*
X104228000Y-47273333D01*
X104194666Y-47240000D01*
X104161333Y-47173333D01*
X104161333Y-47106666D01*
X104194666Y-47040000D01*
X104228000Y-47006666D01*
X104294666Y-46973333D01*
X104428000Y-46940000D01*
X104494666Y-46906666D01*
X104528000Y-46873333D01*
X104561333Y-46806666D01*
X104561333Y-46740000D01*
X104528000Y-46673333D01*
X104494666Y-46640000D01*
X104428000Y-46606666D01*
X104261333Y-46606666D01*
X104161333Y-46640000D01*
X103861333Y-47306666D02*
X103861333Y-46606666D01*
X103694666Y-46606666D01*
X103594666Y-46640000D01*
X103528000Y-46706666D01*
X103494666Y-46773333D01*
X103461333Y-46906666D01*
X103461333Y-47006666D01*
X103494666Y-47140000D01*
X103528000Y-47206666D01*
X103594666Y-47273333D01*
X103694666Y-47306666D01*
X103861333Y-47306666D01*
X103194666Y-47106666D02*
X102861333Y-47106666D01*
X103261333Y-47306666D02*
X103028000Y-46606666D01*
X102794666Y-47306666D01*
X102194666Y-47306666D02*
X102594666Y-47306666D01*
X102394666Y-47306666D02*
X102394666Y-46606666D01*
X102461333Y-46706666D01*
X102528000Y-46773333D01*
X102594666Y-46806666D01*
X104228000Y-45020666D02*
X104228000Y-44320666D01*
X104061333Y-44320666D01*
X103961333Y-44354000D01*
X103894666Y-44420666D01*
X103861333Y-44487333D01*
X103828000Y-44620666D01*
X103828000Y-44720666D01*
X103861333Y-44854000D01*
X103894666Y-44920666D01*
X103961333Y-44987333D01*
X104061333Y-45020666D01*
X104228000Y-45020666D01*
X103161333Y-45020666D02*
X103561333Y-45020666D01*
X103361333Y-45020666D02*
X103361333Y-44320666D01*
X103428000Y-44420666D01*
X103494666Y-44487333D01*
X103561333Y-44520666D01*
X102928000Y-44320666D02*
X102494666Y-44320666D01*
X102728000Y-44587333D01*
X102628000Y-44587333D01*
X102561333Y-44620666D01*
X102528000Y-44654000D01*
X102494666Y-44720666D01*
X102494666Y-44887333D01*
X102528000Y-44954000D01*
X102561333Y-44987333D01*
X102628000Y-45020666D01*
X102828000Y-45020666D01*
X102894666Y-44987333D01*
X102928000Y-44954000D01*
D10*
X104508927Y-52698774D02*
X104172209Y-53035492D01*
X104778301Y-52833461D02*
X103835492Y-52362057D01*
X104306896Y-53304866D01*
X103229400Y-52968148D02*
X103162057Y-53035492D01*
X103128385Y-53136507D01*
X103128385Y-53203851D01*
X103162057Y-53304866D01*
X103263072Y-53473225D01*
X103431431Y-53641583D01*
X103599790Y-53742599D01*
X103700805Y-53776270D01*
X103768148Y-53776270D01*
X103869164Y-53742599D01*
X103936507Y-53675255D01*
X103970179Y-53574240D01*
X103970179Y-53506896D01*
X103936507Y-53405881D01*
X103835492Y-53237522D01*
X103667133Y-53069164D01*
X103498774Y-52968148D01*
X103397759Y-52934477D01*
X103330416Y-52934477D01*
X103229400Y-52968148D01*
X104254927Y-55238774D02*
X103918209Y-55575492D01*
X104524301Y-55373461D02*
X103581492Y-54902057D01*
X104052896Y-55844866D01*
X103446805Y-56450957D02*
X103850866Y-56046896D01*
X103648835Y-56248927D02*
X102941729Y-55541820D01*
X103110087Y-55575492D01*
X103244774Y-55575492D01*
X103345790Y-55541820D01*
X104254927Y-57778774D02*
X103918209Y-58115492D01*
X104524301Y-57913461D02*
X103581492Y-57442057D01*
X104052896Y-58384866D01*
X103211103Y-57947133D02*
X103143759Y-57947133D01*
X103042744Y-57980805D01*
X102874385Y-58149164D01*
X102840713Y-58250179D01*
X102840713Y-58317522D01*
X102874385Y-58418538D01*
X102941729Y-58485881D01*
X103076416Y-58553225D01*
X103884538Y-58553225D01*
X103446805Y-58990957D01*
X104254927Y-60318774D02*
X103918209Y-60655492D01*
X104524301Y-60453461D02*
X103581492Y-59982057D01*
X104052896Y-60924866D01*
X103177431Y-60386118D02*
X102739698Y-60823851D01*
X103244774Y-60857522D01*
X103143759Y-60958538D01*
X103110087Y-61059553D01*
X103110087Y-61126896D01*
X103143759Y-61227912D01*
X103312118Y-61396270D01*
X103413133Y-61429942D01*
X103480477Y-61429942D01*
X103581492Y-61396270D01*
X103783522Y-61194240D01*
X103817194Y-61093225D01*
X103817194Y-61025881D01*
X104254927Y-62858774D02*
X103918209Y-63195492D01*
X104524301Y-62993461D02*
X103581492Y-62522057D01*
X104052896Y-63464866D01*
X103042744Y-63532209D02*
X103514148Y-64003614D01*
X102941729Y-63094477D02*
X103615164Y-63431194D01*
X103177431Y-63868927D01*
X104254927Y-65398774D02*
X103918209Y-65735492D01*
X104524301Y-65533461D02*
X103581492Y-65062057D01*
X104052896Y-66004866D01*
X102773370Y-65870179D02*
X103110087Y-65533461D01*
X103480477Y-65836507D01*
X103413133Y-65836507D01*
X103312118Y-65870179D01*
X103143759Y-66038538D01*
X103110087Y-66139553D01*
X103110087Y-66206896D01*
X103143759Y-66307912D01*
X103312118Y-66476270D01*
X103413133Y-66509942D01*
X103480477Y-66509942D01*
X103581492Y-66476270D01*
X103749851Y-66307912D01*
X103783522Y-66206896D01*
X103783522Y-66139553D01*
X104254927Y-67938774D02*
X103918209Y-68275492D01*
X104524301Y-68073461D02*
X103581492Y-67602057D01*
X104052896Y-68544866D01*
X102807042Y-68376507D02*
X102941729Y-68241820D01*
X103042744Y-68208148D01*
X103110087Y-68208148D01*
X103278446Y-68241820D01*
X103446805Y-68342835D01*
X103716179Y-68612209D01*
X103749851Y-68713225D01*
X103749851Y-68780568D01*
X103716179Y-68881583D01*
X103581492Y-69016270D01*
X103480477Y-69049942D01*
X103413133Y-69049942D01*
X103312118Y-69016270D01*
X103143759Y-68847912D01*
X103110087Y-68746896D01*
X103110087Y-68679553D01*
X103143759Y-68578538D01*
X103278446Y-68443851D01*
X103379461Y-68410179D01*
X103446805Y-68410179D01*
X103547820Y-68443851D01*
X104508927Y-70478774D02*
X104172209Y-70815492D01*
X104778301Y-70613461D02*
X103835492Y-70142057D01*
X104306896Y-71084866D01*
X103431431Y-70546118D02*
X102960026Y-71017522D01*
X103970179Y-71421583D01*
X105656690Y-71871011D02*
X105319973Y-72207729D01*
X105926064Y-72005698D02*
X104983255Y-71534294D01*
X105454660Y-72477103D01*
X104814896Y-73116866D02*
X104713881Y-72544446D01*
X105218957Y-72712805D02*
X104511851Y-72005698D01*
X104242477Y-72275072D01*
X104208805Y-72376087D01*
X104208805Y-72443431D01*
X104242477Y-72544446D01*
X104343492Y-72645461D01*
X104444507Y-72679133D01*
X104511851Y-72679133D01*
X104612866Y-72645461D01*
X104882240Y-72376087D01*
X104141461Y-73049522D02*
X103905759Y-73285225D01*
X104175133Y-73756629D02*
X104511851Y-73419912D01*
X103804744Y-72712805D01*
X103468026Y-73049522D01*
X103265996Y-73924988D02*
X103501698Y-73689286D01*
X103872087Y-74059675D02*
X103164981Y-73352568D01*
X102828263Y-73689286D01*
D11*
X117743421Y-54183255D02*
X118238396Y-53688280D01*
X118120544Y-53570429D01*
X118026264Y-53523289D01*
X117931983Y-53523289D01*
X117861272Y-53546859D01*
X117743421Y-53617570D01*
X117672710Y-53688280D01*
X117602000Y-53806132D01*
X117578429Y-53876842D01*
X117578429Y-53971123D01*
X117625570Y-54065404D01*
X117743421Y-54183255D01*
X117224876Y-53664710D02*
X117130595Y-53570429D01*
X117107025Y-53499719D01*
X117107025Y-53452578D01*
X117130595Y-53334727D01*
X117201306Y-53216876D01*
X117389867Y-53028314D01*
X117460578Y-53004744D01*
X117507719Y-53004744D01*
X117578429Y-53028314D01*
X117672710Y-53122595D01*
X117696280Y-53193306D01*
X117696280Y-53240446D01*
X117672710Y-53311157D01*
X117554859Y-53429008D01*
X117484148Y-53452578D01*
X117437008Y-53452578D01*
X117366297Y-53429008D01*
X117272016Y-53334727D01*
X117248446Y-53264016D01*
X117248446Y-53216876D01*
X117272016Y-53146165D01*
X118452000Y-44766666D02*
X118452000Y-44066666D01*
X118285333Y-44066666D01*
X118185333Y-44100000D01*
X118118666Y-44166666D01*
X118085333Y-44233333D01*
X118052000Y-44366666D01*
X118052000Y-44466666D01*
X118085333Y-44600000D01*
X118118666Y-44666666D01*
X118185333Y-44733333D01*
X118285333Y-44766666D01*
X118452000Y-44766666D01*
X117385333Y-44766666D02*
X117785333Y-44766666D01*
X117585333Y-44766666D02*
X117585333Y-44066666D01*
X117652000Y-44166666D01*
X117718666Y-44233333D01*
X117785333Y-44266666D01*
X117118666Y-44133333D02*
X117085333Y-44100000D01*
X117018666Y-44066666D01*
X116852000Y-44066666D01*
X116785333Y-44100000D01*
X116752000Y-44133333D01*
X116718666Y-44200000D01*
X116718666Y-44266666D01*
X116752000Y-44366666D01*
X117152000Y-44766666D01*
X116718666Y-44766666D01*
D10*
X117632748Y-49184511D02*
X118339854Y-48477404D01*
X118171496Y-48309045D01*
X118036809Y-48241702D01*
X117902122Y-48241702D01*
X117801106Y-48275374D01*
X117632748Y-48376389D01*
X117531732Y-48477404D01*
X117430717Y-48645763D01*
X117397045Y-48746778D01*
X117397045Y-48881465D01*
X117464389Y-49016152D01*
X117632748Y-49184511D01*
X116555251Y-48107015D02*
X116959312Y-48511076D01*
X116757282Y-48309045D02*
X117464389Y-47601938D01*
X117430717Y-47770297D01*
X117430717Y-47904984D01*
X117464389Y-48006000D01*
X115881816Y-47433580D02*
X116285877Y-47837641D01*
X116083847Y-47635610D02*
X116790954Y-46928503D01*
X116757282Y-47096862D01*
X116757282Y-47231549D01*
X116790954Y-47332564D01*
X117632748Y-51470511D02*
X118339854Y-50763404D01*
X118171496Y-50595045D01*
X118036809Y-50527702D01*
X117902122Y-50527702D01*
X117801106Y-50561374D01*
X117632748Y-50662389D01*
X117531732Y-50763404D01*
X117430717Y-50931763D01*
X117397045Y-51032778D01*
X117397045Y-51167465D01*
X117464389Y-51302152D01*
X117632748Y-51470511D01*
X116555251Y-50393015D02*
X116959312Y-50797076D01*
X116757282Y-50595045D02*
X117464389Y-49887938D01*
X117430717Y-50056297D01*
X117430717Y-50190984D01*
X117464389Y-50292000D01*
X116824625Y-49248175D02*
X116757282Y-49180832D01*
X116656267Y-49147160D01*
X116588923Y-49147160D01*
X116487908Y-49180832D01*
X116319549Y-49281847D01*
X116151190Y-49450206D01*
X116050175Y-49618564D01*
X116016503Y-49719580D01*
X116016503Y-49786923D01*
X116050175Y-49887938D01*
X116117519Y-49955282D01*
X116218534Y-49988954D01*
X116285877Y-49988954D01*
X116386893Y-49955282D01*
X116555251Y-49854267D01*
X116723610Y-49685908D01*
X116824625Y-49517549D01*
X116858297Y-49416534D01*
X116858297Y-49349190D01*
X116824625Y-49248175D01*
X117296030Y-56467793D02*
X118003137Y-55760687D01*
X117834778Y-55592328D01*
X117700091Y-55524984D01*
X117565404Y-55524984D01*
X117464389Y-55558656D01*
X117296030Y-55659671D01*
X117195015Y-55760687D01*
X117094000Y-55929045D01*
X117060328Y-56030061D01*
X117060328Y-56164748D01*
X117127671Y-56299435D01*
X117296030Y-56467793D01*
X116891969Y-55255610D02*
X116992984Y-55289282D01*
X117060328Y-55289282D01*
X117161343Y-55255610D01*
X117195015Y-55221938D01*
X117228687Y-55120923D01*
X117228687Y-55053580D01*
X117195015Y-54952564D01*
X117060328Y-54817877D01*
X116959312Y-54784206D01*
X116891969Y-54784206D01*
X116790954Y-54817877D01*
X116757282Y-54851549D01*
X116723610Y-54952564D01*
X116723610Y-55019908D01*
X116757282Y-55120923D01*
X116891969Y-55255610D01*
X116925641Y-55356625D01*
X116925641Y-55423969D01*
X116891969Y-55524984D01*
X116757282Y-55659671D01*
X116656267Y-55693343D01*
X116588923Y-55693343D01*
X116487908Y-55659671D01*
X116353221Y-55524984D01*
X116319549Y-55423969D01*
X116319549Y-55356625D01*
X116353221Y-55255610D01*
X116487908Y-55120923D01*
X116588923Y-55087251D01*
X116656267Y-55087251D01*
X116757282Y-55120923D01*
X117296030Y-59007793D02*
X118003137Y-58300687D01*
X117834778Y-58132328D01*
X117700091Y-58064984D01*
X117565404Y-58064984D01*
X117464389Y-58098656D01*
X117296030Y-58199671D01*
X117195015Y-58300687D01*
X117094000Y-58469045D01*
X117060328Y-58570061D01*
X117060328Y-58704748D01*
X117127671Y-58839435D01*
X117296030Y-59007793D01*
X117363374Y-57660923D02*
X116891969Y-57189519D01*
X116487908Y-58199671D01*
X117296030Y-61547793D02*
X118003137Y-60840687D01*
X117834778Y-60672328D01*
X117700091Y-60604984D01*
X117565404Y-60604984D01*
X117464389Y-60638656D01*
X117296030Y-60739671D01*
X117195015Y-60840687D01*
X117094000Y-61009045D01*
X117060328Y-61110061D01*
X117060328Y-61244748D01*
X117127671Y-61379435D01*
X117296030Y-61547793D01*
X116992984Y-59830534D02*
X117127671Y-59965221D01*
X117161343Y-60066236D01*
X117161343Y-60133580D01*
X117127671Y-60301938D01*
X117026656Y-60470297D01*
X116757282Y-60739671D01*
X116656267Y-60773343D01*
X116588923Y-60773343D01*
X116487908Y-60739671D01*
X116353221Y-60604984D01*
X116319549Y-60503969D01*
X116319549Y-60436625D01*
X116353221Y-60335610D01*
X116521580Y-60167251D01*
X116622595Y-60133580D01*
X116689938Y-60133580D01*
X116790954Y-60167251D01*
X116925641Y-60301938D01*
X116959312Y-60402954D01*
X116959312Y-60470297D01*
X116925641Y-60571312D01*
X117296030Y-64087793D02*
X118003137Y-63380687D01*
X117834778Y-63212328D01*
X117700091Y-63144984D01*
X117565404Y-63144984D01*
X117464389Y-63178656D01*
X117296030Y-63279671D01*
X117195015Y-63380687D01*
X117094000Y-63549045D01*
X117060328Y-63650061D01*
X117060328Y-63784748D01*
X117127671Y-63919435D01*
X117296030Y-64087793D01*
X116959312Y-62336862D02*
X117296030Y-62673580D01*
X116992984Y-63043969D01*
X116992984Y-62976625D01*
X116959312Y-62875610D01*
X116790954Y-62707251D01*
X116689938Y-62673580D01*
X116622595Y-62673580D01*
X116521580Y-62707251D01*
X116353221Y-62875610D01*
X116319549Y-62976625D01*
X116319549Y-63043969D01*
X116353221Y-63144984D01*
X116521580Y-63313343D01*
X116622595Y-63347015D01*
X116689938Y-63347015D01*
X117296030Y-66627793D02*
X118003137Y-65920687D01*
X117834778Y-65752328D01*
X117700091Y-65684984D01*
X117565404Y-65684984D01*
X117464389Y-65718656D01*
X117296030Y-65819671D01*
X117195015Y-65920687D01*
X117094000Y-66089045D01*
X117060328Y-66190061D01*
X117060328Y-66324748D01*
X117127671Y-66459435D01*
X117296030Y-66627793D01*
X116757282Y-65146236D02*
X116285877Y-65617641D01*
X117195015Y-65045221D02*
X116858297Y-65718656D01*
X116420564Y-65280923D01*
X117296030Y-69167793D02*
X118003137Y-68460687D01*
X117834778Y-68292328D01*
X117700091Y-68224984D01*
X117565404Y-68224984D01*
X117464389Y-68258656D01*
X117296030Y-68359671D01*
X117195015Y-68460687D01*
X117094000Y-68629045D01*
X117060328Y-68730061D01*
X117060328Y-68864748D01*
X117127671Y-68999435D01*
X117296030Y-69167793D01*
X117363374Y-67820923D02*
X116925641Y-67383190D01*
X116891969Y-67888267D01*
X116790954Y-67787251D01*
X116689938Y-67753580D01*
X116622595Y-67753580D01*
X116521580Y-67787251D01*
X116353221Y-67955610D01*
X116319549Y-68056625D01*
X116319549Y-68123969D01*
X116353221Y-68224984D01*
X116555251Y-68427015D01*
X116656267Y-68460687D01*
X116723610Y-68460687D01*
X117296030Y-71707793D02*
X118003137Y-71000687D01*
X117834778Y-70832328D01*
X117700091Y-70764984D01*
X117565404Y-70764984D01*
X117464389Y-70798656D01*
X117296030Y-70899671D01*
X117195015Y-71000687D01*
X117094000Y-71169045D01*
X117060328Y-71270061D01*
X117060328Y-71404748D01*
X117127671Y-71539435D01*
X117296030Y-71707793D01*
X117262358Y-70394595D02*
X117262358Y-70327251D01*
X117228687Y-70226236D01*
X117060328Y-70057877D01*
X116959312Y-70024206D01*
X116891969Y-70024206D01*
X116790954Y-70057877D01*
X116723610Y-70125221D01*
X116656267Y-70259908D01*
X116656267Y-71068030D01*
X116218534Y-70630297D01*
X117296030Y-74247793D02*
X118003137Y-73540687D01*
X117834778Y-73372328D01*
X117700091Y-73304984D01*
X117565404Y-73304984D01*
X117464389Y-73338656D01*
X117296030Y-73439671D01*
X117195015Y-73540687D01*
X117094000Y-73709045D01*
X117060328Y-73810061D01*
X117060328Y-73944748D01*
X117127671Y-74079435D01*
X117296030Y-74247793D01*
X116218534Y-73170297D02*
X116622595Y-73574358D01*
X116420564Y-73372328D02*
X117127671Y-72665221D01*
X117094000Y-72833580D01*
X117094000Y-72968267D01*
X117127671Y-73069282D01*
X117296030Y-76787793D02*
X118003137Y-76080687D01*
X117834778Y-75912328D01*
X117700091Y-75844984D01*
X117565404Y-75844984D01*
X117464389Y-75878656D01*
X117296030Y-75979671D01*
X117195015Y-76080687D01*
X117094000Y-76249045D01*
X117060328Y-76350061D01*
X117060328Y-76484748D01*
X117127671Y-76619435D01*
X117296030Y-76787793D01*
X117161343Y-75238893D02*
X117094000Y-75171549D01*
X116992984Y-75137877D01*
X116925641Y-75137877D01*
X116824625Y-75171549D01*
X116656267Y-75272564D01*
X116487908Y-75440923D01*
X116386893Y-75609282D01*
X116353221Y-75710297D01*
X116353221Y-75777641D01*
X116386893Y-75878656D01*
X116454236Y-75946000D01*
X116555251Y-75979671D01*
X116622595Y-75979671D01*
X116723610Y-75946000D01*
X116891969Y-75844984D01*
X117060328Y-75676625D01*
X117161343Y-75508267D01*
X117195015Y-75407251D01*
X117195015Y-75339908D01*
X117161343Y-75238893D01*
D11*
X120557226Y-83704895D02*
X120632987Y-83730149D01*
X120708748Y-83805911D01*
X120759256Y-83906926D01*
X120759256Y-84007941D01*
X120734002Y-84083703D01*
X120658241Y-84209972D01*
X120582479Y-84285733D01*
X120456210Y-84361495D01*
X120380449Y-84386748D01*
X120279434Y-84386748D01*
X120178418Y-84336241D01*
X120127911Y-84285733D01*
X120077403Y-84184718D01*
X120077403Y-84134210D01*
X120254180Y-83957434D01*
X120355195Y-84058449D01*
X119799611Y-83957434D02*
X120329941Y-83427104D01*
X119496565Y-83654388D01*
X120026895Y-83124058D01*
X119244027Y-83401850D02*
X119774357Y-82871520D01*
X119648088Y-82745251D01*
X119547073Y-82694743D01*
X119446058Y-82694743D01*
X119370296Y-82719997D01*
X119244027Y-82795758D01*
X119168266Y-82871520D01*
X119092504Y-82997789D01*
X119067251Y-83073550D01*
X119067251Y-83174565D01*
X119117758Y-83275581D01*
X119244027Y-83401850D01*
D10*
X116907343Y-78685106D02*
X117479763Y-78584091D01*
X117311404Y-79089167D02*
X118018511Y-78382061D01*
X117749137Y-78112687D01*
X117648122Y-78079015D01*
X117580778Y-78079015D01*
X117479763Y-78112687D01*
X117378748Y-78213702D01*
X117345076Y-78314717D01*
X117345076Y-78382061D01*
X117378748Y-78483076D01*
X117648122Y-78752450D01*
X116671641Y-78382061D02*
X116536954Y-78314717D01*
X116368595Y-78146358D01*
X116334923Y-78045343D01*
X116334923Y-77978000D01*
X116368595Y-77876984D01*
X116435938Y-77809641D01*
X116536954Y-77775969D01*
X116604297Y-77775969D01*
X116705312Y-77809641D01*
X116873671Y-77910656D01*
X116974687Y-77944328D01*
X117042030Y-77944328D01*
X117143045Y-77910656D01*
X117210389Y-77843312D01*
X117244061Y-77742297D01*
X117244061Y-77674954D01*
X117210389Y-77573938D01*
X117042030Y-77405580D01*
X116907343Y-77338236D01*
X116738984Y-77102534D02*
X116334923Y-76698473D01*
X115829847Y-77607610D02*
X116536954Y-76900503D01*
X117292380Y-79883142D02*
X116292380Y-79883142D01*
X116292380Y-80121238D01*
X116340000Y-80264095D01*
X116435238Y-80359333D01*
X116530476Y-80406952D01*
X116720952Y-80454571D01*
X116863809Y-80454571D01*
X117054285Y-80406952D01*
X117149523Y-80359333D01*
X117244761Y-80264095D01*
X117292380Y-80121238D01*
X117292380Y-79883142D01*
X116292380Y-80740285D02*
X116292380Y-81311714D01*
X117292380Y-81026000D02*
X116292380Y-81026000D01*
X117292380Y-82216476D02*
X116816190Y-81883142D01*
X117292380Y-81645047D02*
X116292380Y-81645047D01*
X116292380Y-82026000D01*
X116340000Y-82121238D01*
X116387619Y-82168857D01*
X116482857Y-82216476D01*
X116625714Y-82216476D01*
X116720952Y-82168857D01*
X116768571Y-82121238D01*
X116816190Y-82026000D01*
X116816190Y-81645047D01*
X113752380Y-80772095D02*
X113752380Y-81343523D01*
X114752380Y-81057809D02*
X113752380Y-81057809D01*
X113752380Y-81581619D02*
X114752380Y-82248285D01*
X113752380Y-82248285D02*
X114752380Y-81581619D01*
X112212380Y-81113333D02*
X111736190Y-80780000D01*
X112212380Y-80541904D02*
X111212380Y-80541904D01*
X111212380Y-80922857D01*
X111260000Y-81018095D01*
X111307619Y-81065714D01*
X111402857Y-81113333D01*
X111545714Y-81113333D01*
X111640952Y-81065714D01*
X111688571Y-81018095D01*
X111736190Y-80922857D01*
X111736190Y-80541904D01*
X111212380Y-81446666D02*
X112212380Y-82113333D01*
X111212380Y-82113333D02*
X112212380Y-81446666D01*
X108672380Y-79692666D02*
X109672380Y-80026000D01*
X108672380Y-80359333D01*
X109577142Y-81264095D02*
X109624761Y-81216476D01*
X109672380Y-81073619D01*
X109672380Y-80978380D01*
X109624761Y-80835523D01*
X109529523Y-80740285D01*
X109434285Y-80692666D01*
X109243809Y-80645047D01*
X109100952Y-80645047D01*
X108910476Y-80692666D01*
X108815238Y-80740285D01*
X108720000Y-80835523D01*
X108672380Y-80978380D01*
X108672380Y-81073619D01*
X108720000Y-81216476D01*
X108767619Y-81264095D01*
X109577142Y-82264095D02*
X109624761Y-82216476D01*
X109672380Y-82073619D01*
X109672380Y-81978380D01*
X109624761Y-81835523D01*
X109529523Y-81740285D01*
X109434285Y-81692666D01*
X109243809Y-81645047D01*
X109100952Y-81645047D01*
X108910476Y-81692666D01*
X108815238Y-81740285D01*
X108720000Y-81835523D01*
X108672380Y-81978380D01*
X108672380Y-82073619D01*
X108720000Y-82216476D01*
X108767619Y-82264095D01*
X106425904Y-81542000D02*
X106521142Y-81494380D01*
X106664000Y-81494380D01*
X106806857Y-81542000D01*
X106902095Y-81637238D01*
X106949714Y-81732476D01*
X106997333Y-81922952D01*
X106997333Y-82065809D01*
X106949714Y-82256285D01*
X106902095Y-82351523D01*
X106806857Y-82446761D01*
X106664000Y-82494380D01*
X106568761Y-82494380D01*
X106425904Y-82446761D01*
X106378285Y-82399142D01*
X106378285Y-82065809D01*
X106568761Y-82065809D01*
X105949714Y-82494380D02*
X105949714Y-81494380D01*
X105378285Y-82494380D01*
X105378285Y-81494380D01*
X104902095Y-82494380D02*
X104902095Y-81494380D01*
X104664000Y-81494380D01*
X104521142Y-81542000D01*
X104425904Y-81637238D01*
X104378285Y-81732476D01*
X104330666Y-81922952D01*
X104330666Y-82065809D01*
X104378285Y-82256285D01*
X104425904Y-82351523D01*
X104521142Y-82446761D01*
X104664000Y-82494380D01*
X104902095Y-82494380D01*
X104695583Y-74107965D02*
X105166988Y-75050774D01*
X104224179Y-74579370D01*
X104224179Y-75858896D02*
X104291522Y-75858896D01*
X104426209Y-75791553D01*
X104493553Y-75724209D01*
X104560896Y-75589522D01*
X104560896Y-75454835D01*
X104527225Y-75353820D01*
X104426209Y-75185461D01*
X104325194Y-75084446D01*
X104156835Y-74983431D01*
X104055820Y-74949759D01*
X103921133Y-74949759D01*
X103786446Y-75017103D01*
X103719103Y-75084446D01*
X103651759Y-75219133D01*
X103651759Y-75286477D01*
X103517072Y-76566003D02*
X103584416Y-76566003D01*
X103719103Y-76498660D01*
X103786446Y-76431316D01*
X103853790Y-76296629D01*
X103853790Y-76161942D01*
X103820118Y-76060927D01*
X103719103Y-75892568D01*
X103618087Y-75791553D01*
X103449729Y-75690538D01*
X103348713Y-75656866D01*
X103214026Y-75656866D01*
X103079339Y-75724209D01*
X103011996Y-75791553D01*
X102944652Y-75926240D01*
X102944652Y-75993583D01*
X104386690Y-77024202D02*
X104420362Y-76923187D01*
X104521377Y-76822172D01*
X104656064Y-76754828D01*
X104790751Y-76754828D01*
X104891766Y-76788500D01*
X105060125Y-76889515D01*
X105161140Y-76990530D01*
X105262156Y-77158889D01*
X105295827Y-77259904D01*
X105295827Y-77394591D01*
X105228484Y-77529278D01*
X105161140Y-77596622D01*
X105026453Y-77663965D01*
X104959110Y-77663965D01*
X104723408Y-77428263D01*
X104858095Y-77293576D01*
X104723408Y-78034355D02*
X104016301Y-77327248D01*
X104319347Y-78438416D01*
X103612240Y-77731309D01*
X103982629Y-78775133D02*
X103275522Y-78068026D01*
X103107164Y-78236385D01*
X103039820Y-78371072D01*
X103039820Y-78505759D01*
X103073492Y-78606774D01*
X103174507Y-78775133D01*
X103275522Y-78876148D01*
X103443881Y-78977164D01*
X103544896Y-79010835D01*
X103679583Y-79010835D01*
X103814270Y-78943492D01*
X103982629Y-78775133D01*
X104273225Y-79102324D02*
X104744629Y-80045133D01*
X103801820Y-79573729D01*
X104273225Y-80516538D02*
X103566118Y-79809431D01*
X103936507Y-80853255D02*
X103229400Y-80146148D01*
X103532446Y-81257316D01*
X102825339Y-80550209D01*
M02*
