%TF.GenerationSoftware,KiCad,Pcbnew,(6.0.7)*%
%TF.CreationDate,2023-06-10T06:11:36-04:00*%
%TF.ProjectId,atmega328pb_breakout,61746d65-6761-4333-9238-70625f627265,rev?*%
%TF.SameCoordinates,Original*%
%TF.FileFunction,Soldermask,Bot*%
%TF.FilePolarity,Negative*%
%FSLAX46Y46*%
G04 Gerber Fmt 4.6, Leading zero omitted, Abs format (unit mm)*
G04 Created by KiCad (PCBNEW (6.0.7)) date 2023-06-10 06:11:36*
%MOMM*%
%LPD*%
G01*
G04 APERTURE LIST*
%ADD10C,2.000000*%
%ADD11R,1.700000X1.700000*%
%ADD12O,1.700000X1.700000*%
G04 APERTURE END LIST*
D10*
%TO.C,SW1*%
X111506000Y-45720000D03*
X111506000Y-52220000D03*
X116006000Y-45720000D03*
X116006000Y-52220000D03*
%TD*%
D11*
%TO.C,J4*%
X104140000Y-83820000D03*
D12*
X106680000Y-83820000D03*
X109220000Y-83820000D03*
X111760000Y-83820000D03*
X114300000Y-83820000D03*
X116840000Y-83820000D03*
%TD*%
D11*
%TO.C,J3*%
X119380000Y-81280000D03*
D12*
X119380000Y-78740000D03*
X119380000Y-76200000D03*
X119380000Y-73660000D03*
X119380000Y-71120000D03*
X119380000Y-68580000D03*
X119380000Y-66040000D03*
X119380000Y-63500000D03*
X119380000Y-60960000D03*
X119380000Y-58420000D03*
X119380000Y-55880000D03*
X119380000Y-53340000D03*
X119380000Y-50800000D03*
X119380000Y-48260000D03*
X119380000Y-45720000D03*
%TD*%
%TO.C,J2*%
X101600000Y-45720000D03*
X101600000Y-48260000D03*
X101600000Y-50800000D03*
X101600000Y-53340000D03*
X101600000Y-55880000D03*
X101600000Y-58420000D03*
X101600000Y-60960000D03*
X101600000Y-63500000D03*
X101600000Y-66040000D03*
X101600000Y-68580000D03*
X101600000Y-71120000D03*
X101600000Y-73660000D03*
X101600000Y-76200000D03*
X101600000Y-78740000D03*
D11*
X101600000Y-81280000D03*
%TD*%
%TO.C,ISP*%
X107950000Y-50800000D03*
D12*
X105410000Y-50800000D03*
X107950000Y-48260000D03*
X105410000Y-48260000D03*
X107950000Y-45720000D03*
X105410000Y-45720000D03*
%TD*%
M02*
