M48
; DRILL file {KiCad (6.0.7)} date Mon Jul  3 12:47:34 2023
; FORMAT={-:-/ absolute / metric / decimal}
; #@! TF.CreationDate,2023-07-03T12:47:34-04:00
; #@! TF.GenerationSoftware,Kicad,Pcbnew,(6.0.7)
; #@! TF.FileFunction,Plated,1,2,PTH
FMAT,2
METRIC
; #@! TA.AperFunction,Plated,PTH,ViaDrill
T1C0.400
; #@! TA.AperFunction,Plated,PTH,ComponentDrill
T2C1.000
%
G90
G05
T1
X100.33Y-65.278
X100.33Y-73.152
X100.584Y-47.498
X101.309Y-70.072
X101.6Y-65.278
X101.6Y-77.078
X101.637Y-75.873
X102.034Y-69.195
X102.616Y-70.866
X102.87Y-56.642
X103.087Y-77.877
X104.136Y-71.116
X104.14Y-55.784
X104.14Y-69.088
X104.14Y-76.708
X104.902Y-61.722
X105.055Y-58.42
X105.145Y-80.021
X105.41Y-66.294
X105.41Y-68.072
X105.41Y-76.708
X105.505Y-70.1
X105.664Y-71.12
X106.68Y-72.136
X106.68Y-76.708
X107.68Y-71.612
X107.95Y-60.452
X108.204Y-62.738
X108.658Y-70.444
X108.966Y-63.537
X108.966Y-74.676
X108.966Y-79.756
X109.191Y-69.599
X109.316Y-81.534
X109.728Y-73.66
X109.982Y-64.262
T2
X97.79Y-48.26
X97.79Y-50.8
X97.79Y-53.34
X97.79Y-55.88
X97.79Y-58.42
X97.79Y-60.96
X97.79Y-63.5
X97.79Y-66.04
X97.79Y-68.58
X97.79Y-71.12
X97.79Y-73.66
X97.79Y-76.2
X97.79Y-78.74
X97.79Y-81.28
X97.79Y-83.82
X99.06Y-86.995
X101.6Y-86.995
X102.885Y-48.265
X102.885Y-50.805
X104.14Y-86.995
X105.425Y-48.265
X105.425Y-50.805
X106.68Y-86.995
X107.965Y-48.265
X107.965Y-50.805
X109.22Y-86.995
X111.76Y-86.995
X113.03Y-48.26
X113.03Y-50.8
X113.03Y-53.34
X113.03Y-55.88
X113.03Y-58.42
X113.03Y-60.96
X113.03Y-63.5
X113.03Y-66.04
X113.03Y-68.58
X113.03Y-71.12
X113.03Y-73.66
X113.03Y-76.2
X113.03Y-78.74
X113.03Y-81.28
X113.03Y-83.82
T0
M30
