%TF.GenerationSoftware,KiCad,Pcbnew,(6.0.7)*%
%TF.CreationDate,2023-07-03T12:47:38-04:00*%
%TF.ProjectId,atmega328pb_v2_breakout,61746d65-6761-4333-9238-70625f76325f,rev?*%
%TF.SameCoordinates,Original*%
%TF.FileFunction,Legend,Bot*%
%TF.FilePolarity,Positive*%
%FSLAX46Y46*%
G04 Gerber Fmt 4.6, Leading zero omitted, Abs format (unit mm)*
G04 Created by KiCad (PCBNEW (6.0.7)) date 2023-07-03 12:47:38*
%MOMM*%
%LPD*%
G01*
G04 APERTURE LIST*
%ADD10C,0.150000*%
%ADD11C,0.100000*%
G04 APERTURE END LIST*
D10*
X106853333Y-84294023D02*
X106853333Y-83817833D01*
X106567619Y-84389261D02*
X107567619Y-84055928D01*
X106567619Y-83722595D01*
X107567619Y-83532119D02*
X107567619Y-82960690D01*
X106567619Y-83246404D02*
X107567619Y-83246404D01*
X106567619Y-82627357D02*
X107567619Y-82627357D01*
X106853333Y-82294023D01*
X107567619Y-81960690D01*
X106567619Y-81960690D01*
X107091428Y-81484500D02*
X107091428Y-81151166D01*
X106567619Y-81008309D02*
X106567619Y-81484500D01*
X107567619Y-81484500D01*
X107567619Y-81008309D01*
X107520000Y-80055928D02*
X107567619Y-80151166D01*
X107567619Y-80294023D01*
X107520000Y-80436880D01*
X107424761Y-80532119D01*
X107329523Y-80579738D01*
X107139047Y-80627357D01*
X106996190Y-80627357D01*
X106805714Y-80579738D01*
X106710476Y-80532119D01*
X106615238Y-80436880D01*
X106567619Y-80294023D01*
X106567619Y-80198785D01*
X106615238Y-80055928D01*
X106662857Y-80008309D01*
X106996190Y-80008309D01*
X106996190Y-80198785D01*
X106853333Y-79627357D02*
X106853333Y-79151166D01*
X106567619Y-79722595D02*
X107567619Y-79389261D01*
X106567619Y-79055928D01*
X107567619Y-78817833D02*
X107567619Y-78198785D01*
X107186666Y-78532119D01*
X107186666Y-78389261D01*
X107139047Y-78294023D01*
X107091428Y-78246404D01*
X106996190Y-78198785D01*
X106758095Y-78198785D01*
X106662857Y-78246404D01*
X106615238Y-78294023D01*
X106567619Y-78389261D01*
X106567619Y-78674976D01*
X106615238Y-78770214D01*
X106662857Y-78817833D01*
X107472380Y-77817833D02*
X107520000Y-77770214D01*
X107567619Y-77674976D01*
X107567619Y-77436880D01*
X107520000Y-77341642D01*
X107472380Y-77294023D01*
X107377142Y-77246404D01*
X107281904Y-77246404D01*
X107139047Y-77294023D01*
X106567619Y-77865452D01*
X106567619Y-77246404D01*
X107139047Y-76674976D02*
X107186666Y-76770214D01*
X107234285Y-76817833D01*
X107329523Y-76865452D01*
X107377142Y-76865452D01*
X107472380Y-76817833D01*
X107520000Y-76770214D01*
X107567619Y-76674976D01*
X107567619Y-76484500D01*
X107520000Y-76389261D01*
X107472380Y-76341642D01*
X107377142Y-76294023D01*
X107329523Y-76294023D01*
X107234285Y-76341642D01*
X107186666Y-76389261D01*
X107139047Y-76484500D01*
X107139047Y-76674976D01*
X107091428Y-76770214D01*
X107043809Y-76817833D01*
X106948571Y-76865452D01*
X106758095Y-76865452D01*
X106662857Y-76817833D01*
X106615238Y-76770214D01*
X106567619Y-76674976D01*
X106567619Y-76484500D01*
X106615238Y-76389261D01*
X106662857Y-76341642D01*
X106758095Y-76294023D01*
X106948571Y-76294023D01*
X107043809Y-76341642D01*
X107091428Y-76389261D01*
X107139047Y-76484500D01*
X106567619Y-75865452D02*
X107567619Y-75865452D01*
X107567619Y-75484500D01*
X107520000Y-75389261D01*
X107472380Y-75341642D01*
X107377142Y-75294023D01*
X107234285Y-75294023D01*
X107139047Y-75341642D01*
X107091428Y-75389261D01*
X107043809Y-75484500D01*
X107043809Y-75865452D01*
X107091428Y-74532119D02*
X107043809Y-74389261D01*
X106996190Y-74341642D01*
X106900952Y-74294023D01*
X106758095Y-74294023D01*
X106662857Y-74341642D01*
X106615238Y-74389261D01*
X106567619Y-74484500D01*
X106567619Y-74865452D01*
X107567619Y-74865452D01*
X107567619Y-74532119D01*
X107520000Y-74436880D01*
X107472380Y-74389261D01*
X107377142Y-74341642D01*
X107281904Y-74341642D01*
X107186666Y-74389261D01*
X107139047Y-74436880D01*
X107091428Y-74532119D01*
X107091428Y-74865452D01*
X107091428Y-72770214D02*
X107043809Y-72627357D01*
X106996190Y-72579738D01*
X106900952Y-72532119D01*
X106758095Y-72532119D01*
X106662857Y-72579738D01*
X106615238Y-72627357D01*
X106567619Y-72722595D01*
X106567619Y-73103547D01*
X107567619Y-73103547D01*
X107567619Y-72770214D01*
X107520000Y-72674976D01*
X107472380Y-72627357D01*
X107377142Y-72579738D01*
X107281904Y-72579738D01*
X107186666Y-72627357D01*
X107139047Y-72674976D01*
X107091428Y-72770214D01*
X107091428Y-73103547D01*
X106567619Y-71532119D02*
X107043809Y-71865452D01*
X106567619Y-72103547D02*
X107567619Y-72103547D01*
X107567619Y-71722595D01*
X107520000Y-71627357D01*
X107472380Y-71579738D01*
X107377142Y-71532119D01*
X107234285Y-71532119D01*
X107139047Y-71579738D01*
X107091428Y-71627357D01*
X107043809Y-71722595D01*
X107043809Y-72103547D01*
X107091428Y-71103547D02*
X107091428Y-70770214D01*
X106567619Y-70627357D02*
X106567619Y-71103547D01*
X107567619Y-71103547D01*
X107567619Y-70627357D01*
X106853333Y-70246404D02*
X106853333Y-69770214D01*
X106567619Y-70341642D02*
X107567619Y-70008309D01*
X106567619Y-69674976D01*
X106567619Y-69341642D02*
X107567619Y-69341642D01*
X106567619Y-68770214D02*
X107139047Y-69198785D01*
X107567619Y-68770214D02*
X106996190Y-69341642D01*
X107567619Y-68151166D02*
X107567619Y-67960690D01*
X107520000Y-67865452D01*
X107424761Y-67770214D01*
X107234285Y-67722595D01*
X106900952Y-67722595D01*
X106710476Y-67770214D01*
X106615238Y-67865452D01*
X106567619Y-67960690D01*
X106567619Y-68151166D01*
X106615238Y-68246404D01*
X106710476Y-68341642D01*
X106900952Y-68389261D01*
X107234285Y-68389261D01*
X107424761Y-68341642D01*
X107520000Y-68246404D01*
X107567619Y-68151166D01*
X107567619Y-67294023D02*
X106758095Y-67294023D01*
X106662857Y-67246404D01*
X106615238Y-67198785D01*
X106567619Y-67103547D01*
X106567619Y-66913071D01*
X106615238Y-66817833D01*
X106662857Y-66770214D01*
X106758095Y-66722595D01*
X107567619Y-66722595D01*
X107567619Y-66389261D02*
X107567619Y-65817833D01*
X106567619Y-66103547D02*
X107567619Y-66103547D01*
X105481428Y-84246404D02*
X105481428Y-83913071D01*
X104957619Y-83770214D02*
X104957619Y-84246404D01*
X105957619Y-84246404D01*
X105957619Y-83770214D01*
X105624285Y-83436880D02*
X105624285Y-82913071D01*
X104957619Y-83436880D01*
X104957619Y-82913071D01*
X105005238Y-82151166D02*
X104957619Y-82246404D01*
X104957619Y-82436880D01*
X105005238Y-82532119D01*
X105100476Y-82579738D01*
X105481428Y-82579738D01*
X105576666Y-82532119D01*
X105624285Y-82436880D01*
X105624285Y-82246404D01*
X105576666Y-82151166D01*
X105481428Y-82103547D01*
X105386190Y-82103547D01*
X105290952Y-82579738D01*
X104957619Y-81674976D02*
X105624285Y-81674976D01*
X105433809Y-81674976D02*
X105529047Y-81627357D01*
X105576666Y-81579738D01*
X105624285Y-81484500D01*
X105624285Y-81389261D01*
X104957619Y-79817833D02*
X104957619Y-80294023D01*
X105957619Y-80294023D01*
X104957619Y-79341642D02*
X105005238Y-79436880D01*
X105052857Y-79484500D01*
X105148095Y-79532119D01*
X105433809Y-79532119D01*
X105529047Y-79484500D01*
X105576666Y-79436880D01*
X105624285Y-79341642D01*
X105624285Y-79198785D01*
X105576666Y-79103547D01*
X105529047Y-79055928D01*
X105433809Y-79008309D01*
X105148095Y-79008309D01*
X105052857Y-79055928D01*
X105005238Y-79103547D01*
X104957619Y-79198785D01*
X104957619Y-79341642D01*
X105624285Y-78579738D02*
X104957619Y-78579738D01*
X105529047Y-78579738D02*
X105576666Y-78532119D01*
X105624285Y-78436880D01*
X105624285Y-78294023D01*
X105576666Y-78198785D01*
X105481428Y-78151166D01*
X104957619Y-78151166D01*
X105624285Y-77246404D02*
X104814761Y-77246404D01*
X104719523Y-77294023D01*
X104671904Y-77341642D01*
X104624285Y-77436880D01*
X104624285Y-77579738D01*
X104671904Y-77674976D01*
X105005238Y-77246404D02*
X104957619Y-77341642D01*
X104957619Y-77532119D01*
X105005238Y-77627357D01*
X105052857Y-77674976D01*
X105148095Y-77722595D01*
X105433809Y-77722595D01*
X105529047Y-77674976D01*
X105576666Y-77627357D01*
X105624285Y-77532119D01*
X105624285Y-77341642D01*
X105576666Y-77246404D01*
X104957619Y-76770214D02*
X105624285Y-76770214D01*
X105957619Y-76770214D02*
X105910000Y-76817833D01*
X105862380Y-76770214D01*
X105910000Y-76722595D01*
X105957619Y-76770214D01*
X105862380Y-76770214D01*
X105624285Y-76294023D02*
X104957619Y-76294023D01*
X105529047Y-76294023D02*
X105576666Y-76246404D01*
X105624285Y-76151166D01*
X105624285Y-76008309D01*
X105576666Y-75913071D01*
X105481428Y-75865452D01*
X104957619Y-75865452D01*
X105624285Y-74960690D02*
X104957619Y-74960690D01*
X105624285Y-75389261D02*
X105100476Y-75389261D01*
X105005238Y-75341642D01*
X104957619Y-75246404D01*
X104957619Y-75103547D01*
X105005238Y-75008309D01*
X105052857Y-74960690D01*
X105005238Y-74532119D02*
X104957619Y-74436880D01*
X104957619Y-74246404D01*
X105005238Y-74151166D01*
X105100476Y-74103547D01*
X105148095Y-74103547D01*
X105243333Y-74151166D01*
X105290952Y-74246404D01*
X105290952Y-74389261D01*
X105338571Y-74484500D01*
X105433809Y-74532119D01*
X105481428Y-74532119D01*
X105576666Y-74484500D01*
X105624285Y-74389261D01*
X105624285Y-74246404D01*
X105576666Y-74151166D01*
X104347619Y-83960690D02*
X103633333Y-83960690D01*
X103490476Y-84008309D01*
X103395238Y-84103547D01*
X103347619Y-84246404D01*
X103347619Y-84341642D01*
X104014285Y-83055928D02*
X103347619Y-83055928D01*
X104014285Y-83484500D02*
X103490476Y-83484500D01*
X103395238Y-83436880D01*
X103347619Y-83341642D01*
X103347619Y-83198785D01*
X103395238Y-83103547D01*
X103442857Y-83055928D01*
X103347619Y-82436880D02*
X103395238Y-82532119D01*
X103490476Y-82579738D01*
X104347619Y-82579738D01*
X104014285Y-82151166D02*
X103347619Y-81913071D01*
X104014285Y-81674976D02*
X103347619Y-81913071D01*
X103109523Y-82008309D01*
X103061904Y-82055928D01*
X103014285Y-82151166D01*
X104252380Y-80579738D02*
X104300000Y-80532119D01*
X104347619Y-80436880D01*
X104347619Y-80198785D01*
X104300000Y-80103547D01*
X104252380Y-80055928D01*
X104157142Y-80008309D01*
X104061904Y-80008309D01*
X103919047Y-80055928D01*
X103347619Y-80627357D01*
X103347619Y-80008309D01*
X104347619Y-79389261D02*
X104347619Y-79294023D01*
X104300000Y-79198785D01*
X104252380Y-79151166D01*
X104157142Y-79103547D01*
X103966666Y-79055928D01*
X103728571Y-79055928D01*
X103538095Y-79103547D01*
X103442857Y-79151166D01*
X103395238Y-79198785D01*
X103347619Y-79294023D01*
X103347619Y-79389261D01*
X103395238Y-79484500D01*
X103442857Y-79532119D01*
X103538095Y-79579738D01*
X103728571Y-79627357D01*
X103966666Y-79627357D01*
X104157142Y-79579738D01*
X104252380Y-79532119D01*
X104300000Y-79484500D01*
X104347619Y-79389261D01*
X104252380Y-78674976D02*
X104300000Y-78627357D01*
X104347619Y-78532119D01*
X104347619Y-78294023D01*
X104300000Y-78198785D01*
X104252380Y-78151166D01*
X104157142Y-78103547D01*
X104061904Y-78103547D01*
X103919047Y-78151166D01*
X103347619Y-78722595D01*
X103347619Y-78103547D01*
X104347619Y-77770214D02*
X104347619Y-77151166D01*
X103966666Y-77484500D01*
X103966666Y-77341642D01*
X103919047Y-77246404D01*
X103871428Y-77198785D01*
X103776190Y-77151166D01*
X103538095Y-77151166D01*
X103442857Y-77198785D01*
X103395238Y-77246404D01*
X103347619Y-77341642D01*
X103347619Y-77627357D01*
X103395238Y-77722595D01*
X103442857Y-77770214D01*
D11*
X111400714Y-48599285D02*
X111400714Y-47849285D01*
X111222142Y-47849285D01*
X111115000Y-47885000D01*
X111043571Y-47956428D01*
X111007857Y-48027857D01*
X110972142Y-48170714D01*
X110972142Y-48277857D01*
X111007857Y-48420714D01*
X111043571Y-48492142D01*
X111115000Y-48563571D01*
X111222142Y-48599285D01*
X111400714Y-48599285D01*
X110257857Y-48599285D02*
X110686428Y-48599285D01*
X110472142Y-48599285D02*
X110472142Y-47849285D01*
X110543571Y-47956428D01*
X110615000Y-48027857D01*
X110686428Y-48063571D01*
X109972142Y-47920714D02*
X109936428Y-47885000D01*
X109865000Y-47849285D01*
X109686428Y-47849285D01*
X109615000Y-47885000D01*
X109579285Y-47920714D01*
X109543571Y-47992142D01*
X109543571Y-48063571D01*
X109579285Y-48170714D01*
X110007857Y-48599285D01*
X109543571Y-48599285D01*
X111400714Y-51139285D02*
X111400714Y-50389285D01*
X111222142Y-50389285D01*
X111115000Y-50425000D01*
X111043571Y-50496428D01*
X111007857Y-50567857D01*
X110972142Y-50710714D01*
X110972142Y-50817857D01*
X111007857Y-50960714D01*
X111043571Y-51032142D01*
X111115000Y-51103571D01*
X111222142Y-51139285D01*
X111400714Y-51139285D01*
X110257857Y-51139285D02*
X110686428Y-51139285D01*
X110472142Y-51139285D02*
X110472142Y-50389285D01*
X110543571Y-50496428D01*
X110615000Y-50567857D01*
X110686428Y-50603571D01*
X109543571Y-51139285D02*
X109972142Y-51139285D01*
X109757857Y-51139285D02*
X109757857Y-50389285D01*
X109829285Y-50496428D01*
X109900714Y-50567857D01*
X109972142Y-50603571D01*
X111400714Y-53679285D02*
X111400714Y-52929285D01*
X111222142Y-52929285D01*
X111115000Y-52965000D01*
X111043571Y-53036428D01*
X111007857Y-53107857D01*
X110972142Y-53250714D01*
X110972142Y-53357857D01*
X111007857Y-53500714D01*
X111043571Y-53572142D01*
X111115000Y-53643571D01*
X111222142Y-53679285D01*
X111400714Y-53679285D01*
X110257857Y-53679285D02*
X110686428Y-53679285D01*
X110472142Y-53679285D02*
X110472142Y-52929285D01*
X110543571Y-53036428D01*
X110615000Y-53107857D01*
X110686428Y-53143571D01*
X109793571Y-52929285D02*
X109722142Y-52929285D01*
X109650714Y-52965000D01*
X109615000Y-53000714D01*
X109579285Y-53072142D01*
X109543571Y-53215000D01*
X109543571Y-53393571D01*
X109579285Y-53536428D01*
X109615000Y-53607857D01*
X109650714Y-53643571D01*
X109722142Y-53679285D01*
X109793571Y-53679285D01*
X109865000Y-53643571D01*
X109900714Y-53607857D01*
X109936428Y-53536428D01*
X109972142Y-53393571D01*
X109972142Y-53215000D01*
X109936428Y-53072142D01*
X109900714Y-53000714D01*
X109865000Y-52965000D01*
X109793571Y-52929285D01*
X111297571Y-56219285D02*
X111297571Y-55469285D01*
X111119000Y-55469285D01*
X111011857Y-55505000D01*
X110940428Y-55576428D01*
X110904714Y-55647857D01*
X110869000Y-55790714D01*
X110869000Y-55897857D01*
X110904714Y-56040714D01*
X110940428Y-56112142D01*
X111011857Y-56183571D01*
X111119000Y-56219285D01*
X111297571Y-56219285D01*
X110511857Y-56219285D02*
X110369000Y-56219285D01*
X110297571Y-56183571D01*
X110261857Y-56147857D01*
X110190428Y-56040714D01*
X110154714Y-55897857D01*
X110154714Y-55612142D01*
X110190428Y-55540714D01*
X110226142Y-55505000D01*
X110297571Y-55469285D01*
X110440428Y-55469285D01*
X110511857Y-55505000D01*
X110547571Y-55540714D01*
X110583285Y-55612142D01*
X110583285Y-55790714D01*
X110547571Y-55862142D01*
X110511857Y-55897857D01*
X110440428Y-55933571D01*
X110297571Y-55933571D01*
X110226142Y-55897857D01*
X110190428Y-55862142D01*
X110154714Y-55790714D01*
X111297571Y-58759285D02*
X111297571Y-58009285D01*
X111119000Y-58009285D01*
X111011857Y-58045000D01*
X110940428Y-58116428D01*
X110904714Y-58187857D01*
X110869000Y-58330714D01*
X110869000Y-58437857D01*
X110904714Y-58580714D01*
X110940428Y-58652142D01*
X111011857Y-58723571D01*
X111119000Y-58759285D01*
X111297571Y-58759285D01*
X110440428Y-58330714D02*
X110511857Y-58295000D01*
X110547571Y-58259285D01*
X110583285Y-58187857D01*
X110583285Y-58152142D01*
X110547571Y-58080714D01*
X110511857Y-58045000D01*
X110440428Y-58009285D01*
X110297571Y-58009285D01*
X110226142Y-58045000D01*
X110190428Y-58080714D01*
X110154714Y-58152142D01*
X110154714Y-58187857D01*
X110190428Y-58259285D01*
X110226142Y-58295000D01*
X110297571Y-58330714D01*
X110440428Y-58330714D01*
X110511857Y-58366428D01*
X110547571Y-58402142D01*
X110583285Y-58473571D01*
X110583285Y-58616428D01*
X110547571Y-58687857D01*
X110511857Y-58723571D01*
X110440428Y-58759285D01*
X110297571Y-58759285D01*
X110226142Y-58723571D01*
X110190428Y-58687857D01*
X110154714Y-58616428D01*
X110154714Y-58473571D01*
X110190428Y-58402142D01*
X110226142Y-58366428D01*
X110297571Y-58330714D01*
X111297571Y-61299285D02*
X111297571Y-60549285D01*
X111119000Y-60549285D01*
X111011857Y-60585000D01*
X110940428Y-60656428D01*
X110904714Y-60727857D01*
X110869000Y-60870714D01*
X110869000Y-60977857D01*
X110904714Y-61120714D01*
X110940428Y-61192142D01*
X111011857Y-61263571D01*
X111119000Y-61299285D01*
X111297571Y-61299285D01*
X110619000Y-60549285D02*
X110119000Y-60549285D01*
X110440428Y-61299285D01*
X111297571Y-63839285D02*
X111297571Y-63089285D01*
X111119000Y-63089285D01*
X111011857Y-63125000D01*
X110940428Y-63196428D01*
X110904714Y-63267857D01*
X110869000Y-63410714D01*
X110869000Y-63517857D01*
X110904714Y-63660714D01*
X110940428Y-63732142D01*
X111011857Y-63803571D01*
X111119000Y-63839285D01*
X111297571Y-63839285D01*
X110226142Y-63089285D02*
X110369000Y-63089285D01*
X110440428Y-63125000D01*
X110476142Y-63160714D01*
X110547571Y-63267857D01*
X110583285Y-63410714D01*
X110583285Y-63696428D01*
X110547571Y-63767857D01*
X110511857Y-63803571D01*
X110440428Y-63839285D01*
X110297571Y-63839285D01*
X110226142Y-63803571D01*
X110190428Y-63767857D01*
X110154714Y-63696428D01*
X110154714Y-63517857D01*
X110190428Y-63446428D01*
X110226142Y-63410714D01*
X110297571Y-63375000D01*
X110440428Y-63375000D01*
X110511857Y-63410714D01*
X110547571Y-63446428D01*
X110583285Y-63517857D01*
X111297571Y-66379285D02*
X111297571Y-65629285D01*
X111119000Y-65629285D01*
X111011857Y-65665000D01*
X110940428Y-65736428D01*
X110904714Y-65807857D01*
X110869000Y-65950714D01*
X110869000Y-66057857D01*
X110904714Y-66200714D01*
X110940428Y-66272142D01*
X111011857Y-66343571D01*
X111119000Y-66379285D01*
X111297571Y-66379285D01*
X110190428Y-65629285D02*
X110547571Y-65629285D01*
X110583285Y-65986428D01*
X110547571Y-65950714D01*
X110476142Y-65915000D01*
X110297571Y-65915000D01*
X110226142Y-65950714D01*
X110190428Y-65986428D01*
X110154714Y-66057857D01*
X110154714Y-66236428D01*
X110190428Y-66307857D01*
X110226142Y-66343571D01*
X110297571Y-66379285D01*
X110476142Y-66379285D01*
X110547571Y-66343571D01*
X110583285Y-66307857D01*
X111297571Y-68919285D02*
X111297571Y-68169285D01*
X111119000Y-68169285D01*
X111011857Y-68205000D01*
X110940428Y-68276428D01*
X110904714Y-68347857D01*
X110869000Y-68490714D01*
X110869000Y-68597857D01*
X110904714Y-68740714D01*
X110940428Y-68812142D01*
X111011857Y-68883571D01*
X111119000Y-68919285D01*
X111297571Y-68919285D01*
X110226142Y-68419285D02*
X110226142Y-68919285D01*
X110404714Y-68133571D02*
X110583285Y-68669285D01*
X110119000Y-68669285D01*
X111297571Y-71459285D02*
X111297571Y-70709285D01*
X111119000Y-70709285D01*
X111011857Y-70745000D01*
X110940428Y-70816428D01*
X110904714Y-70887857D01*
X110869000Y-71030714D01*
X110869000Y-71137857D01*
X110904714Y-71280714D01*
X110940428Y-71352142D01*
X111011857Y-71423571D01*
X111119000Y-71459285D01*
X111297571Y-71459285D01*
X110619000Y-70709285D02*
X110154714Y-70709285D01*
X110404714Y-70995000D01*
X110297571Y-70995000D01*
X110226142Y-71030714D01*
X110190428Y-71066428D01*
X110154714Y-71137857D01*
X110154714Y-71316428D01*
X110190428Y-71387857D01*
X110226142Y-71423571D01*
X110297571Y-71459285D01*
X110511857Y-71459285D01*
X110583285Y-71423571D01*
X110619000Y-71387857D01*
X111297571Y-73999285D02*
X111297571Y-73249285D01*
X111119000Y-73249285D01*
X111011857Y-73285000D01*
X110940428Y-73356428D01*
X110904714Y-73427857D01*
X110869000Y-73570714D01*
X110869000Y-73677857D01*
X110904714Y-73820714D01*
X110940428Y-73892142D01*
X111011857Y-73963571D01*
X111119000Y-73999285D01*
X111297571Y-73999285D01*
X110583285Y-73320714D02*
X110547571Y-73285000D01*
X110476142Y-73249285D01*
X110297571Y-73249285D01*
X110226142Y-73285000D01*
X110190428Y-73320714D01*
X110154714Y-73392142D01*
X110154714Y-73463571D01*
X110190428Y-73570714D01*
X110619000Y-73999285D01*
X110154714Y-73999285D01*
X111297571Y-76539285D02*
X111297571Y-75789285D01*
X111119000Y-75789285D01*
X111011857Y-75825000D01*
X110940428Y-75896428D01*
X110904714Y-75967857D01*
X110869000Y-76110714D01*
X110869000Y-76217857D01*
X110904714Y-76360714D01*
X110940428Y-76432142D01*
X111011857Y-76503571D01*
X111119000Y-76539285D01*
X111297571Y-76539285D01*
X110154714Y-76539285D02*
X110583285Y-76539285D01*
X110369000Y-76539285D02*
X110369000Y-75789285D01*
X110440428Y-75896428D01*
X110511857Y-75967857D01*
X110583285Y-76003571D01*
X111297571Y-79333285D02*
X111297571Y-78583285D01*
X111119000Y-78583285D01*
X111011857Y-78619000D01*
X110940428Y-78690428D01*
X110904714Y-78761857D01*
X110869000Y-78904714D01*
X110869000Y-79011857D01*
X110904714Y-79154714D01*
X110940428Y-79226142D01*
X111011857Y-79297571D01*
X111119000Y-79333285D01*
X111297571Y-79333285D01*
X110404714Y-78583285D02*
X110333285Y-78583285D01*
X110261857Y-78619000D01*
X110226142Y-78654714D01*
X110190428Y-78726142D01*
X110154714Y-78869000D01*
X110154714Y-79047571D01*
X110190428Y-79190428D01*
X110226142Y-79261857D01*
X110261857Y-79297571D01*
X110333285Y-79333285D01*
X110404714Y-79333285D01*
X110476142Y-79297571D01*
X110511857Y-79261857D01*
X110547571Y-79190428D01*
X110583285Y-79047571D01*
X110583285Y-78869000D01*
X110547571Y-78726142D01*
X110511857Y-78654714D01*
X110476142Y-78619000D01*
X110404714Y-78583285D01*
X111507857Y-80911500D02*
X110757857Y-80911500D01*
X110900714Y-81873285D02*
X111150714Y-81516142D01*
X111329285Y-81873285D02*
X111329285Y-81123285D01*
X111043571Y-81123285D01*
X110972142Y-81159000D01*
X110936428Y-81194714D01*
X110900714Y-81266142D01*
X110900714Y-81373285D01*
X110936428Y-81444714D01*
X110972142Y-81480428D01*
X111043571Y-81516142D01*
X111329285Y-81516142D01*
X110757857Y-80911500D02*
X110043571Y-80911500D01*
X110615000Y-81837571D02*
X110507857Y-81873285D01*
X110329285Y-81873285D01*
X110257857Y-81837571D01*
X110222142Y-81801857D01*
X110186428Y-81730428D01*
X110186428Y-81659000D01*
X110222142Y-81587571D01*
X110257857Y-81551857D01*
X110329285Y-81516142D01*
X110472142Y-81480428D01*
X110543571Y-81444714D01*
X110579285Y-81409000D01*
X110615000Y-81337571D01*
X110615000Y-81266142D01*
X110579285Y-81194714D01*
X110543571Y-81159000D01*
X110472142Y-81123285D01*
X110293571Y-81123285D01*
X110186428Y-81159000D01*
X110043571Y-80911500D02*
X109472142Y-80911500D01*
X109972142Y-81123285D02*
X109543571Y-81123285D01*
X109757857Y-81873285D02*
X109757857Y-81123285D01*
X111061428Y-83445000D02*
X111132857Y-83409285D01*
X111240000Y-83409285D01*
X111347142Y-83445000D01*
X111418571Y-83516428D01*
X111454285Y-83587857D01*
X111490000Y-83730714D01*
X111490000Y-83837857D01*
X111454285Y-83980714D01*
X111418571Y-84052142D01*
X111347142Y-84123571D01*
X111240000Y-84159285D01*
X111168571Y-84159285D01*
X111061428Y-84123571D01*
X111025714Y-84087857D01*
X111025714Y-83837857D01*
X111168571Y-83837857D01*
X110704285Y-84159285D02*
X110704285Y-83409285D01*
X110275714Y-84159285D01*
X110275714Y-83409285D01*
X109918571Y-84159285D02*
X109918571Y-83409285D01*
X109740000Y-83409285D01*
X109632857Y-83445000D01*
X109561428Y-83516428D01*
X109525714Y-83587857D01*
X109490000Y-83730714D01*
X109490000Y-83837857D01*
X109525714Y-83980714D01*
X109561428Y-84052142D01*
X109632857Y-84123571D01*
X109740000Y-84159285D01*
X109918571Y-84159285D01*
X101151428Y-83409285D02*
X100901428Y-84159285D01*
X100651428Y-83409285D01*
X100401428Y-84159285D02*
X100401428Y-83409285D01*
X100044285Y-84159285D02*
X100044285Y-83409285D01*
X99615714Y-84159285D01*
X99615714Y-83409285D01*
X100901428Y-80905000D02*
X100972857Y-80869285D01*
X101080000Y-80869285D01*
X101187142Y-80905000D01*
X101258571Y-80976428D01*
X101294285Y-81047857D01*
X101330000Y-81190714D01*
X101330000Y-81297857D01*
X101294285Y-81440714D01*
X101258571Y-81512142D01*
X101187142Y-81583571D01*
X101080000Y-81619285D01*
X101008571Y-81619285D01*
X100901428Y-81583571D01*
X100865714Y-81547857D01*
X100865714Y-81297857D01*
X101008571Y-81297857D01*
X100544285Y-81619285D02*
X100544285Y-80869285D01*
X100115714Y-81619285D01*
X100115714Y-80869285D01*
X99758571Y-81619285D02*
X99758571Y-80869285D01*
X99580000Y-80869285D01*
X99472857Y-80905000D01*
X99401428Y-80976428D01*
X99365714Y-81047857D01*
X99330000Y-81190714D01*
X99330000Y-81297857D01*
X99365714Y-81440714D01*
X99401428Y-81512142D01*
X99472857Y-81583571D01*
X99580000Y-81619285D01*
X99758571Y-81619285D01*
X101330000Y-78329285D02*
X101080000Y-79079285D01*
X100830000Y-78329285D01*
X100151428Y-79007857D02*
X100187142Y-79043571D01*
X100294285Y-79079285D01*
X100365714Y-79079285D01*
X100472857Y-79043571D01*
X100544285Y-78972142D01*
X100580000Y-78900714D01*
X100615714Y-78757857D01*
X100615714Y-78650714D01*
X100580000Y-78507857D01*
X100544285Y-78436428D01*
X100472857Y-78365000D01*
X100365714Y-78329285D01*
X100294285Y-78329285D01*
X100187142Y-78365000D01*
X100151428Y-78400714D01*
X99401428Y-79007857D02*
X99437142Y-79043571D01*
X99544285Y-79079285D01*
X99615714Y-79079285D01*
X99722857Y-79043571D01*
X99794285Y-78972142D01*
X99830000Y-78900714D01*
X99865714Y-78757857D01*
X99865714Y-78650714D01*
X99830000Y-78507857D01*
X99794285Y-78436428D01*
X99722857Y-78365000D01*
X99615714Y-78329285D01*
X99544285Y-78329285D01*
X99437142Y-78365000D01*
X99401428Y-78400714D01*
X101798285Y-76325000D02*
X101441142Y-76325000D01*
X101869714Y-76539285D02*
X101619714Y-75789285D01*
X101369714Y-76539285D01*
X100691142Y-76539285D02*
X100941142Y-76182142D01*
X101119714Y-76539285D02*
X101119714Y-75789285D01*
X100834000Y-75789285D01*
X100762571Y-75825000D01*
X100726857Y-75860714D01*
X100691142Y-75932142D01*
X100691142Y-76039285D01*
X100726857Y-76110714D01*
X100762571Y-76146428D01*
X100834000Y-76182142D01*
X101119714Y-76182142D01*
X100369714Y-76146428D02*
X100119714Y-76146428D01*
X100012571Y-76539285D02*
X100369714Y-76539285D01*
X100369714Y-75789285D01*
X100012571Y-75789285D01*
X99441142Y-76146428D02*
X99691142Y-76146428D01*
X99691142Y-76539285D02*
X99691142Y-75789285D01*
X99334000Y-75789285D01*
X100611714Y-73785000D02*
X100254571Y-73785000D01*
X100683142Y-73999285D02*
X100433142Y-73249285D01*
X100183142Y-73999285D01*
X100004571Y-73249285D02*
X99504571Y-73249285D01*
X99826000Y-73999285D01*
X100611714Y-71245000D02*
X100254571Y-71245000D01*
X100683142Y-71459285D02*
X100433142Y-70709285D01*
X100183142Y-71459285D01*
X99611714Y-70709285D02*
X99754571Y-70709285D01*
X99826000Y-70745000D01*
X99861714Y-70780714D01*
X99933142Y-70887857D01*
X99968857Y-71030714D01*
X99968857Y-71316428D01*
X99933142Y-71387857D01*
X99897428Y-71423571D01*
X99826000Y-71459285D01*
X99683142Y-71459285D01*
X99611714Y-71423571D01*
X99576000Y-71387857D01*
X99540285Y-71316428D01*
X99540285Y-71137857D01*
X99576000Y-71066428D01*
X99611714Y-71030714D01*
X99683142Y-70995000D01*
X99826000Y-70995000D01*
X99897428Y-71030714D01*
X99933142Y-71066428D01*
X99968857Y-71137857D01*
X100611714Y-68705000D02*
X100254571Y-68705000D01*
X100683142Y-68919285D02*
X100433142Y-68169285D01*
X100183142Y-68919285D01*
X99576000Y-68169285D02*
X99933142Y-68169285D01*
X99968857Y-68526428D01*
X99933142Y-68490714D01*
X99861714Y-68455000D01*
X99683142Y-68455000D01*
X99611714Y-68490714D01*
X99576000Y-68526428D01*
X99540285Y-68597857D01*
X99540285Y-68776428D01*
X99576000Y-68847857D01*
X99611714Y-68883571D01*
X99683142Y-68919285D01*
X99861714Y-68919285D01*
X99933142Y-68883571D01*
X99968857Y-68847857D01*
X100611714Y-66165000D02*
X100254571Y-66165000D01*
X100683142Y-66379285D02*
X100433142Y-65629285D01*
X100183142Y-66379285D01*
X99611714Y-65879285D02*
X99611714Y-66379285D01*
X99790285Y-65593571D02*
X99968857Y-66129285D01*
X99504571Y-66129285D01*
X100611714Y-63625000D02*
X100254571Y-63625000D01*
X100683142Y-63839285D02*
X100433142Y-63089285D01*
X100183142Y-63839285D01*
X100004571Y-63089285D02*
X99540285Y-63089285D01*
X99790285Y-63375000D01*
X99683142Y-63375000D01*
X99611714Y-63410714D01*
X99576000Y-63446428D01*
X99540285Y-63517857D01*
X99540285Y-63696428D01*
X99576000Y-63767857D01*
X99611714Y-63803571D01*
X99683142Y-63839285D01*
X99897428Y-63839285D01*
X99968857Y-63803571D01*
X100004571Y-63767857D01*
X100611714Y-61085000D02*
X100254571Y-61085000D01*
X100683142Y-61299285D02*
X100433142Y-60549285D01*
X100183142Y-61299285D01*
X99968857Y-60620714D02*
X99933142Y-60585000D01*
X99861714Y-60549285D01*
X99683142Y-60549285D01*
X99611714Y-60585000D01*
X99576000Y-60620714D01*
X99540285Y-60692142D01*
X99540285Y-60763571D01*
X99576000Y-60870714D01*
X100004571Y-61299285D01*
X99540285Y-61299285D01*
X100611714Y-58545000D02*
X100254571Y-58545000D01*
X100683142Y-58759285D02*
X100433142Y-58009285D01*
X100183142Y-58759285D01*
X99540285Y-58759285D02*
X99968857Y-58759285D01*
X99754571Y-58759285D02*
X99754571Y-58009285D01*
X99826000Y-58116428D01*
X99897428Y-58187857D01*
X99968857Y-58223571D01*
X100611714Y-56005000D02*
X100254571Y-56005000D01*
X100683142Y-56219285D02*
X100433142Y-55469285D01*
X100183142Y-56219285D01*
X99790285Y-55469285D02*
X99718857Y-55469285D01*
X99647428Y-55505000D01*
X99611714Y-55540714D01*
X99576000Y-55612142D01*
X99540285Y-55755000D01*
X99540285Y-55933571D01*
X99576000Y-56076428D01*
X99611714Y-56147857D01*
X99647428Y-56183571D01*
X99718857Y-56219285D01*
X99790285Y-56219285D01*
X99861714Y-56183571D01*
X99897428Y-56147857D01*
X99933142Y-56076428D01*
X99968857Y-55933571D01*
X99968857Y-55755000D01*
X99933142Y-55612142D01*
X99897428Y-55540714D01*
X99861714Y-55505000D01*
X99790285Y-55469285D01*
X101834000Y-53643571D02*
X101726857Y-53679285D01*
X101548285Y-53679285D01*
X101476857Y-53643571D01*
X101441142Y-53607857D01*
X101405428Y-53536428D01*
X101405428Y-53465000D01*
X101441142Y-53393571D01*
X101476857Y-53357857D01*
X101548285Y-53322142D01*
X101691142Y-53286428D01*
X101762571Y-53250714D01*
X101798285Y-53215000D01*
X101834000Y-53143571D01*
X101834000Y-53072142D01*
X101798285Y-53000714D01*
X101762571Y-52965000D01*
X101691142Y-52929285D01*
X101512571Y-52929285D01*
X101405428Y-52965000D01*
X100655428Y-53607857D02*
X100691142Y-53643571D01*
X100798285Y-53679285D01*
X100869714Y-53679285D01*
X100976857Y-53643571D01*
X101048285Y-53572142D01*
X101084000Y-53500714D01*
X101119714Y-53357857D01*
X101119714Y-53250714D01*
X101084000Y-53107857D01*
X101048285Y-53036428D01*
X100976857Y-52965000D01*
X100869714Y-52929285D01*
X100798285Y-52929285D01*
X100691142Y-52965000D01*
X100655428Y-53000714D01*
X99976857Y-53679285D02*
X100334000Y-53679285D01*
X100334000Y-52929285D01*
X99334000Y-53679285D02*
X99762571Y-53679285D01*
X99548285Y-53679285D02*
X99548285Y-52929285D01*
X99619714Y-53036428D01*
X99691142Y-53107857D01*
X99762571Y-53143571D01*
X101851857Y-51103571D02*
X101744714Y-51139285D01*
X101566142Y-51139285D01*
X101494714Y-51103571D01*
X101459000Y-51067857D01*
X101423285Y-50996428D01*
X101423285Y-50925000D01*
X101459000Y-50853571D01*
X101494714Y-50817857D01*
X101566142Y-50782142D01*
X101709000Y-50746428D01*
X101780428Y-50710714D01*
X101816142Y-50675000D01*
X101851857Y-50603571D01*
X101851857Y-50532142D01*
X101816142Y-50460714D01*
X101780428Y-50425000D01*
X101709000Y-50389285D01*
X101530428Y-50389285D01*
X101423285Y-50425000D01*
X101101857Y-51139285D02*
X101101857Y-50389285D01*
X100923285Y-50389285D01*
X100816142Y-50425000D01*
X100744714Y-50496428D01*
X100709000Y-50567857D01*
X100673285Y-50710714D01*
X100673285Y-50817857D01*
X100709000Y-50960714D01*
X100744714Y-51032142D01*
X100816142Y-51103571D01*
X100923285Y-51139285D01*
X101101857Y-51139285D01*
X100387571Y-50925000D02*
X100030428Y-50925000D01*
X100459000Y-51139285D02*
X100209000Y-50389285D01*
X99959000Y-51139285D01*
X99316142Y-51139285D02*
X99744714Y-51139285D01*
X99530428Y-51139285D02*
X99530428Y-50389285D01*
X99601857Y-50496428D01*
X99673285Y-50567857D01*
X99744714Y-50603571D01*
X101240714Y-48599285D02*
X101240714Y-47849285D01*
X101062142Y-47849285D01*
X100955000Y-47885000D01*
X100883571Y-47956428D01*
X100847857Y-48027857D01*
X100812142Y-48170714D01*
X100812142Y-48277857D01*
X100847857Y-48420714D01*
X100883571Y-48492142D01*
X100955000Y-48563571D01*
X101062142Y-48599285D01*
X101240714Y-48599285D01*
X100097857Y-48599285D02*
X100526428Y-48599285D01*
X100312142Y-48599285D02*
X100312142Y-47849285D01*
X100383571Y-47956428D01*
X100455000Y-48027857D01*
X100526428Y-48063571D01*
X99847857Y-47849285D02*
X99383571Y-47849285D01*
X99633571Y-48135000D01*
X99526428Y-48135000D01*
X99455000Y-48170714D01*
X99419285Y-48206428D01*
X99383571Y-48277857D01*
X99383571Y-48456428D01*
X99419285Y-48527857D01*
X99455000Y-48563571D01*
X99526428Y-48599285D01*
X99740714Y-48599285D01*
X99812142Y-48563571D01*
X99847857Y-48527857D01*
M02*
