%TF.GenerationSoftware,KiCad,Pcbnew,(6.0.7)*%
%TF.CreationDate,2023-07-03T12:47:38-04:00*%
%TF.ProjectId,atmega328pb_v2_breakout,61746d65-6761-4333-9238-70625f76325f,rev?*%
%TF.SameCoordinates,Original*%
%TF.FileFunction,Soldermask,Bot*%
%TF.FilePolarity,Negative*%
%FSLAX46Y46*%
G04 Gerber Fmt 4.6, Leading zero omitted, Abs format (unit mm)*
G04 Created by KiCad (PCBNEW (6.0.7)) date 2023-07-03 12:47:38*
%MOMM*%
%LPD*%
G01*
G04 APERTURE LIST*
%ADD10R,1.700000X1.700000*%
%ADD11O,1.700000X1.700000*%
G04 APERTURE END LIST*
D10*
%TO.C,J1*%
X102885000Y-50805000D03*
D11*
X102885000Y-48265000D03*
X105425000Y-50805000D03*
X105425000Y-48265000D03*
X107965000Y-50805000D03*
X107965000Y-48265000D03*
%TD*%
D10*
%TO.C,J3*%
X113030000Y-83820000D03*
D11*
X113030000Y-81280000D03*
X113030000Y-78740000D03*
X113030000Y-76200000D03*
X113030000Y-73660000D03*
X113030000Y-71120000D03*
X113030000Y-68580000D03*
X113030000Y-66040000D03*
X113030000Y-63500000D03*
X113030000Y-60960000D03*
X113030000Y-58420000D03*
X113030000Y-55880000D03*
X113030000Y-53340000D03*
X113030000Y-50800000D03*
X113030000Y-48260000D03*
%TD*%
D10*
%TO.C,J4*%
X99060000Y-86995000D03*
D11*
X101600000Y-86995000D03*
X104140000Y-86995000D03*
X106680000Y-86995000D03*
X109220000Y-86995000D03*
X111760000Y-86995000D03*
%TD*%
D10*
%TO.C,J2*%
X97790000Y-83820000D03*
D11*
X97790000Y-81280000D03*
X97790000Y-78740000D03*
X97790000Y-76200000D03*
X97790000Y-73660000D03*
X97790000Y-71120000D03*
X97790000Y-68580000D03*
X97790000Y-66040000D03*
X97790000Y-63500000D03*
X97790000Y-60960000D03*
X97790000Y-58420000D03*
X97790000Y-55880000D03*
X97790000Y-53340000D03*
X97790000Y-50800000D03*
X97790000Y-48260000D03*
%TD*%
M02*
