%TF.GenerationSoftware,KiCad,Pcbnew,(6.0.7)*%
%TF.CreationDate,2023-07-03T12:47:38-04:00*%
%TF.ProjectId,atmega328pb_v2_breakout,61746d65-6761-4333-9238-70625f76325f,rev?*%
%TF.SameCoordinates,Original*%
%TF.FileFunction,Copper,L1,Top*%
%TF.FilePolarity,Positive*%
%FSLAX46Y46*%
G04 Gerber Fmt 4.6, Leading zero omitted, Abs format (unit mm)*
G04 Created by KiCad (PCBNEW (6.0.7)) date 2023-07-03 12:47:38*
%MOMM*%
%LPD*%
G01*
G04 APERTURE LIST*
G04 Aperture macros list*
%AMRoundRect*
0 Rectangle with rounded corners*
0 $1 Rounding radius*
0 $2 $3 $4 $5 $6 $7 $8 $9 X,Y pos of 4 corners*
0 Add a 4 corners polygon primitive as box body*
4,1,4,$2,$3,$4,$5,$6,$7,$8,$9,$2,$3,0*
0 Add four circle primitives for the rounded corners*
1,1,$1+$1,$2,$3*
1,1,$1+$1,$4,$5*
1,1,$1+$1,$6,$7*
1,1,$1+$1,$8,$9*
0 Add four rect primitives between the rounded corners*
20,1,$1+$1,$2,$3,$4,$5,0*
20,1,$1+$1,$4,$5,$6,$7,0*
20,1,$1+$1,$6,$7,$8,$9,0*
20,1,$1+$1,$8,$9,$2,$3,0*%
%AMRotRect*
0 Rectangle, with rotation*
0 The origin of the aperture is its center*
0 $1 length*
0 $2 width*
0 $3 Rotation angle, in degrees counterclockwise*
0 Add horizontal line*
21,1,$1,$2,0,0,$3*%
G04 Aperture macros list end*
%TA.AperFunction,SMDPad,CuDef*%
%ADD10R,0.400000X1.900000*%
%TD*%
%TA.AperFunction,SMDPad,CuDef*%
%ADD11RotRect,1.600000X0.550000X135.000000*%
%TD*%
%TA.AperFunction,SMDPad,CuDef*%
%ADD12RotRect,1.600000X0.550000X225.000000*%
%TD*%
%TA.AperFunction,SMDPad,CuDef*%
%ADD13RoundRect,0.243750X0.456250X-0.243750X0.456250X0.243750X-0.456250X0.243750X-0.456250X-0.243750X0*%
%TD*%
%TA.AperFunction,SMDPad,CuDef*%
%ADD14R,0.900000X1.700000*%
%TD*%
%TA.AperFunction,SMDPad,CuDef*%
%ADD15RoundRect,0.150000X-0.512500X-0.150000X0.512500X-0.150000X0.512500X0.150000X-0.512500X0.150000X0*%
%TD*%
%TA.AperFunction,ComponentPad*%
%ADD16R,1.700000X1.700000*%
%TD*%
%TA.AperFunction,ComponentPad*%
%ADD17O,1.700000X1.700000*%
%TD*%
%TA.AperFunction,SMDPad,CuDef*%
%ADD18RoundRect,0.243750X-0.456250X0.243750X-0.456250X-0.243750X0.456250X-0.243750X0.456250X0.243750X0*%
%TD*%
%TA.AperFunction,SMDPad,CuDef*%
%ADD19RoundRect,0.237500X-0.300000X-0.237500X0.300000X-0.237500X0.300000X0.237500X-0.300000X0.237500X0*%
%TD*%
%TA.AperFunction,SMDPad,CuDef*%
%ADD20RoundRect,0.237500X0.237500X-0.250000X0.237500X0.250000X-0.237500X0.250000X-0.237500X-0.250000X0*%
%TD*%
%TA.AperFunction,SMDPad,CuDef*%
%ADD21RoundRect,0.237500X-0.237500X0.300000X-0.237500X-0.300000X0.237500X-0.300000X0.237500X0.300000X0*%
%TD*%
%TA.AperFunction,SMDPad,CuDef*%
%ADD22RoundRect,0.237500X0.237500X-0.300000X0.237500X0.300000X-0.237500X0.300000X-0.237500X-0.300000X0*%
%TD*%
%TA.AperFunction,SMDPad,CuDef*%
%ADD23RoundRect,0.237500X-0.237500X0.250000X-0.237500X-0.250000X0.237500X-0.250000X0.237500X0.250000X0*%
%TD*%
%TA.AperFunction,SMDPad,CuDef*%
%ADD24RoundRect,0.250000X-0.275000X-0.350000X0.275000X-0.350000X0.275000X0.350000X-0.275000X0.350000X0*%
%TD*%
%TA.AperFunction,ViaPad*%
%ADD25C,0.800000*%
%TD*%
%TA.AperFunction,Conductor*%
%ADD26C,0.250000*%
%TD*%
%TA.AperFunction,Conductor*%
%ADD27C,0.400000*%
%TD*%
G04 APERTURE END LIST*
D10*
%TO.P,Y1,1,1*%
%TO.N,Net-(U1-Pad8)*%
X110350000Y-77470000D03*
%TO.P,Y1,2,2*%
%TO.N,GND*%
X109150000Y-77470000D03*
%TO.P,Y1,3,3*%
%TO.N,Net-(U1-Pad7)*%
X107950000Y-77470000D03*
%TD*%
D11*
%TO.P,U1,1,PD3*%
%TO.N,D03*%
X106435305Y-74835103D03*
%TO.P,U1,2,PD4*%
%TO.N,D04*%
X107000990Y-74269417D03*
%TO.P,U1,3,PE0*%
%TO.N,SDA1*%
X107566676Y-73703732D03*
%TO.P,U1,4,VCC*%
%TO.N,VDD*%
X108132361Y-73138047D03*
%TO.P,U1,5,GND*%
%TO.N,GND*%
X108698047Y-72572361D03*
%TO.P,U1,6,PE1*%
%TO.N,SCL1*%
X109263732Y-72006676D03*
%TO.P,U1,7,XTAL1/PB6*%
%TO.N,Net-(U1-Pad7)*%
X109829417Y-71440990D03*
%TO.P,U1,8,XTAL2/PB7*%
%TO.N,Net-(U1-Pad8)*%
X110395103Y-70875305D03*
D12*
%TO.P,U1,9,PD5*%
%TO.N,D05*%
X110395103Y-68824695D03*
%TO.P,U1,10,PD6*%
%TO.N,D06*%
X109829417Y-68259010D03*
%TO.P,U1,11,PD7*%
%TO.N,D07*%
X109263732Y-67693324D03*
%TO.P,U1,12,PB0*%
%TO.N,D08*%
X108698047Y-67127639D03*
%TO.P,U1,13,PB1*%
%TO.N,D09*%
X108132361Y-66561953D03*
%TO.P,U1,14,PB2*%
%TO.N,D10*%
X107566676Y-65996268D03*
%TO.P,U1,15,PB3*%
%TO.N,D11*%
X107000990Y-65430583D03*
%TO.P,U1,16,PB4*%
%TO.N,D12*%
X106435305Y-64864897D03*
D11*
%TO.P,U1,17,PB5*%
%TO.N,D13*%
X104384695Y-64864897D03*
%TO.P,U1,18,AVCC*%
%TO.N,VDDA*%
X103819010Y-65430583D03*
%TO.P,U1,19,PE2*%
%TO.N,A06*%
X103253324Y-65996268D03*
%TO.P,U1,20,AREF*%
%TO.N,AREF*%
X102687639Y-66561953D03*
%TO.P,U1,21,GND*%
%TO.N,GND*%
X102121953Y-67127639D03*
%TO.P,U1,22,PE3*%
%TO.N,A07*%
X101556268Y-67693324D03*
%TO.P,U1,23,PC0*%
%TO.N,A00*%
X100990583Y-68259010D03*
%TO.P,U1,24,PC1*%
%TO.N,A01*%
X100424897Y-68824695D03*
D12*
%TO.P,U1,25,PC2*%
%TO.N,A02*%
X100424897Y-70875305D03*
%TO.P,U1,26,PC3*%
%TO.N,A03*%
X100990583Y-71440990D03*
%TO.P,U1,27,PC4*%
%TO.N,A04*%
X101556268Y-72006676D03*
%TO.P,U1,28,PC5*%
%TO.N,A05*%
X102121953Y-72572361D03*
%TO.P,U1,29,~{RESET}/PC6*%
%TO.N,~{RST}*%
X102687639Y-73138047D03*
%TO.P,U1,30,PD0*%
%TO.N,D00*%
X103253324Y-73703732D03*
%TO.P,U1,31,PD1*%
%TO.N,D01*%
X103819010Y-74269417D03*
%TO.P,U1,32,PD2*%
%TO.N,D02*%
X104384695Y-74835103D03*
%TD*%
D13*
%TO.P,D2,1,K*%
%TO.N,Net-(D2-Pad1)*%
X101600000Y-59357500D03*
%TO.P,D2,2,A*%
%TO.N,D13*%
X101600000Y-57482500D03*
%TD*%
D14*
%TO.P,SW1,1,1*%
%TO.N,~{RST}*%
X103710000Y-54610000D03*
%TO.P,SW1,2,2*%
%TO.N,GND*%
X107110000Y-54610000D03*
%TD*%
D15*
%TO.P,U2,1,VIN*%
%TO.N,VCC*%
X102870000Y-81600000D03*
%TO.P,U2,2,GND*%
%TO.N,GND*%
X102870000Y-82550000D03*
%TO.P,U2,3,ON/~{OFF}*%
%TO.N,VCC*%
X102870000Y-83500000D03*
%TO.P,U2,4,BP*%
%TO.N,Net-(C6-Pad2)*%
X105145000Y-83500000D03*
%TO.P,U2,5,VOUT*%
%TO.N,VDD*%
X105145000Y-81600000D03*
%TD*%
D16*
%TO.P,J1,1,MISO*%
%TO.N,D12*%
X102885000Y-50805000D03*
D17*
%TO.P,J1,2,VCC*%
%TO.N,VDD*%
X102885000Y-48265000D03*
%TO.P,J1,3,SCK*%
%TO.N,D13*%
X105425000Y-50805000D03*
%TO.P,J1,4,MOSI*%
%TO.N,D11*%
X105425000Y-48265000D03*
%TO.P,J1,5,~{RST}*%
%TO.N,~{RST}*%
X107965000Y-50805000D03*
%TO.P,J1,6,GND*%
%TO.N,GND*%
X107965000Y-48265000D03*
%TD*%
D18*
%TO.P,D1,1,K*%
%TO.N,Net-(D1-Pad1)*%
X109220000Y-57482500D03*
%TO.P,D1,2,A*%
%TO.N,VDD*%
X109220000Y-59357500D03*
%TD*%
D19*
%TO.P,C7,1*%
%TO.N,GND*%
X108103500Y-61722000D03*
%TO.P,C7,2*%
%TO.N,VDD*%
X109828500Y-61722000D03*
%TD*%
D20*
%TO.P,R3,1*%
%TO.N,Net-(D2-Pad1)*%
X104140000Y-59332500D03*
%TO.P,R3,2*%
%TO.N,GND*%
X104140000Y-57507500D03*
%TD*%
D21*
%TO.P,C6,1*%
%TO.N,GND*%
X107950000Y-81687500D03*
%TO.P,C6,2*%
%TO.N,Net-(C6-Pad2)*%
X107950000Y-83412500D03*
%TD*%
D22*
%TO.P,C8,1*%
%TO.N,GND*%
X100330000Y-79602500D03*
%TO.P,C8,2*%
%TO.N,VDD*%
X100330000Y-77877500D03*
%TD*%
D23*
%TO.P,R2,1*%
%TO.N,Net-(D1-Pad1)*%
X106680000Y-57507500D03*
%TO.P,R2,2*%
%TO.N,GND*%
X106680000Y-59332500D03*
%TD*%
D24*
%TO.P,L1,1*%
%TO.N,VDD*%
X100704000Y-61722000D03*
%TO.P,L1,2*%
%TO.N,VDDA*%
X103004000Y-61722000D03*
%TD*%
D19*
%TO.P,C9,1*%
%TO.N,GND*%
X102007500Y-79756000D03*
%TO.P,C9,2*%
%TO.N,VDD*%
X103732500Y-79756000D03*
%TD*%
D22*
%TO.P,C5,1*%
%TO.N,GND*%
X100330000Y-83412500D03*
%TO.P,C5,2*%
%TO.N,VCC*%
X100330000Y-81687500D03*
%TD*%
%TO.P,C4,1*%
%TO.N,D{slash}R*%
X110490000Y-83412500D03*
%TO.P,C4,2*%
%TO.N,~{RST}*%
X110490000Y-81687500D03*
%TD*%
D16*
%TO.P,J3,1,Pin_1*%
%TO.N,GND*%
X113030000Y-83820000D03*
D17*
%TO.P,J3,2,Pin_2*%
%TO.N,~{RST}*%
X113030000Y-81280000D03*
%TO.P,J3,3,Pin_3*%
%TO.N,D00*%
X113030000Y-78740000D03*
%TO.P,J3,4,Pin_4*%
%TO.N,D01*%
X113030000Y-76200000D03*
%TO.P,J3,5,Pin_5*%
%TO.N,D02*%
X113030000Y-73660000D03*
%TO.P,J3,6,Pin_6*%
%TO.N,D03*%
X113030000Y-71120000D03*
%TO.P,J3,7,Pin_7*%
%TO.N,D04*%
X113030000Y-68580000D03*
%TO.P,J3,8,Pin_8*%
%TO.N,D05*%
X113030000Y-66040000D03*
%TO.P,J3,9,Pin_9*%
%TO.N,D06*%
X113030000Y-63500000D03*
%TO.P,J3,10,Pin_10*%
%TO.N,D07*%
X113030000Y-60960000D03*
%TO.P,J3,11,Pin_11*%
%TO.N,D08*%
X113030000Y-58420000D03*
%TO.P,J3,12,Pin_12*%
%TO.N,D09*%
X113030000Y-55880000D03*
%TO.P,J3,13,Pin_13*%
%TO.N,D10*%
X113030000Y-53340000D03*
%TO.P,J3,14,Pin_14*%
%TO.N,D11*%
X113030000Y-50800000D03*
%TO.P,J3,15,Pin_15*%
%TO.N,D12*%
X113030000Y-48260000D03*
%TD*%
D23*
%TO.P,R1,1*%
%TO.N,VDD*%
X101600000Y-53697500D03*
%TO.P,R1,2*%
%TO.N,~{RST}*%
X101600000Y-55522500D03*
%TD*%
D16*
%TO.P,J4,1,Pin_1*%
%TO.N,GND*%
X99060000Y-86995000D03*
D17*
%TO.P,J4,2,Pin_2*%
X101600000Y-86995000D03*
%TO.P,J4,3,Pin_3*%
%TO.N,VDD*%
X104140000Y-86995000D03*
%TO.P,J4,4,Pin_4*%
%TO.N,D00*%
X106680000Y-86995000D03*
%TO.P,J4,5,Pin_5*%
%TO.N,D01*%
X109220000Y-86995000D03*
%TO.P,J4,6,Pin_6*%
%TO.N,D{slash}R*%
X111760000Y-86995000D03*
%TD*%
D19*
%TO.P,C1,1*%
%TO.N,GND*%
X100891000Y-63500000D03*
%TO.P,C1,2*%
%TO.N,VDDA*%
X102616000Y-63500000D03*
%TD*%
D16*
%TO.P,J2,1,Pin_1*%
%TO.N,VCC*%
X97790000Y-83820000D03*
D17*
%TO.P,J2,2,Pin_2*%
%TO.N,GND*%
X97790000Y-81280000D03*
%TO.P,J2,3,Pin_3*%
%TO.N,VDD*%
X97790000Y-78740000D03*
%TO.P,J2,4,Pin_4*%
%TO.N,AREF*%
X97790000Y-76200000D03*
%TO.P,J2,5,Pin_5*%
%TO.N,A07*%
X97790000Y-73660000D03*
%TO.P,J2,6,Pin_6*%
%TO.N,A06*%
X97790000Y-71120000D03*
%TO.P,J2,7,Pin_7*%
%TO.N,A05*%
X97790000Y-68580000D03*
%TO.P,J2,8,Pin_8*%
%TO.N,A04*%
X97790000Y-66040000D03*
%TO.P,J2,9,Pin_9*%
%TO.N,A03*%
X97790000Y-63500000D03*
%TO.P,J2,10,Pin_10*%
%TO.N,A02*%
X97790000Y-60960000D03*
%TO.P,J2,11,Pin_11*%
%TO.N,A01*%
X97790000Y-58420000D03*
%TO.P,J2,12,Pin_12*%
%TO.N,A00*%
X97790000Y-55880000D03*
%TO.P,J2,13,Pin_13*%
%TO.N,SCL1*%
X97790000Y-53340000D03*
%TO.P,J2,14,Pin_14*%
%TO.N,SDA1*%
X97790000Y-50800000D03*
%TO.P,J2,15,Pin_15*%
%TO.N,D13*%
X97790000Y-48260000D03*
%TD*%
D25*
%TO.N,GND*%
X108966000Y-79756000D03*
X108204000Y-62738000D03*
X109728000Y-73660000D03*
X104140000Y-69088000D03*
X100584000Y-47498000D03*
X104902000Y-61722000D03*
X105055500Y-58420000D03*
%TO.N,VDD*%
X107950000Y-60452000D03*
X105145000Y-80021000D03*
X103086500Y-77877500D03*
X107679607Y-71611607D03*
%TO.N,D12*%
X108966000Y-63537500D03*
%TO.N,D13*%
X102870000Y-56642000D03*
X105410000Y-66294000D03*
%TO.N,D11*%
X109982000Y-64262000D03*
%TO.N,~{RST}*%
X109315500Y-81534000D03*
X101637500Y-75872701D03*
X102616000Y-70866000D03*
X104140000Y-55784500D03*
%TO.N,AREF*%
X105505500Y-70099701D03*
%TO.N,A07*%
X104135701Y-71115701D03*
%TO.N,A06*%
X105410000Y-68072000D03*
%TO.N,A04*%
X100330000Y-73152000D03*
%TO.N,A03*%
X102033566Y-69195221D03*
%TO.N,A02*%
X101309066Y-70071582D03*
%TO.N,A01*%
X100330000Y-65278000D03*
%TO.N,A00*%
X101600000Y-65278000D03*
%TO.N,SCL1*%
X105664000Y-71120000D03*
%TO.N,SDA1*%
X106680000Y-72136000D03*
%TO.N,D00*%
X101600000Y-77078000D03*
%TO.N,D01*%
X104140000Y-76708000D03*
%TO.N,D02*%
X105410000Y-76708000D03*
%TO.N,D03*%
X106680000Y-76708000D03*
%TO.N,D04*%
X108966000Y-74676000D03*
%TO.N,D09*%
X109191018Y-69598807D03*
%TO.N,D10*%
X108657667Y-70444113D03*
%TD*%
D26*
%TO.N,GND*%
X108204000Y-61822500D02*
X108103500Y-61722000D01*
X108204000Y-62738000D02*
X108204000Y-61822500D01*
X108103500Y-61722000D02*
X104902000Y-61722000D01*
X108698047Y-72572361D02*
X109474000Y-73348314D01*
D27*
%TO.N,VDDA*%
X103124000Y-64735573D02*
X103819010Y-65430583D01*
X103089573Y-64735573D02*
X102616000Y-64262000D01*
X102616000Y-62110000D02*
X103004000Y-61722000D01*
X103124000Y-64735573D02*
X103089573Y-64735573D01*
X102616000Y-63500000D02*
X102616000Y-62110000D01*
X102616000Y-64262000D02*
X102616000Y-63500000D01*
D26*
%TO.N,Net-(U1-Pad7)*%
X107950000Y-76200000D02*
X108458000Y-75692000D01*
X107950000Y-77470000D02*
X107950000Y-76200000D01*
X108458000Y-75692000D02*
X109220000Y-75692000D01*
X109220000Y-75692000D02*
X110453000Y-74459000D01*
X110453000Y-72064573D02*
X109829417Y-71440990D01*
X110453000Y-74459000D02*
X110453000Y-72064573D01*
%TO.N,Net-(U1-Pad8)*%
X110395103Y-70875305D02*
X110499305Y-70875305D01*
X110499305Y-70875305D02*
X110914557Y-71290557D01*
X110914557Y-71394759D02*
X110395103Y-70875305D01*
X110914557Y-72219443D02*
X110914557Y-71394759D01*
X110350000Y-75198396D02*
X110350000Y-77470000D01*
X110903000Y-74645396D02*
X110350000Y-75198396D01*
X110903000Y-72231000D02*
X110914557Y-72219443D01*
X110903000Y-72231000D02*
X110903000Y-74645396D01*
D27*
%TO.N,VDD*%
X100330000Y-60452000D02*
X107950000Y-60452000D01*
X108132361Y-73138047D02*
X107537907Y-72543593D01*
X109828500Y-60806500D02*
X109828500Y-61722000D01*
X103732500Y-79756000D02*
X104880000Y-79756000D01*
X100330000Y-53594000D02*
X100838000Y-53086000D01*
X100838000Y-53086000D02*
X100838000Y-48768000D01*
X109474000Y-60452000D02*
X109828500Y-60806500D01*
X107537907Y-72543593D02*
X107537907Y-71753307D01*
X107950000Y-60452000D02*
X109220000Y-60452000D01*
X107537907Y-71753307D02*
X107679607Y-71611607D01*
X104880000Y-79756000D02*
X105145000Y-80021000D01*
X100704000Y-61722000D02*
X100584000Y-61722000D01*
X101600000Y-53697500D02*
X101449500Y-53697500D01*
X98652500Y-77877500D02*
X97790000Y-78740000D01*
X101449500Y-53697500D02*
X100838000Y-53086000D01*
X105156000Y-80010000D02*
X105156000Y-78994000D01*
X105156000Y-78994000D02*
X104039500Y-77877500D01*
X100838000Y-48768000D02*
X101346000Y-48260000D01*
X103478500Y-77877500D02*
X100330000Y-77877500D01*
X100330000Y-77877500D02*
X98652500Y-77877500D01*
X100584000Y-61722000D02*
X100330000Y-61468000D01*
X105156000Y-80010000D02*
X105145000Y-80021000D01*
X101351000Y-48265000D02*
X102885000Y-48265000D01*
X104039500Y-77877500D02*
X103478500Y-77877500D01*
X100330000Y-60452000D02*
X100330000Y-53594000D01*
X100330000Y-61468000D02*
X100330000Y-60452000D01*
X109220000Y-60452000D02*
X109474000Y-60452000D01*
X101346000Y-48260000D02*
X101351000Y-48265000D01*
X105145000Y-81600000D02*
X105145000Y-80021000D01*
X109220000Y-59357500D02*
X109220000Y-60452000D01*
D26*
%TO.N,D{slash}R*%
X110490000Y-83412500D02*
X110490000Y-85725000D01*
X110490000Y-85725000D02*
X111760000Y-86995000D01*
D27*
%TO.N,VCC*%
X99060000Y-83566000D02*
X99060000Y-82296000D01*
X99060000Y-82296000D02*
X99668500Y-81687500D01*
X101534000Y-83246000D02*
X101788000Y-83500000D01*
X101534000Y-81600000D02*
X100417500Y-81600000D01*
X100417500Y-81600000D02*
X100330000Y-81687500D01*
X99668500Y-81687500D02*
X100330000Y-81687500D01*
X102870000Y-81600000D02*
X101534000Y-81600000D01*
X101788000Y-83500000D02*
X102870000Y-83500000D01*
X98806000Y-83820000D02*
X99060000Y-83566000D01*
X97790000Y-83820000D02*
X98806000Y-83820000D01*
X101534000Y-81600000D02*
X101534000Y-83246000D01*
D26*
%TO.N,Net-(C6-Pad2)*%
X105145000Y-83500000D02*
X107862500Y-83500000D01*
X107862500Y-83500000D02*
X107950000Y-83412500D01*
%TO.N,D12*%
X106435305Y-64864897D02*
X107762702Y-63537500D01*
X107762702Y-63537500D02*
X108966000Y-63537500D01*
%TO.N,D13*%
X104648000Y-56642000D02*
X105425000Y-55865000D01*
X105410000Y-66294000D02*
X105410000Y-65890202D01*
X102870000Y-56642000D02*
X104648000Y-56642000D01*
X105425000Y-55865000D02*
X105425000Y-50805000D01*
X101600000Y-57482500D02*
X102537500Y-57482500D01*
X102870000Y-57150000D02*
X102870000Y-56642000D01*
X102537500Y-57482500D02*
X102870000Y-57150000D01*
X105410000Y-65890202D02*
X104384695Y-64864897D01*
%TO.N,D11*%
X107000990Y-65430583D02*
X108169573Y-64262000D01*
X108169573Y-64262000D02*
X109982000Y-64262000D01*
X110998000Y-47498000D02*
X110998000Y-48768000D01*
X110998000Y-48768000D02*
X113030000Y-50800000D01*
X105425000Y-47737000D02*
X106172000Y-46990000D01*
X110490000Y-46990000D02*
X110998000Y-47498000D01*
X105425000Y-48265000D02*
X105425000Y-47737000D01*
X106172000Y-46990000D02*
X110490000Y-46990000D01*
%TO.N,~{RST}*%
X109469000Y-81687500D02*
X109315500Y-81534000D01*
X102616000Y-71120000D02*
X103378000Y-71882000D01*
X110490000Y-81687500D02*
X109469000Y-81687500D01*
X104648000Y-49530000D02*
X104140000Y-50038000D01*
X101600000Y-74168000D02*
X102629953Y-73138047D01*
X112622500Y-81687500D02*
X113030000Y-81280000D01*
X102616000Y-70866000D02*
X102616000Y-71120000D01*
X103378000Y-72447686D02*
X102687639Y-73138047D01*
X104140000Y-54180000D02*
X103710000Y-54610000D01*
X103710000Y-55354500D02*
X104140000Y-55784500D01*
X106690000Y-49530000D02*
X104648000Y-49530000D01*
X104140000Y-50038000D02*
X104140000Y-54180000D01*
X102629953Y-73138047D02*
X102687639Y-73138047D01*
X103378000Y-71882000D02*
X103378000Y-72447686D01*
X107965000Y-50805000D02*
X106690000Y-49530000D01*
X102797500Y-55522500D02*
X103710000Y-54610000D01*
X103710000Y-54610000D02*
X103710000Y-55354500D01*
X101600000Y-75835201D02*
X101600000Y-74168000D01*
X101637500Y-75872701D02*
X101600000Y-75835201D01*
X101600000Y-55522500D02*
X102797500Y-55522500D01*
X110490000Y-81687500D02*
X112622500Y-81687500D01*
%TO.N,AREF*%
X104329802Y-67628198D02*
X103821802Y-67120198D01*
X104648000Y-67946396D02*
X104329802Y-67628198D01*
X103821802Y-67120198D02*
X103245884Y-67120198D01*
X105410000Y-68834000D02*
X105146695Y-68834000D01*
X105664000Y-69941201D02*
X105664000Y-69088000D01*
X105146695Y-68834000D02*
X104648000Y-68335305D01*
X105505500Y-70099701D02*
X105664000Y-69941201D01*
X103245884Y-67120198D02*
X102687639Y-66561953D01*
X104648000Y-68335305D02*
X104648000Y-67946396D01*
X105664000Y-69088000D02*
X105410000Y-68834000D01*
%TO.N,A07*%
X104135701Y-70272757D02*
X101556268Y-67693324D01*
X104135701Y-71115701D02*
X104135701Y-70272757D01*
%TO.N,A06*%
X103334268Y-65996268D02*
X105410000Y-68072000D01*
X103253324Y-65996268D02*
X103334268Y-65996268D01*
%TO.N,A05*%
X99060000Y-69596000D02*
X98044000Y-68580000D01*
X102121953Y-72630047D02*
X100584000Y-74168000D01*
X99060000Y-73406000D02*
X99060000Y-69596000D01*
X100584000Y-74168000D02*
X99822000Y-74168000D01*
X99822000Y-74168000D02*
X99060000Y-73406000D01*
X98044000Y-68580000D02*
X97790000Y-68580000D01*
X102121953Y-72572361D02*
X102121953Y-72630047D01*
%TO.N,A04*%
X100330000Y-73152000D02*
X100410944Y-73152000D01*
X100410944Y-73152000D02*
X101556268Y-72006676D01*
%TO.N,A03*%
X102033566Y-70398007D02*
X102033566Y-69195221D01*
X100990583Y-71440990D02*
X102033566Y-70398007D01*
%TO.N,A02*%
X100505343Y-70875305D02*
X101309066Y-70071582D01*
%TO.N,A01*%
X99568000Y-67967798D02*
X100424897Y-68824695D01*
X99568000Y-66040000D02*
X99568000Y-67967798D01*
X100330000Y-65278000D02*
X99568000Y-66040000D01*
%TO.N,A00*%
X100076000Y-67344427D02*
X100076000Y-66802000D01*
X100076000Y-66802000D02*
X101600000Y-65278000D01*
X100990583Y-68259010D02*
X100076000Y-67344427D01*
%TO.N,SCL1*%
X105664000Y-71120000D02*
X106426000Y-70358000D01*
X107546249Y-70358000D02*
X109194925Y-72006676D01*
X106426000Y-70358000D02*
X107546249Y-70358000D01*
X109194925Y-72006676D02*
X109263732Y-72006676D01*
%TO.N,SDA1*%
X106680000Y-72136000D02*
X106680000Y-72817056D01*
X106680000Y-72817056D02*
X107566676Y-73703732D01*
%TO.N,D00*%
X102362000Y-74595056D02*
X103253324Y-73703732D01*
X101600000Y-77078000D02*
X102362000Y-76316000D01*
X102362000Y-76316000D02*
X102362000Y-74595056D01*
%TO.N,D01*%
X103158427Y-74930000D02*
X103124000Y-74964427D01*
X103124000Y-74964427D02*
X103124000Y-75692000D01*
X103819010Y-74269417D02*
X103158427Y-74930000D01*
X103124000Y-75692000D02*
X104140000Y-76708000D01*
%TO.N,D02*%
X105410000Y-75860408D02*
X104384695Y-74835103D01*
X105410000Y-76708000D02*
X105410000Y-75860408D01*
%TO.N,D03*%
X106680000Y-75079798D02*
X106435305Y-74835103D01*
X106680000Y-76708000D02*
X106680000Y-75079798D01*
%TO.N,D04*%
X107915573Y-75184000D02*
X108458000Y-75184000D01*
X108458000Y-75184000D02*
X108966000Y-74676000D01*
X107915573Y-75184000D02*
X107000990Y-74269417D01*
%TO.N,D05*%
X110395103Y-68824695D02*
X113030000Y-66189798D01*
X113030000Y-66189798D02*
X113030000Y-66040000D01*
%TO.N,D06*%
X111760000Y-66328427D02*
X109829417Y-68259010D01*
X113030000Y-63500000D02*
X112522000Y-63500000D01*
X112522000Y-63500000D02*
X111760000Y-64262000D01*
X111760000Y-64262000D02*
X111760000Y-66328427D01*
%TO.N,D07*%
X112014000Y-60960000D02*
X113030000Y-60960000D01*
X111310000Y-65647056D02*
X111310000Y-61664000D01*
X111310000Y-61664000D02*
X112014000Y-60960000D01*
X109263732Y-67693324D02*
X111310000Y-65647056D01*
%TO.N,D08*%
X111760000Y-58420000D02*
X113030000Y-58420000D01*
X108698047Y-67127639D02*
X110860000Y-64965686D01*
X110860000Y-64965686D02*
X110860000Y-59320000D01*
X110860000Y-59320000D02*
X111760000Y-58420000D01*
%TO.N,D09*%
X107442000Y-67564000D02*
X107442000Y-67252314D01*
X107442000Y-67849789D02*
X107442000Y-67564000D01*
X109191018Y-69598807D02*
X107442000Y-67849789D01*
X107442000Y-67252314D02*
X108132361Y-66561953D01*
%TO.N,D10*%
X107485732Y-65996268D02*
X106680000Y-66802000D01*
X108377907Y-69422092D02*
X106680000Y-67724185D01*
X108377907Y-70164353D02*
X108377907Y-69422092D01*
X108657667Y-70444113D02*
X108377907Y-70164353D01*
X107566676Y-65996268D02*
X107485732Y-65996268D01*
X106680000Y-67724185D02*
X106680000Y-66802000D01*
%TO.N,Net-(D1-Pad1)*%
X106680000Y-57507500D02*
X109195000Y-57507500D01*
X109195000Y-57507500D02*
X109220000Y-57482500D01*
%TO.N,Net-(D2-Pad1)*%
X101600000Y-59357500D02*
X104115000Y-59357500D01*
X104115000Y-59357500D02*
X104140000Y-59332500D01*
%TD*%
%TA.AperFunction,Conductor*%
%TO.N,GND*%
G36*
X114022965Y-66671250D02*
G01*
X114045238Y-66713583D01*
X114045500Y-66719302D01*
X114045500Y-67905645D01*
X114027194Y-67949839D01*
X113983000Y-67968145D01*
X113938806Y-67949839D01*
X113932922Y-67943040D01*
X113903573Y-67903736D01*
X113854320Y-67837779D01*
X113705258Y-67699987D01*
X113533581Y-67591667D01*
X113439310Y-67554057D01*
X113347696Y-67517506D01*
X113345039Y-67516446D01*
X113342233Y-67515888D01*
X113342230Y-67515887D01*
X113148752Y-67477402D01*
X113148750Y-67477402D01*
X113145946Y-67476844D01*
X113050353Y-67475593D01*
X112945833Y-67474224D01*
X112945828Y-67474224D01*
X112942971Y-67474187D01*
X112940151Y-67474672D01*
X112940146Y-67474672D01*
X112823751Y-67494673D01*
X112742910Y-67508564D01*
X112740222Y-67509556D01*
X112740217Y-67509557D01*
X112555151Y-67577832D01*
X112555148Y-67577833D01*
X112552463Y-67578824D01*
X112378010Y-67682612D01*
X112351272Y-67706061D01*
X112267935Y-67779146D01*
X112225392Y-67816455D01*
X112223616Y-67818708D01*
X112223615Y-67818709D01*
X112120356Y-67949693D01*
X112099720Y-67975869D01*
X112040816Y-68087826D01*
X112013289Y-68140147D01*
X112005203Y-68155515D01*
X112004356Y-68158242D01*
X112004355Y-68158245D01*
X111961956Y-68294794D01*
X111945007Y-68349378D01*
X111921148Y-68550964D01*
X111934424Y-68753522D01*
X111935130Y-68756302D01*
X111958591Y-68848677D01*
X111984392Y-68950269D01*
X112069377Y-69134616D01*
X112186533Y-69300389D01*
X112188587Y-69302390D01*
X112188588Y-69302391D01*
X112254068Y-69366178D01*
X112331938Y-69442035D01*
X112500720Y-69554812D01*
X112557685Y-69579286D01*
X112684588Y-69633808D01*
X112684590Y-69633809D01*
X112687228Y-69634942D01*
X112780570Y-69656063D01*
X112882426Y-69679111D01*
X112882429Y-69679111D01*
X112885216Y-69679742D01*
X112975164Y-69683276D01*
X113085193Y-69687600D01*
X113085197Y-69687600D01*
X113088053Y-69687712D01*
X113288945Y-69658584D01*
X113481165Y-69593334D01*
X113658276Y-69494147D01*
X113814345Y-69364345D01*
X113849629Y-69321921D01*
X113934948Y-69219337D01*
X113977281Y-69197064D01*
X114022965Y-69211250D01*
X114045238Y-69253583D01*
X114045500Y-69259302D01*
X114045500Y-70445645D01*
X114027194Y-70489839D01*
X113983000Y-70508145D01*
X113938806Y-70489839D01*
X113932922Y-70483040D01*
X113903573Y-70443736D01*
X113879609Y-70411645D01*
X113856037Y-70380078D01*
X113856036Y-70380076D01*
X113854320Y-70377779D01*
X113705258Y-70239987D01*
X113533581Y-70131667D01*
X113345039Y-70056446D01*
X113342233Y-70055888D01*
X113342230Y-70055887D01*
X113148752Y-70017402D01*
X113148750Y-70017402D01*
X113145946Y-70016844D01*
X113050353Y-70015593D01*
X112945833Y-70014224D01*
X112945828Y-70014224D01*
X112942971Y-70014187D01*
X112940151Y-70014672D01*
X112940146Y-70014672D01*
X112830955Y-70033435D01*
X112742910Y-70048564D01*
X112740222Y-70049556D01*
X112740217Y-70049557D01*
X112555151Y-70117832D01*
X112555148Y-70117833D01*
X112552463Y-70118824D01*
X112550003Y-70120287D01*
X112550002Y-70120288D01*
X112532657Y-70130607D01*
X112378010Y-70222612D01*
X112294404Y-70295933D01*
X112258847Y-70327116D01*
X112225392Y-70356455D01*
X112223616Y-70358708D01*
X112223615Y-70358709D01*
X112158651Y-70441116D01*
X112099720Y-70515869D01*
X112005203Y-70695515D01*
X112004356Y-70698242D01*
X112004355Y-70698245D01*
X111971096Y-70805358D01*
X111945007Y-70889378D01*
X111937043Y-70956669D01*
X111922194Y-71082130D01*
X111921148Y-71090964D01*
X111923674Y-71129508D01*
X111933151Y-71274094D01*
X111934424Y-71293522D01*
X111935130Y-71296302D01*
X111982498Y-71482810D01*
X111984392Y-71490269D01*
X112069377Y-71674616D01*
X112186533Y-71840389D01*
X112331938Y-71982035D01*
X112500720Y-72094812D01*
X112587124Y-72131934D01*
X112684588Y-72173808D01*
X112684590Y-72173809D01*
X112687228Y-72174942D01*
X112787641Y-72197663D01*
X112882426Y-72219111D01*
X112882429Y-72219111D01*
X112885216Y-72219742D01*
X112975164Y-72223276D01*
X113085193Y-72227600D01*
X113085197Y-72227600D01*
X113088053Y-72227712D01*
X113288945Y-72198584D01*
X113481165Y-72133334D01*
X113658276Y-72034147D01*
X113814345Y-71904345D01*
X113859148Y-71850476D01*
X113934948Y-71759337D01*
X113977281Y-71737064D01*
X114022965Y-71751250D01*
X114045238Y-71793583D01*
X114045500Y-71799302D01*
X114045500Y-72985645D01*
X114027194Y-73029839D01*
X113983000Y-73048145D01*
X113938806Y-73029839D01*
X113932922Y-73023040D01*
X113925111Y-73012579D01*
X113854320Y-72917779D01*
X113705258Y-72779987D01*
X113533581Y-72671667D01*
X113370741Y-72606700D01*
X113347696Y-72597506D01*
X113345039Y-72596446D01*
X113342233Y-72595888D01*
X113342230Y-72595887D01*
X113148752Y-72557402D01*
X113148750Y-72557402D01*
X113145946Y-72556844D01*
X113050353Y-72555593D01*
X112945833Y-72554224D01*
X112945828Y-72554224D01*
X112942971Y-72554187D01*
X112940151Y-72554672D01*
X112940146Y-72554672D01*
X112837205Y-72572361D01*
X112742910Y-72588564D01*
X112740222Y-72589556D01*
X112740217Y-72589557D01*
X112555151Y-72657832D01*
X112555148Y-72657833D01*
X112552463Y-72658824D01*
X112378010Y-72762612D01*
X112342356Y-72793880D01*
X112256587Y-72869098D01*
X112225392Y-72896455D01*
X112223616Y-72898708D01*
X112223615Y-72898709D01*
X112123030Y-73026301D01*
X112099720Y-73055869D01*
X112054743Y-73141355D01*
X112013862Y-73219058D01*
X112005203Y-73235515D01*
X112004356Y-73238242D01*
X112004355Y-73238245D01*
X111970572Y-73347044D01*
X111945007Y-73429378D01*
X111921148Y-73630964D01*
X111921336Y-73633828D01*
X111934141Y-73829200D01*
X111934424Y-73833522D01*
X111935130Y-73836302D01*
X111982498Y-74022810D01*
X111984392Y-74030269D01*
X112069377Y-74214616D01*
X112186533Y-74380389D01*
X112331938Y-74522035D01*
X112500720Y-74634812D01*
X112587124Y-74671934D01*
X112684588Y-74713808D01*
X112684590Y-74713809D01*
X112687228Y-74714942D01*
X112770644Y-74733817D01*
X112882426Y-74759111D01*
X112882429Y-74759111D01*
X112885216Y-74759742D01*
X112975164Y-74763276D01*
X113085193Y-74767600D01*
X113085197Y-74767600D01*
X113088053Y-74767712D01*
X113288945Y-74738584D01*
X113481165Y-74673334D01*
X113658276Y-74574147D01*
X113814345Y-74444345D01*
X113872792Y-74374071D01*
X113934948Y-74299337D01*
X113977281Y-74277064D01*
X114022965Y-74291250D01*
X114045238Y-74333583D01*
X114045500Y-74339302D01*
X114045500Y-75525645D01*
X114027194Y-75569839D01*
X113983000Y-75588145D01*
X113938806Y-75569839D01*
X113932922Y-75563040D01*
X113903573Y-75523736D01*
X113869565Y-75478194D01*
X113856037Y-75460078D01*
X113856036Y-75460076D01*
X113854320Y-75457779D01*
X113705258Y-75319987D01*
X113533581Y-75211667D01*
X113345039Y-75136446D01*
X113342233Y-75135888D01*
X113342230Y-75135887D01*
X113148752Y-75097402D01*
X113148750Y-75097402D01*
X113145946Y-75096844D01*
X113050353Y-75095593D01*
X112945833Y-75094224D01*
X112945828Y-75094224D01*
X112942971Y-75094187D01*
X112940151Y-75094672D01*
X112940146Y-75094672D01*
X112823751Y-75114673D01*
X112742910Y-75128564D01*
X112740222Y-75129556D01*
X112740217Y-75129557D01*
X112555151Y-75197832D01*
X112555148Y-75197833D01*
X112552463Y-75198824D01*
X112378010Y-75302612D01*
X112303574Y-75367891D01*
X112230998Y-75431539D01*
X112225392Y-75436455D01*
X112223616Y-75438708D01*
X112223615Y-75438709D01*
X112107927Y-75585459D01*
X112099720Y-75595869D01*
X112080911Y-75631619D01*
X112017014Y-75753067D01*
X112005203Y-75775515D01*
X112004356Y-75778242D01*
X112004355Y-75778245D01*
X111977170Y-75865797D01*
X111945007Y-75969378D01*
X111921148Y-76170964D01*
X111922932Y-76198179D01*
X111932358Y-76341993D01*
X111934424Y-76373522D01*
X111935130Y-76376302D01*
X111981774Y-76559959D01*
X111984392Y-76570269D01*
X112069377Y-76754616D01*
X112186533Y-76920389D01*
X112331938Y-77062035D01*
X112500720Y-77174812D01*
X112520649Y-77183374D01*
X112684588Y-77253808D01*
X112684590Y-77253809D01*
X112687228Y-77254942D01*
X112787641Y-77277663D01*
X112882426Y-77299111D01*
X112882429Y-77299111D01*
X112885216Y-77299742D01*
X112975164Y-77303276D01*
X113085193Y-77307600D01*
X113085197Y-77307600D01*
X113088053Y-77307712D01*
X113288945Y-77278584D01*
X113481165Y-77213334D01*
X113658276Y-77114147D01*
X113814345Y-76984345D01*
X113875739Y-76910527D01*
X113934948Y-76839337D01*
X113977281Y-76817064D01*
X114022965Y-76831250D01*
X114045238Y-76873583D01*
X114045500Y-76879302D01*
X114045500Y-78065645D01*
X114027194Y-78109839D01*
X113983000Y-78128145D01*
X113938806Y-78109839D01*
X113932922Y-78103040D01*
X113903573Y-78063736D01*
X113854320Y-77997779D01*
X113705258Y-77859987D01*
X113533581Y-77751667D01*
X113393547Y-77695799D01*
X113347696Y-77677506D01*
X113345039Y-77676446D01*
X113342233Y-77675888D01*
X113342230Y-77675887D01*
X113148752Y-77637402D01*
X113148750Y-77637402D01*
X113145946Y-77636844D01*
X113050353Y-77635593D01*
X112945833Y-77634224D01*
X112945828Y-77634224D01*
X112942971Y-77634187D01*
X112940151Y-77634672D01*
X112940146Y-77634672D01*
X112823751Y-77654673D01*
X112742910Y-77668564D01*
X112740222Y-77669556D01*
X112740217Y-77669557D01*
X112555151Y-77737832D01*
X112555148Y-77737833D01*
X112552463Y-77738824D01*
X112378010Y-77842612D01*
X112225392Y-77976455D01*
X112099720Y-78135869D01*
X112005203Y-78315515D01*
X112004356Y-78318242D01*
X112004355Y-78318245D01*
X111951425Y-78488708D01*
X111945007Y-78509378D01*
X111944570Y-78513068D01*
X111926056Y-78669500D01*
X111921148Y-78710964D01*
X111922415Y-78730299D01*
X111931547Y-78869621D01*
X111934424Y-78913522D01*
X111935130Y-78916302D01*
X111978020Y-79085178D01*
X111984392Y-79110269D01*
X112069377Y-79294616D01*
X112186533Y-79460389D01*
X112331938Y-79602035D01*
X112500720Y-79714812D01*
X112587124Y-79751934D01*
X112684588Y-79793808D01*
X112684590Y-79793809D01*
X112687228Y-79794942D01*
X112787641Y-79817663D01*
X112882426Y-79839111D01*
X112882429Y-79839111D01*
X112885216Y-79839742D01*
X112975164Y-79843276D01*
X113085193Y-79847600D01*
X113085197Y-79847600D01*
X113088053Y-79847712D01*
X113288945Y-79818584D01*
X113481165Y-79753334D01*
X113658276Y-79654147D01*
X113814345Y-79524345D01*
X113857938Y-79471930D01*
X113934948Y-79379337D01*
X113977281Y-79357064D01*
X114022965Y-79371250D01*
X114045238Y-79413583D01*
X114045500Y-79419302D01*
X114045500Y-80605645D01*
X114027194Y-80649839D01*
X113983000Y-80668145D01*
X113938806Y-80649839D01*
X113932922Y-80643040D01*
X113856037Y-80540078D01*
X113856036Y-80540076D01*
X113854320Y-80537779D01*
X113705258Y-80399987D01*
X113533581Y-80291667D01*
X113345039Y-80216446D01*
X113342233Y-80215888D01*
X113342230Y-80215887D01*
X113148752Y-80177402D01*
X113148750Y-80177402D01*
X113145946Y-80176844D01*
X113050353Y-80175593D01*
X112945833Y-80174224D01*
X112945828Y-80174224D01*
X112942971Y-80174187D01*
X112940151Y-80174672D01*
X112940146Y-80174672D01*
X112841395Y-80191641D01*
X112742910Y-80208564D01*
X112740222Y-80209556D01*
X112740217Y-80209557D01*
X112555151Y-80277832D01*
X112555148Y-80277833D01*
X112552463Y-80278824D01*
X112378010Y-80382612D01*
X112302675Y-80448679D01*
X112261261Y-80484999D01*
X112225392Y-80516455D01*
X112223616Y-80518708D01*
X112223615Y-80518709D01*
X112117257Y-80653624D01*
X112099720Y-80675869D01*
X112005203Y-80855515D01*
X112004356Y-80858242D01*
X112004355Y-80858245D01*
X111975882Y-80949944D01*
X111945007Y-81049378D01*
X111921148Y-81250964D01*
X111919871Y-81250813D01*
X111902061Y-81290829D01*
X111859032Y-81308000D01*
X111266492Y-81308000D01*
X111222298Y-81289694D01*
X111207969Y-81267439D01*
X111165056Y-81152970D01*
X111165056Y-81152969D01*
X111163493Y-81148801D01*
X111078974Y-81036026D01*
X110966199Y-80951507D01*
X110876204Y-80917769D01*
X110837904Y-80903411D01*
X110837903Y-80903411D01*
X110834236Y-80902036D01*
X110774070Y-80895500D01*
X110205930Y-80895500D01*
X110145764Y-80902036D01*
X110142097Y-80903411D01*
X110142096Y-80903411D01*
X110103797Y-80917769D01*
X110013801Y-80951507D01*
X109901026Y-81036026D01*
X109883259Y-81059733D01*
X109877553Y-81067347D01*
X109836400Y-81091733D01*
X109790057Y-81079877D01*
X109785963Y-81076529D01*
X109775658Y-81067347D01*
X109737906Y-81033712D01*
X109694587Y-80995116D01*
X109694585Y-80995115D01*
X109691775Y-80992611D01*
X109551774Y-80918484D01*
X109398133Y-80879892D01*
X109394368Y-80879872D01*
X109394366Y-80879872D01*
X109315796Y-80879461D01*
X109239721Y-80879062D01*
X109236057Y-80879942D01*
X109236054Y-80879942D01*
X109169169Y-80896000D01*
X109085684Y-80916043D01*
X109082342Y-80917768D01*
X109082339Y-80917769D01*
X109020002Y-80949944D01*
X108944914Y-80988700D01*
X108942076Y-80991175D01*
X108942077Y-80991175D01*
X108839333Y-81080805D01*
X108825539Y-81092838D01*
X108823373Y-81095920D01*
X108823372Y-81095921D01*
X108747836Y-81203398D01*
X108707448Y-81229029D01*
X108660764Y-81218594D01*
X108638179Y-81189399D01*
X108624613Y-81153212D01*
X108620379Y-81145479D01*
X108541288Y-81039947D01*
X108535053Y-81033712D01*
X108429521Y-80954621D01*
X108421788Y-80950387D01*
X108297796Y-80903904D01*
X108290232Y-80902106D01*
X108235707Y-80896183D01*
X108232338Y-80896000D01*
X108089431Y-80896000D01*
X108080641Y-80899641D01*
X108077000Y-80908431D01*
X108077000Y-82466568D01*
X108080641Y-82475358D01*
X108089431Y-82478999D01*
X108232332Y-82478999D01*
X108235702Y-82478817D01*
X108290231Y-82472894D01*
X108297799Y-82471095D01*
X108421788Y-82424613D01*
X108429521Y-82420379D01*
X108535053Y-82341288D01*
X108541288Y-82335053D01*
X108620379Y-82229521D01*
X108624613Y-82221788D01*
X108671096Y-82097796D01*
X108672894Y-82090232D01*
X108678817Y-82035707D01*
X108679000Y-82032338D01*
X108679000Y-81965389D01*
X108697306Y-81921195D01*
X108741500Y-81902889D01*
X108785694Y-81921195D01*
X108793376Y-81930530D01*
X108816408Y-81964805D01*
X108933576Y-82071419D01*
X108936885Y-82073216D01*
X108936887Y-82073217D01*
X108985867Y-82099811D01*
X109072793Y-82147008D01*
X109076440Y-82147965D01*
X109076443Y-82147966D01*
X109185640Y-82176613D01*
X109226022Y-82187207D01*
X109310657Y-82188536D01*
X109380647Y-82189636D01*
X109380649Y-82189636D01*
X109384416Y-82189695D01*
X109538832Y-82154329D01*
X109542196Y-82152637D01*
X109542199Y-82152636D01*
X109631242Y-82107852D01*
X109680355Y-82083151D01*
X109681468Y-82082201D01*
X109727698Y-82073131D01*
X109767402Y-82099811D01*
X109773867Y-82112458D01*
X109776525Y-82119548D01*
X109816507Y-82226199D01*
X109901026Y-82338974D01*
X110013801Y-82423493D01*
X110145764Y-82472964D01*
X110205930Y-82479500D01*
X110774070Y-82479500D01*
X110834236Y-82472964D01*
X110966199Y-82423493D01*
X111078974Y-82338974D01*
X111163493Y-82226199D01*
X111166884Y-82217153D01*
X111207969Y-82107561D01*
X111240624Y-82072605D01*
X111266492Y-82067000D01*
X112229501Y-82067000D01*
X112273113Y-82084731D01*
X112308854Y-82119548D01*
X112331938Y-82142035D01*
X112500720Y-82254812D01*
X112586056Y-82291475D01*
X112684588Y-82333808D01*
X112684590Y-82333809D01*
X112687228Y-82334942D01*
X112777330Y-82355330D01*
X112882426Y-82379111D01*
X112882429Y-82379111D01*
X112885216Y-82379742D01*
X112975164Y-82383276D01*
X113085193Y-82387600D01*
X113085197Y-82387600D01*
X113088053Y-82387712D01*
X113288945Y-82358584D01*
X113481165Y-82293334D01*
X113658276Y-82194147D01*
X113814345Y-82064345D01*
X113895023Y-81967341D01*
X113934948Y-81919337D01*
X113977281Y-81897064D01*
X114022965Y-81911250D01*
X114045238Y-81953583D01*
X114045500Y-81959302D01*
X114045500Y-82667787D01*
X114027194Y-82711981D01*
X113983000Y-82730287D01*
X113970807Y-82729086D01*
X113908030Y-82716599D01*
X113901946Y-82716000D01*
X113169431Y-82716000D01*
X113160641Y-82719641D01*
X113157000Y-82728431D01*
X113157000Y-84911568D01*
X113160641Y-84920358D01*
X113169431Y-84923999D01*
X113901945Y-84923999D01*
X113908030Y-84923400D01*
X113970808Y-84910913D01*
X114017724Y-84920246D01*
X114044299Y-84960020D01*
X114045500Y-84972212D01*
X114045500Y-87599792D01*
X114044375Y-87611596D01*
X114040519Y-87631645D01*
X114041758Y-87637674D01*
X114041758Y-87637677D01*
X114042282Y-87640226D01*
X114043354Y-87657905D01*
X114031518Y-87802569D01*
X114029664Y-87813393D01*
X113987376Y-87973923D01*
X113983657Y-87984256D01*
X113913918Y-88134921D01*
X113908446Y-88144443D01*
X113816788Y-88275738D01*
X113813422Y-88280559D01*
X113806369Y-88288977D01*
X113688977Y-88406369D01*
X113680559Y-88413422D01*
X113544443Y-88508446D01*
X113534921Y-88513918D01*
X113384256Y-88583657D01*
X113373923Y-88587376D01*
X113213393Y-88629664D01*
X113202569Y-88631518D01*
X113142268Y-88636452D01*
X113057902Y-88643354D01*
X113040226Y-88642282D01*
X113037677Y-88641758D01*
X113037674Y-88641758D01*
X113031645Y-88640519D01*
X113022479Y-88642282D01*
X113011596Y-88644375D01*
X112999792Y-88645500D01*
X97822352Y-88645500D01*
X97809727Y-88644212D01*
X97791826Y-88640520D01*
X97783085Y-88642195D01*
X97765486Y-88643039D01*
X97620968Y-88629483D01*
X97610346Y-88627550D01*
X97572152Y-88617124D01*
X97450051Y-88583792D01*
X97439927Y-88580062D01*
X97289556Y-88509370D01*
X97280228Y-88503956D01*
X97144262Y-88408434D01*
X97135997Y-88401487D01*
X97018513Y-88284003D01*
X97011566Y-88275738D01*
X97003424Y-88264149D01*
X96916044Y-88139772D01*
X96910630Y-88130444D01*
X96839938Y-87980073D01*
X96836206Y-87969945D01*
X96835615Y-87967778D01*
X96808089Y-87866945D01*
X97956001Y-87866945D01*
X97956600Y-87873030D01*
X97969536Y-87938068D01*
X97974157Y-87949224D01*
X98023457Y-88023007D01*
X98031993Y-88031543D01*
X98105775Y-88080843D01*
X98116933Y-88085464D01*
X98181970Y-88098401D01*
X98188054Y-88099000D01*
X98920569Y-88099000D01*
X98929359Y-88095359D01*
X98933000Y-88086569D01*
X98933000Y-88086568D01*
X99187000Y-88086568D01*
X99190641Y-88095358D01*
X99199431Y-88098999D01*
X99931945Y-88098999D01*
X99938030Y-88098400D01*
X100003068Y-88085464D01*
X100014224Y-88080843D01*
X100088007Y-88031543D01*
X100096543Y-88023007D01*
X100145843Y-87949225D01*
X100150464Y-87938067D01*
X100163401Y-87873030D01*
X100164000Y-87866946D01*
X100164000Y-87135471D01*
X100502759Y-87135471D01*
X100504732Y-87165581D01*
X100505626Y-87171224D01*
X100554159Y-87362323D01*
X100556066Y-87367707D01*
X100638612Y-87546761D01*
X100641468Y-87551708D01*
X100755257Y-87712717D01*
X100758970Y-87717065D01*
X100900203Y-87854647D01*
X100904636Y-87858236D01*
X101068576Y-87967778D01*
X101073598Y-87970504D01*
X101254744Y-88048331D01*
X101260183Y-88050098D01*
X101452492Y-88093614D01*
X101458141Y-88094357D01*
X101460577Y-88094453D01*
X101468827Y-88091409D01*
X101473000Y-88081869D01*
X101473000Y-88079779D01*
X101727000Y-88079779D01*
X101730641Y-88088569D01*
X101736208Y-88090875D01*
X101855992Y-88073507D01*
X101861541Y-88072175D01*
X102048247Y-88008796D01*
X102053460Y-88006475D01*
X102225492Y-87910133D01*
X102230194Y-87906902D01*
X102381793Y-87780819D01*
X102385819Y-87776793D01*
X102511902Y-87625194D01*
X102515133Y-87620492D01*
X102611475Y-87448460D01*
X102613796Y-87443247D01*
X102677175Y-87256541D01*
X102678507Y-87250992D01*
X102695426Y-87134304D01*
X102693084Y-87125082D01*
X102687904Y-87122000D01*
X101739431Y-87122000D01*
X101730641Y-87125641D01*
X101727000Y-87134431D01*
X101727000Y-88079779D01*
X101473000Y-88079779D01*
X101473000Y-87134431D01*
X101469359Y-87125641D01*
X101460569Y-87122000D01*
X100514307Y-87122000D01*
X100506632Y-87125179D01*
X100502759Y-87135471D01*
X100164000Y-87135471D01*
X100164000Y-87134431D01*
X100160359Y-87125641D01*
X100151569Y-87122000D01*
X99199431Y-87122000D01*
X99190641Y-87125641D01*
X99187000Y-87134431D01*
X99187000Y-88086568D01*
X98933000Y-88086568D01*
X98933000Y-87134431D01*
X98929359Y-87125641D01*
X98920569Y-87122000D01*
X97968432Y-87122000D01*
X97959642Y-87125641D01*
X97956001Y-87134431D01*
X97956001Y-87866945D01*
X96808089Y-87866945D01*
X96792450Y-87809654D01*
X96790517Y-87799032D01*
X96776961Y-87654514D01*
X96777805Y-87636913D01*
X96778322Y-87634216D01*
X96779480Y-87628174D01*
X96775788Y-87610273D01*
X96774500Y-87597648D01*
X96774500Y-86965964D01*
X103031148Y-86965964D01*
X103031336Y-86968828D01*
X103042190Y-87134431D01*
X103044424Y-87168522D01*
X103094392Y-87365269D01*
X103179377Y-87549616D01*
X103296533Y-87715389D01*
X103298587Y-87717390D01*
X103298588Y-87717391D01*
X103359924Y-87777141D01*
X103441938Y-87857035D01*
X103610720Y-87969812D01*
X103696056Y-88006475D01*
X103794588Y-88048808D01*
X103794590Y-88048809D01*
X103797228Y-88049942D01*
X103844993Y-88060750D01*
X103992426Y-88094111D01*
X103992429Y-88094111D01*
X103995216Y-88094742D01*
X104085164Y-88098276D01*
X104195193Y-88102600D01*
X104195197Y-88102600D01*
X104198053Y-88102712D01*
X104227786Y-88098401D01*
X104309389Y-88086569D01*
X104398945Y-88073584D01*
X104591165Y-88008334D01*
X104768276Y-87909147D01*
X104924345Y-87779345D01*
X105054147Y-87623276D01*
X105153334Y-87446165D01*
X105218584Y-87253945D01*
X105247712Y-87053053D01*
X105249232Y-86995000D01*
X105246565Y-86965964D01*
X105571148Y-86965964D01*
X105571336Y-86968828D01*
X105582190Y-87134431D01*
X105584424Y-87168522D01*
X105634392Y-87365269D01*
X105719377Y-87549616D01*
X105836533Y-87715389D01*
X105838587Y-87717390D01*
X105838588Y-87717391D01*
X105899924Y-87777141D01*
X105981938Y-87857035D01*
X106150720Y-87969812D01*
X106236056Y-88006475D01*
X106334588Y-88048808D01*
X106334590Y-88048809D01*
X106337228Y-88049942D01*
X106384993Y-88060750D01*
X106532426Y-88094111D01*
X106532429Y-88094111D01*
X106535216Y-88094742D01*
X106625164Y-88098276D01*
X106735193Y-88102600D01*
X106735197Y-88102600D01*
X106738053Y-88102712D01*
X106767786Y-88098401D01*
X106849389Y-88086569D01*
X106938945Y-88073584D01*
X107131165Y-88008334D01*
X107308276Y-87909147D01*
X107464345Y-87779345D01*
X107594147Y-87623276D01*
X107693334Y-87446165D01*
X107758584Y-87253945D01*
X107787712Y-87053053D01*
X107789232Y-86995000D01*
X107786565Y-86965964D01*
X108111148Y-86965964D01*
X108111336Y-86968828D01*
X108122190Y-87134431D01*
X108124424Y-87168522D01*
X108174392Y-87365269D01*
X108259377Y-87549616D01*
X108376533Y-87715389D01*
X108378587Y-87717390D01*
X108378588Y-87717391D01*
X108439924Y-87777141D01*
X108521938Y-87857035D01*
X108690720Y-87969812D01*
X108776056Y-88006475D01*
X108874588Y-88048808D01*
X108874590Y-88048809D01*
X108877228Y-88049942D01*
X108924993Y-88060750D01*
X109072426Y-88094111D01*
X109072429Y-88094111D01*
X109075216Y-88094742D01*
X109165164Y-88098276D01*
X109275193Y-88102600D01*
X109275197Y-88102600D01*
X109278053Y-88102712D01*
X109307786Y-88098401D01*
X109389389Y-88086569D01*
X109478945Y-88073584D01*
X109671165Y-88008334D01*
X109848276Y-87909147D01*
X110004345Y-87779345D01*
X110134147Y-87623276D01*
X110233334Y-87446165D01*
X110298584Y-87253945D01*
X110327712Y-87053053D01*
X110329232Y-86995000D01*
X110326303Y-86963116D01*
X110317228Y-86864359D01*
X110310658Y-86792859D01*
X110303456Y-86767322D01*
X110256335Y-86600244D01*
X110256333Y-86600240D01*
X110255557Y-86597487D01*
X110165776Y-86415428D01*
X110164058Y-86413127D01*
X110046037Y-86255078D01*
X110046036Y-86255076D01*
X110044320Y-86252779D01*
X109895258Y-86114987D01*
X109723581Y-86006667D01*
X109535039Y-85931446D01*
X109532233Y-85930888D01*
X109532230Y-85930887D01*
X109338752Y-85892402D01*
X109338750Y-85892402D01*
X109335946Y-85891844D01*
X109240353Y-85890593D01*
X109135833Y-85889224D01*
X109135828Y-85889224D01*
X109132971Y-85889187D01*
X109130151Y-85889672D01*
X109130146Y-85889672D01*
X109017702Y-85908994D01*
X108932910Y-85923564D01*
X108930224Y-85924555D01*
X108930217Y-85924557D01*
X108745151Y-85992832D01*
X108745148Y-85992833D01*
X108742463Y-85993824D01*
X108568010Y-86097612D01*
X108415392Y-86231455D01*
X108289720Y-86390869D01*
X108195203Y-86570515D01*
X108194356Y-86573242D01*
X108194355Y-86573245D01*
X108186828Y-86597487D01*
X108135007Y-86764378D01*
X108111148Y-86965964D01*
X107786565Y-86965964D01*
X107786303Y-86963116D01*
X107777228Y-86864359D01*
X107770658Y-86792859D01*
X107763456Y-86767322D01*
X107716335Y-86600244D01*
X107716333Y-86600240D01*
X107715557Y-86597487D01*
X107625776Y-86415428D01*
X107624058Y-86413127D01*
X107506037Y-86255078D01*
X107506036Y-86255076D01*
X107504320Y-86252779D01*
X107355258Y-86114987D01*
X107183581Y-86006667D01*
X106995039Y-85931446D01*
X106992233Y-85930888D01*
X106992230Y-85930887D01*
X106798752Y-85892402D01*
X106798750Y-85892402D01*
X106795946Y-85891844D01*
X106700353Y-85890593D01*
X106595833Y-85889224D01*
X106595828Y-85889224D01*
X106592971Y-85889187D01*
X106590151Y-85889672D01*
X106590146Y-85889672D01*
X106477702Y-85908994D01*
X106392910Y-85923564D01*
X106390224Y-85924555D01*
X106390217Y-85924557D01*
X106205151Y-85992832D01*
X106205148Y-85992833D01*
X106202463Y-85993824D01*
X106028010Y-86097612D01*
X105875392Y-86231455D01*
X105749720Y-86390869D01*
X105655203Y-86570515D01*
X105654356Y-86573242D01*
X105654355Y-86573245D01*
X105646828Y-86597487D01*
X105595007Y-86764378D01*
X105571148Y-86965964D01*
X105246565Y-86965964D01*
X105246303Y-86963116D01*
X105237228Y-86864359D01*
X105230658Y-86792859D01*
X105223456Y-86767322D01*
X105176335Y-86600244D01*
X105176333Y-86600240D01*
X105175557Y-86597487D01*
X105085776Y-86415428D01*
X105084058Y-86413127D01*
X104966037Y-86255078D01*
X104966036Y-86255076D01*
X104964320Y-86252779D01*
X104815258Y-86114987D01*
X104643581Y-86006667D01*
X104455039Y-85931446D01*
X104452233Y-85930888D01*
X104452230Y-85930887D01*
X104258752Y-85892402D01*
X104258750Y-85892402D01*
X104255946Y-85891844D01*
X104160353Y-85890593D01*
X104055833Y-85889224D01*
X104055828Y-85889224D01*
X104052971Y-85889187D01*
X104050151Y-85889672D01*
X104050146Y-85889672D01*
X103937702Y-85908994D01*
X103852910Y-85923564D01*
X103850224Y-85924555D01*
X103850217Y-85924557D01*
X103665151Y-85992832D01*
X103665148Y-85992833D01*
X103662463Y-85993824D01*
X103488010Y-86097612D01*
X103335392Y-86231455D01*
X103209720Y-86390869D01*
X103115203Y-86570515D01*
X103114356Y-86573242D01*
X103114355Y-86573245D01*
X103106828Y-86597487D01*
X103055007Y-86764378D01*
X103031148Y-86965964D01*
X96774500Y-86965964D01*
X96774500Y-86855569D01*
X97956000Y-86855569D01*
X97959641Y-86864359D01*
X97968431Y-86868000D01*
X98920569Y-86868000D01*
X98929359Y-86864359D01*
X98933000Y-86855569D01*
X99187000Y-86855569D01*
X99190641Y-86864359D01*
X99199431Y-86868000D01*
X100151568Y-86868000D01*
X100160358Y-86864359D01*
X100163963Y-86855655D01*
X100504707Y-86855655D01*
X100507290Y-86864811D01*
X100512984Y-86868000D01*
X101460569Y-86868000D01*
X101469359Y-86864359D01*
X101473000Y-86855569D01*
X101727000Y-86855569D01*
X101730641Y-86864359D01*
X101739431Y-86868000D01*
X102684629Y-86868000D01*
X102693419Y-86864359D01*
X102696125Y-86857826D01*
X102690426Y-86795805D01*
X102689385Y-86790187D01*
X102635867Y-86600424D01*
X102633824Y-86595102D01*
X102546616Y-86418261D01*
X102543630Y-86413389D01*
X102425664Y-86255414D01*
X102421841Y-86251169D01*
X102277060Y-86117334D01*
X102272525Y-86113854D01*
X102105774Y-86008642D01*
X102100696Y-86006054D01*
X101917553Y-85932988D01*
X101912087Y-85931369D01*
X101739193Y-85896978D01*
X101729861Y-85898834D01*
X101727000Y-85903117D01*
X101727000Y-86855569D01*
X101473000Y-86855569D01*
X101473000Y-85908994D01*
X101469359Y-85900204D01*
X101464214Y-85898073D01*
X101315870Y-85923563D01*
X101310347Y-85925042D01*
X101125367Y-85993285D01*
X101120218Y-85995741D01*
X100950770Y-86096552D01*
X100946148Y-86099911D01*
X100797910Y-86229912D01*
X100793983Y-86234050D01*
X100671913Y-86388895D01*
X100668809Y-86393674D01*
X100576998Y-86568177D01*
X100574819Y-86573437D01*
X100516346Y-86761752D01*
X100515162Y-86767322D01*
X100504707Y-86855655D01*
X100163963Y-86855655D01*
X100163999Y-86855569D01*
X100163999Y-86123055D01*
X100163400Y-86116970D01*
X100150464Y-86051932D01*
X100145843Y-86040776D01*
X100096543Y-85966993D01*
X100088007Y-85958457D01*
X100014225Y-85909157D01*
X100003067Y-85904536D01*
X99938030Y-85891599D01*
X99931946Y-85891000D01*
X99199431Y-85891000D01*
X99190641Y-85894641D01*
X99187000Y-85903431D01*
X99187000Y-86855569D01*
X98933000Y-86855569D01*
X98933000Y-85903432D01*
X98929359Y-85894642D01*
X98920569Y-85891001D01*
X98188055Y-85891001D01*
X98181970Y-85891600D01*
X98116932Y-85904536D01*
X98105776Y-85909157D01*
X98031993Y-85958457D01*
X98023457Y-85966993D01*
X97974157Y-86040775D01*
X97969536Y-86051933D01*
X97956599Y-86116970D01*
X97956000Y-86123054D01*
X97956000Y-86855569D01*
X96774500Y-86855569D01*
X96774500Y-84972723D01*
X96792806Y-84928529D01*
X96837000Y-84910223D01*
X96849193Y-84911424D01*
X96911920Y-84923901D01*
X96911923Y-84923901D01*
X96914933Y-84924500D01*
X97790000Y-84924500D01*
X98665066Y-84924499D01*
X98668075Y-84923900D01*
X98668080Y-84923900D01*
X98733263Y-84910935D01*
X98739301Y-84909734D01*
X98823484Y-84853484D01*
X98879734Y-84769301D01*
X98894500Y-84695067D01*
X98894500Y-84319103D01*
X98912806Y-84274909D01*
X98937894Y-84259805D01*
X98941151Y-84259315D01*
X98945363Y-84257292D01*
X98947452Y-84256650D01*
X98947733Y-84256581D01*
X98947952Y-84256510D01*
X98948226Y-84256398D01*
X98950285Y-84255693D01*
X98954883Y-84254853D01*
X99008316Y-84227097D01*
X99010061Y-84226225D01*
X99060141Y-84202177D01*
X99060143Y-84202176D01*
X99064353Y-84200154D01*
X99067782Y-84196984D01*
X99069586Y-84195758D01*
X99070095Y-84195454D01*
X99073000Y-84193497D01*
X99076166Y-84191852D01*
X99081254Y-84187506D01*
X99119733Y-84149027D01*
X99121502Y-84147326D01*
X99161281Y-84110555D01*
X99161282Y-84110553D01*
X99164712Y-84107383D01*
X99167058Y-84103344D01*
X99169980Y-84099697D01*
X99170273Y-84099932D01*
X99175094Y-84093666D01*
X99359661Y-83909099D01*
X99365161Y-83904211D01*
X99391393Y-83883531D01*
X99395059Y-83880641D01*
X99429299Y-83831100D01*
X99430433Y-83829513D01*
X99435395Y-83822796D01*
X99448420Y-83805161D01*
X99463433Y-83784836D01*
X99463434Y-83784834D01*
X99466209Y-83781077D01*
X99467757Y-83776668D01*
X99468774Y-83774747D01*
X99468929Y-83774491D01*
X99469033Y-83774287D01*
X99469149Y-83774011D01*
X99470108Y-83772054D01*
X99472764Y-83768211D01*
X99475124Y-83760751D01*
X99479331Y-83747446D01*
X99510110Y-83710828D01*
X99557767Y-83706700D01*
X99594385Y-83737479D01*
X99601057Y-83759542D01*
X99607106Y-83815231D01*
X99608905Y-83822799D01*
X99655387Y-83946788D01*
X99659621Y-83954521D01*
X99738712Y-84060053D01*
X99744947Y-84066288D01*
X99850479Y-84145379D01*
X99858212Y-84149613D01*
X99982204Y-84196096D01*
X99989768Y-84197894D01*
X100044293Y-84203817D01*
X100047662Y-84204000D01*
X100190569Y-84204000D01*
X100199359Y-84200359D01*
X100203000Y-84191569D01*
X100203000Y-82633432D01*
X100199359Y-82624642D01*
X100190569Y-82621001D01*
X100047668Y-82621001D01*
X100044298Y-82621183D01*
X99989769Y-82627106D01*
X99982201Y-82628905D01*
X99858212Y-82675387D01*
X99850479Y-82679621D01*
X99744947Y-82758712D01*
X99738712Y-82764947D01*
X99659621Y-82870479D01*
X99655387Y-82878212D01*
X99635523Y-82931199D01*
X99602868Y-82966155D01*
X99555061Y-82967783D01*
X99520105Y-82935128D01*
X99514500Y-82909260D01*
X99514500Y-82510148D01*
X99532806Y-82465954D01*
X99656658Y-82342102D01*
X99700852Y-82323796D01*
X99740192Y-82340087D01*
X99741026Y-82338974D01*
X99853801Y-82423493D01*
X99985764Y-82472964D01*
X100045930Y-82479500D01*
X100614070Y-82479500D01*
X100674236Y-82472964D01*
X100806199Y-82423493D01*
X100918974Y-82338974D01*
X100966988Y-82274909D01*
X101008140Y-82250523D01*
X101054483Y-82262379D01*
X101078869Y-82303532D01*
X101079500Y-82312392D01*
X101079500Y-82788442D01*
X101061194Y-82832636D01*
X101017000Y-82850942D01*
X100972806Y-82832636D01*
X100966987Y-82825924D01*
X100921288Y-82764947D01*
X100915053Y-82758712D01*
X100809521Y-82679621D01*
X100801788Y-82675387D01*
X100677796Y-82628904D01*
X100670232Y-82627106D01*
X100615707Y-82621183D01*
X100612338Y-82621000D01*
X100469431Y-82621000D01*
X100460641Y-82624641D01*
X100457000Y-82633431D01*
X100457000Y-84191568D01*
X100460641Y-84200358D01*
X100469431Y-84203999D01*
X100612332Y-84203999D01*
X100615702Y-84203817D01*
X100670231Y-84197894D01*
X100677799Y-84196095D01*
X100801788Y-84149613D01*
X100809521Y-84145379D01*
X100915053Y-84066288D01*
X100921288Y-84060053D01*
X101000379Y-83954521D01*
X101004613Y-83946788D01*
X101051096Y-83822796D01*
X101052894Y-83815232D01*
X101058817Y-83760707D01*
X101059000Y-83757338D01*
X101059000Y-83564582D01*
X101077306Y-83520388D01*
X101121500Y-83502082D01*
X101166134Y-83521614D01*
X101166494Y-83521254D01*
X101204973Y-83559733D01*
X101206674Y-83561502D01*
X101246617Y-83604712D01*
X101250656Y-83607058D01*
X101254303Y-83609980D01*
X101254068Y-83610273D01*
X101260334Y-83615094D01*
X101444901Y-83799661D01*
X101449789Y-83805161D01*
X101457814Y-83815340D01*
X101473359Y-83835059D01*
X101522889Y-83869291D01*
X101524487Y-83870433D01*
X101569164Y-83903433D01*
X101569166Y-83903434D01*
X101572923Y-83906209D01*
X101577332Y-83907757D01*
X101579253Y-83908774D01*
X101579509Y-83908929D01*
X101579713Y-83909033D01*
X101579989Y-83909149D01*
X101581946Y-83910108D01*
X101585789Y-83912764D01*
X101590244Y-83914173D01*
X101643201Y-83930921D01*
X101645059Y-83931541D01*
X101701874Y-83951492D01*
X101706541Y-83951675D01*
X101708678Y-83952083D01*
X101709258Y-83952230D01*
X101712699Y-83952900D01*
X101716097Y-83953975D01*
X101719650Y-83954255D01*
X101719652Y-83954255D01*
X101721529Y-83954403D01*
X101721542Y-83954404D01*
X101722768Y-83954500D01*
X101777195Y-83954500D01*
X101779649Y-83954548D01*
X101833770Y-83956675D01*
X101833773Y-83956675D01*
X101838437Y-83956858D01*
X101842953Y-83955661D01*
X101847594Y-83955148D01*
X101847635Y-83955522D01*
X101855473Y-83954500D01*
X102064063Y-83954500D01*
X102108257Y-83972806D01*
X102116777Y-83981326D01*
X102230945Y-84039498D01*
X102253312Y-84043041D01*
X102323239Y-84054116D01*
X102323244Y-84054116D01*
X102325666Y-84054500D01*
X103414334Y-84054500D01*
X103416756Y-84054116D01*
X103416761Y-84054116D01*
X103486688Y-84043041D01*
X103509055Y-84039498D01*
X103623223Y-83981326D01*
X103713826Y-83890723D01*
X103752291Y-83815232D01*
X103769766Y-83780936D01*
X103769766Y-83780935D01*
X103771998Y-83776555D01*
X103785232Y-83693000D01*
X103786616Y-83684261D01*
X103786616Y-83684256D01*
X103787000Y-83681834D01*
X104228000Y-83681834D01*
X104228384Y-83684256D01*
X104228384Y-83684261D01*
X104229768Y-83693000D01*
X104243002Y-83776555D01*
X104245234Y-83780935D01*
X104245234Y-83780936D01*
X104262709Y-83815232D01*
X104301174Y-83890723D01*
X104391777Y-83981326D01*
X104505945Y-84039498D01*
X104528312Y-84043041D01*
X104598239Y-84054116D01*
X104598244Y-84054116D01*
X104600666Y-84054500D01*
X105689334Y-84054500D01*
X105691756Y-84054116D01*
X105691761Y-84054116D01*
X105761688Y-84043041D01*
X105784055Y-84039498D01*
X105898223Y-83981326D01*
X105981743Y-83897806D01*
X106025937Y-83879500D01*
X107206311Y-83879500D01*
X107250505Y-83897806D01*
X107264833Y-83920060D01*
X107276507Y-83951199D01*
X107361026Y-84063974D01*
X107473801Y-84148493D01*
X107477969Y-84150056D01*
X107477970Y-84150056D01*
X107600778Y-84196095D01*
X107605764Y-84197964D01*
X107665930Y-84204500D01*
X108234070Y-84204500D01*
X108294236Y-84197964D01*
X108299222Y-84196095D01*
X108422030Y-84150056D01*
X108422031Y-84150056D01*
X108426199Y-84148493D01*
X108538974Y-84063974D01*
X108623493Y-83951199D01*
X108639301Y-83909033D01*
X108671589Y-83822904D01*
X108671589Y-83822903D01*
X108672964Y-83819236D01*
X108679500Y-83759070D01*
X109760500Y-83759070D01*
X109767036Y-83819236D01*
X109768411Y-83822903D01*
X109768411Y-83822904D01*
X109800700Y-83909033D01*
X109816507Y-83951199D01*
X109901026Y-84063974D01*
X110013801Y-84148493D01*
X110069940Y-84169538D01*
X110104895Y-84202192D01*
X110110500Y-84228061D01*
X110110500Y-85677836D01*
X110109100Y-85690991D01*
X110105680Y-85706876D01*
X110106287Y-85712005D01*
X110106287Y-85712008D01*
X110110067Y-85743941D01*
X110110500Y-85751287D01*
X110110500Y-85756524D01*
X110110923Y-85759065D01*
X110110924Y-85759077D01*
X110113915Y-85777042D01*
X110114329Y-85779950D01*
X110120530Y-85832341D01*
X110122766Y-85836998D01*
X110123865Y-85840779D01*
X110125147Y-85844526D01*
X110125996Y-85849626D01*
X110128449Y-85854172D01*
X110128450Y-85854175D01*
X110151051Y-85896061D01*
X110152388Y-85898686D01*
X110167851Y-85930887D01*
X110175219Y-85946232D01*
X110178814Y-85950508D01*
X110179012Y-85950706D01*
X110181612Y-85953786D01*
X110183537Y-85956267D01*
X110185990Y-85960814D01*
X110189785Y-85964322D01*
X110226486Y-85998248D01*
X110228255Y-85999949D01*
X110724582Y-86496276D01*
X110742888Y-86540470D01*
X110736826Y-86564998D01*
X110737633Y-86565332D01*
X110736534Y-86567985D01*
X110735203Y-86570515D01*
X110734356Y-86573242D01*
X110734355Y-86573245D01*
X110726828Y-86597487D01*
X110675007Y-86764378D01*
X110651148Y-86965964D01*
X110651336Y-86968828D01*
X110662190Y-87134431D01*
X110664424Y-87168522D01*
X110714392Y-87365269D01*
X110799377Y-87549616D01*
X110916533Y-87715389D01*
X110918587Y-87717390D01*
X110918588Y-87717391D01*
X110979924Y-87777141D01*
X111061938Y-87857035D01*
X111230720Y-87969812D01*
X111316056Y-88006475D01*
X111414588Y-88048808D01*
X111414590Y-88048809D01*
X111417228Y-88049942D01*
X111464993Y-88060750D01*
X111612426Y-88094111D01*
X111612429Y-88094111D01*
X111615216Y-88094742D01*
X111705164Y-88098276D01*
X111815193Y-88102600D01*
X111815197Y-88102600D01*
X111818053Y-88102712D01*
X111847786Y-88098401D01*
X111929389Y-88086569D01*
X112018945Y-88073584D01*
X112211165Y-88008334D01*
X112388276Y-87909147D01*
X112544345Y-87779345D01*
X112674147Y-87623276D01*
X112773334Y-87446165D01*
X112838584Y-87253945D01*
X112867712Y-87053053D01*
X112869232Y-86995000D01*
X112866303Y-86963116D01*
X112857228Y-86864359D01*
X112850658Y-86792859D01*
X112843456Y-86767322D01*
X112796335Y-86600244D01*
X112796333Y-86600240D01*
X112795557Y-86597487D01*
X112705776Y-86415428D01*
X112704058Y-86413127D01*
X112586037Y-86255078D01*
X112586036Y-86255076D01*
X112584320Y-86252779D01*
X112435258Y-86114987D01*
X112263581Y-86006667D01*
X112075039Y-85931446D01*
X112072233Y-85930888D01*
X112072230Y-85930887D01*
X111878752Y-85892402D01*
X111878750Y-85892402D01*
X111875946Y-85891844D01*
X111780353Y-85890593D01*
X111675833Y-85889224D01*
X111675828Y-85889224D01*
X111672971Y-85889187D01*
X111670151Y-85889672D01*
X111670146Y-85889672D01*
X111557702Y-85908994D01*
X111472910Y-85923564D01*
X111329536Y-85976458D01*
X111281737Y-85974580D01*
X111263709Y-85962015D01*
X110887806Y-85586112D01*
X110869500Y-85541918D01*
X110869500Y-84691945D01*
X111926001Y-84691945D01*
X111926600Y-84698030D01*
X111939536Y-84763068D01*
X111944157Y-84774224D01*
X111993457Y-84848007D01*
X112001993Y-84856543D01*
X112075775Y-84905843D01*
X112086933Y-84910464D01*
X112151970Y-84923401D01*
X112158054Y-84924000D01*
X112890569Y-84924000D01*
X112899359Y-84920359D01*
X112903000Y-84911569D01*
X112903000Y-83959431D01*
X112899359Y-83950641D01*
X112890569Y-83947000D01*
X111938432Y-83947000D01*
X111929642Y-83950641D01*
X111926001Y-83959431D01*
X111926001Y-84691945D01*
X110869500Y-84691945D01*
X110869500Y-84228061D01*
X110887806Y-84183867D01*
X110910060Y-84169539D01*
X110966199Y-84148493D01*
X111078974Y-84063974D01*
X111163493Y-83951199D01*
X111179301Y-83909033D01*
X111211589Y-83822904D01*
X111211589Y-83822903D01*
X111212964Y-83819236D01*
X111219500Y-83759070D01*
X111219500Y-83680569D01*
X111926000Y-83680569D01*
X111929641Y-83689359D01*
X111938431Y-83693000D01*
X112890569Y-83693000D01*
X112899359Y-83689359D01*
X112903000Y-83680569D01*
X112903000Y-82728432D01*
X112899359Y-82719642D01*
X112890569Y-82716001D01*
X112158055Y-82716001D01*
X112151970Y-82716600D01*
X112086932Y-82729536D01*
X112075776Y-82734157D01*
X112001993Y-82783457D01*
X111993457Y-82791993D01*
X111944157Y-82865775D01*
X111939536Y-82876933D01*
X111926599Y-82941970D01*
X111926000Y-82948054D01*
X111926000Y-83680569D01*
X111219500Y-83680569D01*
X111219500Y-83065930D01*
X111212964Y-83005764D01*
X111203475Y-82980453D01*
X111165056Y-82877970D01*
X111165056Y-82877969D01*
X111163493Y-82873801D01*
X111078974Y-82761026D01*
X110966199Y-82676507D01*
X110834236Y-82627036D01*
X110774070Y-82620500D01*
X110205930Y-82620500D01*
X110145764Y-82627036D01*
X110013801Y-82676507D01*
X109901026Y-82761026D01*
X109816507Y-82873801D01*
X109814944Y-82877969D01*
X109814944Y-82877970D01*
X109776525Y-82980453D01*
X109767036Y-83005764D01*
X109760500Y-83065930D01*
X109760500Y-83759070D01*
X108679500Y-83759070D01*
X108679500Y-83065930D01*
X108672964Y-83005764D01*
X108663475Y-82980453D01*
X108625056Y-82877970D01*
X108625056Y-82877969D01*
X108623493Y-82873801D01*
X108538974Y-82761026D01*
X108426199Y-82676507D01*
X108294236Y-82627036D01*
X108234070Y-82620500D01*
X107665930Y-82620500D01*
X107605764Y-82627036D01*
X107473801Y-82676507D01*
X107361026Y-82761026D01*
X107276507Y-82873801D01*
X107274944Y-82877969D01*
X107274944Y-82877970D01*
X107236525Y-82980453D01*
X107227036Y-83005764D01*
X107226613Y-83009660D01*
X107220628Y-83064750D01*
X107197657Y-83106709D01*
X107158494Y-83120500D01*
X106025937Y-83120500D01*
X105981743Y-83102194D01*
X105898223Y-83018674D01*
X105784055Y-82960502D01*
X105761688Y-82956959D01*
X105691761Y-82945884D01*
X105691756Y-82945884D01*
X105689334Y-82945500D01*
X104600666Y-82945500D01*
X104598244Y-82945884D01*
X104598239Y-82945884D01*
X104528312Y-82956959D01*
X104505945Y-82960502D01*
X104391777Y-83018674D01*
X104301174Y-83109277D01*
X104298943Y-83113656D01*
X104245279Y-83218977D01*
X104243002Y-83223445D01*
X104228000Y-83318166D01*
X104228000Y-83681834D01*
X103787000Y-83681834D01*
X103787000Y-83318166D01*
X103771998Y-83223445D01*
X103769722Y-83218977D01*
X103716057Y-83113656D01*
X103713826Y-83109277D01*
X103673390Y-83068841D01*
X103655084Y-83024647D01*
X103673389Y-82980453D01*
X103709941Y-82943900D01*
X103715650Y-82936042D01*
X103769282Y-82830784D01*
X103772286Y-82821540D01*
X103786116Y-82734222D01*
X103786500Y-82729335D01*
X103786500Y-82689431D01*
X103782859Y-82680641D01*
X103774069Y-82677000D01*
X102805500Y-82677000D01*
X102761306Y-82658694D01*
X102743000Y-82614500D01*
X102743000Y-82485500D01*
X102761306Y-82441306D01*
X102805500Y-82423000D01*
X103774068Y-82423000D01*
X103782858Y-82419359D01*
X103786499Y-82410569D01*
X103786499Y-82370666D01*
X103786115Y-82365779D01*
X103772286Y-82278460D01*
X103769282Y-82269216D01*
X103715650Y-82163958D01*
X103709939Y-82156097D01*
X103673390Y-82119548D01*
X103655084Y-82075354D01*
X103673389Y-82031160D01*
X103713826Y-81990723D01*
X103771998Y-81876555D01*
X103778846Y-81833319D01*
X103786616Y-81784261D01*
X103786616Y-81784256D01*
X103787000Y-81781834D01*
X103787000Y-81418166D01*
X103785809Y-81410641D01*
X103772767Y-81328301D01*
X103771998Y-81323445D01*
X103769206Y-81317964D01*
X103729460Y-81239961D01*
X103713826Y-81209277D01*
X103623223Y-81118674D01*
X103547080Y-81079877D01*
X103513436Y-81062734D01*
X103513435Y-81062734D01*
X103509055Y-81060502D01*
X103486688Y-81056959D01*
X103416761Y-81045884D01*
X103416756Y-81045884D01*
X103414334Y-81045500D01*
X102325666Y-81045500D01*
X102323244Y-81045884D01*
X102323239Y-81045884D01*
X102253312Y-81056959D01*
X102230945Y-81060502D01*
X102226565Y-81062734D01*
X102226564Y-81062734D01*
X102192920Y-81079877D01*
X102116777Y-81118674D01*
X102108257Y-81127194D01*
X102064063Y-81145500D01*
X101593248Y-81145500D01*
X101579135Y-81143886D01*
X101574610Y-81142837D01*
X101574609Y-81142837D01*
X101570062Y-81141783D01*
X101523802Y-81145058D01*
X101519765Y-81145344D01*
X101515351Y-81145500D01*
X101032282Y-81145500D01*
X100988088Y-81127194D01*
X100982269Y-81120482D01*
X100961552Y-81092838D01*
X100918974Y-81036026D01*
X100806199Y-80951507D01*
X100716204Y-80917769D01*
X100677904Y-80903411D01*
X100677903Y-80903411D01*
X100674236Y-80902036D01*
X100614070Y-80895500D01*
X100045930Y-80895500D01*
X99985764Y-80902036D01*
X99982097Y-80903411D01*
X99982096Y-80903411D01*
X99943797Y-80917769D01*
X99853801Y-80951507D01*
X99741026Y-81036026D01*
X99656507Y-81148801D01*
X99654944Y-81152969D01*
X99654944Y-81152970D01*
X99637278Y-81200095D01*
X99604624Y-81235051D01*
X99588048Y-81239961D01*
X99533349Y-81248185D01*
X99529138Y-81250207D01*
X99527047Y-81250850D01*
X99526770Y-81250918D01*
X99526548Y-81250990D01*
X99526274Y-81251102D01*
X99524215Y-81251807D01*
X99519617Y-81252647D01*
X99466196Y-81280397D01*
X99464439Y-81281275D01*
X99414359Y-81305323D01*
X99414357Y-81305324D01*
X99410147Y-81307346D01*
X99406718Y-81310516D01*
X99404914Y-81311742D01*
X99404405Y-81312046D01*
X99401500Y-81314003D01*
X99398334Y-81315648D01*
X99393246Y-81319994D01*
X99354767Y-81358473D01*
X99352998Y-81360174D01*
X99309788Y-81400117D01*
X99307442Y-81404156D01*
X99304520Y-81407803D01*
X99304227Y-81407568D01*
X99299406Y-81413834D01*
X98894032Y-81819208D01*
X98849838Y-81837514D01*
X98805644Y-81819208D01*
X98787338Y-81775014D01*
X98795307Y-81744476D01*
X98801473Y-81733466D01*
X98803796Y-81728247D01*
X98867175Y-81541541D01*
X98868507Y-81535992D01*
X98885426Y-81419304D01*
X98883084Y-81410082D01*
X98877904Y-81407000D01*
X97929431Y-81407000D01*
X97920641Y-81410641D01*
X97917000Y-81419431D01*
X97917000Y-82364779D01*
X97920641Y-82373569D01*
X97926208Y-82375875D01*
X98045992Y-82358507D01*
X98051541Y-82357175D01*
X98238247Y-82293796D01*
X98243460Y-82291475D01*
X98415492Y-82195133D01*
X98420194Y-82191902D01*
X98521253Y-82107852D01*
X98566937Y-82093667D01*
X98609271Y-82115940D01*
X98623456Y-82161624D01*
X98620189Y-82176611D01*
X98608507Y-82209874D01*
X98608324Y-82214538D01*
X98607913Y-82216691D01*
X98607772Y-82217252D01*
X98607101Y-82220693D01*
X98606025Y-82224097D01*
X98605745Y-82227653D01*
X98605745Y-82227654D01*
X98605597Y-82229529D01*
X98605596Y-82229542D01*
X98605500Y-82230768D01*
X98605500Y-82285184D01*
X98605452Y-82287637D01*
X98603569Y-82335575D01*
X98603142Y-82346437D01*
X98604339Y-82350952D01*
X98604852Y-82355594D01*
X98604478Y-82355635D01*
X98605500Y-82363473D01*
X98605500Y-82653000D01*
X98587194Y-82697194D01*
X98543000Y-82715500D01*
X96994111Y-82715501D01*
X96914934Y-82715501D01*
X96911925Y-82716100D01*
X96911920Y-82716100D01*
X96869086Y-82724620D01*
X96849191Y-82728577D01*
X96802276Y-82719244D01*
X96775701Y-82679470D01*
X96774500Y-82667278D01*
X96774500Y-81952827D01*
X96792806Y-81908633D01*
X96837000Y-81890327D01*
X96881194Y-81908633D01*
X96888040Y-81916756D01*
X96945257Y-81997717D01*
X96948970Y-82002065D01*
X97090203Y-82139647D01*
X97094636Y-82143236D01*
X97258576Y-82252778D01*
X97263598Y-82255504D01*
X97444744Y-82333331D01*
X97450183Y-82335098D01*
X97642492Y-82378614D01*
X97648141Y-82379357D01*
X97650577Y-82379453D01*
X97658827Y-82376409D01*
X97663000Y-82366869D01*
X97663000Y-81140569D01*
X97917000Y-81140569D01*
X97920641Y-81149359D01*
X97929431Y-81153000D01*
X98874629Y-81153000D01*
X98883419Y-81149359D01*
X98886125Y-81142826D01*
X98880426Y-81080805D01*
X98879385Y-81075187D01*
X98825867Y-80885424D01*
X98823824Y-80880102D01*
X98736616Y-80703261D01*
X98733630Y-80698389D01*
X98615664Y-80540414D01*
X98611841Y-80536169D01*
X98467060Y-80402334D01*
X98462525Y-80398854D01*
X98295774Y-80293642D01*
X98290696Y-80291054D01*
X98107553Y-80217988D01*
X98102087Y-80216369D01*
X97929193Y-80181978D01*
X97919861Y-80183834D01*
X97917000Y-80188117D01*
X97917000Y-81140569D01*
X97663000Y-81140569D01*
X97663000Y-80193994D01*
X97659359Y-80185204D01*
X97654214Y-80183073D01*
X97505870Y-80208563D01*
X97500347Y-80210042D01*
X97315367Y-80278285D01*
X97310218Y-80280741D01*
X97140770Y-80381552D01*
X97136148Y-80384911D01*
X96987910Y-80514912D01*
X96983983Y-80519050D01*
X96886082Y-80643236D01*
X96844346Y-80666609D01*
X96798306Y-80653624D01*
X96774933Y-80611888D01*
X96774500Y-80604542D01*
X96774500Y-79947332D01*
X99601001Y-79947332D01*
X99601183Y-79950702D01*
X99607106Y-80005231D01*
X99608905Y-80012799D01*
X99655387Y-80136788D01*
X99659621Y-80144521D01*
X99738712Y-80250053D01*
X99744947Y-80256288D01*
X99850479Y-80335379D01*
X99858212Y-80339613D01*
X99982204Y-80386096D01*
X99989768Y-80387894D01*
X100044293Y-80393817D01*
X100047662Y-80394000D01*
X100190569Y-80394000D01*
X100199359Y-80390359D01*
X100203000Y-80381569D01*
X100203000Y-80381568D01*
X100457000Y-80381568D01*
X100460641Y-80390358D01*
X100469431Y-80393999D01*
X100612332Y-80393999D01*
X100615702Y-80393817D01*
X100670231Y-80387894D01*
X100677799Y-80386095D01*
X100801788Y-80339613D01*
X100809521Y-80335379D01*
X100915053Y-80256288D01*
X100921288Y-80250053D01*
X101000379Y-80144521D01*
X101004613Y-80136788D01*
X101041523Y-80038332D01*
X101216001Y-80038332D01*
X101216183Y-80041702D01*
X101222106Y-80096231D01*
X101223905Y-80103799D01*
X101270387Y-80227788D01*
X101274621Y-80235521D01*
X101353712Y-80341053D01*
X101359947Y-80347288D01*
X101465479Y-80426379D01*
X101473212Y-80430613D01*
X101597204Y-80477096D01*
X101604768Y-80478894D01*
X101659293Y-80484817D01*
X101662662Y-80485000D01*
X101868069Y-80485000D01*
X101876859Y-80481359D01*
X101880500Y-80472569D01*
X101880500Y-80472568D01*
X102134500Y-80472568D01*
X102138141Y-80481358D01*
X102146931Y-80484999D01*
X102352332Y-80484999D01*
X102355702Y-80484817D01*
X102410231Y-80478894D01*
X102417799Y-80477095D01*
X102541788Y-80430613D01*
X102549521Y-80426379D01*
X102655053Y-80347288D01*
X102661288Y-80341053D01*
X102740379Y-80235521D01*
X102744613Y-80227788D01*
X102791096Y-80103796D01*
X102792894Y-80096232D01*
X102798817Y-80041707D01*
X102799000Y-80038338D01*
X102799000Y-79895431D01*
X102795359Y-79886641D01*
X102786569Y-79883000D01*
X102146931Y-79883000D01*
X102138141Y-79886641D01*
X102134500Y-79895431D01*
X102134500Y-80472568D01*
X101880500Y-80472568D01*
X101880500Y-79895431D01*
X101876859Y-79886641D01*
X101868069Y-79883000D01*
X101228432Y-79883000D01*
X101219642Y-79886641D01*
X101216001Y-79895431D01*
X101216001Y-80038332D01*
X101041523Y-80038332D01*
X101051096Y-80012796D01*
X101052894Y-80005232D01*
X101058817Y-79950707D01*
X101059000Y-79947338D01*
X101059000Y-79741931D01*
X101055359Y-79733141D01*
X101046569Y-79729500D01*
X100469431Y-79729500D01*
X100460641Y-79733141D01*
X100457000Y-79741931D01*
X100457000Y-80381568D01*
X100203000Y-80381568D01*
X100203000Y-79741931D01*
X100199359Y-79733141D01*
X100190569Y-79729500D01*
X99613432Y-79729500D01*
X99604642Y-79733141D01*
X99601001Y-79741931D01*
X99601001Y-79947332D01*
X96774500Y-79947332D01*
X96774500Y-79413694D01*
X96792806Y-79369500D01*
X96837000Y-79351194D01*
X96881194Y-79369500D01*
X96888040Y-79377623D01*
X96912168Y-79411764D01*
X96946533Y-79460389D01*
X97091938Y-79602035D01*
X97260720Y-79714812D01*
X97347124Y-79751934D01*
X97444588Y-79793808D01*
X97444590Y-79793809D01*
X97447228Y-79794942D01*
X97547641Y-79817663D01*
X97642426Y-79839111D01*
X97642429Y-79839111D01*
X97645216Y-79839742D01*
X97735164Y-79843276D01*
X97845193Y-79847600D01*
X97845197Y-79847600D01*
X97848053Y-79847712D01*
X98048945Y-79818584D01*
X98241165Y-79753334D01*
X98418276Y-79654147D01*
X98463458Y-79616569D01*
X101216000Y-79616569D01*
X101219641Y-79625359D01*
X101228431Y-79629000D01*
X101868069Y-79629000D01*
X101876859Y-79625359D01*
X101880500Y-79616569D01*
X102134500Y-79616569D01*
X102138141Y-79625359D01*
X102146931Y-79629000D01*
X102786568Y-79629000D01*
X102795358Y-79625359D01*
X102798999Y-79616569D01*
X102798999Y-79473668D01*
X102798817Y-79470298D01*
X102792894Y-79415769D01*
X102791095Y-79408201D01*
X102744613Y-79284212D01*
X102740379Y-79276479D01*
X102661288Y-79170947D01*
X102655053Y-79164712D01*
X102549521Y-79085621D01*
X102541788Y-79081387D01*
X102417796Y-79034904D01*
X102410232Y-79033106D01*
X102355707Y-79027183D01*
X102352338Y-79027000D01*
X102146931Y-79027000D01*
X102138141Y-79030641D01*
X102134500Y-79039431D01*
X102134500Y-79616569D01*
X101880500Y-79616569D01*
X101880500Y-79039432D01*
X101876859Y-79030642D01*
X101868069Y-79027001D01*
X101662668Y-79027001D01*
X101659298Y-79027183D01*
X101604769Y-79033106D01*
X101597201Y-79034905D01*
X101473212Y-79081387D01*
X101465479Y-79085621D01*
X101359947Y-79164712D01*
X101353712Y-79170947D01*
X101274621Y-79276479D01*
X101270387Y-79284212D01*
X101223904Y-79408204D01*
X101222106Y-79415768D01*
X101216183Y-79470293D01*
X101216000Y-79473662D01*
X101216000Y-79616569D01*
X98463458Y-79616569D01*
X98574345Y-79524345D01*
X98625308Y-79463069D01*
X99601000Y-79463069D01*
X99604641Y-79471859D01*
X99613431Y-79475500D01*
X100190569Y-79475500D01*
X100199359Y-79471859D01*
X100203000Y-79463069D01*
X100457000Y-79463069D01*
X100460641Y-79471859D01*
X100469431Y-79475500D01*
X101046568Y-79475500D01*
X101055358Y-79471859D01*
X101058999Y-79463069D01*
X101058999Y-79257668D01*
X101058817Y-79254298D01*
X101052894Y-79199769D01*
X101051095Y-79192201D01*
X101004613Y-79068212D01*
X101000379Y-79060479D01*
X100921288Y-78954947D01*
X100915053Y-78948712D01*
X100809521Y-78869621D01*
X100801788Y-78865387D01*
X100677796Y-78818904D01*
X100670232Y-78817106D01*
X100615707Y-78811183D01*
X100612338Y-78811000D01*
X100469431Y-78811000D01*
X100460641Y-78814641D01*
X100457000Y-78823431D01*
X100457000Y-79463069D01*
X100203000Y-79463069D01*
X100203000Y-78823432D01*
X100199359Y-78814642D01*
X100190569Y-78811001D01*
X100047668Y-78811001D01*
X100044298Y-78811183D01*
X99989769Y-78817106D01*
X99982201Y-78818905D01*
X99858212Y-78865387D01*
X99850479Y-78869621D01*
X99744947Y-78948712D01*
X99738712Y-78954947D01*
X99659621Y-79060479D01*
X99655387Y-79068212D01*
X99608904Y-79192204D01*
X99607106Y-79199768D01*
X99601183Y-79254293D01*
X99601000Y-79257662D01*
X99601000Y-79463069D01*
X98625308Y-79463069D01*
X98704147Y-79368276D01*
X98803334Y-79191165D01*
X98868584Y-78998945D01*
X98887949Y-78865387D01*
X98897449Y-78799869D01*
X98897449Y-78799864D01*
X98897712Y-78798053D01*
X98899232Y-78740000D01*
X98898305Y-78729905D01*
X98880920Y-78540714D01*
X98880658Y-78537859D01*
X98879326Y-78533136D01*
X98845011Y-78411465D01*
X98850633Y-78363961D01*
X98888199Y-78334347D01*
X98905164Y-78332000D01*
X99581625Y-78332000D01*
X99625819Y-78350306D01*
X99640147Y-78372560D01*
X99656507Y-78416199D01*
X99659178Y-78419763D01*
X99678141Y-78445066D01*
X99741026Y-78528974D01*
X99744590Y-78531645D01*
X99844528Y-78606543D01*
X99853801Y-78613493D01*
X99857969Y-78615056D01*
X99857970Y-78615056D01*
X99982040Y-78661568D01*
X99985764Y-78662964D01*
X100045930Y-78669500D01*
X100614070Y-78669500D01*
X100674236Y-78662964D01*
X100677960Y-78661568D01*
X100802030Y-78615056D01*
X100802031Y-78615056D01*
X100806199Y-78613493D01*
X100815473Y-78606543D01*
X100915410Y-78531645D01*
X100918974Y-78528974D01*
X100981859Y-78445066D01*
X101000822Y-78419763D01*
X101003493Y-78416199D01*
X101019852Y-78372561D01*
X101052506Y-78337605D01*
X101078375Y-78332000D01*
X102589270Y-78332000D01*
X102631333Y-78348273D01*
X102704576Y-78414919D01*
X102707885Y-78416716D01*
X102707887Y-78416717D01*
X102805868Y-78469916D01*
X102843793Y-78490508D01*
X102847440Y-78491465D01*
X102847443Y-78491466D01*
X102973057Y-78524420D01*
X102997022Y-78530707D01*
X103081657Y-78532036D01*
X103151647Y-78533136D01*
X103151649Y-78533136D01*
X103155416Y-78533195D01*
X103309832Y-78497829D01*
X103313196Y-78496137D01*
X103313199Y-78496136D01*
X103380111Y-78462483D01*
X103451355Y-78426651D01*
X103454222Y-78424202D01*
X103454227Y-78424199D01*
X103544645Y-78346975D01*
X103585235Y-78332000D01*
X103825352Y-78332000D01*
X103869546Y-78350306D01*
X104683194Y-79163954D01*
X104701500Y-79208148D01*
X104701500Y-79239000D01*
X104683194Y-79283194D01*
X104639000Y-79301500D01*
X104516019Y-79301500D01*
X104471825Y-79283194D01*
X104466006Y-79276482D01*
X104386645Y-79170590D01*
X104383974Y-79167026D01*
X104271199Y-79082507D01*
X104233068Y-79068212D01*
X104142904Y-79034411D01*
X104142903Y-79034411D01*
X104139236Y-79033036D01*
X104079070Y-79026500D01*
X103385930Y-79026500D01*
X103325764Y-79033036D01*
X103322097Y-79034411D01*
X103322096Y-79034411D01*
X103231933Y-79068212D01*
X103193801Y-79082507D01*
X103081026Y-79167026D01*
X102996507Y-79279801D01*
X102947036Y-79411764D01*
X102940500Y-79471930D01*
X102940500Y-80040070D01*
X102947036Y-80100236D01*
X102948411Y-80103903D01*
X102948411Y-80103904D01*
X102991180Y-80217988D01*
X102996507Y-80232199D01*
X103081026Y-80344974D01*
X103193801Y-80429493D01*
X103197969Y-80431056D01*
X103197970Y-80431056D01*
X103294568Y-80467269D01*
X103325764Y-80478964D01*
X103385930Y-80485500D01*
X104079070Y-80485500D01*
X104139236Y-80478964D01*
X104170432Y-80467269D01*
X104267030Y-80431056D01*
X104267031Y-80431056D01*
X104271199Y-80429493D01*
X104383974Y-80344974D01*
X104437561Y-80273473D01*
X104478712Y-80249086D01*
X104525055Y-80260942D01*
X104546266Y-80289476D01*
X104547068Y-80291667D01*
X104557553Y-80320319D01*
X104598427Y-80381146D01*
X104631668Y-80430613D01*
X104645908Y-80451805D01*
X104648695Y-80454341D01*
X104670063Y-80473784D01*
X104690500Y-80520011D01*
X104690500Y-80983000D01*
X104672194Y-81027194D01*
X104628000Y-81045500D01*
X104600666Y-81045500D01*
X104598244Y-81045884D01*
X104598239Y-81045884D01*
X104528312Y-81056959D01*
X104505945Y-81060502D01*
X104501565Y-81062734D01*
X104501564Y-81062734D01*
X104467920Y-81079877D01*
X104391777Y-81118674D01*
X104301174Y-81209277D01*
X104285540Y-81239961D01*
X104245795Y-81317964D01*
X104243002Y-81323445D01*
X104242233Y-81328301D01*
X104229192Y-81410641D01*
X104228000Y-81418166D01*
X104228000Y-81781834D01*
X104228384Y-81784256D01*
X104228384Y-81784261D01*
X104236154Y-81833319D01*
X104243002Y-81876555D01*
X104301174Y-81990723D01*
X104391777Y-82081326D01*
X104505945Y-82139498D01*
X104528312Y-82143041D01*
X104598239Y-82154116D01*
X104598244Y-82154116D01*
X104600666Y-82154500D01*
X105689334Y-82154500D01*
X105691756Y-82154116D01*
X105691761Y-82154116D01*
X105761688Y-82143041D01*
X105784055Y-82139498D01*
X105898223Y-82081326D01*
X105947217Y-82032332D01*
X107221001Y-82032332D01*
X107221183Y-82035702D01*
X107227106Y-82090231D01*
X107228905Y-82097799D01*
X107275387Y-82221788D01*
X107279621Y-82229521D01*
X107358712Y-82335053D01*
X107364947Y-82341288D01*
X107470479Y-82420379D01*
X107478212Y-82424613D01*
X107602204Y-82471096D01*
X107609768Y-82472894D01*
X107664293Y-82478817D01*
X107667662Y-82479000D01*
X107810569Y-82479000D01*
X107819359Y-82475359D01*
X107823000Y-82466569D01*
X107823000Y-81826931D01*
X107819359Y-81818141D01*
X107810569Y-81814500D01*
X107233432Y-81814500D01*
X107224642Y-81818141D01*
X107221001Y-81826931D01*
X107221001Y-82032332D01*
X105947217Y-82032332D01*
X105988826Y-81990723D01*
X106046998Y-81876555D01*
X106053846Y-81833319D01*
X106061616Y-81784261D01*
X106061616Y-81784256D01*
X106062000Y-81781834D01*
X106062000Y-81548069D01*
X107221000Y-81548069D01*
X107224641Y-81556859D01*
X107233431Y-81560500D01*
X107810569Y-81560500D01*
X107819359Y-81556859D01*
X107823000Y-81548069D01*
X107823000Y-80908432D01*
X107819359Y-80899642D01*
X107810569Y-80896001D01*
X107667668Y-80896001D01*
X107664298Y-80896183D01*
X107609769Y-80902106D01*
X107602201Y-80903905D01*
X107478212Y-80950387D01*
X107470479Y-80954621D01*
X107364947Y-81033712D01*
X107358712Y-81039947D01*
X107279621Y-81145479D01*
X107275387Y-81153212D01*
X107228904Y-81277204D01*
X107227106Y-81284768D01*
X107221183Y-81339293D01*
X107221000Y-81342662D01*
X107221000Y-81548069D01*
X106062000Y-81548069D01*
X106062000Y-81418166D01*
X106060809Y-81410641D01*
X106047767Y-81328301D01*
X106046998Y-81323445D01*
X106044206Y-81317964D01*
X106004460Y-81239961D01*
X105988826Y-81209277D01*
X105898223Y-81118674D01*
X105822080Y-81079877D01*
X105788436Y-81062734D01*
X105788435Y-81062734D01*
X105784055Y-81060502D01*
X105761688Y-81056959D01*
X105691761Y-81045884D01*
X105691756Y-81045884D01*
X105689334Y-81045500D01*
X105662000Y-81045500D01*
X105617806Y-81027194D01*
X105599500Y-80983000D01*
X105599500Y-80522400D01*
X105621408Y-80474876D01*
X105627451Y-80469715D01*
X105627454Y-80469712D01*
X105630314Y-80467269D01*
X105632509Y-80464214D01*
X105632512Y-80464211D01*
X105720555Y-80341686D01*
X105720556Y-80341684D01*
X105722755Y-80338624D01*
X105781842Y-80191641D01*
X105803653Y-80038383D01*
X105803875Y-80036826D01*
X105803875Y-80036821D01*
X105804162Y-80034807D01*
X105804307Y-80021000D01*
X105785276Y-79863733D01*
X105729280Y-79715546D01*
X105639553Y-79584992D01*
X105636741Y-79582487D01*
X105636737Y-79582482D01*
X105631425Y-79577750D01*
X105610500Y-79531084D01*
X105610500Y-79024710D01*
X105610933Y-79017364D01*
X105614858Y-78984200D01*
X105615407Y-78979562D01*
X105610912Y-78954947D01*
X105604587Y-78920319D01*
X105604265Y-78918382D01*
X105596010Y-78863474D01*
X105595315Y-78858849D01*
X105593291Y-78854635D01*
X105592651Y-78852553D01*
X105592580Y-78852262D01*
X105592509Y-78852045D01*
X105592398Y-78851773D01*
X105591693Y-78849713D01*
X105590853Y-78845116D01*
X105563094Y-78791677D01*
X105562222Y-78789933D01*
X105538176Y-78739857D01*
X105538175Y-78739855D01*
X105536154Y-78735647D01*
X105532984Y-78732218D01*
X105531758Y-78730414D01*
X105531454Y-78729905D01*
X105529497Y-78727000D01*
X105527852Y-78723834D01*
X105523506Y-78718746D01*
X105485027Y-78680267D01*
X105483326Y-78678498D01*
X105446555Y-78638719D01*
X105446553Y-78638718D01*
X105443383Y-78635288D01*
X105439344Y-78632942D01*
X105435697Y-78630020D01*
X105435932Y-78629727D01*
X105429666Y-78624906D01*
X104382599Y-77577839D01*
X104377711Y-77572339D01*
X104357031Y-77546107D01*
X104354141Y-77542441D01*
X104304594Y-77508197D01*
X104303007Y-77507063D01*
X104254576Y-77471291D01*
X104250169Y-77469743D01*
X104248233Y-77468718D01*
X104247985Y-77468567D01*
X104247027Y-77468079D01*
X104246419Y-77467757D01*
X104246183Y-77467472D01*
X104241925Y-77464884D01*
X104241711Y-77464736D01*
X104241710Y-77464736D01*
X104241680Y-77464715D01*
X104242693Y-77463252D01*
X104215931Y-77430896D01*
X104220438Y-77383274D01*
X104261717Y-77351602D01*
X104359660Y-77329170D01*
X104363332Y-77328329D01*
X104366696Y-77326637D01*
X104366699Y-77326636D01*
X104433611Y-77292983D01*
X104504855Y-77257151D01*
X104507720Y-77254704D01*
X104507723Y-77254702D01*
X104573055Y-77198902D01*
X104625314Y-77154269D01*
X104627509Y-77151214D01*
X104627512Y-77151211D01*
X104715555Y-77028686D01*
X104715556Y-77028684D01*
X104717755Y-77025624D01*
X104719160Y-77022128D01*
X104720740Y-77019255D01*
X104758074Y-76989348D01*
X104805620Y-76994599D01*
X104827384Y-77014508D01*
X104836911Y-77028686D01*
X104879481Y-77092036D01*
X104910908Y-77138805D01*
X105028076Y-77245419D01*
X105031385Y-77247216D01*
X105031387Y-77247217D01*
X105061830Y-77263746D01*
X105167293Y-77321008D01*
X105170940Y-77321965D01*
X105170943Y-77321966D01*
X105283910Y-77351602D01*
X105320522Y-77361207D01*
X105405157Y-77362536D01*
X105475147Y-77363636D01*
X105475149Y-77363636D01*
X105478916Y-77363695D01*
X105633332Y-77328329D01*
X105636696Y-77326637D01*
X105636699Y-77326636D01*
X105703611Y-77292983D01*
X105774855Y-77257151D01*
X105777720Y-77254704D01*
X105777723Y-77254702D01*
X105843055Y-77198902D01*
X105895314Y-77154269D01*
X105897509Y-77151214D01*
X105897512Y-77151211D01*
X105985555Y-77028686D01*
X105985556Y-77028684D01*
X105987755Y-77025624D01*
X105989160Y-77022128D01*
X105990740Y-77019255D01*
X106028074Y-76989348D01*
X106075620Y-76994599D01*
X106097384Y-77014508D01*
X106106911Y-77028686D01*
X106149481Y-77092036D01*
X106180908Y-77138805D01*
X106298076Y-77245419D01*
X106301385Y-77247216D01*
X106301387Y-77247217D01*
X106331830Y-77263746D01*
X106437293Y-77321008D01*
X106440940Y-77321965D01*
X106440943Y-77321966D01*
X106553910Y-77351602D01*
X106590522Y-77361207D01*
X106675157Y-77362536D01*
X106745147Y-77363636D01*
X106745149Y-77363636D01*
X106748916Y-77363695D01*
X106903332Y-77328329D01*
X106906696Y-77326637D01*
X106906699Y-77326636D01*
X106973611Y-77292983D01*
X107044855Y-77257151D01*
X107047720Y-77254704D01*
X107047723Y-77254702D01*
X107113055Y-77198902D01*
X107165314Y-77154269D01*
X107167509Y-77151214D01*
X107167512Y-77151211D01*
X107255555Y-77028686D01*
X107255556Y-77028684D01*
X107257755Y-77025624D01*
X107316842Y-76878641D01*
X107326944Y-76807656D01*
X107338875Y-76723826D01*
X107338875Y-76723821D01*
X107339162Y-76721807D01*
X107339307Y-76708000D01*
X107320276Y-76550733D01*
X107264280Y-76402546D01*
X107174553Y-76271992D01*
X107080423Y-76188125D01*
X107059500Y-76141461D01*
X107059500Y-75728085D01*
X107077806Y-75683891D01*
X107390953Y-75370742D01*
X107393127Y-75368568D01*
X107419039Y-75329790D01*
X107458813Y-75303215D01*
X107505729Y-75312548D01*
X107515199Y-75320320D01*
X107613875Y-75418996D01*
X107622184Y-75429284D01*
X107631002Y-75442940D01*
X107652742Y-75460078D01*
X107660316Y-75466049D01*
X107665817Y-75470938D01*
X107669517Y-75474638D01*
X107671611Y-75476134D01*
X107671614Y-75476137D01*
X107686436Y-75486729D01*
X107688790Y-75488496D01*
X107726162Y-75517957D01*
X107730220Y-75521156D01*
X107735096Y-75522868D01*
X107738597Y-75524793D01*
X107742108Y-75526513D01*
X107746307Y-75529514D01*
X107751249Y-75530992D01*
X107751253Y-75530994D01*
X107787419Y-75541809D01*
X107796873Y-75544637D01*
X107799667Y-75545545D01*
X107845712Y-75561715D01*
X107845716Y-75561716D01*
X107849424Y-75563018D01*
X107853424Y-75563364D01*
X107853647Y-75563384D01*
X107853652Y-75563384D01*
X107854989Y-75563500D01*
X107855266Y-75563500D01*
X107859292Y-75563840D01*
X107862401Y-75564233D01*
X107867351Y-75565713D01*
X107890624Y-75564799D01*
X107895401Y-75564611D01*
X107940280Y-75581168D01*
X107960307Y-75624609D01*
X107942049Y-75671257D01*
X107715004Y-75898302D01*
X107704716Y-75906611D01*
X107691060Y-75915429D01*
X107687863Y-75919485D01*
X107667951Y-75944743D01*
X107663062Y-75950244D01*
X107659362Y-75953944D01*
X107657866Y-75956038D01*
X107657863Y-75956041D01*
X107647271Y-75970863D01*
X107645504Y-75973217D01*
X107624644Y-75999678D01*
X107612844Y-76014647D01*
X107611132Y-76019523D01*
X107609207Y-76023024D01*
X107607487Y-76026535D01*
X107604486Y-76030734D01*
X107603008Y-76035676D01*
X107603006Y-76035680D01*
X107589366Y-76081292D01*
X107588455Y-76084094D01*
X107572285Y-76130139D01*
X107572284Y-76130143D01*
X107570982Y-76133851D01*
X107570500Y-76139416D01*
X107570500Y-76139693D01*
X107570160Y-76143719D01*
X107569767Y-76146828D01*
X107568287Y-76151778D01*
X107568490Y-76156939D01*
X107570452Y-76206882D01*
X107570500Y-76209336D01*
X107570500Y-76311594D01*
X107559967Y-76346317D01*
X107514981Y-76413643D01*
X107510266Y-76420699D01*
X107503691Y-76453753D01*
X107498407Y-76480320D01*
X107495500Y-76494933D01*
X107495501Y-78445066D01*
X107496100Y-78448075D01*
X107496100Y-78448080D01*
X107507749Y-78506647D01*
X107510266Y-78519301D01*
X107566516Y-78603484D01*
X107571633Y-78606903D01*
X107645580Y-78656314D01*
X107645582Y-78656315D01*
X107650699Y-78659734D01*
X107683753Y-78666309D01*
X107721920Y-78673901D01*
X107721923Y-78673901D01*
X107724933Y-78674500D01*
X107950000Y-78674500D01*
X108175066Y-78674499D01*
X108178075Y-78673900D01*
X108178080Y-78673900D01*
X108243263Y-78660935D01*
X108249301Y-78659734D01*
X108333484Y-78603484D01*
X108379180Y-78535096D01*
X108386314Y-78524420D01*
X108386315Y-78524418D01*
X108389734Y-78519301D01*
X108404500Y-78445067D01*
X108404500Y-78441945D01*
X108696001Y-78441945D01*
X108696600Y-78448030D01*
X108709536Y-78513068D01*
X108714157Y-78524224D01*
X108763457Y-78598007D01*
X108771993Y-78606543D01*
X108845775Y-78655843D01*
X108856933Y-78660464D01*
X108921970Y-78673401D01*
X108928054Y-78674000D01*
X109010569Y-78674000D01*
X109019359Y-78670359D01*
X109023000Y-78661569D01*
X109023000Y-78661568D01*
X109277000Y-78661568D01*
X109280641Y-78670358D01*
X109289431Y-78673999D01*
X109371945Y-78673999D01*
X109378030Y-78673400D01*
X109443068Y-78660464D01*
X109454224Y-78655843D01*
X109528007Y-78606543D01*
X109536543Y-78598007D01*
X109585843Y-78524225D01*
X109590464Y-78513067D01*
X109603401Y-78448030D01*
X109604000Y-78441946D01*
X109604000Y-77609431D01*
X109600359Y-77600641D01*
X109591569Y-77597000D01*
X109289431Y-77597000D01*
X109280641Y-77600641D01*
X109277000Y-77609431D01*
X109277000Y-78661568D01*
X109023000Y-78661568D01*
X109023000Y-77609431D01*
X109019359Y-77600641D01*
X109010569Y-77597000D01*
X108708432Y-77597000D01*
X108699642Y-77600641D01*
X108696001Y-77609431D01*
X108696001Y-78441945D01*
X108404500Y-78441945D01*
X108404499Y-77330569D01*
X108696000Y-77330569D01*
X108699641Y-77339359D01*
X108708431Y-77343000D01*
X109010569Y-77343000D01*
X109019359Y-77339359D01*
X109023000Y-77330569D01*
X109277000Y-77330569D01*
X109280641Y-77339359D01*
X109289431Y-77343000D01*
X109591568Y-77343000D01*
X109600358Y-77339359D01*
X109603999Y-77330569D01*
X109603999Y-76498055D01*
X109603400Y-76491970D01*
X109590464Y-76426932D01*
X109585843Y-76415776D01*
X109536543Y-76341993D01*
X109528007Y-76333457D01*
X109454225Y-76284157D01*
X109443067Y-76279536D01*
X109378030Y-76266599D01*
X109371946Y-76266000D01*
X109289431Y-76266000D01*
X109280641Y-76269641D01*
X109277000Y-76278431D01*
X109277000Y-77330569D01*
X109023000Y-77330569D01*
X109023000Y-76278432D01*
X109019359Y-76269642D01*
X109010569Y-76266001D01*
X108928055Y-76266001D01*
X108921970Y-76266600D01*
X108856932Y-76279536D01*
X108845776Y-76284157D01*
X108771993Y-76333457D01*
X108763457Y-76341993D01*
X108714157Y-76415775D01*
X108709536Y-76426933D01*
X108696599Y-76491970D01*
X108696000Y-76498054D01*
X108696000Y-77330569D01*
X108404499Y-77330569D01*
X108404499Y-76494934D01*
X108402577Y-76485266D01*
X108390935Y-76426737D01*
X108389734Y-76420699D01*
X108385020Y-76413643D01*
X108368668Y-76389172D01*
X108359335Y-76342256D01*
X108376440Y-76310254D01*
X108478591Y-76208104D01*
X108596889Y-76089806D01*
X108641083Y-76071500D01*
X109172836Y-76071500D01*
X109185992Y-76072900D01*
X109201876Y-76076320D01*
X109207005Y-76075713D01*
X109207008Y-76075713D01*
X109238941Y-76071933D01*
X109246287Y-76071500D01*
X109251524Y-76071500D01*
X109254065Y-76071077D01*
X109254077Y-76071076D01*
X109272042Y-76068085D01*
X109274950Y-76067671D01*
X109327341Y-76061470D01*
X109331998Y-76059234D01*
X109335779Y-76058135D01*
X109339526Y-76056853D01*
X109344626Y-76056004D01*
X109349172Y-76053551D01*
X109349175Y-76053550D01*
X109391061Y-76030949D01*
X109393686Y-76029612D01*
X109437686Y-76008484D01*
X109437688Y-76008483D01*
X109441232Y-76006781D01*
X109444241Y-76004252D01*
X109444243Y-76004250D01*
X109444473Y-76004056D01*
X109445508Y-76003186D01*
X109445706Y-76002988D01*
X109448786Y-76000388D01*
X109451267Y-75998463D01*
X109455814Y-75996010D01*
X109493248Y-75955514D01*
X109494949Y-75953745D01*
X109863806Y-75584888D01*
X109908000Y-75566582D01*
X109952194Y-75584888D01*
X109970500Y-75629082D01*
X109970500Y-76311594D01*
X109959967Y-76346317D01*
X109914981Y-76413643D01*
X109910266Y-76420699D01*
X109903691Y-76453753D01*
X109898407Y-76480320D01*
X109895500Y-76494933D01*
X109895501Y-78445066D01*
X109896100Y-78448075D01*
X109896100Y-78448080D01*
X109907749Y-78506647D01*
X109910266Y-78519301D01*
X109966516Y-78603484D01*
X109971633Y-78606903D01*
X110045580Y-78656314D01*
X110045582Y-78656315D01*
X110050699Y-78659734D01*
X110083753Y-78666309D01*
X110121920Y-78673901D01*
X110121923Y-78673901D01*
X110124933Y-78674500D01*
X110350000Y-78674500D01*
X110575066Y-78674499D01*
X110578075Y-78673900D01*
X110578080Y-78673900D01*
X110643263Y-78660935D01*
X110649301Y-78659734D01*
X110733484Y-78603484D01*
X110779180Y-78535096D01*
X110786314Y-78524420D01*
X110786315Y-78524418D01*
X110789734Y-78519301D01*
X110804500Y-78445067D01*
X110804499Y-76494934D01*
X110802577Y-76485266D01*
X110790935Y-76426737D01*
X110789734Y-76420699D01*
X110740033Y-76346317D01*
X110729500Y-76311594D01*
X110729500Y-75381478D01*
X110747806Y-75337284D01*
X111137996Y-74947094D01*
X111148284Y-74938785D01*
X111161940Y-74929967D01*
X111185049Y-74900653D01*
X111189938Y-74895152D01*
X111193638Y-74891452D01*
X111205729Y-74874533D01*
X111207496Y-74872179D01*
X111236957Y-74834807D01*
X111240156Y-74830749D01*
X111241868Y-74825873D01*
X111243793Y-74822372D01*
X111245513Y-74818861D01*
X111248514Y-74814662D01*
X111249992Y-74809720D01*
X111249994Y-74809716D01*
X111263634Y-74764104D01*
X111264545Y-74761302D01*
X111280715Y-74715257D01*
X111280716Y-74715253D01*
X111282018Y-74711545D01*
X111282500Y-74705980D01*
X111282500Y-74705703D01*
X111282840Y-74701677D01*
X111283233Y-74698568D01*
X111284713Y-74693618D01*
X111282548Y-74638513D01*
X111282500Y-74636060D01*
X111282500Y-72327786D01*
X111286030Y-72307077D01*
X111292274Y-72289296D01*
X111293575Y-72285592D01*
X111294057Y-72280027D01*
X111294057Y-72279750D01*
X111294397Y-72275724D01*
X111294790Y-72272615D01*
X111296270Y-72267665D01*
X111294105Y-72212560D01*
X111294057Y-72210107D01*
X111294057Y-71493526D01*
X111312363Y-71449332D01*
X111352925Y-71408770D01*
X111394977Y-71345837D01*
X111414728Y-71246536D01*
X111400207Y-71173528D01*
X111396178Y-71153273D01*
X111394977Y-71147235D01*
X111357378Y-71090964D01*
X111354633Y-71086855D01*
X111354632Y-71086854D01*
X111352927Y-71084302D01*
X110186106Y-69917483D01*
X110162885Y-69901967D01*
X110136310Y-69862194D01*
X110145642Y-69815278D01*
X110162886Y-69798034D01*
X110183553Y-69784225D01*
X110183554Y-69784224D01*
X110186106Y-69782519D01*
X111352925Y-68615698D01*
X111394977Y-68552765D01*
X111414728Y-68453464D01*
X111402714Y-68393059D01*
X111412047Y-68346143D01*
X111419819Y-68336673D01*
X112641917Y-67114575D01*
X112686111Y-67096269D01*
X112699901Y-67097810D01*
X112812878Y-67123374D01*
X112882426Y-67139111D01*
X112882429Y-67139111D01*
X112885216Y-67139742D01*
X112975164Y-67143276D01*
X113085193Y-67147600D01*
X113085197Y-67147600D01*
X113088053Y-67147712D01*
X113288945Y-67118584D01*
X113481165Y-67053334D01*
X113658276Y-66954147D01*
X113814345Y-66824345D01*
X113887945Y-66735851D01*
X113934948Y-66679337D01*
X113977281Y-66657064D01*
X114022965Y-66671250D01*
G37*
%TD.AperFunction*%
%TA.AperFunction,Conductor*%
G36*
X108742241Y-72436950D02*
G01*
X109524349Y-73219058D01*
X109533139Y-73222699D01*
X109541929Y-73219058D01*
X109653306Y-73107681D01*
X109657188Y-73102951D01*
X109694031Y-73047814D01*
X109697075Y-73040467D01*
X109730181Y-73007362D01*
X109734264Y-73006550D01*
X109797197Y-72964500D01*
X109966807Y-72794890D01*
X110011000Y-72776584D01*
X110055194Y-72794890D01*
X110073500Y-72839084D01*
X110073500Y-74275918D01*
X110055194Y-74320112D01*
X109724107Y-74651199D01*
X109679913Y-74669505D01*
X109635719Y-74651199D01*
X109617866Y-74614513D01*
X109616721Y-74605046D01*
X109606276Y-74518733D01*
X109550280Y-74370546D01*
X109460553Y-74239992D01*
X109387481Y-74174888D01*
X109345087Y-74137116D01*
X109345085Y-74137115D01*
X109342275Y-74134611D01*
X109202274Y-74060484D01*
X109048633Y-74021892D01*
X109044868Y-74021872D01*
X109044866Y-74021872D01*
X108891189Y-74021067D01*
X108847091Y-74002530D01*
X108829017Y-73958241D01*
X108847322Y-73914374D01*
X108967929Y-73793767D01*
X109090183Y-73671512D01*
X109132235Y-73608579D01*
X109133047Y-73604496D01*
X109166156Y-73571386D01*
X109173505Y-73568343D01*
X109228640Y-73531502D01*
X109233365Y-73527624D01*
X109344745Y-73416244D01*
X109348386Y-73407454D01*
X109344745Y-73398664D01*
X108562636Y-72616555D01*
X108544330Y-72572361D01*
X108562636Y-72528167D01*
X108653853Y-72436950D01*
X108698047Y-72418644D01*
X108742241Y-72436950D01*
G37*
%TD.AperFunction*%
%TA.AperFunction,Conductor*%
G36*
X101510521Y-65931257D02*
G01*
X101510522Y-65931207D01*
X101665143Y-65933636D01*
X101665145Y-65933636D01*
X101668916Y-65933695D01*
X101670861Y-65933250D01*
X101716190Y-65946677D01*
X101739016Y-65988716D01*
X101728825Y-66029972D01*
X101687765Y-66091421D01*
X101686953Y-66095504D01*
X101653844Y-66128614D01*
X101646495Y-66131657D01*
X101591360Y-66168498D01*
X101586635Y-66172376D01*
X101475255Y-66283756D01*
X101471614Y-66292546D01*
X101475255Y-66301336D01*
X102948255Y-67774336D01*
X102957045Y-67777977D01*
X102965835Y-67774336D01*
X103077212Y-67662959D01*
X103081094Y-67658229D01*
X103117935Y-67603095D01*
X103120980Y-67595745D01*
X103154087Y-67562639D01*
X103158171Y-67561827D01*
X103221104Y-67519777D01*
X103223276Y-67517605D01*
X103225647Y-67515659D01*
X103226381Y-67516553D01*
X103267071Y-67499698D01*
X103638720Y-67499698D01*
X103682914Y-67518004D01*
X104083745Y-67918836D01*
X104083748Y-67918838D01*
X104250194Y-68085284D01*
X104268500Y-68129478D01*
X104268500Y-68288141D01*
X104267100Y-68301296D01*
X104263680Y-68317181D01*
X104264287Y-68322310D01*
X104264287Y-68322313D01*
X104268067Y-68354246D01*
X104268500Y-68361592D01*
X104268500Y-68366829D01*
X104268923Y-68369370D01*
X104268924Y-68369382D01*
X104271915Y-68387347D01*
X104272329Y-68390255D01*
X104278530Y-68442646D01*
X104280766Y-68447303D01*
X104281865Y-68451084D01*
X104283147Y-68454831D01*
X104283996Y-68459931D01*
X104286449Y-68464477D01*
X104286450Y-68464480D01*
X104309051Y-68506366D01*
X104310388Y-68508991D01*
X104331408Y-68552765D01*
X104333219Y-68556537D01*
X104336814Y-68560813D01*
X104337012Y-68561011D01*
X104339612Y-68564091D01*
X104341537Y-68566572D01*
X104343990Y-68571119D01*
X104353597Y-68580000D01*
X104384486Y-68608553D01*
X104386255Y-68610254D01*
X104844997Y-69068996D01*
X104853306Y-69079284D01*
X104862124Y-69092940D01*
X104872338Y-69100992D01*
X104891438Y-69116049D01*
X104896939Y-69120938D01*
X104900639Y-69124638D01*
X104917556Y-69136727D01*
X104919909Y-69138494D01*
X104957254Y-69167933D01*
X104961342Y-69171156D01*
X104966219Y-69172869D01*
X104969685Y-69174774D01*
X104973224Y-69176508D01*
X104977429Y-69179513D01*
X104982378Y-69180993D01*
X104982380Y-69180994D01*
X105027958Y-69194625D01*
X105030757Y-69195534D01*
X105063184Y-69206921D01*
X105080546Y-69213018D01*
X105084546Y-69213364D01*
X105084769Y-69213384D01*
X105084774Y-69213384D01*
X105086111Y-69213500D01*
X105086388Y-69213500D01*
X105090414Y-69213840D01*
X105093523Y-69214233D01*
X105098473Y-69215713D01*
X105153578Y-69213548D01*
X105156031Y-69213500D01*
X105222000Y-69213500D01*
X105266194Y-69231806D01*
X105284500Y-69276000D01*
X105284500Y-69439118D01*
X105266194Y-69483312D01*
X105250667Y-69494656D01*
X105134914Y-69554401D01*
X105123365Y-69564476D01*
X105033164Y-69643164D01*
X105015539Y-69658539D01*
X105013373Y-69661621D01*
X105013372Y-69661622D01*
X104995036Y-69687712D01*
X104924450Y-69788145D01*
X104923081Y-69791656D01*
X104923080Y-69791658D01*
X104873176Y-69919657D01*
X104866906Y-69935738D01*
X104866414Y-69939475D01*
X104846721Y-70089056D01*
X104846721Y-70089060D01*
X104846229Y-70092797D01*
X104863613Y-70250254D01*
X104918053Y-70399020D01*
X104948101Y-70443736D01*
X104974102Y-70482429D01*
X105006408Y-70530506D01*
X105123576Y-70637120D01*
X105126449Y-70638680D01*
X105151785Y-70679068D01*
X105141294Y-70725429D01*
X105082950Y-70808444D01*
X105081581Y-70811955D01*
X105081580Y-70811957D01*
X105028451Y-70948228D01*
X105025406Y-70956037D01*
X105024914Y-70959774D01*
X105005221Y-71109355D01*
X105005221Y-71109359D01*
X105004729Y-71113096D01*
X105022113Y-71270553D01*
X105076553Y-71419319D01*
X105090911Y-71440686D01*
X105152329Y-71532085D01*
X105164908Y-71550805D01*
X105167695Y-71553341D01*
X105177178Y-71561970D01*
X105282076Y-71657419D01*
X105285385Y-71659216D01*
X105285387Y-71659217D01*
X105356671Y-71697921D01*
X105421293Y-71733008D01*
X105424940Y-71733965D01*
X105424943Y-71733966D01*
X105548602Y-71766407D01*
X105574522Y-71773207D01*
X105659157Y-71774536D01*
X105729147Y-71775636D01*
X105729149Y-71775636D01*
X105732916Y-71775695D01*
X105887332Y-71740329D01*
X105890696Y-71738637D01*
X105890699Y-71738636D01*
X105973103Y-71697191D01*
X106028855Y-71669151D01*
X106031720Y-71666704D01*
X106031723Y-71666702D01*
X106071984Y-71632315D01*
X106104347Y-71604675D01*
X106138864Y-71593459D01*
X106150256Y-71566946D01*
X106149314Y-71566269D01*
X106239555Y-71440686D01*
X106239556Y-71440684D01*
X106241755Y-71437624D01*
X106300842Y-71290641D01*
X106310944Y-71219656D01*
X106322875Y-71135826D01*
X106322875Y-71135821D01*
X106323162Y-71133807D01*
X106323307Y-71120000D01*
X106323062Y-71117979D01*
X106323062Y-71117971D01*
X106313725Y-71040819D01*
X106326589Y-70994745D01*
X106331578Y-70989116D01*
X106564888Y-70755806D01*
X106609082Y-70737500D01*
X107363167Y-70737500D01*
X107407361Y-70755806D01*
X107528459Y-70876904D01*
X107546765Y-70921098D01*
X107528459Y-70965292D01*
X107498856Y-70981871D01*
X107449791Y-70993650D01*
X107446449Y-70995375D01*
X107446446Y-70995376D01*
X107427446Y-71005183D01*
X107309021Y-71066307D01*
X107306183Y-71068782D01*
X107306184Y-71068782D01*
X107209331Y-71153273D01*
X107189646Y-71170445D01*
X107187480Y-71173527D01*
X107187479Y-71173528D01*
X107140412Y-71240498D01*
X107098557Y-71300051D01*
X107097188Y-71303562D01*
X107097187Y-71303564D01*
X107043726Y-71440686D01*
X107041013Y-71447644D01*
X107040521Y-71451381D01*
X107035657Y-71488324D01*
X107011739Y-71529751D01*
X106965534Y-71542131D01*
X106944450Y-71535403D01*
X106916274Y-71520484D01*
X106762633Y-71481892D01*
X106758868Y-71481872D01*
X106758866Y-71481872D01*
X106680296Y-71481461D01*
X106604221Y-71481062D01*
X106600557Y-71481942D01*
X106600554Y-71481942D01*
X106530948Y-71498653D01*
X106450184Y-71518043D01*
X106446842Y-71519768D01*
X106446839Y-71519769D01*
X106403514Y-71542131D01*
X106309414Y-71590700D01*
X106306576Y-71593175D01*
X106306577Y-71593175D01*
X106239257Y-71651902D01*
X106204446Y-71663617D01*
X106191630Y-71693450D01*
X106190039Y-71694838D01*
X106098950Y-71824444D01*
X106097581Y-71827955D01*
X106097580Y-71827957D01*
X106058120Y-71929168D01*
X106041406Y-71972037D01*
X106040914Y-71975774D01*
X106021221Y-72125355D01*
X106021221Y-72125359D01*
X106020729Y-72129096D01*
X106038113Y-72286553D01*
X106092553Y-72435319D01*
X106116581Y-72471076D01*
X106174190Y-72556807D01*
X106180908Y-72566805D01*
X106183695Y-72569341D01*
X106280063Y-72657029D01*
X106300500Y-72703256D01*
X106300500Y-72769892D01*
X106299100Y-72783047D01*
X106295680Y-72798932D01*
X106296287Y-72804061D01*
X106296287Y-72804064D01*
X106300067Y-72835997D01*
X106300500Y-72843343D01*
X106300500Y-72848580D01*
X106300923Y-72851121D01*
X106300924Y-72851133D01*
X106303915Y-72869098D01*
X106304329Y-72872006D01*
X106310530Y-72924397D01*
X106312766Y-72929054D01*
X106313865Y-72932835D01*
X106315147Y-72936582D01*
X106315996Y-72941682D01*
X106318449Y-72946228D01*
X106318450Y-72946231D01*
X106341051Y-72988117D01*
X106342388Y-72990742D01*
X106365219Y-73038288D01*
X106368814Y-73042564D01*
X106369012Y-73042762D01*
X106371612Y-73045842D01*
X106373537Y-73048323D01*
X106375990Y-73052870D01*
X106379785Y-73056378D01*
X106416486Y-73090304D01*
X106418255Y-73092005D01*
X106515773Y-73189523D01*
X106534079Y-73233717D01*
X106515773Y-73277911D01*
X106506301Y-73285684D01*
X106470082Y-73309884D01*
X106470079Y-73309887D01*
X106467525Y-73311593D01*
X106043168Y-73735952D01*
X106001116Y-73798885D01*
X106000400Y-73802484D01*
X105968368Y-73834514D01*
X105964773Y-73835229D01*
X105901840Y-73877279D01*
X105477483Y-74301638D01*
X105461967Y-74324859D01*
X105422194Y-74351434D01*
X105375278Y-74342102D01*
X105358034Y-74324858D01*
X105344225Y-74304191D01*
X105344224Y-74304190D01*
X105342519Y-74301638D01*
X104918160Y-73877281D01*
X104855227Y-73835229D01*
X104851631Y-73834514D01*
X104819600Y-73802484D01*
X104818884Y-73798885D01*
X104776834Y-73735952D01*
X104352475Y-73311595D01*
X104349915Y-73309884D01*
X104294663Y-73272965D01*
X104294664Y-73272965D01*
X104289542Y-73269543D01*
X104285943Y-73268827D01*
X104253913Y-73236795D01*
X104253198Y-73233200D01*
X104211148Y-73170267D01*
X103786789Y-72745910D01*
X103735971Y-72711953D01*
X103709396Y-72672181D01*
X103715437Y-72633048D01*
X103715185Y-72632959D01*
X103715270Y-72632718D01*
X103715580Y-72632122D01*
X103715660Y-72631604D01*
X103716867Y-72628168D01*
X103718785Y-72624678D01*
X103720513Y-72621152D01*
X103723514Y-72616952D01*
X103724992Y-72612010D01*
X103724994Y-72612006D01*
X103738634Y-72566394D01*
X103739545Y-72563592D01*
X103755715Y-72517547D01*
X103755716Y-72517543D01*
X103757018Y-72513835D01*
X103757500Y-72508270D01*
X103757500Y-72507993D01*
X103757840Y-72503967D01*
X103758233Y-72500858D01*
X103759713Y-72495908D01*
X103757548Y-72440803D01*
X103757500Y-72438350D01*
X103757500Y-71929168D01*
X103758900Y-71916013D01*
X103760447Y-71908826D01*
X103762321Y-71900124D01*
X103757933Y-71863053D01*
X103757500Y-71855706D01*
X103757500Y-71850476D01*
X103757076Y-71847926D01*
X103754088Y-71829972D01*
X103753673Y-71827059D01*
X103748077Y-71779789D01*
X103747470Y-71774659D01*
X103745234Y-71770002D01*
X103745104Y-71769556D01*
X103750352Y-71722009D01*
X103787683Y-71692099D01*
X103834944Y-71697191D01*
X103880654Y-71722009D01*
X103892994Y-71728709D01*
X103896641Y-71729666D01*
X103896644Y-71729667D01*
X104036690Y-71766407D01*
X104046223Y-71768908D01*
X104130858Y-71770237D01*
X104200848Y-71771337D01*
X104200850Y-71771337D01*
X104204617Y-71771396D01*
X104359033Y-71736030D01*
X104362397Y-71734338D01*
X104362400Y-71734337D01*
X104446381Y-71692099D01*
X104500556Y-71664852D01*
X104503421Y-71662405D01*
X104503424Y-71662403D01*
X104584479Y-71593175D01*
X104621015Y-71561970D01*
X104623210Y-71558915D01*
X104623213Y-71558912D01*
X104711256Y-71436387D01*
X104711257Y-71436385D01*
X104713456Y-71433325D01*
X104772543Y-71286342D01*
X104789037Y-71170445D01*
X104794576Y-71131527D01*
X104794576Y-71131522D01*
X104794863Y-71129508D01*
X104794936Y-71122543D01*
X104794987Y-71117740D01*
X104794987Y-71117734D01*
X104795008Y-71115701D01*
X104775977Y-70958434D01*
X104719981Y-70810247D01*
X104630254Y-70679693D01*
X104536124Y-70595826D01*
X104515201Y-70549162D01*
X104515201Y-70319921D01*
X104516601Y-70306766D01*
X104518933Y-70295933D01*
X104520021Y-70290881D01*
X104515634Y-70253816D01*
X104515201Y-70246470D01*
X104515201Y-70241233D01*
X104514778Y-70238692D01*
X104514777Y-70238680D01*
X104511786Y-70220715D01*
X104511370Y-70217796D01*
X104510672Y-70211892D01*
X104505171Y-70165416D01*
X104502935Y-70160759D01*
X104501836Y-70156978D01*
X104500554Y-70153231D01*
X104499705Y-70148131D01*
X104497252Y-70143585D01*
X104497251Y-70143582D01*
X104474650Y-70101696D01*
X104473313Y-70099071D01*
X104452185Y-70055071D01*
X104452184Y-70055069D01*
X104450482Y-70051525D01*
X104446887Y-70047249D01*
X104446689Y-70047051D01*
X104444089Y-70043971D01*
X104442164Y-70041490D01*
X104439711Y-70036943D01*
X104399215Y-69999509D01*
X104397446Y-69997808D01*
X102606810Y-68207172D01*
X102588504Y-68162978D01*
X102606810Y-68118784D01*
X102616281Y-68111011D01*
X102652546Y-68086780D01*
X102657271Y-68082902D01*
X102768651Y-67971522D01*
X102772292Y-67962732D01*
X102768651Y-67953942D01*
X101295651Y-66480942D01*
X101286861Y-66477301D01*
X101278071Y-66480942D01*
X101166694Y-66592319D01*
X101162812Y-66597049D01*
X101125969Y-66652186D01*
X101122925Y-66659533D01*
X101089819Y-66692638D01*
X101085736Y-66693450D01*
X101022803Y-66735500D01*
X100598446Y-67159859D01*
X100596738Y-67162415D01*
X100572534Y-67198637D01*
X100532760Y-67225212D01*
X100485844Y-67215879D01*
X100476374Y-67208107D01*
X100473806Y-67205539D01*
X100455500Y-67161345D01*
X100455500Y-66985082D01*
X100473806Y-66940888D01*
X101465209Y-65949486D01*
X101509403Y-65931180D01*
X101510521Y-65931257D01*
G37*
%TD.AperFunction*%
%TA.AperFunction,Conductor*%
G36*
X105528112Y-47008806D02*
G01*
X105546418Y-47053000D01*
X105528112Y-47097194D01*
X105483109Y-47142197D01*
X105438097Y-47160498D01*
X105411457Y-47160149D01*
X105340833Y-47159224D01*
X105340828Y-47159224D01*
X105337971Y-47159187D01*
X105335151Y-47159672D01*
X105335146Y-47159672D01*
X105218751Y-47179673D01*
X105137910Y-47193564D01*
X105135222Y-47194556D01*
X105135217Y-47194557D01*
X104950151Y-47262832D01*
X104950148Y-47262833D01*
X104947463Y-47263824D01*
X104773010Y-47367612D01*
X104747966Y-47389575D01*
X104628250Y-47494564D01*
X104620392Y-47501455D01*
X104618616Y-47503708D01*
X104618615Y-47503709D01*
X104585935Y-47545164D01*
X104494720Y-47660869D01*
X104482872Y-47683389D01*
X104402068Y-47836971D01*
X104400203Y-47840515D01*
X104399356Y-47843242D01*
X104399355Y-47843245D01*
X104377380Y-47914016D01*
X104340007Y-48034378D01*
X104316148Y-48235964D01*
X104319395Y-48285501D01*
X104328909Y-48430659D01*
X104329424Y-48438522D01*
X104330130Y-48441302D01*
X104376564Y-48624132D01*
X104379392Y-48635269D01*
X104464377Y-48819616D01*
X104548792Y-48939061D01*
X104579243Y-48982148D01*
X104581533Y-48985389D01*
X104583587Y-48987390D01*
X104583588Y-48987391D01*
X104600447Y-49003814D01*
X104639728Y-49042079D01*
X104642955Y-49045223D01*
X104661838Y-49089174D01*
X104644112Y-49133604D01*
X104609606Y-49151644D01*
X104595936Y-49153919D01*
X104593043Y-49154331D01*
X104540659Y-49160531D01*
X104536003Y-49162767D01*
X104532174Y-49163879D01*
X104528467Y-49165148D01*
X104523374Y-49165996D01*
X104518829Y-49168448D01*
X104518827Y-49168449D01*
X104476930Y-49191055D01*
X104474307Y-49192392D01*
X104426768Y-49215220D01*
X104422492Y-49218814D01*
X104422296Y-49219010D01*
X104419211Y-49221615D01*
X104416735Y-49223535D01*
X104412186Y-49225990D01*
X104408677Y-49229786D01*
X104374752Y-49266486D01*
X104373051Y-49268255D01*
X103925563Y-49715743D01*
X103881369Y-49734049D01*
X103846646Y-49723515D01*
X103834301Y-49715266D01*
X103828265Y-49714065D01*
X103828264Y-49714065D01*
X103763080Y-49701099D01*
X103763077Y-49701099D01*
X103760067Y-49700500D01*
X103756996Y-49700500D01*
X102885001Y-49700501D01*
X102009934Y-49700501D01*
X102006925Y-49701100D01*
X102006920Y-49701100D01*
X101941737Y-49714065D01*
X101935699Y-49715266D01*
X101851516Y-49771516D01*
X101848097Y-49776633D01*
X101820326Y-49818195D01*
X101795266Y-49855699D01*
X101794065Y-49861738D01*
X101782091Y-49921936D01*
X101780500Y-49929933D01*
X101780501Y-51680066D01*
X101781100Y-51683075D01*
X101781100Y-51683080D01*
X101787558Y-51715547D01*
X101795266Y-51754301D01*
X101851516Y-51838484D01*
X101856633Y-51841903D01*
X101930580Y-51891314D01*
X101930582Y-51891315D01*
X101935699Y-51894734D01*
X101957704Y-51899111D01*
X102006920Y-51908901D01*
X102006923Y-51908901D01*
X102009933Y-51909500D01*
X102092446Y-51909500D01*
X103698000Y-51909499D01*
X103742194Y-51927805D01*
X103760500Y-51971999D01*
X103760500Y-53443000D01*
X103742194Y-53487194D01*
X103698000Y-53505500D01*
X103259549Y-53505501D01*
X103234934Y-53505501D01*
X103231925Y-53506100D01*
X103231920Y-53506100D01*
X103166737Y-53519065D01*
X103160699Y-53520266D01*
X103076516Y-53576516D01*
X103063424Y-53596109D01*
X103025190Y-53653330D01*
X103020266Y-53660699D01*
X103005500Y-53734933D01*
X103005501Y-54255547D01*
X103005501Y-54751917D01*
X102987195Y-54796111D01*
X102658612Y-55124694D01*
X102614418Y-55143000D01*
X102357747Y-55143000D01*
X102313553Y-55124694D01*
X102299224Y-55102439D01*
X102295950Y-55093704D01*
X102273493Y-55033801D01*
X102188974Y-54921026D01*
X102076199Y-54836507D01*
X102004311Y-54809557D01*
X101947904Y-54788411D01*
X101947903Y-54788411D01*
X101944236Y-54787036D01*
X101884070Y-54780500D01*
X101315930Y-54780500D01*
X101255764Y-54787036D01*
X101252097Y-54788411D01*
X101252096Y-54788411D01*
X101195690Y-54809557D01*
X101123801Y-54836507D01*
X101011026Y-54921026D01*
X100926507Y-55033801D01*
X100924944Y-55037969D01*
X100924944Y-55037970D01*
X100905523Y-55089775D01*
X100872868Y-55124731D01*
X100825061Y-55126359D01*
X100790105Y-55093704D01*
X100784500Y-55067836D01*
X100784500Y-54152164D01*
X100802806Y-54107970D01*
X100847000Y-54089664D01*
X100891194Y-54107970D01*
X100905523Y-54130225D01*
X100926507Y-54186199D01*
X101011026Y-54298974D01*
X101014590Y-54301645D01*
X101099597Y-54365353D01*
X101123801Y-54383493D01*
X101127969Y-54385056D01*
X101127970Y-54385056D01*
X101252096Y-54431589D01*
X101255764Y-54432964D01*
X101315930Y-54439500D01*
X101884070Y-54439500D01*
X101944236Y-54432964D01*
X101947904Y-54431589D01*
X102072030Y-54385056D01*
X102072031Y-54385056D01*
X102076199Y-54383493D01*
X102100404Y-54365353D01*
X102185410Y-54301645D01*
X102188974Y-54298974D01*
X102273493Y-54186199D01*
X102322964Y-54054236D01*
X102329500Y-53994070D01*
X102329500Y-53400930D01*
X102322964Y-53340764D01*
X102318817Y-53329702D01*
X102275056Y-53212970D01*
X102275056Y-53212969D01*
X102273493Y-53208801D01*
X102188974Y-53096026D01*
X102076199Y-53011507D01*
X101944236Y-52962036D01*
X101884070Y-52955500D01*
X101376148Y-52955500D01*
X101331954Y-52937194D01*
X101310806Y-52916046D01*
X101292500Y-52871852D01*
X101292500Y-48982148D01*
X101310806Y-48937954D01*
X101510954Y-48737806D01*
X101555148Y-48719500D01*
X101838214Y-48719500D01*
X101882408Y-48737806D01*
X101894973Y-48755834D01*
X101896163Y-48758415D01*
X101924377Y-48819616D01*
X102008792Y-48939061D01*
X102039243Y-48982148D01*
X102041533Y-48985389D01*
X102043587Y-48987390D01*
X102043588Y-48987391D01*
X102104924Y-49047141D01*
X102186938Y-49127035D01*
X102355720Y-49239812D01*
X102438549Y-49275398D01*
X102539588Y-49318808D01*
X102539590Y-49318809D01*
X102542228Y-49319942D01*
X102640484Y-49342175D01*
X102737426Y-49364111D01*
X102737429Y-49364111D01*
X102740216Y-49364742D01*
X102830164Y-49368276D01*
X102940193Y-49372600D01*
X102940197Y-49372600D01*
X102943053Y-49372712D01*
X103143945Y-49343584D01*
X103336165Y-49278334D01*
X103513276Y-49179147D01*
X103669345Y-49049345D01*
X103799147Y-48893276D01*
X103898334Y-48716165D01*
X103963584Y-48523945D01*
X103992712Y-48323053D01*
X103994232Y-48265000D01*
X103993941Y-48261827D01*
X103982228Y-48134359D01*
X103975658Y-48062859D01*
X103973469Y-48055096D01*
X103921335Y-47870244D01*
X103921333Y-47870240D01*
X103920557Y-47867487D01*
X103830776Y-47685428D01*
X103828962Y-47682999D01*
X103711037Y-47525078D01*
X103711036Y-47525076D01*
X103709320Y-47522779D01*
X103560258Y-47384987D01*
X103388581Y-47276667D01*
X103200039Y-47201446D01*
X103197233Y-47200888D01*
X103197230Y-47200887D01*
X103003752Y-47162402D01*
X103003750Y-47162402D01*
X103000946Y-47161844D01*
X102905353Y-47160593D01*
X102800833Y-47159224D01*
X102800828Y-47159224D01*
X102797971Y-47159187D01*
X102795151Y-47159672D01*
X102795146Y-47159672D01*
X102678751Y-47179673D01*
X102597910Y-47193564D01*
X102595222Y-47194556D01*
X102595217Y-47194557D01*
X102410151Y-47262832D01*
X102410148Y-47262833D01*
X102407463Y-47263824D01*
X102233010Y-47367612D01*
X102207966Y-47389575D01*
X102088250Y-47494564D01*
X102080392Y-47501455D01*
X102078616Y-47503708D01*
X102078615Y-47503709D01*
X102045935Y-47545164D01*
X101954720Y-47660869D01*
X101942872Y-47683389D01*
X101893567Y-47777101D01*
X101856789Y-47807689D01*
X101838255Y-47810500D01*
X101444774Y-47810500D01*
X101435233Y-47809598D01*
X101432126Y-47808507D01*
X101405897Y-47807477D01*
X101384143Y-47806622D01*
X101379250Y-47806237D01*
X101336200Y-47801142D01*
X101331562Y-47800593D01*
X101326969Y-47801432D01*
X101326968Y-47801432D01*
X101320492Y-47802615D01*
X101306807Y-47803584D01*
X101295563Y-47803142D01*
X101291050Y-47804339D01*
X101291046Y-47804339D01*
X101249140Y-47815450D01*
X101244352Y-47816520D01*
X101201714Y-47824307D01*
X101201712Y-47824308D01*
X101197116Y-47825147D01*
X101192968Y-47827302D01*
X101192967Y-47827302D01*
X101187128Y-47830335D01*
X101174341Y-47835282D01*
X101163458Y-47838168D01*
X101122699Y-47863587D01*
X101118451Y-47866010D01*
X101075834Y-47888148D01*
X101070746Y-47892494D01*
X101066516Y-47896724D01*
X101055396Y-47905562D01*
X101047491Y-47910492D01*
X101044433Y-47914016D01*
X101014438Y-47948582D01*
X101011427Y-47951813D01*
X100538339Y-48424901D01*
X100532839Y-48429789D01*
X100521761Y-48438522D01*
X100502941Y-48453359D01*
X100468705Y-48502895D01*
X100467570Y-48504483D01*
X100431791Y-48552924D01*
X100430243Y-48557331D01*
X100429218Y-48559267D01*
X100429069Y-48559513D01*
X100428966Y-48559715D01*
X100428849Y-48559994D01*
X100427895Y-48561942D01*
X100425236Y-48565789D01*
X100410999Y-48610806D01*
X100407077Y-48623209D01*
X100406457Y-48625066D01*
X100386507Y-48681874D01*
X100386324Y-48686539D01*
X100385913Y-48688691D01*
X100385772Y-48689252D01*
X100385101Y-48692693D01*
X100384025Y-48696097D01*
X100383745Y-48699653D01*
X100383745Y-48699654D01*
X100383597Y-48701529D01*
X100383596Y-48701542D01*
X100383500Y-48702768D01*
X100383500Y-48757184D01*
X100383452Y-48759637D01*
X100381785Y-48802077D01*
X100381142Y-48818437D01*
X100382339Y-48822952D01*
X100382852Y-48827594D01*
X100382478Y-48827635D01*
X100383500Y-48835473D01*
X100383500Y-52871852D01*
X100365194Y-52916046D01*
X100030339Y-53250901D01*
X100024839Y-53255789D01*
X99994941Y-53279359D01*
X99960705Y-53328895D01*
X99959570Y-53330483D01*
X99923791Y-53378924D01*
X99922243Y-53383331D01*
X99921218Y-53385267D01*
X99921069Y-53385513D01*
X99920966Y-53385715D01*
X99920849Y-53385994D01*
X99919895Y-53387942D01*
X99917236Y-53391789D01*
X99899077Y-53449209D01*
X99898457Y-53451066D01*
X99878507Y-53507874D01*
X99878324Y-53512539D01*
X99877913Y-53514691D01*
X99877772Y-53515252D01*
X99877101Y-53518693D01*
X99876025Y-53522097D01*
X99875745Y-53525653D01*
X99875745Y-53525654D01*
X99875597Y-53527529D01*
X99875596Y-53527542D01*
X99875500Y-53528768D01*
X99875500Y-53583184D01*
X99875452Y-53585637D01*
X99873142Y-53644437D01*
X99874339Y-53648952D01*
X99874852Y-53653594D01*
X99874478Y-53653635D01*
X99875500Y-53661473D01*
X99875500Y-60392752D01*
X99873886Y-60406865D01*
X99871783Y-60415938D01*
X99872113Y-60420595D01*
X99875344Y-60466235D01*
X99875500Y-60470649D01*
X99875500Y-61437290D01*
X99875067Y-61444635D01*
X99870593Y-61482438D01*
X99871432Y-61487032D01*
X99871432Y-61487033D01*
X99881411Y-61541674D01*
X99881733Y-61543610D01*
X99890685Y-61603151D01*
X99892707Y-61607362D01*
X99893350Y-61609453D01*
X99893418Y-61609730D01*
X99893490Y-61609952D01*
X99893602Y-61610226D01*
X99894307Y-61612285D01*
X99895147Y-61616883D01*
X99897301Y-61621029D01*
X99917463Y-61659843D01*
X99924500Y-61688654D01*
X99924500Y-62119756D01*
X99931202Y-62181448D01*
X99932577Y-62185116D01*
X99978289Y-62307053D01*
X99981929Y-62316764D01*
X100068596Y-62432404D01*
X100184236Y-62519071D01*
X100188405Y-62520634D01*
X100188407Y-62520635D01*
X100315884Y-62568423D01*
X100319552Y-62569798D01*
X100381244Y-62576500D01*
X101026756Y-62576500D01*
X101088448Y-62569798D01*
X101092116Y-62568423D01*
X101219593Y-62520635D01*
X101219595Y-62520634D01*
X101223764Y-62519071D01*
X101339404Y-62432404D01*
X101426071Y-62316764D01*
X101429712Y-62307053D01*
X101475423Y-62185116D01*
X101476798Y-62181448D01*
X101483500Y-62119756D01*
X101483500Y-61324244D01*
X101476798Y-61262552D01*
X101472081Y-61249970D01*
X101427635Y-61131407D01*
X101427634Y-61131405D01*
X101426071Y-61127236D01*
X101339504Y-61011729D01*
X101339503Y-61011727D01*
X101339404Y-61011596D01*
X101339438Y-61011571D01*
X101321804Y-60969000D01*
X101340110Y-60924806D01*
X101384304Y-60906500D01*
X102323696Y-60906500D01*
X102367890Y-60924806D01*
X102386196Y-60969000D01*
X102368562Y-61011571D01*
X102368596Y-61011596D01*
X102368497Y-61011727D01*
X102368496Y-61011729D01*
X102281929Y-61127236D01*
X102280366Y-61131405D01*
X102280365Y-61131407D01*
X102235919Y-61249970D01*
X102231202Y-61262552D01*
X102224500Y-61324244D01*
X102224500Y-61854431D01*
X102213910Y-61886593D01*
X102214752Y-61887039D01*
X102212566Y-61891166D01*
X102209791Y-61894924D01*
X102208243Y-61899331D01*
X102207218Y-61901267D01*
X102207069Y-61901513D01*
X102206966Y-61901715D01*
X102206849Y-61901994D01*
X102205895Y-61903942D01*
X102203236Y-61907789D01*
X102201827Y-61912245D01*
X102185077Y-61965209D01*
X102184457Y-61967066D01*
X102164507Y-62023874D01*
X102164324Y-62028539D01*
X102163913Y-62030691D01*
X102163772Y-62031252D01*
X102163101Y-62034693D01*
X102162025Y-62038097D01*
X102161745Y-62041653D01*
X102161745Y-62041654D01*
X102161597Y-62043529D01*
X102161596Y-62043542D01*
X102161500Y-62044768D01*
X102161500Y-62099184D01*
X102161452Y-62101637D01*
X102159142Y-62160437D01*
X102160339Y-62164952D01*
X102160852Y-62169594D01*
X102160478Y-62169635D01*
X102161500Y-62177473D01*
X102161500Y-62751625D01*
X102143194Y-62795819D01*
X102120940Y-62810147D01*
X102092508Y-62820806D01*
X102084693Y-62823736D01*
X102077301Y-62826507D01*
X102073737Y-62829178D01*
X102029370Y-62862429D01*
X101964526Y-62911026D01*
X101880007Y-63023801D01*
X101830536Y-63155764D01*
X101824000Y-63215930D01*
X101824000Y-63784070D01*
X101830536Y-63844236D01*
X101831911Y-63847903D01*
X101831911Y-63847904D01*
X101870491Y-63950814D01*
X101880007Y-63976199D01*
X101964526Y-64088974D01*
X102077301Y-64173493D01*
X102119004Y-64189127D01*
X102153959Y-64221780D01*
X102159131Y-64254994D01*
X102156593Y-64276438D01*
X102157432Y-64281032D01*
X102157432Y-64281033D01*
X102167411Y-64335674D01*
X102167733Y-64337610D01*
X102176685Y-64397151D01*
X102178707Y-64401362D01*
X102179350Y-64403453D01*
X102179418Y-64403730D01*
X102179490Y-64403952D01*
X102179602Y-64404226D01*
X102180307Y-64406285D01*
X102181147Y-64410883D01*
X102188314Y-64424680D01*
X102208897Y-64464304D01*
X102209775Y-64466061D01*
X102232918Y-64514255D01*
X102235846Y-64520353D01*
X102239016Y-64523782D01*
X102240242Y-64525586D01*
X102240546Y-64526095D01*
X102242503Y-64529000D01*
X102244148Y-64532166D01*
X102248494Y-64537254D01*
X102286973Y-64575733D01*
X102288674Y-64577502D01*
X102309233Y-64599742D01*
X102328617Y-64620712D01*
X102332656Y-64623058D01*
X102336303Y-64625980D01*
X102336068Y-64626273D01*
X102342334Y-64631094D01*
X102690578Y-64979338D01*
X102708884Y-65023532D01*
X102690579Y-65067725D01*
X102357224Y-65401080D01*
X102313030Y-65419386D01*
X102268836Y-65401080D01*
X102250530Y-65356886D01*
X102251154Y-65348079D01*
X102258874Y-65293839D01*
X102258875Y-65293821D01*
X102259162Y-65291807D01*
X102259307Y-65278000D01*
X102240276Y-65120733D01*
X102184280Y-64972546D01*
X102094553Y-64841992D01*
X101976275Y-64736611D01*
X101836274Y-64662484D01*
X101682633Y-64623892D01*
X101678868Y-64623872D01*
X101678866Y-64623872D01*
X101600296Y-64623461D01*
X101524221Y-64623062D01*
X101520557Y-64623942D01*
X101520554Y-64623942D01*
X101450948Y-64640653D01*
X101370184Y-64660043D01*
X101366842Y-64661768D01*
X101366839Y-64661769D01*
X101312769Y-64689677D01*
X101229414Y-64732700D01*
X101110039Y-64836838D01*
X101107873Y-64839920D01*
X101107872Y-64839921D01*
X101047484Y-64925844D01*
X101018950Y-64966444D01*
X101018853Y-64966376D01*
X100982987Y-64995727D01*
X100935388Y-64990972D01*
X100913419Y-64971293D01*
X100876582Y-64917695D01*
X100824553Y-64841992D01*
X100706275Y-64736611D01*
X100566274Y-64662484D01*
X100412633Y-64623892D01*
X100408868Y-64623872D01*
X100408866Y-64623872D01*
X100330296Y-64623461D01*
X100254221Y-64623062D01*
X100250557Y-64623942D01*
X100250554Y-64623942D01*
X100180948Y-64640653D01*
X100100184Y-64660043D01*
X100096842Y-64661768D01*
X100096839Y-64661769D01*
X100042769Y-64689677D01*
X99959414Y-64732700D01*
X99840039Y-64836838D01*
X99837873Y-64839920D01*
X99837872Y-64839921D01*
X99812539Y-64875966D01*
X99748950Y-64966444D01*
X99747581Y-64969955D01*
X99747580Y-64969957D01*
X99694626Y-65105779D01*
X99691406Y-65114037D01*
X99690914Y-65117774D01*
X99671221Y-65267355D01*
X99671221Y-65267359D01*
X99670729Y-65271096D01*
X99671143Y-65274846D01*
X99671143Y-65274851D01*
X99680309Y-65357872D01*
X99666964Y-65403808D01*
X99662381Y-65408925D01*
X99333004Y-65738302D01*
X99322716Y-65746611D01*
X99309060Y-65755429D01*
X99305863Y-65759485D01*
X99285951Y-65784743D01*
X99281062Y-65790244D01*
X99277362Y-65793944D01*
X99275866Y-65796038D01*
X99275863Y-65796041D01*
X99265271Y-65810863D01*
X99263504Y-65813217D01*
X99244078Y-65837859D01*
X99230844Y-65854647D01*
X99229132Y-65859523D01*
X99227207Y-65863024D01*
X99225487Y-65866535D01*
X99222486Y-65870734D01*
X99221008Y-65875676D01*
X99221006Y-65875680D01*
X99207366Y-65921292D01*
X99206455Y-65924094D01*
X99190285Y-65970139D01*
X99190284Y-65970143D01*
X99188982Y-65973851D01*
X99188500Y-65979416D01*
X99188500Y-65979693D01*
X99188160Y-65983719D01*
X99187767Y-65986828D01*
X99186287Y-65991778D01*
X99186490Y-65996939D01*
X99188452Y-66046882D01*
X99188500Y-66049336D01*
X99188500Y-67920634D01*
X99187100Y-67933789D01*
X99183680Y-67949674D01*
X99184287Y-67954803D01*
X99184287Y-67954806D01*
X99188067Y-67986739D01*
X99188500Y-67994085D01*
X99188500Y-67999322D01*
X99188923Y-68001863D01*
X99188924Y-68001875D01*
X99191915Y-68019840D01*
X99192329Y-68022748D01*
X99198530Y-68075139D01*
X99200766Y-68079796D01*
X99201865Y-68083577D01*
X99203147Y-68087324D01*
X99203996Y-68092424D01*
X99206449Y-68096970D01*
X99206450Y-68096973D01*
X99229051Y-68138859D01*
X99230388Y-68141484D01*
X99237126Y-68155515D01*
X99253219Y-68189030D01*
X99256814Y-68193306D01*
X99257012Y-68193504D01*
X99259612Y-68196584D01*
X99261537Y-68199065D01*
X99263990Y-68203612D01*
X99267785Y-68207120D01*
X99304486Y-68241046D01*
X99306255Y-68242747D01*
X99400181Y-68336673D01*
X99418487Y-68380867D01*
X99417286Y-68393059D01*
X99405272Y-68453464D01*
X99425023Y-68552765D01*
X99467073Y-68615698D01*
X100633894Y-69782517D01*
X100657115Y-69798033D01*
X100683690Y-69837806D01*
X100674358Y-69884722D01*
X100657114Y-69901966D01*
X100633894Y-69917481D01*
X99795571Y-70755806D01*
X99546194Y-71005183D01*
X99502000Y-71023489D01*
X99457806Y-71005183D01*
X99439500Y-70960989D01*
X99439500Y-69643164D01*
X99440900Y-69630009D01*
X99443232Y-69619176D01*
X99444320Y-69614124D01*
X99441969Y-69594255D01*
X99439933Y-69577059D01*
X99439500Y-69569713D01*
X99439500Y-69564476D01*
X99439077Y-69561935D01*
X99439076Y-69561923D01*
X99436085Y-69543958D01*
X99435669Y-69541039D01*
X99432721Y-69516124D01*
X99429470Y-69488659D01*
X99427234Y-69484002D01*
X99426135Y-69480221D01*
X99424853Y-69476474D01*
X99424004Y-69471374D01*
X99421551Y-69466828D01*
X99421550Y-69466825D01*
X99398949Y-69424939D01*
X99397612Y-69422314D01*
X99376484Y-69378314D01*
X99376483Y-69378312D01*
X99374781Y-69374768D01*
X99371186Y-69370492D01*
X99370988Y-69370294D01*
X99368388Y-69367214D01*
X99366463Y-69364733D01*
X99364010Y-69360186D01*
X99323514Y-69322752D01*
X99321745Y-69321051D01*
X98887073Y-68886379D01*
X98868767Y-68842185D01*
X98869413Y-68833224D01*
X98890492Y-68687851D01*
X98897449Y-68639869D01*
X98897449Y-68639864D01*
X98897712Y-68638053D01*
X98899232Y-68580000D01*
X98898739Y-68574627D01*
X98886140Y-68437516D01*
X98880658Y-68377859D01*
X98877547Y-68366829D01*
X98826335Y-68185244D01*
X98826333Y-68185240D01*
X98825557Y-68182487D01*
X98746788Y-68022759D01*
X98737044Y-68002999D01*
X98737043Y-68002998D01*
X98735776Y-68000428D01*
X98733023Y-67996741D01*
X98616037Y-67840078D01*
X98616036Y-67840076D01*
X98614320Y-67837779D01*
X98465258Y-67699987D01*
X98293581Y-67591667D01*
X98199310Y-67554057D01*
X98107696Y-67517506D01*
X98105039Y-67516446D01*
X98102233Y-67515888D01*
X98102230Y-67515887D01*
X97908752Y-67477402D01*
X97908750Y-67477402D01*
X97905946Y-67476844D01*
X97810353Y-67475593D01*
X97705833Y-67474224D01*
X97705828Y-67474224D01*
X97702971Y-67474187D01*
X97700151Y-67474672D01*
X97700146Y-67474672D01*
X97583751Y-67494673D01*
X97502910Y-67508564D01*
X97500222Y-67509556D01*
X97500217Y-67509557D01*
X97315151Y-67577832D01*
X97315148Y-67577833D01*
X97312463Y-67578824D01*
X97138010Y-67682612D01*
X97111272Y-67706061D01*
X97027935Y-67779146D01*
X96985392Y-67816455D01*
X96983616Y-67818708D01*
X96983615Y-67818709D01*
X96886082Y-67942429D01*
X96844346Y-67965803D01*
X96798307Y-67952818D01*
X96774933Y-67911082D01*
X96774500Y-67903736D01*
X96774500Y-66713694D01*
X96792806Y-66669500D01*
X96837000Y-66651194D01*
X96881194Y-66669500D01*
X96888040Y-66677623D01*
X96930478Y-66737672D01*
X96946533Y-66760389D01*
X97091938Y-66902035D01*
X97260720Y-67014812D01*
X97300759Y-67032014D01*
X97444588Y-67093808D01*
X97444590Y-67093809D01*
X97447228Y-67094942D01*
X97533994Y-67114575D01*
X97642426Y-67139111D01*
X97642429Y-67139111D01*
X97645216Y-67139742D01*
X97735164Y-67143276D01*
X97845193Y-67147600D01*
X97845197Y-67147600D01*
X97848053Y-67147712D01*
X98048945Y-67118584D01*
X98241165Y-67053334D01*
X98418276Y-66954147D01*
X98574345Y-66824345D01*
X98704147Y-66668276D01*
X98803334Y-66491165D01*
X98868584Y-66298945D01*
X98884276Y-66190722D01*
X98897449Y-66099869D01*
X98897449Y-66099864D01*
X98897712Y-66098053D01*
X98898009Y-66086731D01*
X98898797Y-66056619D01*
X98899232Y-66040000D01*
X98893944Y-65982444D01*
X98889459Y-65933636D01*
X98880658Y-65837859D01*
X98873384Y-65812067D01*
X98826335Y-65645244D01*
X98826333Y-65645240D01*
X98825557Y-65642487D01*
X98735776Y-65460428D01*
X98709920Y-65425803D01*
X98616037Y-65300078D01*
X98616036Y-65300076D01*
X98614320Y-65297779D01*
X98465258Y-65159987D01*
X98293581Y-65051667D01*
X98105039Y-64976446D01*
X98102233Y-64975888D01*
X98102230Y-64975887D01*
X97908752Y-64937402D01*
X97908750Y-64937402D01*
X97905946Y-64936844D01*
X97810353Y-64935593D01*
X97705833Y-64934224D01*
X97705828Y-64934224D01*
X97702971Y-64934187D01*
X97700151Y-64934672D01*
X97700146Y-64934672D01*
X97593545Y-64952990D01*
X97502910Y-64968564D01*
X97500222Y-64969556D01*
X97500217Y-64969557D01*
X97315151Y-65037832D01*
X97315148Y-65037833D01*
X97312463Y-65038824D01*
X97138010Y-65142612D01*
X97056790Y-65213840D01*
X96991503Y-65271096D01*
X96985392Y-65276455D01*
X96983616Y-65278708D01*
X96983615Y-65278709D01*
X96886082Y-65402429D01*
X96844346Y-65425803D01*
X96798307Y-65412818D01*
X96774933Y-65371082D01*
X96774500Y-65363736D01*
X96774500Y-64173694D01*
X96792806Y-64129500D01*
X96837000Y-64111194D01*
X96881194Y-64129500D01*
X96888040Y-64137623D01*
X96946533Y-64220389D01*
X96948587Y-64222390D01*
X96948588Y-64222391D01*
X96961508Y-64234977D01*
X97091938Y-64362035D01*
X97260720Y-64474812D01*
X97347124Y-64511934D01*
X97444588Y-64553808D01*
X97444590Y-64553809D01*
X97447228Y-64554942D01*
X97539111Y-64575733D01*
X97642426Y-64599111D01*
X97642429Y-64599111D01*
X97645216Y-64599742D01*
X97735164Y-64603276D01*
X97845193Y-64607600D01*
X97845197Y-64607600D01*
X97848053Y-64607712D01*
X98048945Y-64578584D01*
X98241165Y-64513334D01*
X98418276Y-64414147D01*
X98574345Y-64284345D01*
X98704147Y-64128276D01*
X98803334Y-63951165D01*
X98860645Y-63782332D01*
X100099501Y-63782332D01*
X100099683Y-63785702D01*
X100105606Y-63840231D01*
X100107405Y-63847799D01*
X100153887Y-63971788D01*
X100158121Y-63979521D01*
X100237212Y-64085053D01*
X100243447Y-64091288D01*
X100348979Y-64170379D01*
X100356712Y-64174613D01*
X100480704Y-64221096D01*
X100488268Y-64222894D01*
X100542793Y-64228817D01*
X100546162Y-64229000D01*
X100751569Y-64229000D01*
X100760359Y-64225359D01*
X100764000Y-64216569D01*
X100764000Y-64216568D01*
X101018000Y-64216568D01*
X101021641Y-64225358D01*
X101030431Y-64228999D01*
X101235832Y-64228999D01*
X101239202Y-64228817D01*
X101293731Y-64222894D01*
X101301299Y-64221095D01*
X101425288Y-64174613D01*
X101433021Y-64170379D01*
X101538553Y-64091288D01*
X101544788Y-64085053D01*
X101623879Y-63979521D01*
X101628113Y-63971788D01*
X101674596Y-63847796D01*
X101676394Y-63840232D01*
X101682317Y-63785707D01*
X101682500Y-63782338D01*
X101682500Y-63639431D01*
X101678859Y-63630641D01*
X101670069Y-63627000D01*
X101030431Y-63627000D01*
X101021641Y-63630641D01*
X101018000Y-63639431D01*
X101018000Y-64216568D01*
X100764000Y-64216568D01*
X100764000Y-63639431D01*
X100760359Y-63630641D01*
X100751569Y-63627000D01*
X100111932Y-63627000D01*
X100103142Y-63630641D01*
X100099501Y-63639431D01*
X100099501Y-63782332D01*
X98860645Y-63782332D01*
X98868584Y-63758945D01*
X98885244Y-63644043D01*
X98897449Y-63559869D01*
X98897449Y-63559864D01*
X98897712Y-63558053D01*
X98899232Y-63500000D01*
X98896303Y-63468116D01*
X98886420Y-63360569D01*
X100099500Y-63360569D01*
X100103141Y-63369359D01*
X100111931Y-63373000D01*
X100751569Y-63373000D01*
X100760359Y-63369359D01*
X100764000Y-63360569D01*
X101018000Y-63360569D01*
X101021641Y-63369359D01*
X101030431Y-63373000D01*
X101670068Y-63373000D01*
X101678858Y-63369359D01*
X101682499Y-63360569D01*
X101682499Y-63217668D01*
X101682317Y-63214298D01*
X101676394Y-63159769D01*
X101674595Y-63152201D01*
X101628113Y-63028212D01*
X101623879Y-63020479D01*
X101544788Y-62914947D01*
X101538553Y-62908712D01*
X101433021Y-62829621D01*
X101425288Y-62825387D01*
X101301296Y-62778904D01*
X101293732Y-62777106D01*
X101239207Y-62771183D01*
X101235838Y-62771000D01*
X101030431Y-62771000D01*
X101021641Y-62774641D01*
X101018000Y-62783431D01*
X101018000Y-63360569D01*
X100764000Y-63360569D01*
X100764000Y-62783432D01*
X100760359Y-62774642D01*
X100751569Y-62771001D01*
X100546168Y-62771001D01*
X100542798Y-62771183D01*
X100488269Y-62777106D01*
X100480701Y-62778905D01*
X100356712Y-62825387D01*
X100348979Y-62829621D01*
X100243447Y-62908712D01*
X100237212Y-62914947D01*
X100158121Y-63020479D01*
X100153887Y-63028212D01*
X100107404Y-63152204D01*
X100105606Y-63159768D01*
X100099683Y-63214293D01*
X100099500Y-63217662D01*
X100099500Y-63360569D01*
X98886420Y-63360569D01*
X98880920Y-63300714D01*
X98880658Y-63297859D01*
X98873925Y-63273986D01*
X98826335Y-63105244D01*
X98826333Y-63105240D01*
X98825557Y-63102487D01*
X98774334Y-62998616D01*
X98737044Y-62922999D01*
X98737043Y-62922998D01*
X98735776Y-62920428D01*
X98717437Y-62895869D01*
X98616037Y-62760078D01*
X98616036Y-62760076D01*
X98614320Y-62757779D01*
X98465258Y-62619987D01*
X98293581Y-62511667D01*
X98127450Y-62445387D01*
X98107696Y-62437506D01*
X98105039Y-62436446D01*
X98102233Y-62435888D01*
X98102230Y-62435887D01*
X97908752Y-62397402D01*
X97908750Y-62397402D01*
X97905946Y-62396844D01*
X97810353Y-62395593D01*
X97705833Y-62394224D01*
X97705828Y-62394224D01*
X97702971Y-62394187D01*
X97700151Y-62394672D01*
X97700146Y-62394672D01*
X97583751Y-62414673D01*
X97502910Y-62428564D01*
X97500222Y-62429556D01*
X97500217Y-62429557D01*
X97315151Y-62497832D01*
X97315148Y-62497833D01*
X97312463Y-62498824D01*
X97138010Y-62602612D01*
X96985392Y-62736455D01*
X96983616Y-62738708D01*
X96983615Y-62738709D01*
X96886082Y-62862429D01*
X96844346Y-62885803D01*
X96798307Y-62872818D01*
X96774933Y-62831082D01*
X96774500Y-62823736D01*
X96774500Y-61633694D01*
X96792806Y-61589500D01*
X96837000Y-61571194D01*
X96881194Y-61589500D01*
X96888040Y-61597623D01*
X96889251Y-61599337D01*
X96946533Y-61680389D01*
X97091938Y-61822035D01*
X97260720Y-61934812D01*
X97347124Y-61971934D01*
X97444588Y-62013808D01*
X97444590Y-62013809D01*
X97447228Y-62014942D01*
X97519308Y-62031252D01*
X97642426Y-62059111D01*
X97642429Y-62059111D01*
X97645216Y-62059742D01*
X97735164Y-62063276D01*
X97845193Y-62067600D01*
X97845197Y-62067600D01*
X97848053Y-62067712D01*
X98048945Y-62038584D01*
X98241165Y-61973334D01*
X98418276Y-61874147D01*
X98574345Y-61744345D01*
X98704147Y-61588276D01*
X98803334Y-61411165D01*
X98868584Y-61218945D01*
X98887119Y-61091112D01*
X98897449Y-61019869D01*
X98897449Y-61019864D01*
X98897712Y-61018053D01*
X98899232Y-60960000D01*
X98896010Y-60924929D01*
X98887949Y-60837211D01*
X98880658Y-60757859D01*
X98879879Y-60755096D01*
X98826335Y-60565244D01*
X98826333Y-60565240D01*
X98825557Y-60562487D01*
X98755584Y-60420595D01*
X98737044Y-60382999D01*
X98737043Y-60382998D01*
X98735776Y-60380428D01*
X98717437Y-60355869D01*
X98616037Y-60220078D01*
X98616036Y-60220076D01*
X98614320Y-60217779D01*
X98465258Y-60079987D01*
X98293581Y-59971667D01*
X98130741Y-59906700D01*
X98107696Y-59897506D01*
X98105039Y-59896446D01*
X98102233Y-59895888D01*
X98102230Y-59895887D01*
X97908752Y-59857402D01*
X97908750Y-59857402D01*
X97905946Y-59856844D01*
X97810353Y-59855593D01*
X97705833Y-59854224D01*
X97705828Y-59854224D01*
X97702971Y-59854187D01*
X97700151Y-59854672D01*
X97700146Y-59854672D01*
X97583751Y-59874673D01*
X97502910Y-59888564D01*
X97500222Y-59889556D01*
X97500217Y-59889557D01*
X97315151Y-59957832D01*
X97315148Y-59957833D01*
X97312463Y-59958824D01*
X97138010Y-60062612D01*
X96985392Y-60196455D01*
X96983616Y-60198708D01*
X96983615Y-60198709D01*
X96886082Y-60322429D01*
X96844346Y-60345803D01*
X96798307Y-60332818D01*
X96774933Y-60291082D01*
X96774500Y-60283736D01*
X96774500Y-59093694D01*
X96792806Y-59049500D01*
X96837000Y-59031194D01*
X96881194Y-59049500D01*
X96888040Y-59057623D01*
X96901057Y-59076041D01*
X96946533Y-59140389D01*
X96948587Y-59142390D01*
X96948588Y-59142391D01*
X96962230Y-59155680D01*
X97091938Y-59282035D01*
X97260720Y-59394812D01*
X97347124Y-59431934D01*
X97444588Y-59473808D01*
X97444590Y-59473809D01*
X97447228Y-59474942D01*
X97547641Y-59497663D01*
X97642426Y-59519111D01*
X97642429Y-59519111D01*
X97645216Y-59519742D01*
X97735164Y-59523276D01*
X97845193Y-59527600D01*
X97845197Y-59527600D01*
X97848053Y-59527712D01*
X98048945Y-59498584D01*
X98241165Y-59433334D01*
X98418276Y-59334147D01*
X98574345Y-59204345D01*
X98704147Y-59048276D01*
X98803334Y-58871165D01*
X98868584Y-58678945D01*
X98897712Y-58478053D01*
X98899232Y-58420000D01*
X98880658Y-58217859D01*
X98863848Y-58158255D01*
X98826335Y-58025244D01*
X98826333Y-58025240D01*
X98825557Y-58022487D01*
X98767770Y-57905306D01*
X98737044Y-57842999D01*
X98737043Y-57842998D01*
X98735776Y-57840428D01*
X98734058Y-57838127D01*
X98616037Y-57680078D01*
X98616036Y-57680076D01*
X98614320Y-57677779D01*
X98465258Y-57539987D01*
X98293581Y-57431667D01*
X98105039Y-57356446D01*
X98102233Y-57355888D01*
X98102230Y-57355887D01*
X97908752Y-57317402D01*
X97908750Y-57317402D01*
X97905946Y-57316844D01*
X97810353Y-57315593D01*
X97705833Y-57314224D01*
X97705828Y-57314224D01*
X97702971Y-57314187D01*
X97700151Y-57314672D01*
X97700146Y-57314672D01*
X97583751Y-57334673D01*
X97502910Y-57348564D01*
X97500222Y-57349556D01*
X97500217Y-57349557D01*
X97315151Y-57417832D01*
X97315148Y-57417833D01*
X97312463Y-57418824D01*
X97310003Y-57420287D01*
X97310002Y-57420288D01*
X97281288Y-57437371D01*
X97138010Y-57522612D01*
X96985392Y-57656455D01*
X96983616Y-57658708D01*
X96983615Y-57658709D01*
X96886082Y-57782429D01*
X96844346Y-57805803D01*
X96798307Y-57792818D01*
X96774933Y-57751082D01*
X96774500Y-57743736D01*
X96774500Y-56553694D01*
X96792806Y-56509500D01*
X96837000Y-56491194D01*
X96881194Y-56509500D01*
X96888040Y-56517623D01*
X96946533Y-56600389D01*
X97091938Y-56742035D01*
X97260720Y-56854812D01*
X97319680Y-56880143D01*
X97444588Y-56933808D01*
X97444590Y-56933809D01*
X97447228Y-56934942D01*
X97543743Y-56956781D01*
X97642426Y-56979111D01*
X97642429Y-56979111D01*
X97645216Y-56979742D01*
X97735164Y-56983276D01*
X97845193Y-56987600D01*
X97845197Y-56987600D01*
X97848053Y-56987712D01*
X98048945Y-56958584D01*
X98241165Y-56893334D01*
X98418276Y-56794147D01*
X98574345Y-56664345D01*
X98704147Y-56508276D01*
X98803334Y-56331165D01*
X98868584Y-56138945D01*
X98887711Y-56007030D01*
X98897449Y-55939869D01*
X98897449Y-55939864D01*
X98897712Y-55938053D01*
X98898039Y-55925584D01*
X98898752Y-55898343D01*
X98899232Y-55880000D01*
X98897222Y-55858118D01*
X98885092Y-55726112D01*
X98880658Y-55677859D01*
X98879879Y-55675096D01*
X98826335Y-55485244D01*
X98826333Y-55485240D01*
X98825557Y-55482487D01*
X98735776Y-55300428D01*
X98717437Y-55275869D01*
X98616037Y-55140078D01*
X98616036Y-55140076D01*
X98614320Y-55137779D01*
X98465258Y-54999987D01*
X98293581Y-54891667D01*
X98105039Y-54816446D01*
X98102233Y-54815888D01*
X98102230Y-54815887D01*
X97908752Y-54777402D01*
X97908750Y-54777402D01*
X97905946Y-54776844D01*
X97810353Y-54775593D01*
X97705833Y-54774224D01*
X97705828Y-54774224D01*
X97702971Y-54774187D01*
X97700151Y-54774672D01*
X97700146Y-54774672D01*
X97583751Y-54794673D01*
X97502910Y-54808564D01*
X97500222Y-54809556D01*
X97500217Y-54809557D01*
X97315151Y-54877832D01*
X97315148Y-54877833D01*
X97312463Y-54878824D01*
X97138010Y-54982612D01*
X97074887Y-55037970D01*
X97015815Y-55089775D01*
X96985392Y-55116455D01*
X96983616Y-55118708D01*
X96983615Y-55118709D01*
X96886082Y-55242429D01*
X96844346Y-55265803D01*
X96798307Y-55252818D01*
X96774933Y-55211082D01*
X96774500Y-55203736D01*
X96774500Y-54013694D01*
X96792806Y-53969500D01*
X96837000Y-53951194D01*
X96881194Y-53969500D01*
X96888040Y-53977623D01*
X96944777Y-54057904D01*
X96946533Y-54060389D01*
X96948587Y-54062390D01*
X96948588Y-54062391D01*
X97059734Y-54170664D01*
X97091938Y-54202035D01*
X97260720Y-54314812D01*
X97358860Y-54356976D01*
X97444588Y-54393808D01*
X97444590Y-54393809D01*
X97447228Y-54394942D01*
X97547641Y-54417663D01*
X97642426Y-54439111D01*
X97642429Y-54439111D01*
X97645216Y-54439742D01*
X97735164Y-54443276D01*
X97845193Y-54447600D01*
X97845197Y-54447600D01*
X97848053Y-54447712D01*
X98048945Y-54418584D01*
X98241165Y-54353334D01*
X98418276Y-54254147D01*
X98574345Y-54124345D01*
X98704147Y-53968276D01*
X98803334Y-53791165D01*
X98868584Y-53598945D01*
X98881532Y-53509642D01*
X98897449Y-53399869D01*
X98897449Y-53399864D01*
X98897712Y-53398053D01*
X98899232Y-53340000D01*
X98898359Y-53330493D01*
X98887560Y-53212970D01*
X98880658Y-53137859D01*
X98879879Y-53135096D01*
X98826335Y-52945244D01*
X98826333Y-52945240D01*
X98825557Y-52942487D01*
X98735776Y-52760428D01*
X98717437Y-52735869D01*
X98616037Y-52600078D01*
X98616036Y-52600076D01*
X98614320Y-52597779D01*
X98465258Y-52459987D01*
X98293581Y-52351667D01*
X98105039Y-52276446D01*
X98102233Y-52275888D01*
X98102230Y-52275887D01*
X97908752Y-52237402D01*
X97908750Y-52237402D01*
X97905946Y-52236844D01*
X97810353Y-52235593D01*
X97705833Y-52234224D01*
X97705828Y-52234224D01*
X97702971Y-52234187D01*
X97700151Y-52234672D01*
X97700146Y-52234672D01*
X97583751Y-52254673D01*
X97502910Y-52268564D01*
X97500222Y-52269556D01*
X97500217Y-52269557D01*
X97315151Y-52337832D01*
X97315148Y-52337833D01*
X97312463Y-52338824D01*
X97138010Y-52442612D01*
X96985392Y-52576455D01*
X96983616Y-52578708D01*
X96983615Y-52578709D01*
X96886082Y-52702429D01*
X96844346Y-52725803D01*
X96798307Y-52712818D01*
X96774933Y-52671082D01*
X96774500Y-52663736D01*
X96774500Y-51473694D01*
X96792806Y-51429500D01*
X96837000Y-51411194D01*
X96881194Y-51429500D01*
X96888040Y-51437623D01*
X96946533Y-51520389D01*
X97091938Y-51662035D01*
X97260720Y-51774812D01*
X97364164Y-51819255D01*
X97444588Y-51853808D01*
X97444590Y-51853809D01*
X97447228Y-51854942D01*
X97547641Y-51877663D01*
X97642426Y-51899111D01*
X97642429Y-51899111D01*
X97645216Y-51899742D01*
X97735164Y-51903276D01*
X97845193Y-51907600D01*
X97845197Y-51907600D01*
X97848053Y-51907712D01*
X98048945Y-51878584D01*
X98241165Y-51813334D01*
X98418276Y-51714147D01*
X98574345Y-51584345D01*
X98704147Y-51428276D01*
X98803334Y-51251165D01*
X98868584Y-51058945D01*
X98896987Y-50863053D01*
X98897449Y-50859869D01*
X98897449Y-50859864D01*
X98897712Y-50858053D01*
X98899232Y-50800000D01*
X98897024Y-50775964D01*
X98890137Y-50701015D01*
X98880658Y-50597859D01*
X98874036Y-50574378D01*
X98826335Y-50405244D01*
X98826333Y-50405240D01*
X98825557Y-50402487D01*
X98735776Y-50220428D01*
X98700224Y-50172818D01*
X98616037Y-50060078D01*
X98616036Y-50060076D01*
X98614320Y-50057779D01*
X98465258Y-49919987D01*
X98293581Y-49811667D01*
X98139085Y-49750029D01*
X98107696Y-49737506D01*
X98105039Y-49736446D01*
X98102233Y-49735888D01*
X98102230Y-49735887D01*
X97908752Y-49697402D01*
X97908750Y-49697402D01*
X97905946Y-49696844D01*
X97810353Y-49695593D01*
X97705833Y-49694224D01*
X97705828Y-49694224D01*
X97702971Y-49694187D01*
X97700151Y-49694672D01*
X97700146Y-49694672D01*
X97587289Y-49714065D01*
X97502910Y-49728564D01*
X97500224Y-49729555D01*
X97500217Y-49729557D01*
X97315151Y-49797832D01*
X97315148Y-49797833D01*
X97312463Y-49798824D01*
X97138010Y-49902612D01*
X97110292Y-49926920D01*
X97006556Y-50017895D01*
X96985392Y-50036455D01*
X96983616Y-50038708D01*
X96983615Y-50038709D01*
X96886082Y-50162429D01*
X96844346Y-50185803D01*
X96798307Y-50172818D01*
X96774933Y-50131082D01*
X96774500Y-50123736D01*
X96774500Y-48933694D01*
X96792806Y-48889500D01*
X96837000Y-48871194D01*
X96881194Y-48889500D01*
X96888040Y-48897623D01*
X96946533Y-48980389D01*
X96948587Y-48982390D01*
X96948588Y-48982391D01*
X96960000Y-48993508D01*
X97091938Y-49122035D01*
X97260720Y-49234812D01*
X97363096Y-49278796D01*
X97444588Y-49313808D01*
X97444590Y-49313809D01*
X97447228Y-49314942D01*
X97547641Y-49337663D01*
X97642426Y-49359111D01*
X97642429Y-49359111D01*
X97645216Y-49359742D01*
X97735164Y-49363276D01*
X97845193Y-49367600D01*
X97845197Y-49367600D01*
X97848053Y-49367712D01*
X97876317Y-49363614D01*
X97957320Y-49351869D01*
X98048945Y-49338584D01*
X98241165Y-49273334D01*
X98418276Y-49174147D01*
X98574345Y-49044345D01*
X98704147Y-48888276D01*
X98803334Y-48711165D01*
X98868584Y-48518945D01*
X98896987Y-48323053D01*
X98897449Y-48319869D01*
X98897449Y-48319864D01*
X98897712Y-48318053D01*
X98899232Y-48260000D01*
X98897024Y-48235964D01*
X98887087Y-48127826D01*
X98880658Y-48057859D01*
X98874036Y-48034378D01*
X98826335Y-47865244D01*
X98826333Y-47865240D01*
X98825557Y-47862487D01*
X98735776Y-47680428D01*
X98723265Y-47663674D01*
X98616037Y-47520078D01*
X98616036Y-47520076D01*
X98614320Y-47517779D01*
X98465258Y-47379987D01*
X98293581Y-47271667D01*
X98120507Y-47202617D01*
X98107696Y-47197506D01*
X98105039Y-47196446D01*
X98102233Y-47195888D01*
X98102230Y-47195887D01*
X97908752Y-47157402D01*
X97908750Y-47157402D01*
X97905946Y-47156844D01*
X97810353Y-47155593D01*
X97705833Y-47154224D01*
X97705828Y-47154224D01*
X97702971Y-47154187D01*
X97700149Y-47154672D01*
X97700148Y-47154672D01*
X97687508Y-47156844D01*
X97540326Y-47182135D01*
X97493671Y-47171578D01*
X97468145Y-47131123D01*
X97478702Y-47084467D01*
X97508468Y-47061770D01*
X97510797Y-47060927D01*
X97608573Y-47025534D01*
X97619194Y-47022717D01*
X97784903Y-46994092D01*
X97802612Y-46993582D01*
X97811494Y-46994594D01*
X97817410Y-46992897D01*
X97817632Y-46992879D01*
X97834553Y-46990500D01*
X105483918Y-46990500D01*
X105528112Y-47008806D01*
G37*
%TD.AperFunction*%
%TA.AperFunction,Conductor*%
G36*
X107494833Y-60922773D02*
G01*
X107546653Y-60969926D01*
X107567021Y-61013209D01*
X107550817Y-61058216D01*
X107542072Y-61066166D01*
X107455947Y-61130712D01*
X107449712Y-61136947D01*
X107370621Y-61242479D01*
X107366387Y-61250212D01*
X107319904Y-61374204D01*
X107318106Y-61381768D01*
X107312183Y-61436293D01*
X107312000Y-61439662D01*
X107312000Y-61582569D01*
X107315641Y-61591359D01*
X107324431Y-61595000D01*
X108882568Y-61595000D01*
X108891358Y-61591359D01*
X108894999Y-61582569D01*
X108894999Y-61439668D01*
X108894817Y-61436298D01*
X108888894Y-61381769D01*
X108887095Y-61374201D01*
X108840613Y-61250212D01*
X108836379Y-61242479D01*
X108757288Y-61136947D01*
X108751053Y-61130712D01*
X108645521Y-61051621D01*
X108637788Y-61047387D01*
X108584801Y-61027523D01*
X108549845Y-60994868D01*
X108548217Y-60947061D01*
X108580872Y-60912105D01*
X108606740Y-60906500D01*
X109160752Y-60906500D01*
X109174865Y-60908114D01*
X109179390Y-60909163D01*
X109179391Y-60909163D01*
X109183938Y-60910217D01*
X109234234Y-60906656D01*
X109238649Y-60906500D01*
X109259852Y-60906500D01*
X109304046Y-60924806D01*
X109321492Y-60942252D01*
X109339798Y-60986446D01*
X109321492Y-61030640D01*
X109299240Y-61044968D01*
X109295951Y-61046201D01*
X109289801Y-61048507D01*
X109177026Y-61133026D01*
X109092507Y-61245801D01*
X109043036Y-61377764D01*
X109036500Y-61437930D01*
X109036500Y-62006070D01*
X109043036Y-62066236D01*
X109044411Y-62069903D01*
X109044411Y-62069904D01*
X109078351Y-62160437D01*
X109092507Y-62198199D01*
X109177026Y-62310974D01*
X109289801Y-62395493D01*
X109293969Y-62397056D01*
X109293970Y-62397056D01*
X109376721Y-62428078D01*
X109421764Y-62444964D01*
X109481930Y-62451500D01*
X110175070Y-62451500D01*
X110235236Y-62444964D01*
X110280279Y-62428078D01*
X110363030Y-62397056D01*
X110363031Y-62397056D01*
X110367199Y-62395493D01*
X110380519Y-62385511D01*
X110426860Y-62373655D01*
X110468013Y-62398041D01*
X110480500Y-62435524D01*
X110480500Y-63690115D01*
X110462194Y-63734309D01*
X110418000Y-63752615D01*
X110376424Y-63736780D01*
X110361091Y-63723119D01*
X110361086Y-63723116D01*
X110358275Y-63720611D01*
X110218274Y-63646484D01*
X110064633Y-63607892D01*
X110060868Y-63607872D01*
X110060866Y-63607872D01*
X109982296Y-63607461D01*
X109906221Y-63607062D01*
X109902557Y-63607942D01*
X109902554Y-63607942D01*
X109832948Y-63624653D01*
X109752184Y-63644043D01*
X109748837Y-63645770D01*
X109748833Y-63645772D01*
X109708452Y-63666614D01*
X109660784Y-63670617D01*
X109624248Y-63639742D01*
X109617910Y-63602270D01*
X109624873Y-63553341D01*
X109624874Y-63553334D01*
X109625162Y-63551307D01*
X109625307Y-63537500D01*
X109606276Y-63380233D01*
X109550280Y-63232046D01*
X109460553Y-63101492D01*
X109373354Y-63023801D01*
X109345087Y-62998616D01*
X109345085Y-62998615D01*
X109342275Y-62996111D01*
X109202274Y-62921984D01*
X109048633Y-62883392D01*
X109044868Y-62883372D01*
X109044866Y-62883372D01*
X108966296Y-62882961D01*
X108890221Y-62882562D01*
X108886557Y-62883442D01*
X108886554Y-62883442D01*
X108834793Y-62895869D01*
X108736184Y-62919543D01*
X108732842Y-62921268D01*
X108732839Y-62921269D01*
X108665799Y-62955872D01*
X108595414Y-62992200D01*
X108476039Y-63096338D01*
X108473873Y-63099420D01*
X108473872Y-63099421D01*
X108451370Y-63131438D01*
X108410981Y-63157069D01*
X108400236Y-63158000D01*
X107809866Y-63158000D01*
X107796711Y-63156600D01*
X107793983Y-63156013D01*
X107780826Y-63153180D01*
X107775697Y-63153787D01*
X107775694Y-63153787D01*
X107743761Y-63157567D01*
X107736415Y-63158000D01*
X107731178Y-63158000D01*
X107728637Y-63158423D01*
X107728625Y-63158424D01*
X107710660Y-63161415D01*
X107707752Y-63161829D01*
X107655361Y-63168030D01*
X107650704Y-63170266D01*
X107646923Y-63171365D01*
X107643176Y-63172647D01*
X107638076Y-63173496D01*
X107633530Y-63175949D01*
X107633527Y-63175950D01*
X107591641Y-63198551D01*
X107589016Y-63199888D01*
X107545016Y-63221016D01*
X107545014Y-63221017D01*
X107541470Y-63222719D01*
X107538461Y-63225248D01*
X107538459Y-63225250D01*
X107538289Y-63225393D01*
X107537194Y-63226314D01*
X107536996Y-63226512D01*
X107533916Y-63229112D01*
X107531435Y-63231037D01*
X107526888Y-63233490D01*
X107523380Y-63237285D01*
X107489454Y-63273986D01*
X107487753Y-63275755D01*
X106923327Y-63840181D01*
X106879133Y-63858487D01*
X106866941Y-63857286D01*
X106812574Y-63846473D01*
X106806536Y-63845272D01*
X106707235Y-63865023D01*
X106644302Y-63907073D01*
X105477483Y-65073894D01*
X105461967Y-65097115D01*
X105422194Y-65123690D01*
X105375278Y-65114358D01*
X105358034Y-65097114D01*
X105344225Y-65076447D01*
X105344224Y-65076446D01*
X105342519Y-65073894D01*
X104175698Y-63907075D01*
X104112765Y-63865023D01*
X104106632Y-63863803D01*
X104019502Y-63846473D01*
X104013464Y-63845272D01*
X103914163Y-63865023D01*
X103851230Y-63907073D01*
X103849058Y-63909245D01*
X103428810Y-64329495D01*
X103384616Y-64347801D01*
X103347482Y-64335573D01*
X103342834Y-64332140D01*
X103339076Y-64329364D01*
X103334669Y-64327816D01*
X103332733Y-64326791D01*
X103332487Y-64326642D01*
X103332282Y-64326537D01*
X103332010Y-64326423D01*
X103330054Y-64325465D01*
X103326211Y-64322809D01*
X103323051Y-64321810D01*
X103307351Y-64310591D01*
X103214564Y-64217804D01*
X103196258Y-64173610D01*
X103214564Y-64129416D01*
X103221276Y-64123597D01*
X103237826Y-64111194D01*
X103267474Y-64088974D01*
X103351993Y-63976199D01*
X103361510Y-63950814D01*
X103400089Y-63847904D01*
X103400089Y-63847903D01*
X103401464Y-63844236D01*
X103408000Y-63784070D01*
X103408000Y-63215930D01*
X103401464Y-63155764D01*
X103351993Y-63023801D01*
X103267474Y-62911026D01*
X103202630Y-62862429D01*
X103158263Y-62829178D01*
X103154699Y-62826507D01*
X103147308Y-62823736D01*
X103139492Y-62820806D01*
X103111061Y-62810148D01*
X103076105Y-62777494D01*
X103070500Y-62751625D01*
X103070500Y-62639000D01*
X103088806Y-62594806D01*
X103133000Y-62576500D01*
X103326756Y-62576500D01*
X103388448Y-62569798D01*
X103392116Y-62568423D01*
X103519593Y-62520635D01*
X103519595Y-62520634D01*
X103523764Y-62519071D01*
X103639404Y-62432404D01*
X103726071Y-62316764D01*
X103729712Y-62307053D01*
X103775423Y-62185116D01*
X103776798Y-62181448D01*
X103783500Y-62119756D01*
X103783500Y-62004332D01*
X107312001Y-62004332D01*
X107312183Y-62007702D01*
X107318106Y-62062231D01*
X107319905Y-62069799D01*
X107366387Y-62193788D01*
X107370621Y-62201521D01*
X107449712Y-62307053D01*
X107455947Y-62313288D01*
X107561479Y-62392379D01*
X107569212Y-62396613D01*
X107693204Y-62443096D01*
X107700768Y-62444894D01*
X107755293Y-62450817D01*
X107758662Y-62451000D01*
X107964069Y-62451000D01*
X107972859Y-62447359D01*
X107976500Y-62438569D01*
X107976500Y-62438568D01*
X108230500Y-62438568D01*
X108234141Y-62447358D01*
X108242931Y-62450999D01*
X108448332Y-62450999D01*
X108451702Y-62450817D01*
X108506231Y-62444894D01*
X108513799Y-62443095D01*
X108637788Y-62396613D01*
X108645521Y-62392379D01*
X108751053Y-62313288D01*
X108757288Y-62307053D01*
X108836379Y-62201521D01*
X108840613Y-62193788D01*
X108887096Y-62069796D01*
X108888894Y-62062232D01*
X108894817Y-62007707D01*
X108895000Y-62004338D01*
X108895000Y-61861431D01*
X108891359Y-61852641D01*
X108882569Y-61849000D01*
X108242931Y-61849000D01*
X108234141Y-61852641D01*
X108230500Y-61861431D01*
X108230500Y-62438568D01*
X107976500Y-62438568D01*
X107976500Y-61861431D01*
X107972859Y-61852641D01*
X107964069Y-61849000D01*
X107324432Y-61849000D01*
X107315642Y-61852641D01*
X107312001Y-61861431D01*
X107312001Y-62004332D01*
X103783500Y-62004332D01*
X103783500Y-61324244D01*
X103776798Y-61262552D01*
X103772081Y-61249970D01*
X103727635Y-61131407D01*
X103727634Y-61131405D01*
X103726071Y-61127236D01*
X103639504Y-61011729D01*
X103639503Y-61011727D01*
X103639404Y-61011596D01*
X103639438Y-61011571D01*
X103621804Y-60969000D01*
X103640110Y-60924806D01*
X103684304Y-60906500D01*
X107452770Y-60906500D01*
X107494833Y-60922773D01*
G37*
%TD.AperFunction*%
%TA.AperFunction,Conductor*%
G36*
X107189752Y-47387806D02*
G01*
X107208058Y-47432000D01*
X107186767Y-47478990D01*
X107162910Y-47499912D01*
X107158983Y-47504050D01*
X107036913Y-47658895D01*
X107033809Y-47663674D01*
X106941998Y-47838177D01*
X106939819Y-47843437D01*
X106881346Y-48031752D01*
X106880162Y-48037322D01*
X106869707Y-48125655D01*
X106872290Y-48134811D01*
X106877984Y-48138000D01*
X109049629Y-48138000D01*
X109058419Y-48134359D01*
X109061125Y-48127826D01*
X109055426Y-48065805D01*
X109054385Y-48060187D01*
X109000867Y-47870424D01*
X108998824Y-47865102D01*
X108911616Y-47688261D01*
X108908630Y-47683389D01*
X108790664Y-47525414D01*
X108786841Y-47521169D01*
X108740028Y-47477895D01*
X108720001Y-47434454D01*
X108736558Y-47389575D01*
X108782453Y-47369500D01*
X110306918Y-47369500D01*
X110351112Y-47387806D01*
X110600194Y-47636889D01*
X110618500Y-47681083D01*
X110618500Y-48720836D01*
X110617100Y-48733991D01*
X110613680Y-48749876D01*
X110614287Y-48755005D01*
X110614287Y-48755008D01*
X110618067Y-48786941D01*
X110618500Y-48794287D01*
X110618500Y-48799524D01*
X110618923Y-48802065D01*
X110618924Y-48802077D01*
X110621915Y-48820042D01*
X110622329Y-48822950D01*
X110628530Y-48875341D01*
X110630766Y-48879998D01*
X110631865Y-48883779D01*
X110633147Y-48887526D01*
X110633996Y-48892626D01*
X110636449Y-48897172D01*
X110636450Y-48897175D01*
X110659051Y-48939061D01*
X110660388Y-48941686D01*
X110681374Y-48985389D01*
X110683219Y-48989232D01*
X110686814Y-48993508D01*
X110687012Y-48993706D01*
X110689612Y-48996786D01*
X110691537Y-48999267D01*
X110693990Y-49003814D01*
X110697785Y-49007322D01*
X110734486Y-49041248D01*
X110736255Y-49042949D01*
X111994582Y-50301276D01*
X112012888Y-50345470D01*
X112006826Y-50369998D01*
X112007633Y-50370332D01*
X112006534Y-50372986D01*
X112005203Y-50375515D01*
X112004356Y-50378242D01*
X112004355Y-50378245D01*
X111997624Y-50399922D01*
X111945007Y-50569378D01*
X111921148Y-50770964D01*
X111934424Y-50973522D01*
X111935130Y-50976302D01*
X111956669Y-51061109D01*
X111984392Y-51170269D01*
X112069377Y-51354616D01*
X112186533Y-51520389D01*
X112331938Y-51662035D01*
X112500720Y-51774812D01*
X112604164Y-51819255D01*
X112684588Y-51853808D01*
X112684590Y-51853809D01*
X112687228Y-51854942D01*
X112787641Y-51877663D01*
X112882426Y-51899111D01*
X112882429Y-51899111D01*
X112885216Y-51899742D01*
X112975164Y-51903276D01*
X113085193Y-51907600D01*
X113085197Y-51907600D01*
X113088053Y-51907712D01*
X113288945Y-51878584D01*
X113481165Y-51813334D01*
X113658276Y-51714147D01*
X113814345Y-51584345D01*
X113842413Y-51550597D01*
X113934948Y-51439337D01*
X113977281Y-51417064D01*
X114022965Y-51431250D01*
X114045238Y-51473583D01*
X114045500Y-51479302D01*
X114045500Y-52665645D01*
X114027194Y-52709839D01*
X113983000Y-52728145D01*
X113938806Y-52709839D01*
X113932922Y-52703040D01*
X113903573Y-52663736D01*
X113854320Y-52597779D01*
X113705258Y-52459987D01*
X113533581Y-52351667D01*
X113345039Y-52276446D01*
X113342233Y-52275888D01*
X113342230Y-52275887D01*
X113148752Y-52237402D01*
X113148750Y-52237402D01*
X113145946Y-52236844D01*
X113050353Y-52235593D01*
X112945833Y-52234224D01*
X112945828Y-52234224D01*
X112942971Y-52234187D01*
X112940151Y-52234672D01*
X112940146Y-52234672D01*
X112823751Y-52254673D01*
X112742910Y-52268564D01*
X112740222Y-52269556D01*
X112740217Y-52269557D01*
X112555151Y-52337832D01*
X112555148Y-52337833D01*
X112552463Y-52338824D01*
X112378010Y-52442612D01*
X112225392Y-52576455D01*
X112099720Y-52735869D01*
X112005203Y-52915515D01*
X112004356Y-52918242D01*
X112004355Y-52918245D01*
X111990889Y-52961613D01*
X111945007Y-53109378D01*
X111921148Y-53310964D01*
X111925356Y-53375166D01*
X111934170Y-53509642D01*
X111934424Y-53513522D01*
X111935130Y-53516302D01*
X111973386Y-53666932D01*
X111984392Y-53710269D01*
X112069377Y-53894616D01*
X112186533Y-54060389D01*
X112188587Y-54062390D01*
X112188588Y-54062391D01*
X112299734Y-54170664D01*
X112331938Y-54202035D01*
X112500720Y-54314812D01*
X112598860Y-54356976D01*
X112684588Y-54393808D01*
X112684590Y-54393809D01*
X112687228Y-54394942D01*
X112787641Y-54417663D01*
X112882426Y-54439111D01*
X112882429Y-54439111D01*
X112885216Y-54439742D01*
X112975164Y-54443276D01*
X113085193Y-54447600D01*
X113085197Y-54447600D01*
X113088053Y-54447712D01*
X113288945Y-54418584D01*
X113481165Y-54353334D01*
X113658276Y-54254147D01*
X113814345Y-54124345D01*
X113869604Y-54057904D01*
X113934948Y-53979337D01*
X113977281Y-53957064D01*
X114022965Y-53971250D01*
X114045238Y-54013583D01*
X114045500Y-54019302D01*
X114045500Y-55205645D01*
X114027194Y-55249839D01*
X113983000Y-55268145D01*
X113938806Y-55249839D01*
X113932922Y-55243040D01*
X113931660Y-55241349D01*
X113878361Y-55169974D01*
X113856037Y-55140078D01*
X113856036Y-55140076D01*
X113854320Y-55137779D01*
X113705258Y-54999987D01*
X113533581Y-54891667D01*
X113345039Y-54816446D01*
X113342233Y-54815888D01*
X113342230Y-54815887D01*
X113148752Y-54777402D01*
X113148750Y-54777402D01*
X113145946Y-54776844D01*
X113050353Y-54775593D01*
X112945833Y-54774224D01*
X112945828Y-54774224D01*
X112942971Y-54774187D01*
X112940151Y-54774672D01*
X112940146Y-54774672D01*
X112823751Y-54794673D01*
X112742910Y-54808564D01*
X112740222Y-54809556D01*
X112740217Y-54809557D01*
X112555151Y-54877832D01*
X112555148Y-54877833D01*
X112552463Y-54878824D01*
X112378010Y-54982612D01*
X112314887Y-55037970D01*
X112255815Y-55089775D01*
X112225392Y-55116455D01*
X112223616Y-55118708D01*
X112223615Y-55118709D01*
X112123570Y-55245616D01*
X112099720Y-55275869D01*
X112005203Y-55455515D01*
X112004356Y-55458242D01*
X112004355Y-55458245D01*
X111997896Y-55479046D01*
X111945007Y-55649378D01*
X111921148Y-55850964D01*
X111925268Y-55913819D01*
X111932838Y-56029320D01*
X111934424Y-56053522D01*
X111935130Y-56056302D01*
X111957788Y-56145515D01*
X111984392Y-56250269D01*
X112069377Y-56434616D01*
X112186533Y-56600389D01*
X112331938Y-56742035D01*
X112500720Y-56854812D01*
X112559680Y-56880143D01*
X112684588Y-56933808D01*
X112684590Y-56933809D01*
X112687228Y-56934942D01*
X112783743Y-56956781D01*
X112882426Y-56979111D01*
X112882429Y-56979111D01*
X112885216Y-56979742D01*
X112975164Y-56983276D01*
X113085193Y-56987600D01*
X113085197Y-56987600D01*
X113088053Y-56987712D01*
X113288945Y-56958584D01*
X113481165Y-56893334D01*
X113658276Y-56794147D01*
X113814345Y-56664345D01*
X113906373Y-56553694D01*
X113934948Y-56519337D01*
X113977281Y-56497064D01*
X114022965Y-56511250D01*
X114045238Y-56553583D01*
X114045500Y-56559302D01*
X114045500Y-57745645D01*
X114027194Y-57789839D01*
X113983000Y-57808145D01*
X113938806Y-57789839D01*
X113932922Y-57783040D01*
X113932680Y-57782715D01*
X113854320Y-57677779D01*
X113705258Y-57539987D01*
X113533581Y-57431667D01*
X113345039Y-57356446D01*
X113342233Y-57355888D01*
X113342230Y-57355887D01*
X113148752Y-57317402D01*
X113148750Y-57317402D01*
X113145946Y-57316844D01*
X113050353Y-57315593D01*
X112945833Y-57314224D01*
X112945828Y-57314224D01*
X112942971Y-57314187D01*
X112940151Y-57314672D01*
X112940146Y-57314672D01*
X112823751Y-57334673D01*
X112742910Y-57348564D01*
X112740222Y-57349556D01*
X112740217Y-57349557D01*
X112555151Y-57417832D01*
X112555148Y-57417833D01*
X112552463Y-57418824D01*
X112550003Y-57420287D01*
X112550002Y-57420288D01*
X112521288Y-57437371D01*
X112378010Y-57522612D01*
X112225392Y-57656455D01*
X112223616Y-57658708D01*
X112223615Y-57658709D01*
X112109022Y-57804070D01*
X112099720Y-57815869D01*
X112076323Y-57860340D01*
X112007037Y-57992030D01*
X112005203Y-57995515D01*
X112004355Y-57998245D01*
X112003256Y-58000899D01*
X112001762Y-58000280D01*
X111974319Y-58033301D01*
X111945198Y-58040500D01*
X111807164Y-58040500D01*
X111794009Y-58039100D01*
X111791281Y-58038513D01*
X111778124Y-58035680D01*
X111772995Y-58036287D01*
X111772992Y-58036287D01*
X111741059Y-58040067D01*
X111733713Y-58040500D01*
X111728476Y-58040500D01*
X111725935Y-58040923D01*
X111725923Y-58040924D01*
X111707958Y-58043915D01*
X111705050Y-58044329D01*
X111652659Y-58050530D01*
X111648002Y-58052766D01*
X111644221Y-58053865D01*
X111640475Y-58055147D01*
X111635374Y-58055996D01*
X111588928Y-58081057D01*
X111586313Y-58082389D01*
X111542313Y-58103517D01*
X111542309Y-58103520D01*
X111538768Y-58105220D01*
X111534492Y-58108814D01*
X111534296Y-58109010D01*
X111531211Y-58111615D01*
X111528735Y-58113535D01*
X111524186Y-58115990D01*
X111520677Y-58119786D01*
X111486752Y-58156486D01*
X111485051Y-58158255D01*
X110625004Y-59018302D01*
X110614716Y-59026611D01*
X110601060Y-59035429D01*
X110589194Y-59050481D01*
X110577951Y-59064743D01*
X110573062Y-59070244D01*
X110569362Y-59073944D01*
X110567866Y-59076038D01*
X110567863Y-59076041D01*
X110557271Y-59090863D01*
X110555504Y-59093217D01*
X110555128Y-59093694D01*
X110522844Y-59134647D01*
X110521132Y-59139523D01*
X110519207Y-59143024D01*
X110517487Y-59146535D01*
X110514486Y-59150734D01*
X110513008Y-59155676D01*
X110513006Y-59155680D01*
X110499366Y-59201292D01*
X110498455Y-59204094D01*
X110482285Y-59250139D01*
X110482284Y-59250143D01*
X110480982Y-59253851D01*
X110480500Y-59259416D01*
X110480500Y-59259693D01*
X110480160Y-59263719D01*
X110479767Y-59266828D01*
X110478287Y-59271778D01*
X110480452Y-59326882D01*
X110480500Y-59329336D01*
X110480500Y-61008476D01*
X110462194Y-61052670D01*
X110418000Y-61070976D01*
X110380519Y-61058490D01*
X110367199Y-61048507D01*
X110362961Y-61046918D01*
X110351992Y-61042806D01*
X110323561Y-61032148D01*
X110288605Y-60999494D01*
X110283000Y-60973625D01*
X110283000Y-60837211D01*
X110283433Y-60829865D01*
X110287358Y-60796701D01*
X110287907Y-60792063D01*
X110277088Y-60732821D01*
X110276766Y-60730887D01*
X110268509Y-60675968D01*
X110267815Y-60671349D01*
X110265793Y-60667138D01*
X110265150Y-60665047D01*
X110265082Y-60664770D01*
X110265010Y-60664548D01*
X110264898Y-60664274D01*
X110264193Y-60662215D01*
X110263353Y-60657617D01*
X110235600Y-60604190D01*
X110234728Y-60602446D01*
X110210678Y-60552361D01*
X110210676Y-60552359D01*
X110208654Y-60548147D01*
X110205481Y-60544714D01*
X110204259Y-60542917D01*
X110203946Y-60542393D01*
X110201994Y-60539497D01*
X110200352Y-60536335D01*
X110196006Y-60531246D01*
X110157527Y-60492767D01*
X110155826Y-60490998D01*
X110119055Y-60451219D01*
X110119053Y-60451218D01*
X110115883Y-60447788D01*
X110111844Y-60445442D01*
X110108197Y-60442520D01*
X110108432Y-60442227D01*
X110102166Y-60437406D01*
X109833563Y-60168803D01*
X109815257Y-60124609D01*
X109833563Y-60080415D01*
X109855818Y-60066087D01*
X109870256Y-60060674D01*
X109913809Y-60044348D01*
X109913813Y-60044346D01*
X109917982Y-60042783D01*
X110032189Y-59957189D01*
X110109385Y-59854187D01*
X110115112Y-59846546D01*
X110117783Y-59842982D01*
X110163997Y-59719703D01*
X110166506Y-59713010D01*
X110167881Y-59709342D01*
X110174500Y-59648415D01*
X110174499Y-59066586D01*
X110174317Y-59064904D01*
X110168304Y-59009555D01*
X110168304Y-59009554D01*
X110167881Y-59005658D01*
X110166506Y-59001990D01*
X110166505Y-59001986D01*
X110142308Y-58937439D01*
X110117783Y-58872018D01*
X110032189Y-58757811D01*
X109917982Y-58672217D01*
X109784342Y-58622119D01*
X109723415Y-58615500D01*
X109220745Y-58615500D01*
X108716586Y-58615501D01*
X108714913Y-58615683D01*
X108714908Y-58615683D01*
X108688614Y-58618539D01*
X108655658Y-58622119D01*
X108651990Y-58623494D01*
X108651986Y-58623495D01*
X108594771Y-58644944D01*
X108522018Y-58672217D01*
X108407811Y-58757811D01*
X108322217Y-58872018D01*
X108281824Y-58979769D01*
X108273496Y-59001986D01*
X108272119Y-59005658D01*
X108265500Y-59066585D01*
X108265501Y-59648414D01*
X108265683Y-59650087D01*
X108265683Y-59650092D01*
X108268539Y-59676386D01*
X108272119Y-59709342D01*
X108273494Y-59713010D01*
X108273495Y-59713014D01*
X108295013Y-59770413D01*
X108293385Y-59818221D01*
X108258429Y-59850875D01*
X108207244Y-59847587D01*
X108189602Y-59838246D01*
X108189601Y-59838246D01*
X108186274Y-59836484D01*
X108032633Y-59797892D01*
X108028868Y-59797872D01*
X108028866Y-59797872D01*
X107950296Y-59797461D01*
X107874221Y-59797062D01*
X107870557Y-59797942D01*
X107870554Y-59797942D01*
X107800948Y-59814653D01*
X107720184Y-59834043D01*
X107716842Y-59835768D01*
X107716839Y-59835769D01*
X107676008Y-59856844D01*
X107579414Y-59906700D01*
X107576576Y-59909175D01*
X107576577Y-59909175D01*
X107492984Y-59982098D01*
X107451898Y-59997500D01*
X107345684Y-59997500D01*
X107301490Y-59979194D01*
X107283184Y-59935000D01*
X107295671Y-59897517D01*
X107350381Y-59824517D01*
X107354613Y-59816788D01*
X107401096Y-59692796D01*
X107402894Y-59685232D01*
X107408817Y-59630707D01*
X107409000Y-59627338D01*
X107409000Y-59471931D01*
X107405359Y-59463141D01*
X107396569Y-59459500D01*
X105963432Y-59459500D01*
X105954642Y-59463141D01*
X105951001Y-59471931D01*
X105951001Y-59627332D01*
X105951183Y-59630702D01*
X105957106Y-59685231D01*
X105958905Y-59692799D01*
X106005387Y-59816788D01*
X106009619Y-59824517D01*
X106064329Y-59897517D01*
X106076185Y-59943860D01*
X106051799Y-59985013D01*
X106014316Y-59997500D01*
X104806309Y-59997500D01*
X104762115Y-59979194D01*
X104743809Y-59935000D01*
X104756296Y-59897518D01*
X104810822Y-59824763D01*
X104813493Y-59821199D01*
X104822231Y-59797892D01*
X104861589Y-59692904D01*
X104861589Y-59692903D01*
X104862964Y-59689236D01*
X104869500Y-59629070D01*
X104869500Y-59193069D01*
X105951000Y-59193069D01*
X105954641Y-59201859D01*
X105963431Y-59205500D01*
X106540569Y-59205500D01*
X106549359Y-59201859D01*
X106553000Y-59193069D01*
X106807000Y-59193069D01*
X106810641Y-59201859D01*
X106819431Y-59205500D01*
X107396568Y-59205500D01*
X107405358Y-59201859D01*
X107408999Y-59193069D01*
X107408999Y-59037668D01*
X107408817Y-59034298D01*
X107402894Y-58979769D01*
X107401095Y-58972201D01*
X107354613Y-58848212D01*
X107350379Y-58840479D01*
X107271288Y-58734947D01*
X107265053Y-58728712D01*
X107159521Y-58649621D01*
X107151788Y-58645387D01*
X107027796Y-58598904D01*
X107020232Y-58597106D01*
X106965707Y-58591183D01*
X106962338Y-58591000D01*
X106819431Y-58591000D01*
X106810641Y-58594641D01*
X106807000Y-58603431D01*
X106807000Y-59193069D01*
X106553000Y-59193069D01*
X106553000Y-58603432D01*
X106549359Y-58594642D01*
X106540569Y-58591001D01*
X106397668Y-58591001D01*
X106394298Y-58591183D01*
X106339769Y-58597106D01*
X106332201Y-58598905D01*
X106208212Y-58645387D01*
X106200479Y-58649621D01*
X106094947Y-58728712D01*
X106088712Y-58734947D01*
X106009621Y-58840479D01*
X106005387Y-58848212D01*
X105958904Y-58972204D01*
X105957106Y-58979768D01*
X105951183Y-59034293D01*
X105951000Y-59037662D01*
X105951000Y-59193069D01*
X104869500Y-59193069D01*
X104869500Y-59035930D01*
X104862964Y-58975764D01*
X104861589Y-58972096D01*
X104815056Y-58847970D01*
X104815055Y-58847968D01*
X104813493Y-58843801D01*
X104728974Y-58731026D01*
X104616199Y-58646507D01*
X104551145Y-58622119D01*
X104487904Y-58598411D01*
X104487903Y-58598411D01*
X104484236Y-58597036D01*
X104424070Y-58590500D01*
X103855930Y-58590500D01*
X103795764Y-58597036D01*
X103792097Y-58598411D01*
X103792096Y-58598411D01*
X103728856Y-58622119D01*
X103663801Y-58646507D01*
X103551026Y-58731026D01*
X103466507Y-58843801D01*
X103462092Y-58855578D01*
X103431403Y-58937440D01*
X103398748Y-58972395D01*
X103372880Y-58978000D01*
X102580831Y-58978000D01*
X102536637Y-58959694D01*
X102522308Y-58937439D01*
X102499347Y-58876189D01*
X102499346Y-58876187D01*
X102497783Y-58872018D01*
X102412189Y-58757811D01*
X102297982Y-58672217D01*
X102164342Y-58622119D01*
X102103415Y-58615500D01*
X101600745Y-58615500D01*
X101096586Y-58615501D01*
X101094913Y-58615683D01*
X101094908Y-58615683D01*
X101068614Y-58618539D01*
X101035658Y-58622119D01*
X101031990Y-58623494D01*
X101031986Y-58623495D01*
X100974771Y-58644944D01*
X100902018Y-58672217D01*
X100898454Y-58674888D01*
X100884483Y-58685359D01*
X100838140Y-58697215D01*
X100796987Y-58672829D01*
X100784500Y-58635346D01*
X100784500Y-58204654D01*
X100802806Y-58160460D01*
X100847000Y-58142154D01*
X100884483Y-58154641D01*
X100902018Y-58167783D01*
X101035658Y-58217881D01*
X101096585Y-58224500D01*
X101599255Y-58224500D01*
X102103414Y-58224499D01*
X102105087Y-58224317D01*
X102105092Y-58224317D01*
X102138260Y-58220714D01*
X102164342Y-58217881D01*
X102168010Y-58216506D01*
X102168014Y-58216505D01*
X102236524Y-58190822D01*
X102297982Y-58167783D01*
X102313056Y-58156486D01*
X102378086Y-58107748D01*
X102412189Y-58082189D01*
X102497783Y-57967982D01*
X102522749Y-57901383D01*
X102555403Y-57866427D01*
X102571007Y-57861671D01*
X102589541Y-57858585D01*
X102592450Y-57858171D01*
X102644841Y-57851970D01*
X102649498Y-57849734D01*
X102653279Y-57848635D01*
X102657026Y-57847353D01*
X102662126Y-57846504D01*
X102666672Y-57844051D01*
X102666675Y-57844050D01*
X102708561Y-57821449D01*
X102711186Y-57820112D01*
X102748214Y-57802332D01*
X103411001Y-57802332D01*
X103411183Y-57805702D01*
X103417106Y-57860231D01*
X103418905Y-57867799D01*
X103465387Y-57991788D01*
X103469621Y-57999521D01*
X103548712Y-58105053D01*
X103554947Y-58111288D01*
X103660479Y-58190379D01*
X103668212Y-58194613D01*
X103792204Y-58241096D01*
X103799768Y-58242894D01*
X103854293Y-58248817D01*
X103857662Y-58249000D01*
X104000569Y-58249000D01*
X104009359Y-58245359D01*
X104013000Y-58236569D01*
X104013000Y-58236568D01*
X104267000Y-58236568D01*
X104270641Y-58245358D01*
X104279431Y-58248999D01*
X104422332Y-58248999D01*
X104425702Y-58248817D01*
X104480231Y-58242894D01*
X104487799Y-58241095D01*
X104611788Y-58194613D01*
X104619521Y-58190379D01*
X104725053Y-58111288D01*
X104731288Y-58105053D01*
X104810379Y-57999521D01*
X104814613Y-57991788D01*
X104861096Y-57867796D01*
X104862894Y-57860232D01*
X104868817Y-57805707D01*
X104868906Y-57804070D01*
X105950500Y-57804070D01*
X105957036Y-57864236D01*
X105958411Y-57867903D01*
X105958411Y-57867904D01*
X105972433Y-57905306D01*
X106006507Y-57996199D01*
X106091026Y-58108974D01*
X106203801Y-58193493D01*
X106207969Y-58195056D01*
X106207970Y-58195056D01*
X106318703Y-58236568D01*
X106335764Y-58242964D01*
X106395930Y-58249500D01*
X106964070Y-58249500D01*
X107024236Y-58242964D01*
X107041297Y-58236568D01*
X107152030Y-58195056D01*
X107152031Y-58195056D01*
X107156199Y-58193493D01*
X107268974Y-58108974D01*
X107353493Y-57996199D01*
X107379225Y-57927560D01*
X107411878Y-57892605D01*
X107437747Y-57887000D01*
X108248541Y-57887000D01*
X108292735Y-57905306D01*
X108307064Y-57927561D01*
X108322217Y-57967982D01*
X108407811Y-58082189D01*
X108441914Y-58107748D01*
X108506945Y-58156486D01*
X108522018Y-58167783D01*
X108655658Y-58217881D01*
X108716585Y-58224500D01*
X109219255Y-58224500D01*
X109723414Y-58224499D01*
X109725087Y-58224317D01*
X109725092Y-58224317D01*
X109758260Y-58220714D01*
X109784342Y-58217881D01*
X109788010Y-58216506D01*
X109788014Y-58216505D01*
X109856524Y-58190822D01*
X109917982Y-58167783D01*
X109933056Y-58156486D01*
X109998086Y-58107748D01*
X110032189Y-58082189D01*
X110117783Y-57967982D01*
X110167881Y-57834342D01*
X110174500Y-57773415D01*
X110174499Y-57191586D01*
X110167881Y-57130658D01*
X110166506Y-57126990D01*
X110166505Y-57126986D01*
X110134898Y-57042674D01*
X110117783Y-56997018D01*
X110110809Y-56987712D01*
X110034857Y-56886371D01*
X110032189Y-56882811D01*
X109917982Y-56797217D01*
X109784342Y-56747119D01*
X109723415Y-56740500D01*
X109220745Y-56740500D01*
X108716586Y-56740501D01*
X108714913Y-56740683D01*
X108714908Y-56740683D01*
X108688614Y-56743539D01*
X108655658Y-56747119D01*
X108651990Y-56748494D01*
X108651986Y-56748495D01*
X108606625Y-56765500D01*
X108522018Y-56797217D01*
X108407811Y-56882811D01*
X108405143Y-56886371D01*
X108329192Y-56987712D01*
X108322217Y-56997018D01*
X108320654Y-57001187D01*
X108320653Y-57001189D01*
X108288320Y-57087439D01*
X108255666Y-57122395D01*
X108229797Y-57128000D01*
X107437747Y-57128000D01*
X107393553Y-57109694D01*
X107379224Y-57087439D01*
X107355056Y-57022970D01*
X107355056Y-57022969D01*
X107353493Y-57018801D01*
X107268974Y-56906026D01*
X107156199Y-56821507D01*
X107093039Y-56797829D01*
X107027904Y-56773411D01*
X107027903Y-56773411D01*
X107024236Y-56772036D01*
X106964070Y-56765500D01*
X106395930Y-56765500D01*
X106335764Y-56772036D01*
X106332097Y-56773411D01*
X106332096Y-56773411D01*
X106266962Y-56797829D01*
X106203801Y-56821507D01*
X106091026Y-56906026D01*
X106006507Y-57018801D01*
X106004944Y-57022969D01*
X106004944Y-57022970D01*
X105958411Y-57147096D01*
X105957036Y-57150764D01*
X105950500Y-57210930D01*
X105950500Y-57804070D01*
X104868906Y-57804070D01*
X104869000Y-57802338D01*
X104869000Y-57646931D01*
X104865359Y-57638141D01*
X104856569Y-57634500D01*
X104279431Y-57634500D01*
X104270641Y-57638141D01*
X104267000Y-57646931D01*
X104267000Y-58236568D01*
X104013000Y-58236568D01*
X104013000Y-57646931D01*
X104009359Y-57638141D01*
X104000569Y-57634500D01*
X103423432Y-57634500D01*
X103414642Y-57638141D01*
X103411001Y-57646931D01*
X103411001Y-57802332D01*
X102748214Y-57802332D01*
X102755186Y-57798984D01*
X102755188Y-57798983D01*
X102758732Y-57797281D01*
X102761741Y-57794752D01*
X102761743Y-57794750D01*
X102761973Y-57794556D01*
X102763008Y-57793686D01*
X102763206Y-57793488D01*
X102766286Y-57790888D01*
X102768767Y-57788963D01*
X102773314Y-57786510D01*
X102810748Y-57746014D01*
X102812449Y-57744245D01*
X103104996Y-57451698D01*
X103115284Y-57443389D01*
X103128940Y-57434571D01*
X103152049Y-57405257D01*
X103156938Y-57399756D01*
X103160638Y-57396056D01*
X103172729Y-57379137D01*
X103174496Y-57376783D01*
X103203957Y-57339411D01*
X103207156Y-57335353D01*
X103208868Y-57330477D01*
X103210793Y-57326976D01*
X103212513Y-57323465D01*
X103215514Y-57319266D01*
X103216992Y-57314324D01*
X103216994Y-57314320D01*
X103230634Y-57268708D01*
X103231545Y-57265906D01*
X103247715Y-57219861D01*
X103247716Y-57219857D01*
X103249018Y-57216149D01*
X103249500Y-57210584D01*
X103249500Y-57210306D01*
X103249840Y-57206277D01*
X103250232Y-57203173D01*
X103251713Y-57198222D01*
X103251676Y-57197271D01*
X103272181Y-57159272D01*
X103311658Y-57125555D01*
X103357152Y-57110773D01*
X103399774Y-57132489D01*
X103414384Y-57179829D01*
X103411182Y-57209310D01*
X103411000Y-57212662D01*
X103411000Y-57368069D01*
X103414641Y-57376859D01*
X103423431Y-57380500D01*
X104856568Y-57380500D01*
X104865358Y-57376859D01*
X104868999Y-57368069D01*
X104868999Y-57212668D01*
X104868817Y-57209298D01*
X104862894Y-57154769D01*
X104861095Y-57147201D01*
X104821909Y-57042674D01*
X104823537Y-56994867D01*
X104853376Y-56964395D01*
X104869232Y-56956781D01*
X104872241Y-56954252D01*
X104872243Y-56954250D01*
X104872473Y-56954056D01*
X104873508Y-56953186D01*
X104873706Y-56952988D01*
X104876786Y-56950388D01*
X104879267Y-56948463D01*
X104883814Y-56946010D01*
X104921248Y-56905514D01*
X104922949Y-56903745D01*
X105659996Y-56166698D01*
X105670284Y-56158389D01*
X105683940Y-56149571D01*
X105707049Y-56120257D01*
X105711938Y-56114756D01*
X105715638Y-56111056D01*
X105723103Y-56100611D01*
X105727729Y-56094137D01*
X105729496Y-56091783D01*
X105758957Y-56054411D01*
X105762156Y-56050353D01*
X105763868Y-56045477D01*
X105765793Y-56041976D01*
X105767513Y-56038465D01*
X105770514Y-56034266D01*
X105771992Y-56029324D01*
X105771994Y-56029320D01*
X105783514Y-55990798D01*
X105785637Y-55983700D01*
X105786545Y-55980906D01*
X105802715Y-55934861D01*
X105802716Y-55934857D01*
X105804018Y-55931149D01*
X105804500Y-55925584D01*
X105804500Y-55925307D01*
X105804840Y-55921281D01*
X105805233Y-55918172D01*
X105806713Y-55913222D01*
X105804548Y-55858117D01*
X105804500Y-55855664D01*
X105804500Y-55481945D01*
X106406001Y-55481945D01*
X106406600Y-55488030D01*
X106419536Y-55553068D01*
X106424157Y-55564224D01*
X106473457Y-55638007D01*
X106481993Y-55646543D01*
X106555775Y-55695843D01*
X106566933Y-55700464D01*
X106631970Y-55713401D01*
X106638054Y-55714000D01*
X106970569Y-55714000D01*
X106979359Y-55710359D01*
X106983000Y-55701569D01*
X106983000Y-55701568D01*
X107237000Y-55701568D01*
X107240641Y-55710358D01*
X107249431Y-55713999D01*
X107581945Y-55713999D01*
X107588030Y-55713400D01*
X107653068Y-55700464D01*
X107664224Y-55695843D01*
X107738007Y-55646543D01*
X107746543Y-55638007D01*
X107795843Y-55564225D01*
X107800464Y-55553067D01*
X107813401Y-55488030D01*
X107814000Y-55481946D01*
X107814000Y-54749431D01*
X107810359Y-54740641D01*
X107801569Y-54737000D01*
X107249431Y-54737000D01*
X107240641Y-54740641D01*
X107237000Y-54749431D01*
X107237000Y-55701568D01*
X106983000Y-55701568D01*
X106983000Y-54749431D01*
X106979359Y-54740641D01*
X106970569Y-54737000D01*
X106418432Y-54737000D01*
X106409642Y-54740641D01*
X106406001Y-54749431D01*
X106406001Y-55481945D01*
X105804500Y-55481945D01*
X105804500Y-54470569D01*
X106406000Y-54470569D01*
X106409641Y-54479359D01*
X106418431Y-54483000D01*
X106970569Y-54483000D01*
X106979359Y-54479359D01*
X106983000Y-54470569D01*
X107237000Y-54470569D01*
X107240641Y-54479359D01*
X107249431Y-54483000D01*
X107801568Y-54483000D01*
X107810358Y-54479359D01*
X107813999Y-54470569D01*
X107813999Y-53738055D01*
X107813400Y-53731970D01*
X107800464Y-53666932D01*
X107795843Y-53655776D01*
X107746543Y-53581993D01*
X107738007Y-53573457D01*
X107664225Y-53524157D01*
X107653067Y-53519536D01*
X107588030Y-53506599D01*
X107581946Y-53506000D01*
X107249431Y-53506000D01*
X107240641Y-53509641D01*
X107237000Y-53518431D01*
X107237000Y-54470569D01*
X106983000Y-54470569D01*
X106983000Y-53518432D01*
X106979359Y-53509642D01*
X106970569Y-53506001D01*
X106638055Y-53506001D01*
X106631970Y-53506600D01*
X106566932Y-53519536D01*
X106555776Y-53524157D01*
X106481993Y-53573457D01*
X106473457Y-53581993D01*
X106424157Y-53655775D01*
X106419536Y-53666933D01*
X106406599Y-53731970D01*
X106406000Y-53738054D01*
X106406000Y-54470569D01*
X105804500Y-54470569D01*
X105804500Y-51887448D01*
X105822806Y-51843254D01*
X105846910Y-51828265D01*
X105859741Y-51823909D01*
X105876165Y-51818334D01*
X106053276Y-51719147D01*
X106209345Y-51589345D01*
X106339147Y-51433276D01*
X106438334Y-51256165D01*
X106503584Y-51063945D01*
X106532712Y-50863053D01*
X106534232Y-50805000D01*
X106533941Y-50801827D01*
X106515920Y-50605714D01*
X106515658Y-50602859D01*
X106513469Y-50595096D01*
X106461335Y-50410244D01*
X106461333Y-50410240D01*
X106460557Y-50407487D01*
X106370776Y-50225428D01*
X106368962Y-50222999D01*
X106251037Y-50065078D01*
X106251036Y-50065076D01*
X106249320Y-50062779D01*
X106200765Y-50017895D01*
X106180738Y-49974454D01*
X106197295Y-49929575D01*
X106243190Y-49909500D01*
X106506918Y-49909500D01*
X106551112Y-49927806D01*
X106929582Y-50306276D01*
X106947888Y-50350470D01*
X106941826Y-50374998D01*
X106942633Y-50375332D01*
X106941534Y-50377986D01*
X106940203Y-50380515D01*
X106939356Y-50383242D01*
X106939355Y-50383245D01*
X106932624Y-50404922D01*
X106880007Y-50574378D01*
X106856148Y-50775964D01*
X106857843Y-50801827D01*
X106868909Y-50970659D01*
X106869424Y-50978522D01*
X106919392Y-51175269D01*
X107004377Y-51359616D01*
X107121533Y-51525389D01*
X107123587Y-51527390D01*
X107123588Y-51527391D01*
X107166202Y-51568903D01*
X107266938Y-51667035D01*
X107435720Y-51779812D01*
X107522124Y-51816934D01*
X107619588Y-51858808D01*
X107619590Y-51858809D01*
X107622228Y-51859942D01*
X107722641Y-51882663D01*
X107817426Y-51904111D01*
X107817429Y-51904111D01*
X107820216Y-51904742D01*
X107910164Y-51908276D01*
X108020193Y-51912600D01*
X108020197Y-51912600D01*
X108023053Y-51912712D01*
X108223945Y-51883584D01*
X108416165Y-51818334D01*
X108593276Y-51719147D01*
X108749345Y-51589345D01*
X108879147Y-51433276D01*
X108978334Y-51256165D01*
X109043584Y-51063945D01*
X109072712Y-50863053D01*
X109074232Y-50805000D01*
X109073941Y-50801827D01*
X109055920Y-50605714D01*
X109055658Y-50602859D01*
X109053469Y-50595096D01*
X109001335Y-50410244D01*
X109001333Y-50410240D01*
X109000557Y-50407487D01*
X108910776Y-50225428D01*
X108908962Y-50222999D01*
X108791037Y-50065078D01*
X108791036Y-50065076D01*
X108789320Y-50062779D01*
X108640258Y-49924987D01*
X108468581Y-49816667D01*
X108280039Y-49741446D01*
X108277233Y-49740888D01*
X108277230Y-49740887D01*
X108083752Y-49702402D01*
X108083750Y-49702402D01*
X108080946Y-49701844D01*
X107985353Y-49700593D01*
X107880833Y-49699224D01*
X107880828Y-49699224D01*
X107877971Y-49699187D01*
X107875151Y-49699672D01*
X107875146Y-49699672D01*
X107784397Y-49715266D01*
X107677910Y-49733564D01*
X107534536Y-49786458D01*
X107486737Y-49784580D01*
X107468709Y-49772015D01*
X106991698Y-49295004D01*
X106983389Y-49284716D01*
X106974571Y-49271060D01*
X106945257Y-49247951D01*
X106939756Y-49243062D01*
X106936056Y-49239362D01*
X106933962Y-49237866D01*
X106933959Y-49237863D01*
X106919137Y-49227271D01*
X106916783Y-49225504D01*
X106879411Y-49196043D01*
X106875353Y-49192844D01*
X106870477Y-49191132D01*
X106866976Y-49189207D01*
X106863465Y-49187487D01*
X106859266Y-49184486D01*
X106854324Y-49183008D01*
X106854320Y-49183006D01*
X106818154Y-49172191D01*
X106808700Y-49169363D01*
X106805906Y-49168455D01*
X106759861Y-49152285D01*
X106759857Y-49152284D01*
X106756149Y-49150982D01*
X106752149Y-49150636D01*
X106751926Y-49150616D01*
X106751921Y-49150616D01*
X106750584Y-49150500D01*
X106750307Y-49150500D01*
X106746281Y-49150160D01*
X106743172Y-49149767D01*
X106738222Y-49148287D01*
X106683118Y-49150452D01*
X106680664Y-49150500D01*
X106258487Y-49150500D01*
X106214293Y-49132194D01*
X106195987Y-49088000D01*
X106210434Y-49048036D01*
X106339147Y-48893276D01*
X106438334Y-48716165D01*
X106503584Y-48523945D01*
X106520762Y-48405471D01*
X106867759Y-48405471D01*
X106869732Y-48435581D01*
X106870626Y-48441224D01*
X106919159Y-48632323D01*
X106921066Y-48637707D01*
X107003612Y-48816761D01*
X107006468Y-48821708D01*
X107120257Y-48982717D01*
X107123970Y-48987065D01*
X107265203Y-49124647D01*
X107269636Y-49128236D01*
X107433576Y-49237778D01*
X107438598Y-49240504D01*
X107619744Y-49318331D01*
X107625183Y-49320098D01*
X107817492Y-49363614D01*
X107823141Y-49364357D01*
X107825577Y-49364453D01*
X107833827Y-49361409D01*
X107838000Y-49351869D01*
X107838000Y-49349779D01*
X108092000Y-49349779D01*
X108095641Y-49358569D01*
X108101208Y-49360875D01*
X108220992Y-49343507D01*
X108226541Y-49342175D01*
X108413247Y-49278796D01*
X108418460Y-49276475D01*
X108590492Y-49180133D01*
X108595194Y-49176902D01*
X108746793Y-49050819D01*
X108750819Y-49046793D01*
X108876902Y-48895194D01*
X108880133Y-48890492D01*
X108976475Y-48718460D01*
X108978796Y-48713247D01*
X109042175Y-48526541D01*
X109043507Y-48520992D01*
X109060426Y-48404304D01*
X109058084Y-48395082D01*
X109052904Y-48392000D01*
X108104431Y-48392000D01*
X108095641Y-48395641D01*
X108092000Y-48404431D01*
X108092000Y-49349779D01*
X107838000Y-49349779D01*
X107838000Y-48404431D01*
X107834359Y-48395641D01*
X107825569Y-48392000D01*
X106879307Y-48392000D01*
X106871632Y-48395179D01*
X106867759Y-48405471D01*
X106520762Y-48405471D01*
X106532712Y-48323053D01*
X106534232Y-48265000D01*
X106533941Y-48261827D01*
X106522228Y-48134359D01*
X106515658Y-48062859D01*
X106513469Y-48055096D01*
X106461335Y-47870244D01*
X106461333Y-47870240D01*
X106460557Y-47867487D01*
X106370776Y-47685428D01*
X106367532Y-47681083D01*
X106289962Y-47577205D01*
X106250303Y-47524095D01*
X106238528Y-47477733D01*
X106256187Y-47442507D01*
X106310888Y-47387806D01*
X106355082Y-47369500D01*
X107145558Y-47369500D01*
X107189752Y-47387806D01*
G37*
%TD.AperFunction*%
%TD*%
M02*
