%TF.GenerationSoftware,KiCad,Pcbnew,(6.0.7)*%
%TF.CreationDate,2023-07-03T12:47:38-04:00*%
%TF.ProjectId,atmega328pb_v2_breakout,61746d65-6761-4333-9238-70625f76325f,rev?*%
%TF.SameCoordinates,Original*%
%TF.FileFunction,Soldermask,Top*%
%TF.FilePolarity,Negative*%
%FSLAX46Y46*%
G04 Gerber Fmt 4.6, Leading zero omitted, Abs format (unit mm)*
G04 Created by KiCad (PCBNEW (6.0.7)) date 2023-07-03 12:47:38*
%MOMM*%
%LPD*%
G01*
G04 APERTURE LIST*
G04 Aperture macros list*
%AMRoundRect*
0 Rectangle with rounded corners*
0 $1 Rounding radius*
0 $2 $3 $4 $5 $6 $7 $8 $9 X,Y pos of 4 corners*
0 Add a 4 corners polygon primitive as box body*
4,1,4,$2,$3,$4,$5,$6,$7,$8,$9,$2,$3,0*
0 Add four circle primitives for the rounded corners*
1,1,$1+$1,$2,$3*
1,1,$1+$1,$4,$5*
1,1,$1+$1,$6,$7*
1,1,$1+$1,$8,$9*
0 Add four rect primitives between the rounded corners*
20,1,$1+$1,$2,$3,$4,$5,0*
20,1,$1+$1,$4,$5,$6,$7,0*
20,1,$1+$1,$6,$7,$8,$9,0*
20,1,$1+$1,$8,$9,$2,$3,0*%
%AMRotRect*
0 Rectangle, with rotation*
0 The origin of the aperture is its center*
0 $1 length*
0 $2 width*
0 $3 Rotation angle, in degrees counterclockwise*
0 Add horizontal line*
21,1,$1,$2,0,0,$3*%
G04 Aperture macros list end*
%ADD10R,0.400000X1.900000*%
%ADD11RotRect,1.600000X0.550000X135.000000*%
%ADD12RotRect,1.600000X0.550000X225.000000*%
%ADD13RoundRect,0.243750X0.456250X-0.243750X0.456250X0.243750X-0.456250X0.243750X-0.456250X-0.243750X0*%
%ADD14R,0.900000X1.700000*%
%ADD15RoundRect,0.150000X-0.512500X-0.150000X0.512500X-0.150000X0.512500X0.150000X-0.512500X0.150000X0*%
%ADD16R,1.700000X1.700000*%
%ADD17O,1.700000X1.700000*%
%ADD18RoundRect,0.243750X-0.456250X0.243750X-0.456250X-0.243750X0.456250X-0.243750X0.456250X0.243750X0*%
%ADD19RoundRect,0.237500X-0.300000X-0.237500X0.300000X-0.237500X0.300000X0.237500X-0.300000X0.237500X0*%
%ADD20RoundRect,0.237500X0.237500X-0.250000X0.237500X0.250000X-0.237500X0.250000X-0.237500X-0.250000X0*%
%ADD21RoundRect,0.237500X-0.237500X0.300000X-0.237500X-0.300000X0.237500X-0.300000X0.237500X0.300000X0*%
%ADD22RoundRect,0.237500X0.237500X-0.300000X0.237500X0.300000X-0.237500X0.300000X-0.237500X-0.300000X0*%
%ADD23RoundRect,0.237500X-0.237500X0.250000X-0.237500X-0.250000X0.237500X-0.250000X0.237500X0.250000X0*%
%ADD24RoundRect,0.250000X-0.275000X-0.350000X0.275000X-0.350000X0.275000X0.350000X-0.275000X0.350000X0*%
G04 APERTURE END LIST*
D10*
%TO.C,Y1*%
X110350000Y-77470000D03*
X109150000Y-77470000D03*
X107950000Y-77470000D03*
%TD*%
D11*
%TO.C,U1*%
X106435305Y-74835103D03*
X107000990Y-74269417D03*
X107566676Y-73703732D03*
X108132361Y-73138047D03*
X108698047Y-72572361D03*
X109263732Y-72006676D03*
X109829417Y-71440990D03*
X110395103Y-70875305D03*
D12*
X110395103Y-68824695D03*
X109829417Y-68259010D03*
X109263732Y-67693324D03*
X108698047Y-67127639D03*
X108132361Y-66561953D03*
X107566676Y-65996268D03*
X107000990Y-65430583D03*
X106435305Y-64864897D03*
D11*
X104384695Y-64864897D03*
X103819010Y-65430583D03*
X103253324Y-65996268D03*
X102687639Y-66561953D03*
X102121953Y-67127639D03*
X101556268Y-67693324D03*
X100990583Y-68259010D03*
X100424897Y-68824695D03*
D12*
X100424897Y-70875305D03*
X100990583Y-71440990D03*
X101556268Y-72006676D03*
X102121953Y-72572361D03*
X102687639Y-73138047D03*
X103253324Y-73703732D03*
X103819010Y-74269417D03*
X104384695Y-74835103D03*
%TD*%
D13*
%TO.C,D2*%
X101600000Y-59357500D03*
X101600000Y-57482500D03*
%TD*%
D14*
%TO.C,SW1*%
X103710000Y-54610000D03*
X107110000Y-54610000D03*
%TD*%
D15*
%TO.C,U2*%
X102870000Y-81600000D03*
X102870000Y-82550000D03*
X102870000Y-83500000D03*
X105145000Y-83500000D03*
X105145000Y-81600000D03*
%TD*%
D16*
%TO.C,J1*%
X102885000Y-50805000D03*
D17*
X102885000Y-48265000D03*
X105425000Y-50805000D03*
X105425000Y-48265000D03*
X107965000Y-50805000D03*
X107965000Y-48265000D03*
%TD*%
D18*
%TO.C,D1*%
X109220000Y-57482500D03*
X109220000Y-59357500D03*
%TD*%
D19*
%TO.C,C7*%
X108103500Y-61722000D03*
X109828500Y-61722000D03*
%TD*%
D20*
%TO.C,R3*%
X104140000Y-59332500D03*
X104140000Y-57507500D03*
%TD*%
D21*
%TO.C,C6*%
X107950000Y-81687500D03*
X107950000Y-83412500D03*
%TD*%
D22*
%TO.C,C8*%
X100330000Y-79602500D03*
X100330000Y-77877500D03*
%TD*%
D23*
%TO.C,R2*%
X106680000Y-57507500D03*
X106680000Y-59332500D03*
%TD*%
D24*
%TO.C,L1*%
X100704000Y-61722000D03*
X103004000Y-61722000D03*
%TD*%
D19*
%TO.C,C9*%
X102007500Y-79756000D03*
X103732500Y-79756000D03*
%TD*%
D22*
%TO.C,C5*%
X100330000Y-83412500D03*
X100330000Y-81687500D03*
%TD*%
%TO.C,C4*%
X110490000Y-83412500D03*
X110490000Y-81687500D03*
%TD*%
D16*
%TO.C,J3*%
X113030000Y-83820000D03*
D17*
X113030000Y-81280000D03*
X113030000Y-78740000D03*
X113030000Y-76200000D03*
X113030000Y-73660000D03*
X113030000Y-71120000D03*
X113030000Y-68580000D03*
X113030000Y-66040000D03*
X113030000Y-63500000D03*
X113030000Y-60960000D03*
X113030000Y-58420000D03*
X113030000Y-55880000D03*
X113030000Y-53340000D03*
X113030000Y-50800000D03*
X113030000Y-48260000D03*
%TD*%
D23*
%TO.C,R1*%
X101600000Y-53697500D03*
X101600000Y-55522500D03*
%TD*%
D16*
%TO.C,J4*%
X99060000Y-86995000D03*
D17*
X101600000Y-86995000D03*
X104140000Y-86995000D03*
X106680000Y-86995000D03*
X109220000Y-86995000D03*
X111760000Y-86995000D03*
%TD*%
D19*
%TO.C,C1*%
X100891000Y-63500000D03*
X102616000Y-63500000D03*
%TD*%
D16*
%TO.C,J2*%
X97790000Y-83820000D03*
D17*
X97790000Y-81280000D03*
X97790000Y-78740000D03*
X97790000Y-76200000D03*
X97790000Y-73660000D03*
X97790000Y-71120000D03*
X97790000Y-68580000D03*
X97790000Y-66040000D03*
X97790000Y-63500000D03*
X97790000Y-60960000D03*
X97790000Y-58420000D03*
X97790000Y-55880000D03*
X97790000Y-53340000D03*
X97790000Y-50800000D03*
X97790000Y-48260000D03*
%TD*%
M02*
