%TF.GenerationSoftware,KiCad,Pcbnew,(6.0.7)*%
%TF.CreationDate,2023-07-03T12:47:38-04:00*%
%TF.ProjectId,atmega328pb_v2_breakout,61746d65-6761-4333-9238-70625f76325f,rev?*%
%TF.SameCoordinates,Original*%
%TF.FileFunction,Copper,L2,Bot*%
%TF.FilePolarity,Positive*%
%FSLAX46Y46*%
G04 Gerber Fmt 4.6, Leading zero omitted, Abs format (unit mm)*
G04 Created by KiCad (PCBNEW (6.0.7)) date 2023-07-03 12:47:38*
%MOMM*%
%LPD*%
G01*
G04 APERTURE LIST*
%TA.AperFunction,ComponentPad*%
%ADD10R,1.700000X1.700000*%
%TD*%
%TA.AperFunction,ComponentPad*%
%ADD11O,1.700000X1.700000*%
%TD*%
%TA.AperFunction,ViaPad*%
%ADD12C,0.800000*%
%TD*%
%TA.AperFunction,Conductor*%
%ADD13C,0.250000*%
%TD*%
%TA.AperFunction,Conductor*%
%ADD14C,0.400000*%
%TD*%
G04 APERTURE END LIST*
D10*
%TO.P,J1,1,MISO*%
%TO.N,D12*%
X102885000Y-50805000D03*
D11*
%TO.P,J1,2,VCC*%
%TO.N,VDD*%
X102885000Y-48265000D03*
%TO.P,J1,3,SCK*%
%TO.N,D13*%
X105425000Y-50805000D03*
%TO.P,J1,4,MOSI*%
%TO.N,D11*%
X105425000Y-48265000D03*
%TO.P,J1,5,~{RST}*%
%TO.N,~{RST}*%
X107965000Y-50805000D03*
%TO.P,J1,6,GND*%
%TO.N,GND*%
X107965000Y-48265000D03*
%TD*%
D10*
%TO.P,J3,1,Pin_1*%
%TO.N,GND*%
X113030000Y-83820000D03*
D11*
%TO.P,J3,2,Pin_2*%
%TO.N,~{RST}*%
X113030000Y-81280000D03*
%TO.P,J3,3,Pin_3*%
%TO.N,D00*%
X113030000Y-78740000D03*
%TO.P,J3,4,Pin_4*%
%TO.N,D01*%
X113030000Y-76200000D03*
%TO.P,J3,5,Pin_5*%
%TO.N,D02*%
X113030000Y-73660000D03*
%TO.P,J3,6,Pin_6*%
%TO.N,D03*%
X113030000Y-71120000D03*
%TO.P,J3,7,Pin_7*%
%TO.N,D04*%
X113030000Y-68580000D03*
%TO.P,J3,8,Pin_8*%
%TO.N,D05*%
X113030000Y-66040000D03*
%TO.P,J3,9,Pin_9*%
%TO.N,D06*%
X113030000Y-63500000D03*
%TO.P,J3,10,Pin_10*%
%TO.N,D07*%
X113030000Y-60960000D03*
%TO.P,J3,11,Pin_11*%
%TO.N,D08*%
X113030000Y-58420000D03*
%TO.P,J3,12,Pin_12*%
%TO.N,D09*%
X113030000Y-55880000D03*
%TO.P,J3,13,Pin_13*%
%TO.N,D10*%
X113030000Y-53340000D03*
%TO.P,J3,14,Pin_14*%
%TO.N,D11*%
X113030000Y-50800000D03*
%TO.P,J3,15,Pin_15*%
%TO.N,D12*%
X113030000Y-48260000D03*
%TD*%
D10*
%TO.P,J4,1,Pin_1*%
%TO.N,GND*%
X99060000Y-86995000D03*
D11*
%TO.P,J4,2,Pin_2*%
X101600000Y-86995000D03*
%TO.P,J4,3,Pin_3*%
%TO.N,VDD*%
X104140000Y-86995000D03*
%TO.P,J4,4,Pin_4*%
%TO.N,D00*%
X106680000Y-86995000D03*
%TO.P,J4,5,Pin_5*%
%TO.N,D01*%
X109220000Y-86995000D03*
%TO.P,J4,6,Pin_6*%
%TO.N,D{slash}R*%
X111760000Y-86995000D03*
%TD*%
D10*
%TO.P,J2,1,Pin_1*%
%TO.N,VCC*%
X97790000Y-83820000D03*
D11*
%TO.P,J2,2,Pin_2*%
%TO.N,GND*%
X97790000Y-81280000D03*
%TO.P,J2,3,Pin_3*%
%TO.N,VDD*%
X97790000Y-78740000D03*
%TO.P,J2,4,Pin_4*%
%TO.N,AREF*%
X97790000Y-76200000D03*
%TO.P,J2,5,Pin_5*%
%TO.N,A07*%
X97790000Y-73660000D03*
%TO.P,J2,6,Pin_6*%
%TO.N,A06*%
X97790000Y-71120000D03*
%TO.P,J2,7,Pin_7*%
%TO.N,A05*%
X97790000Y-68580000D03*
%TO.P,J2,8,Pin_8*%
%TO.N,A04*%
X97790000Y-66040000D03*
%TO.P,J2,9,Pin_9*%
%TO.N,A03*%
X97790000Y-63500000D03*
%TO.P,J2,10,Pin_10*%
%TO.N,A02*%
X97790000Y-60960000D03*
%TO.P,J2,11,Pin_11*%
%TO.N,A01*%
X97790000Y-58420000D03*
%TO.P,J2,12,Pin_12*%
%TO.N,A00*%
X97790000Y-55880000D03*
%TO.P,J2,13,Pin_13*%
%TO.N,SCL1*%
X97790000Y-53340000D03*
%TO.P,J2,14,Pin_14*%
%TO.N,SDA1*%
X97790000Y-50800000D03*
%TO.P,J2,15,Pin_15*%
%TO.N,D13*%
X97790000Y-48260000D03*
%TD*%
D12*
%TO.N,GND*%
X108966000Y-79756000D03*
X108204000Y-62738000D03*
X109728000Y-73660000D03*
X104140000Y-69088000D03*
X100584000Y-47498000D03*
X104902000Y-61722000D03*
X105055500Y-58420000D03*
%TO.N,VDD*%
X107950000Y-60452000D03*
X105145000Y-80021000D03*
X103086500Y-77877500D03*
X107679607Y-71611607D03*
%TO.N,D12*%
X108966000Y-63537500D03*
%TO.N,D13*%
X102870000Y-56642000D03*
X105410000Y-66294000D03*
%TO.N,D11*%
X109982000Y-64262000D03*
%TO.N,~{RST}*%
X109315500Y-81534000D03*
X101637500Y-75872701D03*
X102616000Y-70866000D03*
X104140000Y-55784500D03*
%TO.N,AREF*%
X105505500Y-70099701D03*
%TO.N,A07*%
X104135701Y-71115701D03*
%TO.N,A06*%
X105410000Y-68072000D03*
%TO.N,A04*%
X100330000Y-73152000D03*
%TO.N,A03*%
X102033566Y-69195221D03*
%TO.N,A02*%
X101309066Y-70071582D03*
%TO.N,A01*%
X100330000Y-65278000D03*
%TO.N,A00*%
X101600000Y-65278000D03*
%TO.N,SCL1*%
X105664000Y-71120000D03*
%TO.N,SDA1*%
X106680000Y-72136000D03*
%TO.N,D00*%
X101600000Y-77078000D03*
%TO.N,D01*%
X104140000Y-76708000D03*
%TO.N,D02*%
X105410000Y-76708000D03*
%TO.N,D03*%
X106680000Y-76708000D03*
%TO.N,D04*%
X108966000Y-74676000D03*
%TO.N,D09*%
X109191018Y-69598807D03*
%TO.N,D10*%
X108657667Y-70444113D03*
%TD*%
D13*
%TO.N,GND*%
X105156000Y-61468000D02*
X105330000Y-61294000D01*
X109728000Y-73660000D02*
X108462653Y-72394653D01*
X107730000Y-63212000D02*
X108204000Y-62738000D01*
X108462653Y-72394653D02*
X108462653Y-71369347D01*
X107730000Y-70636695D02*
X107730000Y-63212000D01*
X105330000Y-61294000D02*
X105330000Y-60452000D01*
X105330000Y-58694500D02*
X105055500Y-58420000D01*
X108462653Y-71369347D02*
X107730000Y-70636695D01*
X104902000Y-61722000D02*
X105156000Y-61468000D01*
X105330000Y-60452000D02*
X105330000Y-58694500D01*
D14*
%TO.N,VDD*%
X107950000Y-60452000D02*
X107205000Y-61197000D01*
X102887000Y-77678000D02*
X103086500Y-77877500D01*
X107679607Y-71611607D02*
X107205000Y-71137000D01*
X107205000Y-61197000D02*
X107205000Y-62230000D01*
X107205000Y-62230000D02*
X107205000Y-70883000D01*
X107679607Y-73676393D02*
X106426000Y-74930000D01*
X107679607Y-71611607D02*
X107679607Y-73676393D01*
X107205000Y-71137000D02*
X107205000Y-70883000D01*
X103632000Y-74930000D02*
X102887000Y-75675000D01*
X106426000Y-74930000D02*
X103632000Y-74930000D01*
X105156000Y-85344000D02*
X105156000Y-80032000D01*
X104140000Y-86360000D02*
X105156000Y-85344000D01*
X105156000Y-80032000D02*
X105145000Y-80021000D01*
X102887000Y-75675000D02*
X102887000Y-77678000D01*
X104140000Y-86995000D02*
X104140000Y-86360000D01*
D13*
%TO.N,D12*%
X109728000Y-52324000D02*
X110490000Y-51562000D01*
X111760000Y-48260000D02*
X113030000Y-48260000D01*
X102885000Y-50805000D02*
X102885000Y-51323000D01*
X103886000Y-52324000D02*
X109728000Y-52324000D01*
X108966000Y-63537500D02*
X110156000Y-62347500D01*
X110490000Y-51562000D02*
X110490000Y-49530000D01*
X110490000Y-49530000D02*
X111760000Y-48260000D01*
X110156000Y-62347500D02*
X110156000Y-52752000D01*
X102885000Y-51323000D02*
X103886000Y-52324000D01*
X110156000Y-52752000D02*
X109728000Y-52324000D01*
%TO.N,D13*%
X104150000Y-49530000D02*
X105425000Y-50805000D01*
X105780000Y-65924000D02*
X105410000Y-66294000D01*
X102870000Y-56642000D02*
X105664000Y-56642000D01*
X105780000Y-56758000D02*
X105780000Y-63246000D01*
X97790000Y-48260000D02*
X99822000Y-48260000D01*
X105780000Y-63246000D02*
X105780000Y-65924000D01*
X101092000Y-49530000D02*
X104150000Y-49530000D01*
X105664000Y-56642000D02*
X105780000Y-56758000D01*
X99822000Y-48260000D02*
X101092000Y-49530000D01*
%TO.N,D11*%
X110606000Y-53224000D02*
X110606000Y-60452000D01*
X109982000Y-64262000D02*
X110606000Y-63638000D01*
X110606000Y-60452000D02*
X110606000Y-63362000D01*
X110606000Y-63638000D02*
X110606000Y-63362000D01*
X113030000Y-50800000D02*
X110606000Y-53224000D01*
%TO.N,~{RST}*%
X102680198Y-67499802D02*
X103208566Y-68028170D01*
X102616000Y-70486396D02*
X102616000Y-70866000D01*
X104140000Y-55784500D02*
X102457500Y-55784500D01*
X102362000Y-67056000D02*
X102362000Y-67181604D01*
X107130000Y-80714000D02*
X107130000Y-79569604D01*
X101854000Y-56896000D02*
X102050000Y-57092000D01*
X102362000Y-67181604D02*
X102680198Y-67499802D01*
X107950000Y-81534000D02*
X107130000Y-80714000D01*
X103208566Y-69893830D02*
X102680198Y-70422198D01*
X102362000Y-76454000D02*
X101780701Y-75872701D01*
X103208566Y-68028170D02*
X103208566Y-69893830D01*
X102050000Y-63500000D02*
X102050000Y-64458000D01*
X109315500Y-81534000D02*
X107950000Y-81534000D01*
X102722000Y-78846000D02*
X102362000Y-78486000D01*
X102050000Y-64458000D02*
X102362000Y-64770000D01*
X107130000Y-79569604D02*
X106406396Y-78846000D01*
X101854000Y-56388000D02*
X101854000Y-56896000D01*
X102362000Y-78486000D02*
X102362000Y-76454000D01*
X106406396Y-78846000D02*
X102722000Y-78846000D01*
X101780701Y-75872701D02*
X101637500Y-75872701D01*
X102362000Y-65532000D02*
X102362000Y-67056000D01*
X102680198Y-70422198D02*
X102616000Y-70486396D01*
X102050000Y-57092000D02*
X102050000Y-63500000D01*
X102362000Y-64770000D02*
X102362000Y-65532000D01*
X102457500Y-55784500D02*
X101854000Y-56388000D01*
%TO.N,AREF*%
X104902000Y-70612000D02*
X105414299Y-70099701D01*
X97790000Y-76200000D02*
X100076000Y-76200000D01*
X100076000Y-76200000D02*
X104902000Y-71374000D01*
X105414299Y-70099701D02*
X105505500Y-70099701D01*
X104902000Y-71374000D02*
X104902000Y-70612000D01*
%TO.N,A07*%
X100455604Y-75184000D02*
X104135701Y-71503903D01*
X97790000Y-73660000D02*
X99314000Y-75184000D01*
X104135701Y-71503903D02*
X104135701Y-71115701D01*
X99314000Y-75184000D02*
X100455604Y-75184000D01*
%TO.N,A06*%
X103632000Y-70358000D02*
X103378000Y-70612000D01*
X99822000Y-74168000D02*
X99060000Y-73406000D01*
X97790000Y-71374000D02*
X97790000Y-71120000D01*
X99060000Y-73406000D02*
X99060000Y-72644000D01*
X104221896Y-70358000D02*
X103632000Y-70358000D01*
X99060000Y-72644000D02*
X97790000Y-71374000D01*
X105410000Y-68072000D02*
X105410000Y-69169896D01*
X100835208Y-74168000D02*
X99822000Y-74168000D01*
X103378000Y-71625208D02*
X100835208Y-74168000D01*
X103378000Y-70612000D02*
X103378000Y-71625208D01*
X105410000Y-69169896D02*
X104221896Y-70358000D01*
%TO.N,A04*%
X98298000Y-66040000D02*
X99060000Y-66802000D01*
X100204396Y-73152000D02*
X100330000Y-73152000D01*
X97790000Y-66040000D02*
X98298000Y-66040000D01*
X99060000Y-72007604D02*
X100204396Y-73152000D01*
X99060000Y-66802000D02*
X99060000Y-71882000D01*
X99060000Y-71882000D02*
X99060000Y-72007604D01*
%TO.N,A03*%
X99060000Y-63500000D02*
X97790000Y-63500000D01*
X99947604Y-66802000D02*
X99155000Y-66009396D01*
X99155000Y-63595000D02*
X99060000Y-63500000D01*
X99155000Y-66009396D02*
X99155000Y-63595000D01*
X102033566Y-69195221D02*
X102108000Y-69120787D01*
X100709604Y-66802000D02*
X99947604Y-66802000D01*
X102108000Y-69120787D02*
X102108000Y-68200396D01*
X102108000Y-68200396D02*
X100709604Y-66802000D01*
%TO.N,A02*%
X98552000Y-60960000D02*
X99605000Y-62013000D01*
X100838000Y-66294000D02*
X102525173Y-67981173D01*
X102394418Y-70071582D02*
X102758566Y-69707434D01*
X100076000Y-66294000D02*
X100838000Y-66294000D01*
X99605000Y-65823000D02*
X100076000Y-66294000D01*
X102758566Y-69707434D02*
X102758566Y-68214566D01*
X97790000Y-60960000D02*
X98552000Y-60960000D01*
X99605000Y-62013000D02*
X99605000Y-65823000D01*
X101309066Y-70071582D02*
X102394418Y-70071582D01*
X102758566Y-68214566D02*
X102489000Y-67945000D01*
%TO.N,A01*%
X99822000Y-58928000D02*
X100330000Y-59436000D01*
X97790000Y-58420000D02*
X99314000Y-58420000D01*
X100330000Y-59436000D02*
X100330000Y-65278000D01*
X99314000Y-58420000D02*
X99822000Y-58928000D01*
%TO.N,A00*%
X101600000Y-65278000D02*
X101600000Y-57404000D01*
X101600000Y-57404000D02*
X100076000Y-55880000D01*
X100076000Y-55880000D02*
X97790000Y-55880000D01*
%TO.N,SCL1*%
X103124000Y-55060000D02*
X105477604Y-55060000D01*
X105477604Y-55060000D02*
X106230000Y-55812396D01*
X97790000Y-53340000D02*
X99314000Y-53340000D01*
X101667604Y-55060000D02*
X103124000Y-55060000D01*
X99314000Y-53340000D02*
X99947604Y-53340000D01*
X99947604Y-53340000D02*
X101667604Y-55060000D01*
X106230000Y-55812396D02*
X106230000Y-70554000D01*
X106230000Y-70554000D02*
X105664000Y-71120000D01*
%TO.N,SDA1*%
X105664000Y-54610000D02*
X106680000Y-55626000D01*
X100330000Y-50800000D02*
X100838000Y-51308000D01*
X97790000Y-50800000D02*
X100330000Y-50800000D01*
X100838000Y-51308000D02*
X100838000Y-53594000D01*
X104394000Y-54610000D02*
X105664000Y-54610000D01*
X101854000Y-54610000D02*
X104394000Y-54610000D01*
X106680000Y-55626000D02*
X106680000Y-72136000D01*
X101600000Y-54356000D02*
X101854000Y-54610000D01*
X100838000Y-53594000D02*
X101600000Y-54356000D01*
%TO.N,D00*%
X113030000Y-78740000D02*
X111506000Y-78740000D01*
X111506000Y-78740000D02*
X110490000Y-79756000D01*
X102156000Y-79296000D02*
X101600000Y-78740000D01*
X110490000Y-87884000D02*
X109982000Y-88392000D01*
X106934000Y-88392000D02*
X106680000Y-88138000D01*
X109982000Y-88392000D02*
X106934000Y-88392000D01*
X106680000Y-88138000D02*
X106680000Y-86995000D01*
X106220000Y-79296000D02*
X102156000Y-79296000D01*
X106680000Y-86995000D02*
X106680000Y-79756000D01*
X106680000Y-79756000D02*
X106220000Y-79296000D01*
X110490000Y-79756000D02*
X110490000Y-87884000D01*
X101600000Y-78740000D02*
X101600000Y-77078000D01*
%TO.N,D01*%
X110040000Y-78036000D02*
X110040000Y-77666000D01*
X110040000Y-78174000D02*
X110040000Y-78036000D01*
X110040000Y-77412000D02*
X111252000Y-76200000D01*
X110040000Y-77666000D02*
X110040000Y-77412000D01*
X107166701Y-77883000D02*
X107383701Y-77666000D01*
X111252000Y-76200000D02*
X113030000Y-76200000D01*
X105535604Y-77470000D02*
X105948604Y-77883000D01*
X104648000Y-77470000D02*
X105535604Y-77470000D01*
X104140000Y-76708000D02*
X104140000Y-76962000D01*
X107383701Y-77666000D02*
X110040000Y-77666000D01*
X105948604Y-77883000D02*
X107166701Y-77883000D01*
X110040000Y-86175000D02*
X110040000Y-78174000D01*
X109220000Y-86995000D02*
X110040000Y-86175000D01*
X104140000Y-76962000D02*
X104648000Y-77470000D01*
%TO.N,D02*%
X105410000Y-76708000D02*
X106135000Y-77433000D01*
X106980305Y-77433000D02*
X107197305Y-77216000D01*
X106135000Y-77433000D02*
X106980305Y-77433000D01*
X109474000Y-77216000D02*
X113030000Y-73660000D01*
X107197305Y-77216000D02*
X109474000Y-77216000D01*
%TO.N,D03*%
X112014000Y-71120000D02*
X111252000Y-71882000D01*
X109345604Y-76708000D02*
X106680000Y-76708000D01*
X111252000Y-74801604D02*
X109345604Y-76708000D01*
X113030000Y-71120000D02*
X112014000Y-71120000D01*
X111252000Y-71882000D02*
X111252000Y-74801604D01*
%TO.N,D04*%
X109737305Y-74676000D02*
X110490000Y-73923305D01*
X113030000Y-68580000D02*
X112268000Y-68580000D01*
X112268000Y-68580000D02*
X111506000Y-68580000D01*
X108966000Y-74676000D02*
X109737305Y-74676000D01*
X110490000Y-73923305D02*
X110490000Y-69596000D01*
X111506000Y-68580000D02*
X110490000Y-69596000D01*
%TO.N,D09*%
X111506000Y-66294000D02*
X109191018Y-68608982D01*
X111506000Y-56388000D02*
X111506000Y-58674000D01*
X109191018Y-68608982D02*
X109191018Y-69598807D01*
X112014000Y-55880000D02*
X111506000Y-56388000D01*
X113030000Y-55880000D02*
X112014000Y-55880000D01*
X111506000Y-58674000D02*
X111506000Y-66294000D01*
%TO.N,D10*%
X108458000Y-70244446D02*
X108458000Y-68705604D01*
X111056000Y-54044000D02*
X111760000Y-53340000D01*
X111760000Y-53340000D02*
X113030000Y-53340000D01*
X111056000Y-66107604D02*
X111056000Y-54044000D01*
X108657667Y-70444113D02*
X108458000Y-70244446D01*
X108458000Y-68705604D02*
X111056000Y-66107604D01*
%TD*%
%TA.AperFunction,Conductor*%
%TO.N,GND*%
G36*
X111992833Y-79137806D02*
G01*
X112005398Y-79155834D01*
X112069377Y-79294616D01*
X112140970Y-79395918D01*
X112182026Y-79454011D01*
X112186533Y-79460389D01*
X112188587Y-79462390D01*
X112188588Y-79462391D01*
X112283593Y-79554940D01*
X112331938Y-79602035D01*
X112500720Y-79714812D01*
X112554692Y-79738000D01*
X112684588Y-79793808D01*
X112684590Y-79793809D01*
X112687228Y-79794942D01*
X112787641Y-79817663D01*
X112882426Y-79839111D01*
X112882429Y-79839111D01*
X112885216Y-79839742D01*
X112975164Y-79843276D01*
X113085193Y-79847600D01*
X113085197Y-79847600D01*
X113088053Y-79847712D01*
X113288945Y-79818584D01*
X113481165Y-79753334D01*
X113658276Y-79654147D01*
X113814345Y-79524345D01*
X113872842Y-79454011D01*
X113934948Y-79379337D01*
X113977281Y-79357064D01*
X114022965Y-79371250D01*
X114045238Y-79413583D01*
X114045500Y-79419302D01*
X114045500Y-80605645D01*
X114027194Y-80649839D01*
X113983000Y-80668145D01*
X113938806Y-80649839D01*
X113932922Y-80643040D01*
X113856037Y-80540078D01*
X113856036Y-80540076D01*
X113854320Y-80537779D01*
X113705258Y-80399987D01*
X113533581Y-80291667D01*
X113345039Y-80216446D01*
X113342233Y-80215888D01*
X113342230Y-80215887D01*
X113148752Y-80177402D01*
X113148750Y-80177402D01*
X113145946Y-80176844D01*
X113050353Y-80175593D01*
X112945833Y-80174224D01*
X112945828Y-80174224D01*
X112942971Y-80174187D01*
X112940151Y-80174672D01*
X112940146Y-80174672D01*
X112841395Y-80191641D01*
X112742910Y-80208564D01*
X112740222Y-80209556D01*
X112740217Y-80209557D01*
X112555151Y-80277832D01*
X112555148Y-80277833D01*
X112552463Y-80278824D01*
X112378010Y-80382612D01*
X112302675Y-80448679D01*
X112229884Y-80512516D01*
X112225392Y-80516455D01*
X112223616Y-80518708D01*
X112223615Y-80518709D01*
X112117257Y-80653624D01*
X112099720Y-80675869D01*
X112005203Y-80855515D01*
X112004356Y-80858242D01*
X112004355Y-80858245D01*
X111985104Y-80920245D01*
X111945007Y-81049378D01*
X111921148Y-81250964D01*
X111921336Y-81253828D01*
X111932190Y-81419431D01*
X111934424Y-81453522D01*
X111984392Y-81650269D01*
X112069377Y-81834616D01*
X112186533Y-82000389D01*
X112188587Y-82002390D01*
X112188588Y-82002391D01*
X112249924Y-82062141D01*
X112331938Y-82142035D01*
X112500720Y-82254812D01*
X112586056Y-82291475D01*
X112684588Y-82333808D01*
X112684590Y-82333809D01*
X112687228Y-82334942D01*
X112785484Y-82357175D01*
X112882426Y-82379111D01*
X112882429Y-82379111D01*
X112885216Y-82379742D01*
X112975164Y-82383276D01*
X113085193Y-82387600D01*
X113085197Y-82387600D01*
X113088053Y-82387712D01*
X113288945Y-82358584D01*
X113481165Y-82293334D01*
X113658276Y-82194147D01*
X113814345Y-82064345D01*
X113901709Y-81959302D01*
X113934948Y-81919337D01*
X113977281Y-81897064D01*
X114022965Y-81911250D01*
X114045238Y-81953583D01*
X114045500Y-81959302D01*
X114045500Y-82667787D01*
X114027194Y-82711981D01*
X113983000Y-82730287D01*
X113970807Y-82729086D01*
X113908030Y-82716599D01*
X113901946Y-82716000D01*
X113169431Y-82716000D01*
X113160641Y-82719641D01*
X113157000Y-82728431D01*
X113157000Y-84911568D01*
X113160641Y-84920358D01*
X113169431Y-84923999D01*
X113901945Y-84923999D01*
X113908030Y-84923400D01*
X113970808Y-84910913D01*
X114017724Y-84920246D01*
X114044299Y-84960020D01*
X114045500Y-84972212D01*
X114045500Y-87599792D01*
X114044375Y-87611596D01*
X114040519Y-87631645D01*
X114041758Y-87637674D01*
X114041758Y-87637677D01*
X114042282Y-87640226D01*
X114043354Y-87657905D01*
X114031518Y-87802569D01*
X114029664Y-87813393D01*
X113987376Y-87973923D01*
X113983657Y-87984256D01*
X113913918Y-88134921D01*
X113908446Y-88144443D01*
X113816788Y-88275738D01*
X113813422Y-88280559D01*
X113806369Y-88288977D01*
X113688977Y-88406369D01*
X113680559Y-88413422D01*
X113544443Y-88508446D01*
X113534921Y-88513918D01*
X113384256Y-88583657D01*
X113373923Y-88587376D01*
X113213393Y-88629664D01*
X113202569Y-88631518D01*
X113142268Y-88636452D01*
X113057902Y-88643354D01*
X113040226Y-88642282D01*
X113037677Y-88641758D01*
X113037674Y-88641758D01*
X113031645Y-88640519D01*
X113022479Y-88642282D01*
X113011596Y-88644375D01*
X112999792Y-88645500D01*
X110416082Y-88645500D01*
X110371888Y-88627194D01*
X110353582Y-88583000D01*
X110371888Y-88538806D01*
X110497746Y-88412949D01*
X110724999Y-88185696D01*
X110735291Y-88177384D01*
X110744600Y-88171373D01*
X110748940Y-88168571D01*
X110772045Y-88139262D01*
X110776934Y-88133761D01*
X110780638Y-88130057D01*
X110792754Y-88113101D01*
X110794476Y-88110808D01*
X110827156Y-88069353D01*
X110828867Y-88064479D01*
X110830767Y-88061024D01*
X110832508Y-88057472D01*
X110835513Y-88053266D01*
X110841227Y-88034162D01*
X110850625Y-88002737D01*
X110851534Y-87999938D01*
X110867716Y-87953856D01*
X110869018Y-87950149D01*
X110869500Y-87944584D01*
X110869500Y-87944307D01*
X110869840Y-87940281D01*
X110870233Y-87937172D01*
X110871713Y-87932222D01*
X110869548Y-87877117D01*
X110869500Y-87874664D01*
X110869500Y-87817710D01*
X110887806Y-87773516D01*
X110932000Y-87755210D01*
X110975612Y-87772941D01*
X111017138Y-87813393D01*
X111061938Y-87857035D01*
X111230720Y-87969812D01*
X111307355Y-88002737D01*
X111414588Y-88048808D01*
X111414590Y-88048809D01*
X111417228Y-88049942D01*
X111515484Y-88072175D01*
X111612426Y-88094111D01*
X111612429Y-88094111D01*
X111615216Y-88094742D01*
X111705164Y-88098276D01*
X111815193Y-88102600D01*
X111815197Y-88102600D01*
X111818053Y-88102712D01*
X111847786Y-88098401D01*
X111929389Y-88086569D01*
X112018945Y-88073584D01*
X112211165Y-88008334D01*
X112388276Y-87909147D01*
X112544345Y-87779345D01*
X112674147Y-87623276D01*
X112773334Y-87446165D01*
X112838584Y-87253945D01*
X112867712Y-87053053D01*
X112869232Y-86995000D01*
X112866303Y-86963116D01*
X112857228Y-86864359D01*
X112850658Y-86792859D01*
X112843456Y-86767322D01*
X112796335Y-86600244D01*
X112796333Y-86600240D01*
X112795557Y-86597487D01*
X112705776Y-86415428D01*
X112704058Y-86413127D01*
X112586037Y-86255078D01*
X112586036Y-86255076D01*
X112584320Y-86252779D01*
X112435258Y-86114987D01*
X112263581Y-86006667D01*
X112075039Y-85931446D01*
X112072233Y-85930888D01*
X112072230Y-85930887D01*
X111878752Y-85892402D01*
X111878750Y-85892402D01*
X111875946Y-85891844D01*
X111780353Y-85890593D01*
X111675833Y-85889224D01*
X111675828Y-85889224D01*
X111672971Y-85889187D01*
X111670151Y-85889672D01*
X111670146Y-85889672D01*
X111570435Y-85906806D01*
X111472910Y-85923564D01*
X111470222Y-85924556D01*
X111470217Y-85924557D01*
X111285151Y-85992832D01*
X111285148Y-85992833D01*
X111282463Y-85993824D01*
X111108010Y-86097612D01*
X111023219Y-86171972D01*
X110973209Y-86215830D01*
X110927912Y-86231206D01*
X110885010Y-86210049D01*
X110869500Y-86168840D01*
X110869500Y-84691945D01*
X111926001Y-84691945D01*
X111926600Y-84698030D01*
X111939536Y-84763068D01*
X111944157Y-84774224D01*
X111993457Y-84848007D01*
X112001993Y-84856543D01*
X112075775Y-84905843D01*
X112086933Y-84910464D01*
X112151970Y-84923401D01*
X112158054Y-84924000D01*
X112890569Y-84924000D01*
X112899359Y-84920359D01*
X112903000Y-84911569D01*
X112903000Y-83959431D01*
X112899359Y-83950641D01*
X112890569Y-83947000D01*
X111938432Y-83947000D01*
X111929642Y-83950641D01*
X111926001Y-83959431D01*
X111926001Y-84691945D01*
X110869500Y-84691945D01*
X110869500Y-83680569D01*
X111926000Y-83680569D01*
X111929641Y-83689359D01*
X111938431Y-83693000D01*
X112890569Y-83693000D01*
X112899359Y-83689359D01*
X112903000Y-83680569D01*
X112903000Y-82728432D01*
X112899359Y-82719642D01*
X112890569Y-82716001D01*
X112158055Y-82716001D01*
X112151970Y-82716600D01*
X112086932Y-82729536D01*
X112075776Y-82734157D01*
X112001993Y-82783457D01*
X111993457Y-82791993D01*
X111944157Y-82865775D01*
X111939536Y-82876933D01*
X111926599Y-82941970D01*
X111926000Y-82948054D01*
X111926000Y-83680569D01*
X110869500Y-83680569D01*
X110869500Y-79939082D01*
X110887806Y-79894888D01*
X111644888Y-79137806D01*
X111689082Y-79119500D01*
X111948639Y-79119500D01*
X111992833Y-79137806D01*
G37*
%TD.AperFunction*%
%TA.AperFunction,Conductor*%
G36*
X100971468Y-75929614D02*
G01*
X100989397Y-75966950D01*
X100995199Y-76019509D01*
X100995200Y-76019513D01*
X100995613Y-76023254D01*
X101050053Y-76172020D01*
X101138408Y-76303506D01*
X101255576Y-76410120D01*
X101258889Y-76411919D01*
X101261315Y-76413643D01*
X101286734Y-76454165D01*
X101276054Y-76500794D01*
X101253775Y-76520126D01*
X101232763Y-76530971D01*
X101232760Y-76530973D01*
X101229414Y-76532700D01*
X101110039Y-76636838D01*
X101107873Y-76639920D01*
X101107872Y-76639921D01*
X101062244Y-76704843D01*
X101018950Y-76766444D01*
X101017581Y-76769955D01*
X101017580Y-76769957D01*
X100974507Y-76880435D01*
X100961406Y-76914037D01*
X100960914Y-76917774D01*
X100941221Y-77067355D01*
X100941221Y-77067359D01*
X100940729Y-77071096D01*
X100958113Y-77228553D01*
X101012553Y-77377319D01*
X101100908Y-77508805D01*
X101103695Y-77511341D01*
X101200063Y-77599029D01*
X101220500Y-77645256D01*
X101220500Y-78692836D01*
X101219100Y-78705991D01*
X101215680Y-78721876D01*
X101216287Y-78727005D01*
X101216287Y-78727008D01*
X101220067Y-78758941D01*
X101220500Y-78766287D01*
X101220500Y-78771524D01*
X101220923Y-78774065D01*
X101220924Y-78774077D01*
X101223915Y-78792042D01*
X101224329Y-78794950D01*
X101230530Y-78847341D01*
X101232766Y-78851998D01*
X101233865Y-78855779D01*
X101235147Y-78859526D01*
X101235996Y-78864626D01*
X101238449Y-78869172D01*
X101238450Y-78869175D01*
X101261051Y-78911061D01*
X101262388Y-78913686D01*
X101285219Y-78961232D01*
X101288814Y-78965508D01*
X101289012Y-78965706D01*
X101291612Y-78968786D01*
X101293537Y-78971267D01*
X101295990Y-78975814D01*
X101299785Y-78979322D01*
X101336486Y-79013248D01*
X101338255Y-79014949D01*
X101854302Y-79530996D01*
X101862611Y-79541284D01*
X101871429Y-79554940D01*
X101898333Y-79576149D01*
X101900743Y-79578049D01*
X101906244Y-79582938D01*
X101909944Y-79586638D01*
X101912038Y-79588134D01*
X101912041Y-79588137D01*
X101926863Y-79598729D01*
X101929217Y-79600496D01*
X101941424Y-79610119D01*
X101970647Y-79633156D01*
X101975523Y-79634868D01*
X101979024Y-79636793D01*
X101982535Y-79638513D01*
X101986734Y-79641514D01*
X101991676Y-79642992D01*
X101991680Y-79642994D01*
X102022843Y-79652313D01*
X102037300Y-79656637D01*
X102040094Y-79657545D01*
X102086139Y-79673715D01*
X102086143Y-79673716D01*
X102089851Y-79675018D01*
X102093851Y-79675364D01*
X102094074Y-79675384D01*
X102094079Y-79675384D01*
X102095416Y-79675500D01*
X102095693Y-79675500D01*
X102099719Y-79675840D01*
X102102828Y-79676233D01*
X102107778Y-79677713D01*
X102162883Y-79675548D01*
X102165336Y-79675500D01*
X104485734Y-79675500D01*
X104529928Y-79693806D01*
X104548234Y-79738000D01*
X104543965Y-79760703D01*
X104510042Y-79847712D01*
X104506406Y-79857037D01*
X104505914Y-79860774D01*
X104486221Y-80010355D01*
X104486221Y-80010359D01*
X104485729Y-80014096D01*
X104503113Y-80171553D01*
X104557553Y-80320319D01*
X104645908Y-80451805D01*
X104681064Y-80483795D01*
X104701500Y-80530021D01*
X104701500Y-85129852D01*
X104683194Y-85174046D01*
X103964474Y-85892766D01*
X103930865Y-85910169D01*
X103852910Y-85923564D01*
X103850230Y-85924553D01*
X103850225Y-85924554D01*
X103665151Y-85992832D01*
X103665148Y-85992833D01*
X103662463Y-85993824D01*
X103488010Y-86097612D01*
X103335392Y-86231455D01*
X103209720Y-86390869D01*
X103115203Y-86570515D01*
X103114356Y-86573242D01*
X103114355Y-86573245D01*
X103106828Y-86597487D01*
X103055007Y-86764378D01*
X103031148Y-86965964D01*
X103031336Y-86968828D01*
X103042190Y-87134431D01*
X103044424Y-87168522D01*
X103094392Y-87365269D01*
X103179377Y-87549616D01*
X103296533Y-87715389D01*
X103298587Y-87717390D01*
X103298588Y-87717391D01*
X103359924Y-87777141D01*
X103441938Y-87857035D01*
X103610720Y-87969812D01*
X103687355Y-88002737D01*
X103794588Y-88048808D01*
X103794590Y-88048809D01*
X103797228Y-88049942D01*
X103895484Y-88072175D01*
X103992426Y-88094111D01*
X103992429Y-88094111D01*
X103995216Y-88094742D01*
X104085164Y-88098276D01*
X104195193Y-88102600D01*
X104195197Y-88102600D01*
X104198053Y-88102712D01*
X104227786Y-88098401D01*
X104309389Y-88086569D01*
X104398945Y-88073584D01*
X104591165Y-88008334D01*
X104768276Y-87909147D01*
X104924345Y-87779345D01*
X105054147Y-87623276D01*
X105153334Y-87446165D01*
X105218584Y-87253945D01*
X105247712Y-87053053D01*
X105249232Y-86995000D01*
X105246303Y-86963116D01*
X105237228Y-86864359D01*
X105230658Y-86792859D01*
X105223456Y-86767322D01*
X105176335Y-86600244D01*
X105176333Y-86600240D01*
X105175557Y-86597487D01*
X105085776Y-86415428D01*
X105069532Y-86393674D01*
X104964904Y-86253561D01*
X104953129Y-86207198D01*
X104970788Y-86171972D01*
X105455661Y-85687099D01*
X105461161Y-85682211D01*
X105487393Y-85661531D01*
X105491059Y-85658641D01*
X105525303Y-85609094D01*
X105526437Y-85607507D01*
X105559433Y-85562834D01*
X105562209Y-85559076D01*
X105563757Y-85554669D01*
X105564782Y-85552733D01*
X105564931Y-85552487D01*
X105565034Y-85552285D01*
X105565151Y-85552006D01*
X105566105Y-85550058D01*
X105568764Y-85546211D01*
X105586925Y-85488785D01*
X105587545Y-85486928D01*
X105605945Y-85434533D01*
X105607493Y-85430126D01*
X105607676Y-85425461D01*
X105608087Y-85423309D01*
X105608228Y-85422748D01*
X105608899Y-85419307D01*
X105609975Y-85415903D01*
X105610255Y-85412346D01*
X105610403Y-85410471D01*
X105610404Y-85410458D01*
X105610500Y-85409232D01*
X105610500Y-85354816D01*
X105610548Y-85352363D01*
X105612675Y-85298229D01*
X105612675Y-85298227D01*
X105612858Y-85293563D01*
X105611661Y-85289048D01*
X105611148Y-85284406D01*
X105611522Y-85284365D01*
X105610500Y-85276527D01*
X105610500Y-80512516D01*
X105626991Y-80470214D01*
X105627449Y-80469716D01*
X105630314Y-80467269D01*
X105679761Y-80398456D01*
X105720555Y-80341686D01*
X105720556Y-80341684D01*
X105722755Y-80338624D01*
X105781842Y-80191641D01*
X105804162Y-80034807D01*
X105804307Y-80021000D01*
X105785276Y-79863733D01*
X105746113Y-79760092D01*
X105747615Y-79712281D01*
X105782486Y-79679535D01*
X105804578Y-79675500D01*
X106036918Y-79675500D01*
X106081112Y-79693806D01*
X106282194Y-79894888D01*
X106300500Y-79939082D01*
X106300500Y-85914096D01*
X106282194Y-85958290D01*
X106259634Y-85972732D01*
X106202463Y-85993824D01*
X106028010Y-86097612D01*
X105875392Y-86231455D01*
X105749720Y-86390869D01*
X105655203Y-86570515D01*
X105654356Y-86573242D01*
X105654355Y-86573245D01*
X105646828Y-86597487D01*
X105595007Y-86764378D01*
X105571148Y-86965964D01*
X105571336Y-86968828D01*
X105582190Y-87134431D01*
X105584424Y-87168522D01*
X105634392Y-87365269D01*
X105719377Y-87549616D01*
X105836533Y-87715389D01*
X105838587Y-87717390D01*
X105838588Y-87717391D01*
X105899924Y-87777141D01*
X105981938Y-87857035D01*
X106150720Y-87969812D01*
X106153352Y-87970943D01*
X106153358Y-87970946D01*
X106262672Y-88017911D01*
X106296051Y-88052175D01*
X106300500Y-88075335D01*
X106300500Y-88090836D01*
X106299100Y-88103991D01*
X106295680Y-88119876D01*
X106296287Y-88125005D01*
X106296287Y-88125008D01*
X106300067Y-88156941D01*
X106300500Y-88164287D01*
X106300500Y-88169524D01*
X106300923Y-88172065D01*
X106300924Y-88172077D01*
X106303915Y-88190042D01*
X106304329Y-88192950D01*
X106310530Y-88245341D01*
X106312766Y-88249998D01*
X106313865Y-88253779D01*
X106315147Y-88257526D01*
X106315996Y-88262626D01*
X106318449Y-88267172D01*
X106318450Y-88267175D01*
X106341051Y-88309061D01*
X106342388Y-88311686D01*
X106365219Y-88359232D01*
X106368814Y-88363508D01*
X106369012Y-88363706D01*
X106371612Y-88366786D01*
X106373537Y-88369267D01*
X106375990Y-88373814D01*
X106379785Y-88377322D01*
X106416486Y-88411248D01*
X106418255Y-88412949D01*
X106544112Y-88538806D01*
X106562418Y-88583000D01*
X106544112Y-88627194D01*
X106499918Y-88645500D01*
X97822352Y-88645500D01*
X97809727Y-88644212D01*
X97791826Y-88640520D01*
X97783085Y-88642195D01*
X97765486Y-88643039D01*
X97620968Y-88629483D01*
X97610346Y-88627550D01*
X97572152Y-88617124D01*
X97450051Y-88583792D01*
X97439927Y-88580062D01*
X97289556Y-88509370D01*
X97280228Y-88503956D01*
X97144262Y-88408434D01*
X97135997Y-88401487D01*
X97018513Y-88284003D01*
X97011566Y-88275738D01*
X96986607Y-88240211D01*
X96916044Y-88139772D01*
X96910630Y-88130444D01*
X96839938Y-87980073D01*
X96836206Y-87969945D01*
X96835615Y-87967778D01*
X96808089Y-87866945D01*
X97956001Y-87866945D01*
X97956600Y-87873030D01*
X97969536Y-87938068D01*
X97974157Y-87949224D01*
X98023457Y-88023007D01*
X98031993Y-88031543D01*
X98105775Y-88080843D01*
X98116933Y-88085464D01*
X98181970Y-88098401D01*
X98188054Y-88099000D01*
X98920569Y-88099000D01*
X98929359Y-88095359D01*
X98933000Y-88086569D01*
X98933000Y-88086568D01*
X99187000Y-88086568D01*
X99190641Y-88095358D01*
X99199431Y-88098999D01*
X99931945Y-88098999D01*
X99938030Y-88098400D01*
X100003068Y-88085464D01*
X100014224Y-88080843D01*
X100088007Y-88031543D01*
X100096543Y-88023007D01*
X100145843Y-87949225D01*
X100150464Y-87938067D01*
X100163401Y-87873030D01*
X100164000Y-87866946D01*
X100164000Y-87135471D01*
X100502759Y-87135471D01*
X100504732Y-87165581D01*
X100505626Y-87171224D01*
X100554159Y-87362323D01*
X100556066Y-87367707D01*
X100638612Y-87546761D01*
X100641468Y-87551708D01*
X100755257Y-87712717D01*
X100758970Y-87717065D01*
X100900203Y-87854647D01*
X100904636Y-87858236D01*
X101068576Y-87967778D01*
X101073598Y-87970504D01*
X101254744Y-88048331D01*
X101260183Y-88050098D01*
X101452492Y-88093614D01*
X101458141Y-88094357D01*
X101460577Y-88094453D01*
X101468827Y-88091409D01*
X101473000Y-88081869D01*
X101473000Y-88079779D01*
X101727000Y-88079779D01*
X101730641Y-88088569D01*
X101736208Y-88090875D01*
X101855992Y-88073507D01*
X101861541Y-88072175D01*
X102048247Y-88008796D01*
X102053460Y-88006475D01*
X102225492Y-87910133D01*
X102230194Y-87906902D01*
X102381793Y-87780819D01*
X102385819Y-87776793D01*
X102511902Y-87625194D01*
X102515133Y-87620492D01*
X102611475Y-87448460D01*
X102613796Y-87443247D01*
X102677175Y-87256541D01*
X102678507Y-87250992D01*
X102695426Y-87134304D01*
X102693084Y-87125082D01*
X102687904Y-87122000D01*
X101739431Y-87122000D01*
X101730641Y-87125641D01*
X101727000Y-87134431D01*
X101727000Y-88079779D01*
X101473000Y-88079779D01*
X101473000Y-87134431D01*
X101469359Y-87125641D01*
X101460569Y-87122000D01*
X100514307Y-87122000D01*
X100506632Y-87125179D01*
X100502759Y-87135471D01*
X100164000Y-87135471D01*
X100164000Y-87134431D01*
X100160359Y-87125641D01*
X100151569Y-87122000D01*
X99199431Y-87122000D01*
X99190641Y-87125641D01*
X99187000Y-87134431D01*
X99187000Y-88086568D01*
X98933000Y-88086568D01*
X98933000Y-87134431D01*
X98929359Y-87125641D01*
X98920569Y-87122000D01*
X97968432Y-87122000D01*
X97959642Y-87125641D01*
X97956001Y-87134431D01*
X97956001Y-87866945D01*
X96808089Y-87866945D01*
X96792450Y-87809654D01*
X96790517Y-87799032D01*
X96776961Y-87654514D01*
X96777805Y-87636913D01*
X96778322Y-87634216D01*
X96779480Y-87628174D01*
X96775788Y-87610273D01*
X96774500Y-87597648D01*
X96774500Y-86855569D01*
X97956000Y-86855569D01*
X97959641Y-86864359D01*
X97968431Y-86868000D01*
X98920569Y-86868000D01*
X98929359Y-86864359D01*
X98933000Y-86855569D01*
X99187000Y-86855569D01*
X99190641Y-86864359D01*
X99199431Y-86868000D01*
X100151568Y-86868000D01*
X100160358Y-86864359D01*
X100163963Y-86855655D01*
X100504707Y-86855655D01*
X100507290Y-86864811D01*
X100512984Y-86868000D01*
X101460569Y-86868000D01*
X101469359Y-86864359D01*
X101473000Y-86855569D01*
X101727000Y-86855569D01*
X101730641Y-86864359D01*
X101739431Y-86868000D01*
X102684629Y-86868000D01*
X102693419Y-86864359D01*
X102696125Y-86857826D01*
X102690426Y-86795805D01*
X102689385Y-86790187D01*
X102635867Y-86600424D01*
X102633824Y-86595102D01*
X102546616Y-86418261D01*
X102543630Y-86413389D01*
X102425664Y-86255414D01*
X102421841Y-86251169D01*
X102277060Y-86117334D01*
X102272525Y-86113854D01*
X102105774Y-86008642D01*
X102100696Y-86006054D01*
X101917553Y-85932988D01*
X101912087Y-85931369D01*
X101739193Y-85896978D01*
X101729861Y-85898834D01*
X101727000Y-85903117D01*
X101727000Y-86855569D01*
X101473000Y-86855569D01*
X101473000Y-85908994D01*
X101469359Y-85900204D01*
X101464214Y-85898073D01*
X101315870Y-85923563D01*
X101310347Y-85925042D01*
X101125367Y-85993285D01*
X101120218Y-85995741D01*
X100950770Y-86096552D01*
X100946148Y-86099911D01*
X100797910Y-86229912D01*
X100793983Y-86234050D01*
X100671913Y-86388895D01*
X100668809Y-86393674D01*
X100576998Y-86568177D01*
X100574819Y-86573437D01*
X100516346Y-86761752D01*
X100515162Y-86767322D01*
X100504707Y-86855655D01*
X100163963Y-86855655D01*
X100163999Y-86855569D01*
X100163999Y-86123055D01*
X100163400Y-86116970D01*
X100150464Y-86051932D01*
X100145843Y-86040776D01*
X100096543Y-85966993D01*
X100088007Y-85958457D01*
X100014225Y-85909157D01*
X100003067Y-85904536D01*
X99938030Y-85891599D01*
X99931946Y-85891000D01*
X99199431Y-85891000D01*
X99190641Y-85894641D01*
X99187000Y-85903431D01*
X99187000Y-86855569D01*
X98933000Y-86855569D01*
X98933000Y-85903432D01*
X98929359Y-85894642D01*
X98920569Y-85891001D01*
X98188055Y-85891001D01*
X98181970Y-85891600D01*
X98116932Y-85904536D01*
X98105776Y-85909157D01*
X98031993Y-85958457D01*
X98023457Y-85966993D01*
X97974157Y-86040775D01*
X97969536Y-86051933D01*
X97956599Y-86116970D01*
X97956000Y-86123054D01*
X97956000Y-86855569D01*
X96774500Y-86855569D01*
X96774500Y-84972723D01*
X96792806Y-84928529D01*
X96837000Y-84910223D01*
X96849193Y-84911424D01*
X96911920Y-84923901D01*
X96911923Y-84923901D01*
X96914933Y-84924500D01*
X97790000Y-84924500D01*
X98665066Y-84924499D01*
X98668075Y-84923900D01*
X98668080Y-84923900D01*
X98733263Y-84910935D01*
X98739301Y-84909734D01*
X98823484Y-84853484D01*
X98879734Y-84769301D01*
X98894500Y-84695067D01*
X98894499Y-82944934D01*
X98879734Y-82870699D01*
X98823484Y-82786516D01*
X98803452Y-82773131D01*
X98744420Y-82733686D01*
X98744418Y-82733685D01*
X98739301Y-82730266D01*
X98706247Y-82723691D01*
X98668080Y-82716099D01*
X98668077Y-82716099D01*
X98665067Y-82715500D01*
X98661996Y-82715500D01*
X97790001Y-82715501D01*
X96914934Y-82715501D01*
X96911925Y-82716100D01*
X96911920Y-82716100D01*
X96869086Y-82724620D01*
X96849191Y-82728577D01*
X96802276Y-82719244D01*
X96775701Y-82679470D01*
X96774500Y-82667278D01*
X96774500Y-81952827D01*
X96792806Y-81908633D01*
X96837000Y-81890327D01*
X96881194Y-81908633D01*
X96888040Y-81916756D01*
X96945257Y-81997717D01*
X96948970Y-82002065D01*
X97090203Y-82139647D01*
X97094636Y-82143236D01*
X97258576Y-82252778D01*
X97263598Y-82255504D01*
X97444744Y-82333331D01*
X97450183Y-82335098D01*
X97642492Y-82378614D01*
X97648141Y-82379357D01*
X97650577Y-82379453D01*
X97658827Y-82376409D01*
X97663000Y-82366869D01*
X97663000Y-82364779D01*
X97917000Y-82364779D01*
X97920641Y-82373569D01*
X97926208Y-82375875D01*
X98045992Y-82358507D01*
X98051541Y-82357175D01*
X98238247Y-82293796D01*
X98243460Y-82291475D01*
X98415492Y-82195133D01*
X98420194Y-82191902D01*
X98571793Y-82065819D01*
X98575819Y-82061793D01*
X98701902Y-81910194D01*
X98705133Y-81905492D01*
X98801475Y-81733460D01*
X98803796Y-81728247D01*
X98867175Y-81541541D01*
X98868507Y-81535992D01*
X98885426Y-81419304D01*
X98883084Y-81410082D01*
X98877904Y-81407000D01*
X97929431Y-81407000D01*
X97920641Y-81410641D01*
X97917000Y-81419431D01*
X97917000Y-82364779D01*
X97663000Y-82364779D01*
X97663000Y-81140569D01*
X97917000Y-81140569D01*
X97920641Y-81149359D01*
X97929431Y-81153000D01*
X98874629Y-81153000D01*
X98883419Y-81149359D01*
X98886125Y-81142826D01*
X98880426Y-81080805D01*
X98879385Y-81075187D01*
X98825867Y-80885424D01*
X98823824Y-80880102D01*
X98736616Y-80703261D01*
X98733630Y-80698389D01*
X98615664Y-80540414D01*
X98611841Y-80536169D01*
X98467060Y-80402334D01*
X98462525Y-80398854D01*
X98295774Y-80293642D01*
X98290696Y-80291054D01*
X98107553Y-80217988D01*
X98102087Y-80216369D01*
X97929193Y-80181978D01*
X97919861Y-80183834D01*
X97917000Y-80188117D01*
X97917000Y-81140569D01*
X97663000Y-81140569D01*
X97663000Y-80193994D01*
X97659359Y-80185204D01*
X97654214Y-80183073D01*
X97505870Y-80208563D01*
X97500347Y-80210042D01*
X97315367Y-80278285D01*
X97310218Y-80280741D01*
X97140770Y-80381552D01*
X97136148Y-80384911D01*
X96987910Y-80514912D01*
X96983983Y-80519050D01*
X96886082Y-80643236D01*
X96844346Y-80666609D01*
X96798306Y-80653624D01*
X96774933Y-80611888D01*
X96774500Y-80604542D01*
X96774500Y-79413694D01*
X96792806Y-79369500D01*
X96837000Y-79351194D01*
X96881194Y-79369500D01*
X96888040Y-79377623D01*
X96944875Y-79458043D01*
X96946533Y-79460389D01*
X96948587Y-79462390D01*
X96948588Y-79462391D01*
X97043593Y-79554940D01*
X97091938Y-79602035D01*
X97260720Y-79714812D01*
X97314692Y-79738000D01*
X97444588Y-79793808D01*
X97444590Y-79793809D01*
X97447228Y-79794942D01*
X97547641Y-79817663D01*
X97642426Y-79839111D01*
X97642429Y-79839111D01*
X97645216Y-79839742D01*
X97735164Y-79843276D01*
X97845193Y-79847600D01*
X97845197Y-79847600D01*
X97848053Y-79847712D01*
X98048945Y-79818584D01*
X98241165Y-79753334D01*
X98418276Y-79654147D01*
X98574345Y-79524345D01*
X98704147Y-79368276D01*
X98803334Y-79191165D01*
X98868584Y-78998945D01*
X98890566Y-78847341D01*
X98897449Y-78799869D01*
X98897449Y-78799864D01*
X98897712Y-78798053D01*
X98899232Y-78740000D01*
X98898039Y-78727008D01*
X98885756Y-78593341D01*
X98880658Y-78537859D01*
X98870118Y-78500486D01*
X98826335Y-78345244D01*
X98826333Y-78345240D01*
X98825557Y-78342487D01*
X98779521Y-78249135D01*
X98737044Y-78162999D01*
X98737043Y-78162998D01*
X98735776Y-78160428D01*
X98724065Y-78144745D01*
X98616037Y-78000078D01*
X98616036Y-78000076D01*
X98614320Y-77997779D01*
X98465258Y-77859987D01*
X98293581Y-77751667D01*
X98105039Y-77676446D01*
X98102233Y-77675888D01*
X98102230Y-77675887D01*
X97908752Y-77637402D01*
X97908750Y-77637402D01*
X97905946Y-77636844D01*
X97810353Y-77635593D01*
X97705833Y-77634224D01*
X97705828Y-77634224D01*
X97702971Y-77634187D01*
X97700151Y-77634672D01*
X97700146Y-77634672D01*
X97583751Y-77654673D01*
X97502910Y-77668564D01*
X97500222Y-77669556D01*
X97500217Y-77669557D01*
X97315151Y-77737832D01*
X97315148Y-77737833D01*
X97312463Y-77738824D01*
X97138010Y-77842612D01*
X96985392Y-77976455D01*
X96983616Y-77978708D01*
X96983615Y-77978709D01*
X96886082Y-78102429D01*
X96844346Y-78125803D01*
X96798307Y-78112818D01*
X96774933Y-78071082D01*
X96774500Y-78063736D01*
X96774500Y-76873694D01*
X96792806Y-76829500D01*
X96837000Y-76811194D01*
X96881194Y-76829500D01*
X96888040Y-76837623D01*
X96946533Y-76920389D01*
X97091938Y-77062035D01*
X97260720Y-77174812D01*
X97347124Y-77211934D01*
X97444588Y-77253808D01*
X97444590Y-77253809D01*
X97447228Y-77254942D01*
X97547641Y-77277663D01*
X97642426Y-77299111D01*
X97642429Y-77299111D01*
X97645216Y-77299742D01*
X97735164Y-77303276D01*
X97845193Y-77307600D01*
X97845197Y-77307600D01*
X97848053Y-77307712D01*
X98048945Y-77278584D01*
X98241165Y-77213334D01*
X98418276Y-77114147D01*
X98574345Y-76984345D01*
X98704147Y-76828276D01*
X98803334Y-76651165D01*
X98813265Y-76621910D01*
X98844805Y-76585945D01*
X98872448Y-76579500D01*
X100028836Y-76579500D01*
X100041992Y-76580900D01*
X100057876Y-76584320D01*
X100063005Y-76583713D01*
X100063008Y-76583713D01*
X100094941Y-76579933D01*
X100102287Y-76579500D01*
X100107524Y-76579500D01*
X100110065Y-76579077D01*
X100110077Y-76579076D01*
X100128042Y-76576085D01*
X100130950Y-76575671D01*
X100183341Y-76569470D01*
X100187998Y-76567234D01*
X100191779Y-76566135D01*
X100195526Y-76564853D01*
X100200626Y-76564004D01*
X100205172Y-76561551D01*
X100205175Y-76561550D01*
X100247061Y-76538949D01*
X100249686Y-76537612D01*
X100293686Y-76516484D01*
X100293688Y-76516483D01*
X100297232Y-76514781D01*
X100300241Y-76512252D01*
X100300243Y-76512250D01*
X100300473Y-76512056D01*
X100301508Y-76511186D01*
X100301706Y-76510988D01*
X100304786Y-76508388D01*
X100307267Y-76506463D01*
X100311814Y-76504010D01*
X100349248Y-76463514D01*
X100350949Y-76461745D01*
X100883080Y-75929614D01*
X100927274Y-75911308D01*
X100971468Y-75929614D01*
G37*
%TD.AperFunction*%
%TA.AperFunction,Conductor*%
G36*
X99683112Y-48657806D02*
G01*
X100790302Y-49764996D01*
X100798611Y-49775284D01*
X100807429Y-49788940D01*
X100818709Y-49797832D01*
X100836743Y-49812049D01*
X100842244Y-49816938D01*
X100845944Y-49820638D01*
X100862861Y-49832727D01*
X100865214Y-49834494D01*
X100902559Y-49863933D01*
X100906647Y-49867156D01*
X100911524Y-49868869D01*
X100914990Y-49870774D01*
X100918529Y-49872508D01*
X100922734Y-49875513D01*
X100927683Y-49876993D01*
X100927685Y-49876994D01*
X100973263Y-49890625D01*
X100976062Y-49891534D01*
X101007609Y-49902612D01*
X101025851Y-49909018D01*
X101029851Y-49909364D01*
X101030074Y-49909384D01*
X101030079Y-49909384D01*
X101031416Y-49909500D01*
X101031693Y-49909500D01*
X101035719Y-49909840D01*
X101038828Y-49910233D01*
X101043778Y-49911713D01*
X101098883Y-49909548D01*
X101101336Y-49909500D01*
X101718000Y-49909500D01*
X101762194Y-49927806D01*
X101780500Y-49972000D01*
X101780501Y-50861224D01*
X101780501Y-51680066D01*
X101781100Y-51683075D01*
X101781100Y-51683080D01*
X101787558Y-51715547D01*
X101795266Y-51754301D01*
X101851516Y-51838484D01*
X101856633Y-51841903D01*
X101930580Y-51891314D01*
X101930582Y-51891315D01*
X101935699Y-51894734D01*
X101957704Y-51899111D01*
X102006920Y-51908901D01*
X102006923Y-51908901D01*
X102009933Y-51909500D01*
X102108012Y-51909500D01*
X102908917Y-51909499D01*
X102953111Y-51927805D01*
X103584302Y-52558996D01*
X103592611Y-52569284D01*
X103601429Y-52582940D01*
X103623169Y-52600078D01*
X103630743Y-52606049D01*
X103636244Y-52610938D01*
X103639944Y-52614638D01*
X103642038Y-52616134D01*
X103642041Y-52616137D01*
X103656863Y-52626729D01*
X103659217Y-52628496D01*
X103696589Y-52657957D01*
X103700647Y-52661156D01*
X103705523Y-52662868D01*
X103709024Y-52664793D01*
X103712535Y-52666513D01*
X103716734Y-52669514D01*
X103721676Y-52670992D01*
X103721680Y-52670994D01*
X103757846Y-52681809D01*
X103767300Y-52684637D01*
X103770094Y-52685545D01*
X103816139Y-52701715D01*
X103816143Y-52701716D01*
X103819851Y-52703018D01*
X103823851Y-52703364D01*
X103824074Y-52703384D01*
X103824079Y-52703384D01*
X103825416Y-52703500D01*
X103825693Y-52703500D01*
X103829719Y-52703840D01*
X103832828Y-52704233D01*
X103837778Y-52705713D01*
X103892883Y-52703548D01*
X103895336Y-52703500D01*
X109544918Y-52703500D01*
X109589112Y-52721806D01*
X109758194Y-52890888D01*
X109776500Y-52935082D01*
X109776500Y-62164418D01*
X109758194Y-62208612D01*
X109100758Y-62866048D01*
X109056564Y-62884354D01*
X109051092Y-62884010D01*
X109048633Y-62883392D01*
X109044863Y-62883372D01*
X109044861Y-62883372D01*
X108970253Y-62882981D01*
X108890221Y-62882562D01*
X108886557Y-62883442D01*
X108886554Y-62883442D01*
X108834793Y-62895869D01*
X108736184Y-62919543D01*
X108732842Y-62921268D01*
X108732839Y-62921269D01*
X108665799Y-62955872D01*
X108595414Y-62992200D01*
X108592576Y-62994675D01*
X108592577Y-62994675D01*
X108499940Y-63075488D01*
X108476039Y-63096338D01*
X108473873Y-63099420D01*
X108473872Y-63099421D01*
X108452254Y-63130181D01*
X108384950Y-63225944D01*
X108383581Y-63229455D01*
X108383580Y-63229457D01*
X108368016Y-63269378D01*
X108327406Y-63373537D01*
X108326914Y-63377274D01*
X108307221Y-63526855D01*
X108307221Y-63526859D01*
X108306729Y-63530596D01*
X108324113Y-63688053D01*
X108378553Y-63836819D01*
X108406303Y-63878115D01*
X108451103Y-63944784D01*
X108466908Y-63968305D01*
X108584076Y-64074919D01*
X108587385Y-64076716D01*
X108587387Y-64076717D01*
X108650886Y-64111194D01*
X108723293Y-64150508D01*
X108726940Y-64151465D01*
X108726943Y-64151466D01*
X108872874Y-64189750D01*
X108876522Y-64190707D01*
X108961157Y-64192036D01*
X109031147Y-64193136D01*
X109031149Y-64193136D01*
X109034916Y-64193195D01*
X109189332Y-64157829D01*
X109192696Y-64156137D01*
X109192699Y-64156136D01*
X109240447Y-64132121D01*
X109288154Y-64128618D01*
X109324365Y-64159875D01*
X109330494Y-64196115D01*
X109322729Y-64255096D01*
X109340113Y-64412553D01*
X109394553Y-64561319D01*
X109425452Y-64607301D01*
X109462651Y-64662659D01*
X109482908Y-64692805D01*
X109600076Y-64799419D01*
X109603385Y-64801216D01*
X109603387Y-64801217D01*
X109632765Y-64817168D01*
X109739293Y-64875008D01*
X109742940Y-64875965D01*
X109742943Y-64875966D01*
X109888874Y-64914250D01*
X109892522Y-64915207D01*
X109977157Y-64916536D01*
X110047147Y-64917636D01*
X110047149Y-64917636D01*
X110050916Y-64917695D01*
X110205332Y-64882329D01*
X110208696Y-64880637D01*
X110208699Y-64880636D01*
X110289652Y-64839921D01*
X110346855Y-64811151D01*
X110349720Y-64808704D01*
X110349723Y-64808702D01*
X110415055Y-64752902D01*
X110467314Y-64708269D01*
X110469509Y-64705214D01*
X110469512Y-64705211D01*
X110538109Y-64609747D01*
X110559755Y-64579624D01*
X110559997Y-64579023D01*
X110596564Y-64549728D01*
X110644111Y-64554978D01*
X110674019Y-64592311D01*
X110676500Y-64609747D01*
X110676500Y-65924522D01*
X110658194Y-65968716D01*
X108223004Y-68403906D01*
X108212716Y-68412215D01*
X108199060Y-68421033D01*
X108195863Y-68425089D01*
X108175951Y-68450347D01*
X108171062Y-68455848D01*
X108167362Y-68459548D01*
X108165866Y-68461642D01*
X108165863Y-68461645D01*
X108155271Y-68476467D01*
X108153504Y-68478821D01*
X108120844Y-68520251D01*
X108119132Y-68525127D01*
X108117207Y-68528628D01*
X108115487Y-68532139D01*
X108112486Y-68536338D01*
X108111008Y-68541280D01*
X108111006Y-68541284D01*
X108097366Y-68586896D01*
X108096455Y-68589698D01*
X108080285Y-68635743D01*
X108080284Y-68635747D01*
X108078982Y-68639455D01*
X108078500Y-68645020D01*
X108078500Y-68645297D01*
X108078160Y-68649323D01*
X108077767Y-68652432D01*
X108076287Y-68657382D01*
X108076490Y-68662543D01*
X108078452Y-68712486D01*
X108078500Y-68714940D01*
X108078500Y-70115974D01*
X108074231Y-70138677D01*
X108028217Y-70256698D01*
X108019073Y-70280150D01*
X108018581Y-70283887D01*
X107998888Y-70433468D01*
X107998888Y-70433472D01*
X107998396Y-70437209D01*
X108015780Y-70594666D01*
X108070220Y-70743432D01*
X108158575Y-70874918D01*
X108275743Y-70981532D01*
X108279052Y-70983329D01*
X108279054Y-70983330D01*
X108300868Y-70995174D01*
X108414960Y-71057121D01*
X108418607Y-71058078D01*
X108418610Y-71058079D01*
X108564541Y-71096363D01*
X108568189Y-71097320D01*
X108652824Y-71098649D01*
X108722814Y-71099749D01*
X108722816Y-71099749D01*
X108726583Y-71099808D01*
X108880999Y-71064442D01*
X108884363Y-71062750D01*
X108884366Y-71062749D01*
X108969176Y-71020094D01*
X109022522Y-70993264D01*
X109025387Y-70990817D01*
X109025390Y-70990815D01*
X109140119Y-70892826D01*
X109142981Y-70890382D01*
X109145176Y-70887327D01*
X109145179Y-70887324D01*
X109233222Y-70764799D01*
X109233223Y-70764797D01*
X109235422Y-70761737D01*
X109294509Y-70614754D01*
X109308903Y-70513616D01*
X109316542Y-70459939D01*
X109316542Y-70459934D01*
X109316829Y-70457920D01*
X109316974Y-70444113D01*
X109299870Y-70302771D01*
X109312734Y-70256698D01*
X109347963Y-70234340D01*
X109414350Y-70219136D01*
X109417714Y-70217444D01*
X109417717Y-70217443D01*
X109484629Y-70183790D01*
X109555873Y-70147958D01*
X109558738Y-70145511D01*
X109558741Y-70145509D01*
X109673470Y-70047520D01*
X109676332Y-70045076D01*
X109678527Y-70042021D01*
X109678530Y-70042018D01*
X109766573Y-69919493D01*
X109766574Y-69919491D01*
X109768773Y-69916431D01*
X109827860Y-69769448D01*
X109843769Y-69657663D01*
X109849893Y-69614633D01*
X109849893Y-69614628D01*
X109850180Y-69612614D01*
X109850256Y-69605336D01*
X109850304Y-69600846D01*
X109850304Y-69600840D01*
X109850325Y-69598807D01*
X109831294Y-69441540D01*
X109775298Y-69293353D01*
X109685571Y-69162799D01*
X109591441Y-69078932D01*
X109570518Y-69032268D01*
X109570518Y-68792064D01*
X109588824Y-68747870D01*
X111740996Y-66595698D01*
X111751284Y-66587389D01*
X111764940Y-66578571D01*
X111788049Y-66549257D01*
X111792938Y-66543756D01*
X111796638Y-66540056D01*
X111808729Y-66523137D01*
X111810496Y-66520783D01*
X111839957Y-66483411D01*
X111843156Y-66479353D01*
X111844868Y-66474477D01*
X111846793Y-66470976D01*
X111848512Y-66467467D01*
X111851514Y-66463266D01*
X111852993Y-66458319D01*
X111852995Y-66458316D01*
X111866204Y-66414150D01*
X111896405Y-66377054D01*
X111943991Y-66372179D01*
X111981087Y-66402380D01*
X111984131Y-66409240D01*
X111984392Y-66410269D01*
X111985589Y-66412866D01*
X111985591Y-66412871D01*
X112030120Y-66509461D01*
X112069377Y-66594616D01*
X112186533Y-66760389D01*
X112331938Y-66902035D01*
X112500720Y-67014812D01*
X112576308Y-67047287D01*
X112684588Y-67093808D01*
X112684590Y-67093809D01*
X112687228Y-67094942D01*
X112738281Y-67106494D01*
X112882426Y-67139111D01*
X112882429Y-67139111D01*
X112885216Y-67139742D01*
X112975164Y-67143276D01*
X113085193Y-67147600D01*
X113085197Y-67147600D01*
X113088053Y-67147712D01*
X113288945Y-67118584D01*
X113481165Y-67053334D01*
X113658276Y-66954147D01*
X113814345Y-66824345D01*
X113906373Y-66713694D01*
X113934948Y-66679337D01*
X113977281Y-66657064D01*
X114022965Y-66671250D01*
X114045238Y-66713583D01*
X114045500Y-66719302D01*
X114045500Y-67905645D01*
X114027194Y-67949839D01*
X113983000Y-67968145D01*
X113938806Y-67949839D01*
X113932922Y-67943040D01*
X113910036Y-67912391D01*
X113867786Y-67855812D01*
X113856037Y-67840078D01*
X113856036Y-67840076D01*
X113854320Y-67837779D01*
X113705258Y-67699987D01*
X113533581Y-67591667D01*
X113370741Y-67526700D01*
X113347696Y-67517506D01*
X113345039Y-67516446D01*
X113342233Y-67515888D01*
X113342230Y-67515887D01*
X113148752Y-67477402D01*
X113148750Y-67477402D01*
X113145946Y-67476844D01*
X113050353Y-67475593D01*
X112945833Y-67474224D01*
X112945828Y-67474224D01*
X112942971Y-67474187D01*
X112940151Y-67474672D01*
X112940146Y-67474672D01*
X112823751Y-67494673D01*
X112742910Y-67508564D01*
X112740222Y-67509556D01*
X112740217Y-67509557D01*
X112555151Y-67577832D01*
X112555148Y-67577833D01*
X112552463Y-67578824D01*
X112378010Y-67682612D01*
X112297496Y-67753221D01*
X112232202Y-67810483D01*
X112225392Y-67816455D01*
X112223616Y-67818708D01*
X112223615Y-67818709D01*
X112155962Y-67904527D01*
X112099720Y-67975869D01*
X112005203Y-68155515D01*
X112004355Y-68158245D01*
X112003256Y-68160899D01*
X112001762Y-68160280D01*
X111974319Y-68193301D01*
X111945198Y-68200500D01*
X111553164Y-68200500D01*
X111540009Y-68199100D01*
X111537281Y-68198513D01*
X111524124Y-68195680D01*
X111518995Y-68196287D01*
X111518992Y-68196287D01*
X111487059Y-68200067D01*
X111479713Y-68200500D01*
X111474476Y-68200500D01*
X111471935Y-68200923D01*
X111471923Y-68200924D01*
X111453958Y-68203915D01*
X111451050Y-68204329D01*
X111398659Y-68210530D01*
X111394002Y-68212766D01*
X111390221Y-68213865D01*
X111386474Y-68215147D01*
X111381374Y-68215996D01*
X111376828Y-68218449D01*
X111376825Y-68218450D01*
X111334939Y-68241051D01*
X111332314Y-68242388D01*
X111288314Y-68263516D01*
X111288312Y-68263517D01*
X111284768Y-68265219D01*
X111281759Y-68267748D01*
X111281757Y-68267750D01*
X111281587Y-68267893D01*
X111280492Y-68268814D01*
X111280294Y-68269012D01*
X111277214Y-68271612D01*
X111274733Y-68273537D01*
X111270186Y-68275990D01*
X111266678Y-68279785D01*
X111232752Y-68316486D01*
X111231051Y-68318255D01*
X110255004Y-69294302D01*
X110244716Y-69302611D01*
X110231060Y-69311429D01*
X110227863Y-69315485D01*
X110207951Y-69340743D01*
X110203062Y-69346244D01*
X110199362Y-69349944D01*
X110197866Y-69352038D01*
X110197863Y-69352041D01*
X110187271Y-69366863D01*
X110185504Y-69369217D01*
X110152844Y-69410647D01*
X110151132Y-69415523D01*
X110149207Y-69419024D01*
X110147487Y-69422535D01*
X110144486Y-69426734D01*
X110143008Y-69431676D01*
X110143006Y-69431680D01*
X110129366Y-69477292D01*
X110128455Y-69480094D01*
X110112285Y-69526139D01*
X110112284Y-69526143D01*
X110110982Y-69529851D01*
X110110500Y-69535416D01*
X110110500Y-69535693D01*
X110110160Y-69539719D01*
X110109767Y-69542828D01*
X110108287Y-69547778D01*
X110108608Y-69555945D01*
X110110452Y-69602882D01*
X110110500Y-69605336D01*
X110110500Y-73740223D01*
X110092194Y-73784417D01*
X109598417Y-74278194D01*
X109554223Y-74296500D01*
X109532273Y-74296500D01*
X109488079Y-74278194D01*
X109480765Y-74269401D01*
X109460553Y-74239992D01*
X109381279Y-74169362D01*
X109345087Y-74137116D01*
X109345085Y-74137115D01*
X109342275Y-74134611D01*
X109202274Y-74060484D01*
X109048633Y-74021892D01*
X109044868Y-74021872D01*
X109044866Y-74021872D01*
X108966296Y-74021461D01*
X108890221Y-74021062D01*
X108886557Y-74021942D01*
X108886554Y-74021942D01*
X108841020Y-74032874D01*
X108736184Y-74058043D01*
X108732842Y-74059768D01*
X108732839Y-74059769D01*
X108682778Y-74085608D01*
X108595414Y-74130700D01*
X108592576Y-74133175D01*
X108592577Y-74133175D01*
X108480008Y-74231376D01*
X108476039Y-74234838D01*
X108473873Y-74237920D01*
X108473872Y-74237921D01*
X108450487Y-74271194D01*
X108384950Y-74364444D01*
X108383581Y-74367955D01*
X108383580Y-74367957D01*
X108328907Y-74508188D01*
X108327406Y-74512037D01*
X108326914Y-74515774D01*
X108307221Y-74665355D01*
X108307221Y-74665359D01*
X108306729Y-74669096D01*
X108324113Y-74826553D01*
X108378553Y-74975319D01*
X108404285Y-75013612D01*
X108460190Y-75096807D01*
X108466908Y-75106805D01*
X108584076Y-75213419D01*
X108587385Y-75215216D01*
X108587387Y-75215217D01*
X108664942Y-75257326D01*
X108723293Y-75289008D01*
X108726940Y-75289965D01*
X108726943Y-75289966D01*
X108872874Y-75328250D01*
X108876522Y-75329207D01*
X108961157Y-75330536D01*
X109031147Y-75331636D01*
X109031149Y-75331636D01*
X109034916Y-75331695D01*
X109189332Y-75296329D01*
X109192696Y-75294637D01*
X109192699Y-75294636D01*
X109263499Y-75259027D01*
X109330855Y-75225151D01*
X109333720Y-75222704D01*
X109333723Y-75222702D01*
X109435369Y-75135887D01*
X109451314Y-75122269D01*
X109480590Y-75081527D01*
X109521242Y-75056322D01*
X109531343Y-75055500D01*
X109690141Y-75055500D01*
X109703297Y-75056900D01*
X109719181Y-75060320D01*
X109724310Y-75059713D01*
X109724313Y-75059713D01*
X109756246Y-75055933D01*
X109763592Y-75055500D01*
X109768829Y-75055500D01*
X109771370Y-75055077D01*
X109771382Y-75055076D01*
X109789347Y-75052085D01*
X109792255Y-75051671D01*
X109844646Y-75045470D01*
X109849303Y-75043234D01*
X109853084Y-75042135D01*
X109856831Y-75040853D01*
X109861931Y-75040004D01*
X109866477Y-75037551D01*
X109866480Y-75037550D01*
X109908366Y-75014949D01*
X109910991Y-75013612D01*
X109954991Y-74992484D01*
X109954993Y-74992483D01*
X109958537Y-74990781D01*
X109961546Y-74988252D01*
X109961548Y-74988250D01*
X109961778Y-74988056D01*
X109962813Y-74987186D01*
X109963011Y-74986988D01*
X109966091Y-74984388D01*
X109968572Y-74982463D01*
X109973119Y-74980010D01*
X110010552Y-74939515D01*
X110012253Y-74937746D01*
X110724999Y-74225001D01*
X110735291Y-74216689D01*
X110744600Y-74210678D01*
X110748940Y-74207876D01*
X110760917Y-74192683D01*
X110802653Y-74169309D01*
X110848693Y-74182293D01*
X110872067Y-74224029D01*
X110872500Y-74231376D01*
X110872500Y-74618522D01*
X110854194Y-74662716D01*
X109206716Y-76310194D01*
X109162522Y-76328500D01*
X107246273Y-76328500D01*
X107202079Y-76310194D01*
X107194765Y-76301401D01*
X107174553Y-76271992D01*
X107056275Y-76166611D01*
X106916274Y-76092484D01*
X106762633Y-76053892D01*
X106758868Y-76053872D01*
X106758866Y-76053872D01*
X106680296Y-76053461D01*
X106604221Y-76053062D01*
X106600557Y-76053942D01*
X106600554Y-76053942D01*
X106530948Y-76070653D01*
X106450184Y-76090043D01*
X106446842Y-76091768D01*
X106446839Y-76091769D01*
X106379799Y-76126371D01*
X106309414Y-76162700D01*
X106190039Y-76266838D01*
X106187873Y-76269920D01*
X106187872Y-76269921D01*
X106164268Y-76303506D01*
X106098950Y-76396444D01*
X106098853Y-76396376D01*
X106062987Y-76425727D01*
X106015388Y-76420972D01*
X105993419Y-76401293D01*
X105906688Y-76275099D01*
X105904553Y-76271992D01*
X105786275Y-76166611D01*
X105646274Y-76092484D01*
X105492633Y-76053892D01*
X105488868Y-76053872D01*
X105488866Y-76053872D01*
X105410296Y-76053461D01*
X105334221Y-76053062D01*
X105330557Y-76053942D01*
X105330554Y-76053942D01*
X105260948Y-76070653D01*
X105180184Y-76090043D01*
X105176842Y-76091768D01*
X105176839Y-76091769D01*
X105109799Y-76126371D01*
X105039414Y-76162700D01*
X104920039Y-76266838D01*
X104917873Y-76269920D01*
X104917872Y-76269921D01*
X104894268Y-76303506D01*
X104828950Y-76396444D01*
X104828853Y-76396376D01*
X104792987Y-76425727D01*
X104745388Y-76420972D01*
X104723419Y-76401293D01*
X104636688Y-76275099D01*
X104634553Y-76271992D01*
X104516275Y-76166611D01*
X104376274Y-76092484D01*
X104222633Y-76053892D01*
X104218868Y-76053872D01*
X104218866Y-76053872D01*
X104140296Y-76053461D01*
X104064221Y-76053062D01*
X104060557Y-76053942D01*
X104060554Y-76053942D01*
X103990948Y-76070653D01*
X103910184Y-76090043D01*
X103906842Y-76091768D01*
X103906839Y-76091769D01*
X103839799Y-76126371D01*
X103769414Y-76162700D01*
X103650039Y-76266838D01*
X103647873Y-76269920D01*
X103647872Y-76269921D01*
X103624268Y-76303506D01*
X103558950Y-76396444D01*
X103557581Y-76399955D01*
X103557580Y-76399957D01*
X103503390Y-76538949D01*
X103501406Y-76544037D01*
X103500914Y-76547774D01*
X103481221Y-76697355D01*
X103481221Y-76697359D01*
X103480729Y-76701096D01*
X103498113Y-76858553D01*
X103552553Y-77007319D01*
X103640908Y-77138805D01*
X103758076Y-77245419D01*
X103761385Y-77247216D01*
X103761387Y-77247217D01*
X103775615Y-77254942D01*
X103897293Y-77321008D01*
X103900943Y-77321966D01*
X103900944Y-77321966D01*
X103969070Y-77339839D01*
X103997404Y-77356099D01*
X104346304Y-77704999D01*
X104354616Y-77715291D01*
X104363429Y-77728940D01*
X104374709Y-77737832D01*
X104392738Y-77752045D01*
X104398239Y-77756934D01*
X104401943Y-77760638D01*
X104418899Y-77772754D01*
X104421192Y-77774476D01*
X104462647Y-77807156D01*
X104467521Y-77808867D01*
X104470976Y-77810767D01*
X104474528Y-77812508D01*
X104478734Y-77815513D01*
X104483683Y-77816993D01*
X104483685Y-77816994D01*
X104529263Y-77830625D01*
X104532062Y-77831534D01*
X104563609Y-77842612D01*
X104581851Y-77849018D01*
X104585851Y-77849364D01*
X104586074Y-77849384D01*
X104586079Y-77849384D01*
X104587416Y-77849500D01*
X104587693Y-77849500D01*
X104591719Y-77849840D01*
X104594828Y-77850233D01*
X104599778Y-77851713D01*
X104654883Y-77849548D01*
X104657336Y-77849500D01*
X105352522Y-77849500D01*
X105396716Y-77867806D01*
X105646906Y-78117996D01*
X105655215Y-78128284D01*
X105664033Y-78141940D01*
X105687485Y-78160428D01*
X105693347Y-78165049D01*
X105698848Y-78169938D01*
X105702548Y-78173638D01*
X105719465Y-78185727D01*
X105721818Y-78187494D01*
X105737028Y-78199484D01*
X105763251Y-78220156D01*
X105768128Y-78221869D01*
X105771594Y-78223774D01*
X105775133Y-78225508D01*
X105779338Y-78228513D01*
X105784287Y-78229993D01*
X105784289Y-78229994D01*
X105829867Y-78243625D01*
X105832666Y-78244534D01*
X105865093Y-78255921D01*
X105882455Y-78262018D01*
X105886455Y-78262364D01*
X105886678Y-78262384D01*
X105886683Y-78262384D01*
X105888020Y-78262500D01*
X105888297Y-78262500D01*
X105892323Y-78262840D01*
X105895432Y-78263233D01*
X105900382Y-78264713D01*
X105955487Y-78262548D01*
X105957940Y-78262500D01*
X107119537Y-78262500D01*
X107132693Y-78263900D01*
X107148577Y-78267320D01*
X107153706Y-78266713D01*
X107153709Y-78266713D01*
X107185642Y-78262933D01*
X107192988Y-78262500D01*
X107198225Y-78262500D01*
X107200766Y-78262077D01*
X107200778Y-78262076D01*
X107218743Y-78259085D01*
X107221651Y-78258671D01*
X107274042Y-78252470D01*
X107278699Y-78250234D01*
X107282480Y-78249135D01*
X107286227Y-78247853D01*
X107291327Y-78247004D01*
X107295873Y-78244551D01*
X107295876Y-78244550D01*
X107337762Y-78221949D01*
X107340387Y-78220612D01*
X107384387Y-78199484D01*
X107384389Y-78199483D01*
X107387933Y-78197781D01*
X107390942Y-78195252D01*
X107390944Y-78195250D01*
X107391174Y-78195056D01*
X107392209Y-78194186D01*
X107392407Y-78193988D01*
X107395487Y-78191388D01*
X107397968Y-78189463D01*
X107402515Y-78187010D01*
X107439949Y-78146514D01*
X107441650Y-78144745D01*
X107522589Y-78063806D01*
X107566783Y-78045500D01*
X109598000Y-78045500D01*
X109642194Y-78063806D01*
X109660500Y-78108000D01*
X109660500Y-80872240D01*
X109642194Y-80916434D01*
X109598000Y-80934740D01*
X109568757Y-80927476D01*
X109551774Y-80918484D01*
X109398133Y-80879892D01*
X109394368Y-80879872D01*
X109394366Y-80879872D01*
X109315796Y-80879461D01*
X109239721Y-80879062D01*
X109236057Y-80879942D01*
X109236054Y-80879942D01*
X109166448Y-80896653D01*
X109085684Y-80916043D01*
X109082342Y-80917768D01*
X109082339Y-80917769D01*
X109049459Y-80934740D01*
X108944914Y-80988700D01*
X108942076Y-80991175D01*
X108942077Y-80991175D01*
X108839333Y-81080805D01*
X108825539Y-81092838D01*
X108823373Y-81095920D01*
X108823372Y-81095921D01*
X108800870Y-81127938D01*
X108760481Y-81153569D01*
X108749736Y-81154500D01*
X108133082Y-81154500D01*
X108088888Y-81136194D01*
X107527806Y-80575112D01*
X107509500Y-80530918D01*
X107509500Y-79616772D01*
X107510900Y-79603617D01*
X107513233Y-79592780D01*
X107514321Y-79587728D01*
X107513176Y-79578049D01*
X107509933Y-79550657D01*
X107509500Y-79543310D01*
X107509500Y-79538080D01*
X107508321Y-79530996D01*
X107506088Y-79517576D01*
X107505673Y-79514663D01*
X107500077Y-79467393D01*
X107499470Y-79462263D01*
X107497233Y-79457604D01*
X107496133Y-79453820D01*
X107494853Y-79450080D01*
X107494004Y-79444978D01*
X107491551Y-79440432D01*
X107491550Y-79440429D01*
X107468949Y-79398543D01*
X107467612Y-79395918D01*
X107446484Y-79351919D01*
X107444781Y-79348372D01*
X107441187Y-79344097D01*
X107440987Y-79343897D01*
X107438387Y-79340816D01*
X107436462Y-79338335D01*
X107434010Y-79333790D01*
X107393514Y-79296356D01*
X107391745Y-79294655D01*
X106708094Y-78611004D01*
X106699785Y-78600716D01*
X106690967Y-78587060D01*
X106661653Y-78563951D01*
X106656152Y-78559062D01*
X106652452Y-78555362D01*
X106650358Y-78553866D01*
X106650355Y-78553863D01*
X106635533Y-78543271D01*
X106633179Y-78541504D01*
X106595807Y-78512043D01*
X106591749Y-78508844D01*
X106586873Y-78507132D01*
X106583372Y-78505207D01*
X106579861Y-78503487D01*
X106575662Y-78500486D01*
X106570720Y-78499008D01*
X106570716Y-78499006D01*
X106534550Y-78488191D01*
X106525096Y-78485363D01*
X106522302Y-78484455D01*
X106476257Y-78468285D01*
X106476253Y-78468284D01*
X106472545Y-78466982D01*
X106468545Y-78466636D01*
X106468322Y-78466616D01*
X106468317Y-78466616D01*
X106466980Y-78466500D01*
X106466703Y-78466500D01*
X106462677Y-78466160D01*
X106459568Y-78465767D01*
X106454618Y-78464287D01*
X106399514Y-78466452D01*
X106397060Y-78466500D01*
X103574111Y-78466500D01*
X103529917Y-78448194D01*
X103511611Y-78404000D01*
X103529917Y-78359806D01*
X103533521Y-78356475D01*
X103568948Y-78326217D01*
X103568949Y-78326216D01*
X103571814Y-78323769D01*
X103574009Y-78320714D01*
X103574012Y-78320711D01*
X103662055Y-78198186D01*
X103662056Y-78198184D01*
X103664255Y-78195124D01*
X103723342Y-78048141D01*
X103745662Y-77891307D01*
X103745807Y-77877500D01*
X103726776Y-77720233D01*
X103670780Y-77572046D01*
X103581053Y-77441492D01*
X103505051Y-77373777D01*
X103465587Y-77338616D01*
X103465585Y-77338615D01*
X103462775Y-77336111D01*
X103374754Y-77289506D01*
X103344263Y-77252648D01*
X103341500Y-77234271D01*
X103341500Y-75889148D01*
X103359806Y-75844954D01*
X103801954Y-75402806D01*
X103846148Y-75384500D01*
X106395290Y-75384500D01*
X106402635Y-75384933D01*
X106440438Y-75389407D01*
X106445032Y-75388568D01*
X106445033Y-75388568D01*
X106499674Y-75378589D01*
X106501610Y-75378267D01*
X106506146Y-75377585D01*
X106561151Y-75369315D01*
X106565362Y-75367293D01*
X106567453Y-75366650D01*
X106567730Y-75366582D01*
X106567952Y-75366510D01*
X106568226Y-75366398D01*
X106570285Y-75365693D01*
X106574883Y-75364853D01*
X106628316Y-75337097D01*
X106630061Y-75336225D01*
X106680141Y-75312177D01*
X106680143Y-75312176D01*
X106684353Y-75310154D01*
X106687782Y-75306984D01*
X106689586Y-75305758D01*
X106690095Y-75305454D01*
X106693000Y-75303497D01*
X106696166Y-75301852D01*
X106701254Y-75297506D01*
X106739733Y-75259027D01*
X106741502Y-75257326D01*
X106781281Y-75220555D01*
X106781282Y-75220553D01*
X106784712Y-75217383D01*
X106787058Y-75213344D01*
X106789980Y-75209697D01*
X106790273Y-75209932D01*
X106795094Y-75203666D01*
X107979268Y-74019492D01*
X107984768Y-74014604D01*
X108011000Y-73993924D01*
X108014666Y-73991034D01*
X108048910Y-73941487D01*
X108050044Y-73939900D01*
X108068287Y-73915201D01*
X108085816Y-73891469D01*
X108087364Y-73887062D01*
X108088389Y-73885126D01*
X108088538Y-73884880D01*
X108088641Y-73884678D01*
X108088758Y-73884399D01*
X108089712Y-73882451D01*
X108092371Y-73878604D01*
X108110532Y-73821178D01*
X108111152Y-73819321D01*
X108129552Y-73766926D01*
X108131100Y-73762519D01*
X108131283Y-73757854D01*
X108131694Y-73755702D01*
X108131835Y-73755141D01*
X108132506Y-73751700D01*
X108133582Y-73748296D01*
X108133862Y-73744739D01*
X108134010Y-73742864D01*
X108134011Y-73742851D01*
X108134107Y-73741625D01*
X108134107Y-73687209D01*
X108134155Y-73684756D01*
X108136282Y-73630622D01*
X108136282Y-73630620D01*
X108136465Y-73625956D01*
X108135268Y-73621441D01*
X108134755Y-73616799D01*
X108135129Y-73616758D01*
X108134107Y-73608920D01*
X108134107Y-72113007D01*
X108156015Y-72065483D01*
X108162058Y-72060322D01*
X108162061Y-72060319D01*
X108164921Y-72057876D01*
X108167116Y-72054821D01*
X108167119Y-72054818D01*
X108255162Y-71932293D01*
X108255163Y-71932291D01*
X108257362Y-71929231D01*
X108316449Y-71782248D01*
X108329006Y-71694018D01*
X108338482Y-71627433D01*
X108338482Y-71627428D01*
X108338769Y-71625414D01*
X108338914Y-71611607D01*
X108319883Y-71454340D01*
X108263887Y-71306153D01*
X108174160Y-71175599D01*
X108137661Y-71143080D01*
X108058694Y-71072723D01*
X108058692Y-71072722D01*
X108055882Y-71070218D01*
X107915881Y-70996091D01*
X107762240Y-70957499D01*
X107758474Y-70957479D01*
X107758472Y-70957479D01*
X107721672Y-70957286D01*
X107677574Y-70938749D01*
X107659500Y-70894787D01*
X107659500Y-61411148D01*
X107677806Y-61366954D01*
X107919617Y-61125143D01*
X107964792Y-61106845D01*
X108015147Y-61107636D01*
X108015149Y-61107636D01*
X108018916Y-61107695D01*
X108173332Y-61072329D01*
X108176696Y-61070637D01*
X108176699Y-61070636D01*
X108243611Y-61036983D01*
X108314855Y-61001151D01*
X108317720Y-60998704D01*
X108317723Y-60998702D01*
X108432452Y-60900713D01*
X108435314Y-60898269D01*
X108437509Y-60895214D01*
X108437512Y-60895211D01*
X108525555Y-60772686D01*
X108525556Y-60772684D01*
X108527755Y-60769624D01*
X108586842Y-60622641D01*
X108602733Y-60510979D01*
X108608875Y-60467826D01*
X108608875Y-60467821D01*
X108609162Y-60465807D01*
X108609307Y-60452000D01*
X108590276Y-60294733D01*
X108534280Y-60146546D01*
X108444553Y-60015992D01*
X108326275Y-59910611D01*
X108186274Y-59836484D01*
X108032633Y-59797892D01*
X108028868Y-59797872D01*
X108028866Y-59797872D01*
X107950296Y-59797461D01*
X107874221Y-59797062D01*
X107870557Y-59797942D01*
X107870554Y-59797942D01*
X107800948Y-59814653D01*
X107720184Y-59834043D01*
X107716842Y-59835768D01*
X107716839Y-59835769D01*
X107676008Y-59856844D01*
X107579414Y-59906700D01*
X107460039Y-60010838D01*
X107457873Y-60013920D01*
X107457872Y-60013921D01*
X107454233Y-60019099D01*
X107368950Y-60140444D01*
X107367581Y-60143955D01*
X107367580Y-60143957D01*
X107313083Y-60283736D01*
X107311406Y-60288037D01*
X107310914Y-60291774D01*
X107299243Y-60380428D01*
X107290729Y-60445096D01*
X107290267Y-60445035D01*
X107272903Y-60486337D01*
X107166194Y-60593046D01*
X107122000Y-60611352D01*
X107077806Y-60593046D01*
X107059500Y-60548852D01*
X107059500Y-55673164D01*
X107060900Y-55660009D01*
X107063232Y-55649176D01*
X107064320Y-55644124D01*
X107061904Y-55623706D01*
X107059933Y-55607059D01*
X107059500Y-55599713D01*
X107059500Y-55594476D01*
X107059077Y-55591935D01*
X107059076Y-55591923D01*
X107056085Y-55573958D01*
X107055669Y-55571039D01*
X107055280Y-55567747D01*
X107049470Y-55518659D01*
X107047234Y-55514002D01*
X107046135Y-55510221D01*
X107044853Y-55506474D01*
X107044004Y-55501374D01*
X107041551Y-55496828D01*
X107041550Y-55496825D01*
X107018949Y-55454939D01*
X107017612Y-55452314D01*
X106996484Y-55408314D01*
X106996483Y-55408312D01*
X106994781Y-55404768D01*
X106991186Y-55400492D01*
X106990988Y-55400294D01*
X106988388Y-55397214D01*
X106986463Y-55394733D01*
X106984010Y-55390186D01*
X106943514Y-55352752D01*
X106941745Y-55351051D01*
X105965698Y-54375004D01*
X105957389Y-54364716D01*
X105948571Y-54351060D01*
X105919257Y-54327951D01*
X105913756Y-54323062D01*
X105910056Y-54319362D01*
X105907962Y-54317866D01*
X105907959Y-54317863D01*
X105893137Y-54307271D01*
X105890783Y-54305504D01*
X105853411Y-54276043D01*
X105849353Y-54272844D01*
X105844477Y-54271132D01*
X105840976Y-54269207D01*
X105837465Y-54267487D01*
X105833266Y-54264486D01*
X105828324Y-54263008D01*
X105828320Y-54263006D01*
X105792154Y-54252191D01*
X105782700Y-54249363D01*
X105779906Y-54248455D01*
X105733861Y-54232285D01*
X105733857Y-54232284D01*
X105730149Y-54230982D01*
X105726149Y-54230636D01*
X105725926Y-54230616D01*
X105725921Y-54230616D01*
X105724584Y-54230500D01*
X105724307Y-54230500D01*
X105720281Y-54230160D01*
X105717172Y-54229767D01*
X105712222Y-54228287D01*
X105657118Y-54230452D01*
X105654664Y-54230500D01*
X102037082Y-54230500D01*
X101992888Y-54212194D01*
X101235806Y-53455112D01*
X101217500Y-53410918D01*
X101217500Y-51355164D01*
X101218900Y-51342009D01*
X101221232Y-51331176D01*
X101222320Y-51326124D01*
X101217933Y-51289061D01*
X101217500Y-51281714D01*
X101217500Y-51276476D01*
X101217077Y-51273935D01*
X101217076Y-51273923D01*
X101214083Y-51255946D01*
X101213667Y-51253028D01*
X101213126Y-51248451D01*
X101207469Y-51200659D01*
X101205233Y-51196003D01*
X101204121Y-51192174D01*
X101202852Y-51188467D01*
X101202004Y-51183374D01*
X101199551Y-51178827D01*
X101176945Y-51136930D01*
X101175608Y-51134307D01*
X101154480Y-51090309D01*
X101152780Y-51086768D01*
X101149186Y-51082492D01*
X101148990Y-51082296D01*
X101146385Y-51079211D01*
X101144465Y-51076735D01*
X101142010Y-51072186D01*
X101101514Y-51034752D01*
X101099745Y-51033051D01*
X100631698Y-50565004D01*
X100623389Y-50554716D01*
X100614571Y-50541060D01*
X100585257Y-50517951D01*
X100579756Y-50513062D01*
X100576056Y-50509362D01*
X100573962Y-50507866D01*
X100573959Y-50507863D01*
X100559137Y-50497271D01*
X100556783Y-50495504D01*
X100519411Y-50466043D01*
X100515353Y-50462844D01*
X100510477Y-50461132D01*
X100506976Y-50459207D01*
X100503465Y-50457487D01*
X100499266Y-50454486D01*
X100494324Y-50453008D01*
X100494320Y-50453006D01*
X100458154Y-50442191D01*
X100448700Y-50439363D01*
X100445906Y-50438455D01*
X100399861Y-50422285D01*
X100399857Y-50422284D01*
X100396149Y-50420982D01*
X100392149Y-50420636D01*
X100391926Y-50420616D01*
X100391921Y-50420616D01*
X100390584Y-50420500D01*
X100390307Y-50420500D01*
X100386281Y-50420160D01*
X100383172Y-50419767D01*
X100378222Y-50418287D01*
X100323118Y-50420452D01*
X100320664Y-50420500D01*
X98873306Y-50420500D01*
X98829112Y-50402194D01*
X98817251Y-50385643D01*
X98737044Y-50222999D01*
X98737043Y-50222998D01*
X98735776Y-50220428D01*
X98734058Y-50218127D01*
X98616037Y-50060078D01*
X98616036Y-50060076D01*
X98614320Y-50057779D01*
X98465258Y-49919987D01*
X98293581Y-49811667D01*
X98176600Y-49764996D01*
X98107696Y-49737506D01*
X98105039Y-49736446D01*
X98102233Y-49735888D01*
X98102230Y-49735887D01*
X97908752Y-49697402D01*
X97908750Y-49697402D01*
X97905946Y-49696844D01*
X97810353Y-49695593D01*
X97705833Y-49694224D01*
X97705828Y-49694224D01*
X97702971Y-49694187D01*
X97700151Y-49694672D01*
X97700146Y-49694672D01*
X97593009Y-49713082D01*
X97502910Y-49728564D01*
X97500222Y-49729556D01*
X97500217Y-49729557D01*
X97315151Y-49797832D01*
X97315148Y-49797833D01*
X97312463Y-49798824D01*
X97138010Y-49902612D01*
X96985392Y-50036455D01*
X96983616Y-50038708D01*
X96983615Y-50038709D01*
X96886082Y-50162429D01*
X96844346Y-50185803D01*
X96798307Y-50172818D01*
X96774933Y-50131082D01*
X96774500Y-50123736D01*
X96774500Y-48933694D01*
X96792806Y-48889500D01*
X96837000Y-48871194D01*
X96881194Y-48889500D01*
X96888040Y-48897623D01*
X96946533Y-48980389D01*
X97091938Y-49122035D01*
X97260720Y-49234812D01*
X97363096Y-49278796D01*
X97444588Y-49313808D01*
X97444590Y-49313809D01*
X97447228Y-49314942D01*
X97547641Y-49337663D01*
X97642426Y-49359111D01*
X97642429Y-49359111D01*
X97645216Y-49359742D01*
X97735164Y-49363276D01*
X97845193Y-49367600D01*
X97845197Y-49367600D01*
X97848053Y-49367712D01*
X97862068Y-49365680D01*
X97911111Y-49358569D01*
X98048945Y-49338584D01*
X98241165Y-49273334D01*
X98418276Y-49174147D01*
X98574345Y-49044345D01*
X98704147Y-48888276D01*
X98803334Y-48711165D01*
X98813265Y-48681910D01*
X98844805Y-48645945D01*
X98872448Y-48639500D01*
X99638918Y-48639500D01*
X99683112Y-48657806D01*
G37*
%TD.AperFunction*%
%TA.AperFunction,Conductor*%
G36*
X105382194Y-57039806D02*
G01*
X105400500Y-57084000D01*
X105400500Y-65576581D01*
X105382194Y-65620775D01*
X105341595Y-65637468D01*
X105341732Y-65638649D01*
X105337991Y-65639082D01*
X105334221Y-65639062D01*
X105330557Y-65639942D01*
X105330554Y-65639942D01*
X105260948Y-65656653D01*
X105180184Y-65676043D01*
X105176842Y-65677768D01*
X105176839Y-65677769D01*
X105122765Y-65705679D01*
X105039414Y-65748700D01*
X104920039Y-65852838D01*
X104917873Y-65855920D01*
X104917872Y-65855921D01*
X104873068Y-65919670D01*
X104828950Y-65982444D01*
X104827581Y-65985955D01*
X104827580Y-65985957D01*
X104799101Y-66059004D01*
X104771406Y-66130037D01*
X104770914Y-66133774D01*
X104751221Y-66283355D01*
X104751221Y-66283359D01*
X104750729Y-66287096D01*
X104768113Y-66444553D01*
X104822553Y-66593319D01*
X104824656Y-66596448D01*
X104903442Y-66713694D01*
X104910908Y-66724805D01*
X105028076Y-66831419D01*
X105031385Y-66833216D01*
X105031387Y-66833217D01*
X105114635Y-66878417D01*
X105167293Y-66907008D01*
X105170940Y-66907965D01*
X105170943Y-66907966D01*
X105296435Y-66940888D01*
X105320522Y-66947207D01*
X105405157Y-66948536D01*
X105475147Y-66949636D01*
X105475149Y-66949636D01*
X105478916Y-66949695D01*
X105633332Y-66914329D01*
X105636696Y-66912637D01*
X105636699Y-66912636D01*
X105713846Y-66873835D01*
X105759919Y-66850663D01*
X105807625Y-66847160D01*
X105843836Y-66878417D01*
X105850500Y-66906499D01*
X105850500Y-67460804D01*
X105832194Y-67504998D01*
X105788000Y-67523304D01*
X105758754Y-67516039D01*
X105649602Y-67458246D01*
X105649601Y-67458246D01*
X105646274Y-67456484D01*
X105492633Y-67417892D01*
X105488868Y-67417872D01*
X105488866Y-67417872D01*
X105410296Y-67417461D01*
X105334221Y-67417062D01*
X105330557Y-67417942D01*
X105330554Y-67417942D01*
X105260948Y-67434653D01*
X105180184Y-67454043D01*
X105176842Y-67455768D01*
X105176839Y-67455769D01*
X105136008Y-67476844D01*
X105039414Y-67526700D01*
X104920039Y-67630838D01*
X104828950Y-67760444D01*
X104827581Y-67763955D01*
X104827580Y-67763957D01*
X104773083Y-67903736D01*
X104771406Y-67908037D01*
X104770914Y-67911774D01*
X104751221Y-68061355D01*
X104751221Y-68061359D01*
X104750729Y-68065096D01*
X104768113Y-68222553D01*
X104822553Y-68371319D01*
X104858685Y-68425089D01*
X104894019Y-68477671D01*
X104910908Y-68502805D01*
X104913695Y-68505341D01*
X105010063Y-68593029D01*
X105030500Y-68639256D01*
X105030500Y-68986813D01*
X105012194Y-69031007D01*
X104083008Y-69960194D01*
X104038814Y-69978500D01*
X103679164Y-69978500D01*
X103666009Y-69977100D01*
X103655170Y-69974766D01*
X103655167Y-69974766D01*
X103650124Y-69973680D01*
X103647661Y-69973972D01*
X103605419Y-69954092D01*
X103589196Y-69914485D01*
X103588114Y-69886948D01*
X103588066Y-69884494D01*
X103588066Y-68075334D01*
X103589466Y-68062179D01*
X103591798Y-68051346D01*
X103592886Y-68046294D01*
X103588499Y-68009229D01*
X103588066Y-68001883D01*
X103588066Y-67996646D01*
X103587643Y-67994105D01*
X103587642Y-67994093D01*
X103584651Y-67976128D01*
X103584235Y-67973209D01*
X103578643Y-67925959D01*
X103578036Y-67920829D01*
X103575800Y-67916172D01*
X103574701Y-67912391D01*
X103573419Y-67908645D01*
X103572570Y-67903544D01*
X103547509Y-67857098D01*
X103546177Y-67854483D01*
X103525049Y-67810483D01*
X103525046Y-67810479D01*
X103523346Y-67806938D01*
X103519752Y-67802662D01*
X103519556Y-67802466D01*
X103516951Y-67799381D01*
X103515031Y-67796905D01*
X103512576Y-67792356D01*
X103472080Y-67754922D01*
X103470311Y-67753221D01*
X102759806Y-67042716D01*
X102741500Y-66998522D01*
X102741500Y-64817168D01*
X102742900Y-64804013D01*
X102745233Y-64793176D01*
X102746321Y-64788124D01*
X102741933Y-64751053D01*
X102741500Y-64743706D01*
X102741500Y-64738476D01*
X102741076Y-64735926D01*
X102738088Y-64717972D01*
X102737673Y-64715059D01*
X102732077Y-64667789D01*
X102731470Y-64662659D01*
X102729233Y-64658000D01*
X102728133Y-64654216D01*
X102726853Y-64650476D01*
X102726004Y-64645374D01*
X102723551Y-64640828D01*
X102723550Y-64640825D01*
X102700949Y-64598939D01*
X102699612Y-64596314D01*
X102681107Y-64557777D01*
X102676781Y-64548768D01*
X102673187Y-64544493D01*
X102672987Y-64544293D01*
X102670387Y-64541212D01*
X102668462Y-64538731D01*
X102666010Y-64534186D01*
X102625514Y-64496752D01*
X102623745Y-64495051D01*
X102447806Y-64319112D01*
X102429500Y-64274918D01*
X102429500Y-57252668D01*
X102447806Y-57208474D01*
X102492000Y-57190168D01*
X102521822Y-57197742D01*
X102627293Y-57255008D01*
X102630940Y-57255965D01*
X102630943Y-57255966D01*
X102776874Y-57294250D01*
X102780522Y-57295207D01*
X102865157Y-57296536D01*
X102935147Y-57297636D01*
X102935149Y-57297636D01*
X102938916Y-57297695D01*
X103093332Y-57262329D01*
X103096696Y-57260637D01*
X103096699Y-57260636D01*
X103163611Y-57226983D01*
X103234855Y-57191151D01*
X103237720Y-57188704D01*
X103237723Y-57188702D01*
X103352452Y-57090713D01*
X103355314Y-57088269D01*
X103384590Y-57047527D01*
X103425242Y-57022322D01*
X103435343Y-57021500D01*
X105338000Y-57021500D01*
X105382194Y-57039806D01*
G37*
%TD.AperFunction*%
%TA.AperFunction,Conductor*%
G36*
X113165787Y-46991709D02*
G01*
X113221581Y-46992672D01*
X113233487Y-46994027D01*
X113236571Y-46994682D01*
X113395437Y-47028425D01*
X113406862Y-47032026D01*
X113559278Y-47096705D01*
X113569802Y-47102419D01*
X113672345Y-47171578D01*
X113707065Y-47194995D01*
X113716312Y-47202617D01*
X113833383Y-47319688D01*
X113841006Y-47328936D01*
X113856370Y-47351717D01*
X113865904Y-47398592D01*
X113839499Y-47438480D01*
X113792624Y-47448014D01*
X113762130Y-47432559D01*
X113705258Y-47379987D01*
X113533581Y-47271667D01*
X113360507Y-47202617D01*
X113347696Y-47197506D01*
X113345039Y-47196446D01*
X113342233Y-47195888D01*
X113342230Y-47195887D01*
X113148752Y-47157402D01*
X113148750Y-47157402D01*
X113145946Y-47156844D01*
X113050353Y-47155593D01*
X112945833Y-47154224D01*
X112945828Y-47154224D01*
X112942971Y-47154187D01*
X112940151Y-47154672D01*
X112940146Y-47154672D01*
X112823751Y-47174673D01*
X112742910Y-47188564D01*
X112740222Y-47189556D01*
X112740217Y-47189557D01*
X112555151Y-47257832D01*
X112555148Y-47257833D01*
X112552463Y-47258824D01*
X112550003Y-47260287D01*
X112550002Y-47260288D01*
X112544059Y-47263824D01*
X112378010Y-47362612D01*
X112350274Y-47386936D01*
X112254205Y-47471187D01*
X112225392Y-47496455D01*
X112223616Y-47498708D01*
X112223615Y-47498709D01*
X112202563Y-47525414D01*
X112099720Y-47655869D01*
X112005203Y-47835515D01*
X112004355Y-47838245D01*
X112003256Y-47840899D01*
X112001762Y-47840280D01*
X111974319Y-47873301D01*
X111945198Y-47880500D01*
X111807164Y-47880500D01*
X111794009Y-47879100D01*
X111790232Y-47878287D01*
X111778124Y-47875680D01*
X111772995Y-47876287D01*
X111772992Y-47876287D01*
X111741061Y-47880067D01*
X111733714Y-47880500D01*
X111728476Y-47880500D01*
X111725935Y-47880923D01*
X111725923Y-47880924D01*
X111707946Y-47883917D01*
X111705043Y-47884331D01*
X111652659Y-47890531D01*
X111648003Y-47892767D01*
X111644174Y-47893879D01*
X111640467Y-47895148D01*
X111635374Y-47895996D01*
X111630829Y-47898448D01*
X111630827Y-47898449D01*
X111588930Y-47921055D01*
X111586307Y-47922392D01*
X111538768Y-47945220D01*
X111534492Y-47948814D01*
X111534296Y-47949010D01*
X111531211Y-47951615D01*
X111528735Y-47953535D01*
X111524186Y-47955990D01*
X111520677Y-47959786D01*
X111486752Y-47996486D01*
X111485051Y-47998255D01*
X110255004Y-49228302D01*
X110244716Y-49236611D01*
X110231060Y-49245429D01*
X110227863Y-49249485D01*
X110207951Y-49274743D01*
X110203062Y-49280244D01*
X110199362Y-49283944D01*
X110197866Y-49286038D01*
X110197863Y-49286041D01*
X110187271Y-49300863D01*
X110185504Y-49303217D01*
X110158350Y-49337663D01*
X110152844Y-49344647D01*
X110151132Y-49349523D01*
X110149207Y-49353024D01*
X110147487Y-49356535D01*
X110144486Y-49360734D01*
X110143008Y-49365676D01*
X110143006Y-49365680D01*
X110129366Y-49411292D01*
X110128455Y-49414094D01*
X110112285Y-49460139D01*
X110112284Y-49460143D01*
X110110982Y-49463851D01*
X110110500Y-49469416D01*
X110110500Y-49469693D01*
X110110160Y-49473719D01*
X110109767Y-49476828D01*
X110108287Y-49481778D01*
X110108490Y-49486939D01*
X110110452Y-49536882D01*
X110110500Y-49539336D01*
X110110500Y-51378918D01*
X110092194Y-51423112D01*
X109589112Y-51926194D01*
X109544918Y-51944500D01*
X108423049Y-51944500D01*
X108378855Y-51926194D01*
X108360549Y-51882000D01*
X108378855Y-51837806D01*
X108402957Y-51822817D01*
X108416165Y-51818334D01*
X108593276Y-51719147D01*
X108749345Y-51589345D01*
X108879147Y-51433276D01*
X108978334Y-51256165D01*
X109043584Y-51063945D01*
X109072712Y-50863053D01*
X109074232Y-50805000D01*
X109071303Y-50773116D01*
X109055920Y-50605714D01*
X109055658Y-50602859D01*
X109054879Y-50600096D01*
X109001335Y-50410244D01*
X109001333Y-50410240D01*
X109000557Y-50407487D01*
X108910776Y-50225428D01*
X108908962Y-50222999D01*
X108791037Y-50065078D01*
X108791036Y-50065076D01*
X108789320Y-50062779D01*
X108640258Y-49924987D01*
X108468581Y-49816667D01*
X108280039Y-49741446D01*
X108277233Y-49740888D01*
X108277230Y-49740887D01*
X108083752Y-49702402D01*
X108083750Y-49702402D01*
X108080946Y-49701844D01*
X107985353Y-49700593D01*
X107880833Y-49699224D01*
X107880828Y-49699224D01*
X107877971Y-49699187D01*
X107875151Y-49699672D01*
X107875146Y-49699672D01*
X107797107Y-49713082D01*
X107677910Y-49733564D01*
X107675224Y-49734555D01*
X107675217Y-49734557D01*
X107490151Y-49802832D01*
X107490148Y-49802833D01*
X107487463Y-49803824D01*
X107313010Y-49907612D01*
X107287558Y-49929933D01*
X107168250Y-50034564D01*
X107160392Y-50041455D01*
X107034720Y-50200869D01*
X106940203Y-50380515D01*
X106939356Y-50383242D01*
X106939355Y-50383245D01*
X106886113Y-50554713D01*
X106880007Y-50574378D01*
X106856148Y-50775964D01*
X106856336Y-50778828D01*
X106868909Y-50970659D01*
X106869424Y-50978522D01*
X106870130Y-50981302D01*
X106897815Y-51090309D01*
X106919392Y-51175269D01*
X107004377Y-51359616D01*
X107121533Y-51525389D01*
X107123587Y-51527390D01*
X107123588Y-51527391D01*
X107152051Y-51555118D01*
X107266938Y-51667035D01*
X107435720Y-51779812D01*
X107496579Y-51805959D01*
X107539911Y-51824576D01*
X107573291Y-51858840D01*
X107572664Y-51906671D01*
X107538400Y-51940051D01*
X107515240Y-51944500D01*
X105883049Y-51944500D01*
X105838855Y-51926194D01*
X105820549Y-51882000D01*
X105838855Y-51837806D01*
X105862957Y-51822817D01*
X105876165Y-51818334D01*
X106053276Y-51719147D01*
X106209345Y-51589345D01*
X106339147Y-51433276D01*
X106438334Y-51256165D01*
X106503584Y-51063945D01*
X106532712Y-50863053D01*
X106534232Y-50805000D01*
X106531303Y-50773116D01*
X106515920Y-50605714D01*
X106515658Y-50602859D01*
X106514879Y-50600096D01*
X106461335Y-50410244D01*
X106461333Y-50410240D01*
X106460557Y-50407487D01*
X106370776Y-50225428D01*
X106368962Y-50222999D01*
X106251037Y-50065078D01*
X106251036Y-50065076D01*
X106249320Y-50062779D01*
X106100258Y-49924987D01*
X105928581Y-49816667D01*
X105740039Y-49741446D01*
X105737233Y-49740888D01*
X105737230Y-49740887D01*
X105543752Y-49702402D01*
X105543750Y-49702402D01*
X105540946Y-49701844D01*
X105445353Y-49700593D01*
X105340833Y-49699224D01*
X105340828Y-49699224D01*
X105337971Y-49699187D01*
X105335151Y-49699672D01*
X105335146Y-49699672D01*
X105257107Y-49713082D01*
X105137910Y-49733564D01*
X104994536Y-49786458D01*
X104946737Y-49784580D01*
X104928709Y-49772015D01*
X104451698Y-49295004D01*
X104443389Y-49284716D01*
X104434571Y-49271060D01*
X104405257Y-49247951D01*
X104399756Y-49243062D01*
X104396056Y-49239362D01*
X104393962Y-49237866D01*
X104393959Y-49237863D01*
X104379137Y-49227271D01*
X104376783Y-49225504D01*
X104339411Y-49196043D01*
X104335353Y-49192844D01*
X104330477Y-49191132D01*
X104326976Y-49189207D01*
X104323465Y-49187487D01*
X104319266Y-49184486D01*
X104314324Y-49183008D01*
X104314320Y-49183006D01*
X104278154Y-49172191D01*
X104268700Y-49169363D01*
X104265906Y-49168455D01*
X104219861Y-49152285D01*
X104219857Y-49152284D01*
X104216149Y-49150982D01*
X104212149Y-49150636D01*
X104211926Y-49150616D01*
X104211921Y-49150616D01*
X104210584Y-49150500D01*
X104210307Y-49150500D01*
X104206281Y-49150160D01*
X104203172Y-49149767D01*
X104198222Y-49148287D01*
X104143118Y-49150452D01*
X104140664Y-49150500D01*
X103718487Y-49150500D01*
X103674293Y-49132194D01*
X103655987Y-49088000D01*
X103670434Y-49048036D01*
X103799147Y-48893276D01*
X103898334Y-48716165D01*
X103963584Y-48523945D01*
X103992712Y-48323053D01*
X103994232Y-48265000D01*
X103991565Y-48235964D01*
X104316148Y-48235964D01*
X104319395Y-48285501D01*
X104327190Y-48404431D01*
X104329424Y-48438522D01*
X104379392Y-48635269D01*
X104464377Y-48819616D01*
X104581533Y-48985389D01*
X104583587Y-48987390D01*
X104583588Y-48987391D01*
X104644924Y-49047141D01*
X104726938Y-49127035D01*
X104895720Y-49239812D01*
X104978549Y-49275398D01*
X105079588Y-49318808D01*
X105079590Y-49318809D01*
X105082228Y-49319942D01*
X105173475Y-49340589D01*
X105277426Y-49364111D01*
X105277429Y-49364111D01*
X105280216Y-49364742D01*
X105370164Y-49368276D01*
X105480193Y-49372600D01*
X105480197Y-49372600D01*
X105483053Y-49372712D01*
X105683945Y-49343584D01*
X105876165Y-49278334D01*
X106053276Y-49179147D01*
X106209345Y-49049345D01*
X106339147Y-48893276D01*
X106438334Y-48716165D01*
X106503584Y-48523945D01*
X106520762Y-48405471D01*
X106867759Y-48405471D01*
X106869732Y-48435581D01*
X106870626Y-48441224D01*
X106919159Y-48632323D01*
X106921066Y-48637707D01*
X107003612Y-48816761D01*
X107006468Y-48821708D01*
X107120257Y-48982717D01*
X107123970Y-48987065D01*
X107265203Y-49124647D01*
X107269636Y-49128236D01*
X107433576Y-49237778D01*
X107438598Y-49240504D01*
X107619744Y-49318331D01*
X107625183Y-49320098D01*
X107817492Y-49363614D01*
X107823141Y-49364357D01*
X107825577Y-49364453D01*
X107833827Y-49361409D01*
X107838000Y-49351869D01*
X107838000Y-49349779D01*
X108092000Y-49349779D01*
X108095641Y-49358569D01*
X108101208Y-49360875D01*
X108220992Y-49343507D01*
X108226541Y-49342175D01*
X108413247Y-49278796D01*
X108418460Y-49276475D01*
X108590492Y-49180133D01*
X108595194Y-49176902D01*
X108746793Y-49050819D01*
X108750819Y-49046793D01*
X108876902Y-48895194D01*
X108880133Y-48890492D01*
X108976475Y-48718460D01*
X108978796Y-48713247D01*
X109042175Y-48526541D01*
X109043507Y-48520992D01*
X109060426Y-48404304D01*
X109058084Y-48395082D01*
X109052904Y-48392000D01*
X108104431Y-48392000D01*
X108095641Y-48395641D01*
X108092000Y-48404431D01*
X108092000Y-49349779D01*
X107838000Y-49349779D01*
X107838000Y-48404431D01*
X107834359Y-48395641D01*
X107825569Y-48392000D01*
X106879307Y-48392000D01*
X106871632Y-48395179D01*
X106867759Y-48405471D01*
X106520762Y-48405471D01*
X106532712Y-48323053D01*
X106534232Y-48265000D01*
X106531303Y-48233116D01*
X106522228Y-48134359D01*
X106521428Y-48125655D01*
X106869707Y-48125655D01*
X106872290Y-48134811D01*
X106877984Y-48138000D01*
X107825569Y-48138000D01*
X107834359Y-48134359D01*
X107838000Y-48125569D01*
X108092000Y-48125569D01*
X108095641Y-48134359D01*
X108104431Y-48138000D01*
X109049629Y-48138000D01*
X109058419Y-48134359D01*
X109061125Y-48127826D01*
X109055426Y-48065805D01*
X109054385Y-48060187D01*
X109000867Y-47870424D01*
X108998824Y-47865102D01*
X108911616Y-47688261D01*
X108908630Y-47683389D01*
X108790664Y-47525414D01*
X108786841Y-47521169D01*
X108642060Y-47387334D01*
X108637525Y-47383854D01*
X108470774Y-47278642D01*
X108465696Y-47276054D01*
X108282553Y-47202988D01*
X108277087Y-47201369D01*
X108104193Y-47166978D01*
X108094861Y-47168834D01*
X108092000Y-47173117D01*
X108092000Y-48125569D01*
X107838000Y-48125569D01*
X107838000Y-47178994D01*
X107834359Y-47170204D01*
X107829214Y-47168073D01*
X107680870Y-47193563D01*
X107675347Y-47195042D01*
X107490367Y-47263285D01*
X107485218Y-47265741D01*
X107315770Y-47366552D01*
X107311148Y-47369911D01*
X107162910Y-47499912D01*
X107158983Y-47504050D01*
X107036913Y-47658895D01*
X107033809Y-47663674D01*
X106941998Y-47838177D01*
X106939819Y-47843437D01*
X106881346Y-48031752D01*
X106880162Y-48037322D01*
X106869707Y-48125655D01*
X106521428Y-48125655D01*
X106515658Y-48062859D01*
X106514879Y-48060096D01*
X106461335Y-47870244D01*
X106461333Y-47870240D01*
X106460557Y-47867487D01*
X106370776Y-47685428D01*
X106368962Y-47682999D01*
X106251037Y-47525078D01*
X106251036Y-47525076D01*
X106249320Y-47522779D01*
X106100258Y-47384987D01*
X105928581Y-47276667D01*
X105740039Y-47201446D01*
X105737233Y-47200888D01*
X105737230Y-47200887D01*
X105543752Y-47162402D01*
X105543750Y-47162402D01*
X105540946Y-47161844D01*
X105445353Y-47160593D01*
X105340833Y-47159224D01*
X105340828Y-47159224D01*
X105337971Y-47159187D01*
X105335151Y-47159672D01*
X105335146Y-47159672D01*
X105222702Y-47178994D01*
X105137910Y-47193564D01*
X105135222Y-47194556D01*
X105135217Y-47194557D01*
X104950151Y-47262832D01*
X104950148Y-47262833D01*
X104947463Y-47263824D01*
X104773010Y-47367612D01*
X104737684Y-47398592D01*
X104628250Y-47494564D01*
X104620392Y-47501455D01*
X104494720Y-47660869D01*
X104400203Y-47840515D01*
X104399356Y-47843242D01*
X104399355Y-47843245D01*
X104346113Y-48014713D01*
X104340007Y-48034378D01*
X104316148Y-48235964D01*
X103991565Y-48235964D01*
X103991303Y-48233116D01*
X103982228Y-48134359D01*
X103975658Y-48062859D01*
X103974879Y-48060096D01*
X103921335Y-47870244D01*
X103921333Y-47870240D01*
X103920557Y-47867487D01*
X103830776Y-47685428D01*
X103828962Y-47682999D01*
X103711037Y-47525078D01*
X103711036Y-47525076D01*
X103709320Y-47522779D01*
X103560258Y-47384987D01*
X103388581Y-47276667D01*
X103200039Y-47201446D01*
X103197233Y-47200888D01*
X103197230Y-47200887D01*
X103003752Y-47162402D01*
X103003750Y-47162402D01*
X103000946Y-47161844D01*
X102905353Y-47160593D01*
X102800833Y-47159224D01*
X102800828Y-47159224D01*
X102797971Y-47159187D01*
X102795151Y-47159672D01*
X102795146Y-47159672D01*
X102682702Y-47178994D01*
X102597910Y-47193564D01*
X102595222Y-47194556D01*
X102595217Y-47194557D01*
X102410151Y-47262832D01*
X102410148Y-47262833D01*
X102407463Y-47263824D01*
X102233010Y-47367612D01*
X102197684Y-47398592D01*
X102088250Y-47494564D01*
X102080392Y-47501455D01*
X101954720Y-47660869D01*
X101860203Y-47840515D01*
X101859356Y-47843242D01*
X101859355Y-47843245D01*
X101806113Y-48014713D01*
X101800007Y-48034378D01*
X101776148Y-48235964D01*
X101779395Y-48285501D01*
X101787190Y-48404431D01*
X101789424Y-48438522D01*
X101839392Y-48635269D01*
X101924377Y-48819616D01*
X102041533Y-48985389D01*
X102043587Y-48987390D01*
X102043588Y-48987391D01*
X102100910Y-49043231D01*
X102119793Y-49087182D01*
X102102067Y-49131612D01*
X102057298Y-49150500D01*
X101275082Y-49150500D01*
X101230888Y-49132194D01*
X100123698Y-48025004D01*
X100115389Y-48014716D01*
X100106571Y-48001060D01*
X100077257Y-47977951D01*
X100071756Y-47973062D01*
X100068056Y-47969362D01*
X100065962Y-47967866D01*
X100065959Y-47967863D01*
X100051137Y-47957271D01*
X100048783Y-47955504D01*
X100011411Y-47926043D01*
X100007353Y-47922844D01*
X100002477Y-47921132D01*
X99998976Y-47919207D01*
X99995465Y-47917487D01*
X99991266Y-47914486D01*
X99986324Y-47913008D01*
X99986320Y-47913006D01*
X99950154Y-47902191D01*
X99940700Y-47899363D01*
X99937906Y-47898455D01*
X99891861Y-47882285D01*
X99891857Y-47882284D01*
X99888149Y-47880982D01*
X99884149Y-47880636D01*
X99883926Y-47880616D01*
X99883921Y-47880616D01*
X99882584Y-47880500D01*
X99882307Y-47880500D01*
X99878281Y-47880160D01*
X99875172Y-47879767D01*
X99870222Y-47878287D01*
X99815118Y-47880452D01*
X99812664Y-47880500D01*
X98873306Y-47880500D01*
X98829112Y-47862194D01*
X98817251Y-47845643D01*
X98737044Y-47682999D01*
X98737043Y-47682998D01*
X98735776Y-47680428D01*
X98723265Y-47663674D01*
X98616037Y-47520078D01*
X98616036Y-47520076D01*
X98614320Y-47517779D01*
X98465258Y-47379987D01*
X98293581Y-47271667D01*
X98120507Y-47202617D01*
X98107696Y-47197506D01*
X98105039Y-47196446D01*
X98102233Y-47195888D01*
X98102230Y-47195887D01*
X97908752Y-47157402D01*
X97908750Y-47157402D01*
X97905946Y-47156844D01*
X97810353Y-47155593D01*
X97705833Y-47154224D01*
X97705828Y-47154224D01*
X97702971Y-47154187D01*
X97700149Y-47154672D01*
X97700148Y-47154672D01*
X97687508Y-47156844D01*
X97540326Y-47182135D01*
X97493671Y-47171578D01*
X97468145Y-47131123D01*
X97478702Y-47084467D01*
X97508468Y-47061770D01*
X97510797Y-47060927D01*
X97608573Y-47025534D01*
X97619194Y-47022717D01*
X97784903Y-46994092D01*
X97802612Y-46993582D01*
X97811494Y-46994594D01*
X97817410Y-46992897D01*
X97817632Y-46992879D01*
X97834553Y-46990500D01*
X113011340Y-46990500D01*
X113018672Y-46990932D01*
X113034282Y-46992776D01*
X113050416Y-46994682D01*
X113056339Y-46993010D01*
X113056342Y-46993010D01*
X113058135Y-46992504D01*
X113076189Y-46990163D01*
X113165787Y-46991709D01*
G37*
%TD.AperFunction*%
%TD*%
M02*
